mtllib Exterior_Doorway.mtl
o object1
g object1
v 0.42500000 0.00000000 -0.36875000
v 0.42500000 0.00000000 -0.35000000
v 0.50000000 0.00000000 -0.35000000
v 0.50000000 0.00000000 -0.75000000
v 0.42500000 0.00000000 -0.75000000
v 0.42500000 0.00000000 -0.73125000
v 0.40000000 0.00000000 -0.73125000
v 0.40000000 0.00000000 -0.36875000
v 0.50000000 1.90000000 -0.40000000
v 0.50000000 2.00000000 -0.40000000
v 0.50000000 2.00000000 -0.70000000
v 0.50000000 1.90000000 -0.70000000
v 0.50000000 1.90000000 -0.75000000
v 0.50000000 1.90000000 -0.35000000
v -0.50000000 1.90000000 -0.70000000
v -0.50000000 2.00000000 -0.70000000
v -0.50000000 1.90000000 -0.40000000
v -0.50000000 2.00000000 -0.40000000
v -0.50000000 1.90000000 -0.75000000
v -0.50000000 0.00000000 -0.75000000
v -0.50000000 0.00000000 -0.35000000
v -0.50000000 1.90000000 -0.35000000
v -0.42500000 0.00000000 -0.35000000
v -0.42500000 0.00000000 -0.36875000
v -0.40000000 0.00000000 -0.36875000
v -0.40000000 0.00000000 -0.73125000
v -0.42500000 0.00000000 -0.73125000
v -0.42500000 0.00000000 -0.75000000
v -0.40000000 1.80000000 -0.73125000
v -0.40000000 1.80000000 -0.36875000
v 0.40000000 1.80000000 -0.73125000
v 0.40000000 1.80000000 -0.36875000
v -0.42500000 1.82500000 -0.73125000
v -0.42500000 1.82500000 -0.75000000
v 0.42500000 1.82500000 -0.73125000
v 0.42500000 1.82500000 -0.75000000
v -0.42500000 1.82500000 -0.36875000
v -0.42500000 1.82500000 -0.35000000
v 0.42500000 1.82500000 -0.36875000
v 0.42500000 1.82500000 -0.35000000
vt 0.04687500 0.75000000
vt 0.00000000 0.75000000
vt 0.00000000 0.00000000
vt 1.00000000 0.00000000
vt 1.00000000 0.75000000
vt 0.95312500 0.75000000
vt 0.95312500 1.00000000
vt 0.04687500 1.00000000
vt 0.87500000 0.95000000
vt 0.87500000 1.00000000
vt 0.12500000 1.00000000
vt 0.12500000 0.95000000
vt 0.00000000 0.95000000
vt 0.00000000 0.00000000
vt 1.00000000 0.00000000
vt 1.00000000 0.95000000
vt 0.00000000 1.00000000
vt 0.00000000 0.00000000
vt 1.00000000 0.00000000
vt 1.00000000 1.00000000
vt 0.87500000 0.95000000
vt 0.87500000 1.00000000
vt 0.12500000 1.00000000
vt 0.12500000 0.95000000
vt 0.00000000 0.95000000
vt 0.00000000 0.00000000
vt 1.00000000 0.00000000
vt 1.00000000 0.95000000
vt 0.00000000 0.25000000
vt 0.04687500 0.25000000
vt 0.04687500 0.00000000
vt 0.95312500 0.00000000
vt 0.95312500 0.25000000
vt 1.00000000 0.25000000
vt 1.00000000 1.00000000
vt 0.00000000 1.00000000
vt 1.00000000 0.00000000
vt 1.00000000 1.00000000
vt 0.00000000 1.00000000
vt 0.00000000 0.00000000
vt 1.00000000 0.00000000
vt 1.00000000 1.00000000
vt 0.00000000 1.00000000
vt 0.00000000 0.00000000
vt 0.00000000 0.00000000
vt 1.00000000 0.00000000
vt 1.00000000 1.00000000
vt 0.00000000 1.00000000
vt 0.00000000 1.00000000
vt 0.00000000 0.00000000
vt 1.00000000 0.00000000
vt 1.00000000 1.00000000
vt 1.00000000 1.00000000
vt 0.00000000 1.00000000
vt 0.00000000 0.00000000
vt 1.00000000 0.00000000
vt 1.00000000 0.00000000
vt 1.00000000 1.00000000
vt 0.00000000 1.00000000
vt 0.00000000 0.00000000
vt 0.00000000 1.00000000
vt 0.00000000 0.00000000
vt 1.00000000 0.00000000
vt 1.00000000 1.00000000
vt 0.00000000 0.00000000
vt 1.00000000 0.00000000
vt 1.00000000 1.00000000
vt 0.00000000 1.00000000
vt 0.00000000 1.00000000
vt 0.00000000 0.00000000
vt 1.00000000 0.00000000
vt 1.00000000 1.00000000
vt 1.00000000 0.00000000
vt 1.00000000 1.00000000
vt 0.00000000 1.00000000
vt 0.00000000 0.00000000
vt 0.96052632 0.92500000
vt 0.96052632 0.07500000
vt 0.00000000 0.07500000
vt 0.00000000 0.00000000
vt 1.00000000 0.00000000
vt 1.00000000 1.00000000
vt 0.00000000 1.00000000
vt 0.00000000 0.92500000
vt 0.00000000 0.00000000
vt 1.00000000 0.00000000
vt 1.00000000 1.00000000
vt 0.00000000 1.00000000
vt 0.98630137 0.97058824
vt 0.98630137 0.02941176
vt 0.00000000 0.02941176
vt 0.00000000 0.00000000
vt 1.00000000 0.00000000
vt 1.00000000 1.00000000
vt 0.00000000 1.00000000
vt 0.00000000 0.97058824
vt 1.00000000 1.00000000
vt 0.00000000 1.00000000
vt 0.00000000 0.00000000
vt 1.00000000 0.00000000
vt 0.98630137 0.97058824
vt 0.98630137 0.02941176
vt 0.00000000 0.02941176
vt 0.00000000 0.00000000
vt 1.00000000 0.00000000
vt 1.00000000 1.00000000
vt 0.00000000 1.00000000
vt 0.00000000 0.97058824
vt 1.00000000 1.00000000
vt 0.00000000 1.00000000
vt 0.00000000 0.00000000
vt 1.00000000 0.00000000
vt 0.96052632 0.92500000
vt 0.96052632 0.07500000
vt 0.00000000 0.07500000
vt 0.00000000 0.00000000
vt 1.00000000 0.00000000
vt 1.00000000 1.00000000
vt 0.00000000 1.00000000
vt 0.00000000 0.92500000
vn 0.00000000 -1.00000000 0.00000000
vn 0.00000000 -1.00000000 0.00000000
vn 0.00000000 -1.00000000 0.00000000
vn 0.00000000 -1.00000000 0.00000000
vn 0.00000000 -1.00000000 0.00000000
vn 0.00000000 -1.00000000 0.00000000
vn 0.00000000 -1.00000000 0.00000000
vn 0.00000000 -1.00000000 0.00000000
vn 1.00000000 0.00000000 0.00000000
vn 1.00000000 0.00000000 0.00000000
vn 1.00000000 0.00000000 0.00000000
vn 1.00000000 0.00000000 0.00000000
vn 1.00000000 0.00000000 0.00000000
vn 1.00000000 0.00000000 0.00000000
vn 1.00000000 0.00000000 0.00000000
vn 1.00000000 0.00000000 0.00000000
vn 0.00000000 0.00000000 -1.00000000
vn 0.00000000 0.00000000 -1.00000000
vn 0.00000000 0.00000000 -1.00000000
vn 0.00000000 0.00000000 -1.00000000
vn -1.00000000 0.00000000 0.00000000
vn -1.00000000 0.00000000 0.00000000
vn -1.00000000 0.00000000 0.00000000
vn -1.00000000 0.00000000 0.00000000
vn -1.00000000 0.00000000 0.00000000
vn -1.00000000 0.00000000 0.00000000
vn -1.00000000 0.00000000 0.00000000
vn -1.00000000 0.00000000 0.00000000
vn 0.00000000 -1.00000000 0.00000000
vn 0.00000000 -1.00000000 0.00000000
vn 0.00000000 -1.00000000 0.00000000
vn 0.00000000 -1.00000000 0.00000000
vn 0.00000000 -1.00000000 0.00000000
vn 0.00000000 -1.00000000 0.00000000
vn 0.00000000 -1.00000000 0.00000000
vn 0.00000000 -1.00000000 0.00000000
vn 1.00000000 -0.00000000 0.00000000
vn 1.00000000 -0.00000000 0.00000000
vn 1.00000000 -0.00000000 0.00000000
vn 1.00000000 -0.00000000 0.00000000
vn 0.00000000 -1.00000000 0.00000000
vn 0.00000000 -1.00000000 0.00000000
vn 0.00000000 -1.00000000 0.00000000
vn 0.00000000 -1.00000000 0.00000000
vn 1.00000000 0.00000000 0.00000000
vn 1.00000000 0.00000000 0.00000000
vn 1.00000000 0.00000000 0.00000000
vn 1.00000000 0.00000000 0.00000000
vn 0.00000000 -1.00000000 0.00000000
vn 0.00000000 -1.00000000 0.00000000
vn 0.00000000 -1.00000000 0.00000000
vn 0.00000000 -1.00000000 0.00000000
vn 1.00000000 0.00000000 0.00000000
vn 1.00000000 0.00000000 0.00000000
vn 1.00000000 0.00000000 0.00000000
vn 1.00000000 0.00000000 0.00000000
vn 0.00000000 -1.00000000 0.00000000
vn 0.00000000 -1.00000000 0.00000000
vn 0.00000000 -1.00000000 0.00000000
vn 0.00000000 -1.00000000 0.00000000
vn 0.00000000 1.00000000 0.00000000
vn 0.00000000 1.00000000 0.00000000
vn 0.00000000 1.00000000 0.00000000
vn 0.00000000 1.00000000 0.00000000
vn 0.00000000 1.00000000 0.00000000
vn 0.00000000 1.00000000 0.00000000
vn 0.00000000 1.00000000 0.00000000
vn 0.00000000 1.00000000 0.00000000
vn 0.00000000 0.00000000 1.00000000
vn 0.00000000 0.00000000 1.00000000
vn 0.00000000 0.00000000 1.00000000
vn 0.00000000 0.00000000 1.00000000
vn 0.00000000 1.00000000 0.00000000
vn 0.00000000 1.00000000 0.00000000
vn 0.00000000 1.00000000 0.00000000
vn 0.00000000 1.00000000 0.00000000
vn 0.00000000 0.00000000 -1.00000000
vn 0.00000000 0.00000000 -1.00000000
vn 0.00000000 0.00000000 -1.00000000
vn 0.00000000 0.00000000 -1.00000000
vn 0.00000000 0.00000000 -1.00000000
vn 0.00000000 0.00000000 -1.00000000
vn 0.00000000 0.00000000 -1.00000000
vn 0.00000000 0.00000000 -1.00000000
vn -1.00000000 0.00000000 0.00000000
vn -1.00000000 0.00000000 0.00000000
vn -1.00000000 0.00000000 0.00000000
vn -1.00000000 0.00000000 0.00000000
vn 0.00000000 0.00000000 -1.00000000
vn 0.00000000 0.00000000 -1.00000000
vn 0.00000000 0.00000000 -1.00000000
vn 0.00000000 0.00000000 -1.00000000
vn 0.00000000 0.00000000 -1.00000000
vn 0.00000000 0.00000000 -1.00000000
vn 0.00000000 0.00000000 -1.00000000
vn 0.00000000 0.00000000 -1.00000000
vn -1.00000000 0.00000000 -0.00000000
vn -1.00000000 0.00000000 -0.00000000
vn -1.00000000 0.00000000 -0.00000000
vn -1.00000000 0.00000000 -0.00000000
vn 0.00000000 0.00000000 1.00000000
vn 0.00000000 0.00000000 1.00000000
vn 0.00000000 0.00000000 1.00000000
vn 0.00000000 0.00000000 1.00000000
vn 0.00000000 0.00000000 1.00000000
vn 0.00000000 0.00000000 1.00000000
vn 0.00000000 0.00000000 1.00000000
vn 0.00000000 0.00000000 1.00000000
vn -1.00000000 0.00000000 0.00000000
vn -1.00000000 0.00000000 0.00000000
vn -1.00000000 0.00000000 0.00000000
vn -1.00000000 0.00000000 0.00000000
vn 0.00000000 0.00000000 1.00000000
vn 0.00000000 0.00000000 1.00000000
vn 0.00000000 0.00000000 1.00000000
vn 0.00000000 0.00000000 1.00000000
vn 0.00000000 0.00000000 1.00000000
vn 0.00000000 0.00000000 1.00000000
vn 0.00000000 0.00000000 1.00000000
vn 0.00000000 0.00000000 1.00000000
s 1
usemtl White
f 6/6/6 5/5/5 4/4/4
f 4/4/4 3/3/3 1/1/1
f 3/3/3 2/2/2 1/1/1
f 8/8/8 7/7/7 6/6/6
f 6/6/6 1/1/1 8/8/8
f 6/6/6 4/4/4 1/1/1
s 2
f 11/11/11 10/10/10 9/9/9
f 3/15/15 12/12/12 9/9/9
f 3/15/15 13/13/13 12/12/12
f 3/15/15 4/14/14 13/13/13
f 9/9/9 14/16/16 3/15/15
f 12/12/12 11/11/11 9/9/9
s 3
usemtl Exterior_Wall
f 12/17/17 15/18/18 11/20/20
f 15/18/18 16/19/19 11/20/20
s 4
usemtl White
f 17/21/21 18/22/22 16/23/23
f 17/21/21 15/24/24 21/27/27
f 19/25/25 20/26/26 21/27/27
f 15/24/24 19/25/25 21/27/27
f 21/27/27 22/28/28 17/21/21
f 17/21/21 16/23/23 15/24/24
s 5
f 20/35/35 28/34/34 27/33/33
f 27/33/33 26/32/32 25/31/31
f 25/31/31 24/30/30 27/33/33
f 24/30/30 23/29/29 21/36/36
f 24/30/30 20/35/35 27/33/33
f 24/30/30 21/36/36 20/35/35
s 6
f 30/40/40 25/39/39 29/37/37
f 25/39/39 26/38/38 29/37/37
s 7
f 29/41/41 31/42/42 32/43/43
f 29/41/41 32/43/43 30/44/44
s 8
f 28/48/48 34/47/47 27/45/45
f 34/47/47 33/46/46 27/45/45
s 9
f 35/49/49 33/50/50 36/52/52
f 33/50/50 34/51/51 36/52/52
s 10
f 38/56/56 23/55/55 37/53/53
f 23/55/55 24/54/54 37/53/53
s 11
f 37/57/57 39/58/58 40/59/59
f 37/57/57 40/59/59 38/60/60
s 12
f 13/61/61 19/62/62 12/64/64
f 19/62/62 15/63/63 12/64/64
s 13
f 17/65/65 22/66/66 14/67/67
f 17/65/65 14/67/67 9/68/68
s 14
usemtl Beige
f 17/69/69 9/70/70 18/72/72
f 9/70/70 10/71/71 18/72/72
s 15
usemtl Dark_Wood
f 18/76/76 10/75/75 11/74/74
f 18/76/76 11/74/74 16/73/73
s 16
usemtl White
f 4/83/83 5/84/84 36/77/77
f 13/82/82 36/77/77 34/78/78
f 34/78/78 20/80/80 19/81/81
f 34/78/78 28/79/79 20/80/80
f 19/81/81 13/82/82 34/78/78
f 13/82/82 4/83/83 36/77/77
s 17
f 6/85/85 35/86/86 5/88/88
f 35/86/86 36/87/87 5/88/88
s 18
f 29/90/90 26/91/91 27/92/92
f 31/89/89 29/90/90 33/93/93
f 31/89/89 35/94/94 6/95/95
f 31/89/89 33/93/93 35/94/94
f 6/95/95 7/96/96 31/89/89
f 29/90/90 27/92/92 33/93/93
s 19
f 7/97/97 8/98/98 31/100/100
f 8/98/98 32/99/99 31/100/100
s 20
f 24/104/104 25/103/103 30/102/102
f 37/105/105 30/102/102 32/101/101
f 1/107/107 39/106/106 32/101/101
f 32/101/101 8/108/108 1/107/107
f 39/106/106 37/105/105 32/101/101
f 37/105/105 24/104/104 30/102/102
s 21
f 39/109/109 1/110/110 40/112/112
f 1/110/110 2/111/111 40/112/112
s 22
f 40/113/113 2/120/120 3/119/119
f 38/114/114 40/113/113 14/118/118
f 22/117/117 21/116/116 38/114/114
f 38/114/114 14/118/118 22/117/117
f 21/116/116 23/115/115 38/114/114
f 40/113/113 3/119/119 14/118/118
