mtllib Floor_Curved_Large.mtl
o object1
g object1
v 0.26275729 -0.20000000 -0.15145627
v 0.26275729 0.00000000 -0.15145627
v 0.15145627 0.00000000 -0.26275729
v 0.15145627 -0.20000000 -0.26275729
v 0.35527670 -0.20000000 -0.02411423
v 0.35527670 0.00000000 -0.02411423
v 0.42673635 -0.20000000 0.11613323
v 0.42673635 0.00000000 0.11613323
v 0.47537668 -0.20000000 0.26583278
v 0.47537668 0.00000000 0.26583278
v 0.50000000 -0.20000000 0.42129829
v 0.50000000 0.00000000 0.42129829
v 0.50000000 -0.20000000 0.50000000
v 0.50000000 0.00000000 0.50000000
v 1.50000000 -0.20000000 0.50000000
v 1.50000000 0.00000000 0.50000000
v 1.50000000 -0.20000000 0.34259659
v 1.50000000 0.00000000 0.34259659
v 1.45075336 -0.20000000 0.03166555
v 1.45075336 0.00000000 0.03166555
v 1.35347270 -0.20000000 -0.26773353
v 1.35347270 0.00000000 -0.26773353
v 1.21055339 -0.20000000 -0.54822847
v 1.21055339 0.00000000 -0.54822847
v 1.02551458 -0.20000000 -0.80291254
v 1.02551458 0.00000000 -0.80291254
v 0.80291254 -0.20000000 -1.02551458
v 0.80291254 0.00000000 -1.02551458
v 0.54822847 -0.20000000 -1.21055339
v 0.54822847 0.00000000 -1.21055339
v 0.26773353 -0.20000000 -1.35347270
v 0.26773353 0.00000000 -1.35347270
v -0.03166555 -0.20000000 -1.45075336
v -0.03166555 0.00000000 -1.45075336
v -0.34259659 -0.20000000 -1.50000000
v -0.34259659 0.00000000 -1.50000000
v -0.50000000 -0.20000000 -1.50000000
v -0.50000000 0.00000000 -1.50000000
v -0.50000000 -0.20000000 -0.50000000
v -0.50000000 0.00000000 -0.50000000
v -0.42129829 -0.20000000 -0.50000000
v -0.42129829 0.00000000 -0.50000000
v -0.26583278 -0.20000000 -0.47537668
v -0.26583278 0.00000000 -0.47537668
v -0.11613323 -0.20000000 -0.42673635
v -0.11613323 0.00000000 -0.42673635
v 0.02411423 -0.20000000 -0.35527670
v 0.02411423 0.00000000 -0.35527670
vt 0.00000000 0.00000000
vt 1.00000000 0.00000000
vt 1.00000000 1.00000000
vt 0.00000000 1.00000000
vt 0.00000000 0.00000000
vt 1.00000000 0.00000000
vt 1.00000000 1.00000000
vt 0.00000000 1.00000000
vt 0.00000000 0.00000000
vt 1.00000000 0.00000000
vt 1.00000000 1.00000000
vt 0.00000000 1.00000000
vt 0.00000000 0.00000000
vt 1.00000000 0.00000000
vt 1.00000000 1.00000000
vt 0.00000000 1.00000000
vt 0.00000000 0.00000000
vt 1.00000000 0.00000000
vt 1.00000000 1.00000000
vt 0.00000000 1.00000000
vt 0.00000000 0.00000000
vt 1.00000000 0.00000000
vt 1.00000000 1.00000000
vt 0.00000000 1.00000000
vt 0.00000000 0.00000000
vt 1.00000000 0.00000000
vt 1.00000000 1.00000000
vt 0.00000000 1.00000000
vt 0.00000000 0.00000000
vt 1.00000000 0.00000000
vt 1.00000000 1.00000000
vt 0.00000000 1.00000000
vt 0.00000000 0.00000000
vt 1.00000000 0.00000000
vt 1.00000000 1.00000000
vt 0.00000000 1.00000000
vt 0.00000000 0.00000000
vt 1.00000000 0.00000000
vt 1.00000000 1.00000000
vt 0.00000000 1.00000000
vt 0.00000000 0.00000000
vt 1.00000000 0.00000000
vt 1.00000000 1.00000000
vt 0.00000000 1.00000000
vt 0.00000000 0.00000000
vt 1.00000000 0.00000000
vt 1.00000000 1.00000000
vt 0.00000000 1.00000000
vt 0.00000000 0.00000000
vt 1.00000000 0.00000000
vt 1.00000000 1.00000000
vt 0.00000000 1.00000000
vt 0.00000000 0.00000000
vt 1.00000000 0.00000000
vt 1.00000000 1.00000000
vt 0.00000000 1.00000000
vt 0.00000000 0.00000000
vt 1.00000000 0.00000000
vt 1.00000000 1.00000000
vt 0.00000000 1.00000000
vt 0.00000000 0.00000000
vt 1.00000000 0.00000000
vt 1.00000000 1.00000000
vt 0.00000000 1.00000000
vt 0.00000000 0.00000000
vt 1.00000000 0.00000000
vt 1.00000000 1.00000000
vt 0.00000000 1.00000000
vt 0.00000000 0.00000000
vt 1.00000000 0.00000000
vt 1.00000000 1.00000000
vt 0.00000000 1.00000000
vt 0.00000000 0.00000000
vt 1.00000000 0.00000000
vt 1.00000000 1.00000000
vt 0.00000000 1.00000000
vt 0.00000000 0.00000000
vt 1.00000000 0.00000000
vt 1.00000000 1.00000000
vt 0.00000000 1.00000000
vt 0.00000000 0.00000000
vt 1.00000000 0.00000000
vt 1.00000000 1.00000000
vt 0.00000000 1.00000000
vt 0.00000000 0.00000000
vt 1.00000000 0.00000000
vt 1.00000000 1.00000000
vt 0.00000000 1.00000000
vt 0.00000000 0.00000000
vt 1.00000000 0.00000000
vt 1.00000000 1.00000000
vt 0.00000000 1.00000000
vt 0.38386677 0.92673635
vt 0.23416722 0.97537668
vt 0.07870171 1.00000000
vt 0.00000000 1.00000000
vt 0.00000000 0.50000000
vt 0.03935085 0.50000000
vt 0.11708361 0.48768834
vt 0.19193338 0.46336818
vt 0.26205712 0.42763835
vt 0.32572814 0.38137865
vt 0.38137865 0.32572814
vt 0.42763835 0.26205712
vt 0.46336818 0.19193338
vt 0.48768834 0.11708361
vt 0.50000000 0.03935085
vt 0.50000000 0.00000000
vt 1.00000000 0.00000000
vt 1.00000000 0.07870171
vt 0.97537668 0.23416722
vt 0.92673635 0.38386677
vt 0.85527670 0.52411423
vt 0.76275729 0.65145627
vt 0.65145627 0.76275729
vt 0.52411423 0.85527670
vt 0.00000000 0.00000000
vt 1.00000000 0.00000000
vt 1.00000000 1.00000000
vt 0.00000000 1.00000000
vt 0.38386677 0.92673635
vt 0.23416722 0.97537668
vt 0.07870171 1.00000000
vt 0.00000000 1.00000000
vt 0.00000000 0.50000000
vt 0.03935085 0.50000000
vt 0.11708361 0.48768834
vt 0.19193338 0.46336818
vt 0.26205712 0.42763835
vt 0.32572814 0.38137865
vt 0.38137865 0.32572814
vt 0.42763835 0.26205712
vt 0.46336818 0.19193338
vt 0.48768834 0.11708361
vt 0.50000000 0.03935085
vt 0.50000000 0.00000000
vt 1.00000000 0.00000000
vt 1.00000000 0.07870171
vt 0.97537668 0.23416722
vt 0.92673635 0.38386677
vt 0.85527670 0.52411423
vt 0.76275729 0.65145627
vt 0.65145627 0.76275729
vt 0.52411423 0.85527670
vn -0.70710678 0.00000000 0.70710678
vn -0.70710678 0.00000000 0.70710678
vn -0.70710678 0.00000000 0.70710678
vn -0.70710678 0.00000000 0.70710678
vn -0.80901699 0.00000000 0.58778525
vn -0.80901699 0.00000000 0.58778525
vn -0.80901699 0.00000000 0.58778525
vn -0.80901699 0.00000000 0.58778525
vn -0.89100652 0.00000000 0.45399050
vn -0.89100652 0.00000000 0.45399050
vn -0.89100652 0.00000000 0.45399050
vn -0.89100652 0.00000000 0.45399050
vn -0.95105652 0.00000000 0.30901699
vn -0.95105652 0.00000000 0.30901699
vn -0.95105652 0.00000000 0.30901699
vn -0.95105652 0.00000000 0.30901699
vn -0.98768834 0.00000000 0.15643447
vn -0.98768834 0.00000000 0.15643447
vn -0.98768834 0.00000000 0.15643447
vn -0.98768834 0.00000000 0.15643447
vn -1.00000000 0.00000000 0.00000000
vn -1.00000000 0.00000000 0.00000000
vn -1.00000000 0.00000000 0.00000000
vn -1.00000000 0.00000000 0.00000000
vn -0.00000000 0.00000000 1.00000000
vn -0.00000000 0.00000000 1.00000000
vn -0.00000000 0.00000000 1.00000000
vn -0.00000000 0.00000000 1.00000000
vn 1.00000000 0.00000000 0.00000000
vn 1.00000000 0.00000000 0.00000000
vn 1.00000000 0.00000000 0.00000000
vn 1.00000000 0.00000000 0.00000000
vn 0.98768834 0.00000000 -0.15643447
vn 0.98768834 0.00000000 -0.15643447
vn 0.98768834 0.00000000 -0.15643447
vn 0.98768834 0.00000000 -0.15643447
vn 0.95105652 0.00000000 -0.30901699
vn 0.95105652 0.00000000 -0.30901699
vn 0.95105652 0.00000000 -0.30901699
vn 0.95105652 0.00000000 -0.30901699
vn 0.89100652 0.00000000 -0.45399050
vn 0.89100652 0.00000000 -0.45399050
vn 0.89100652 0.00000000 -0.45399050
vn 0.89100652 0.00000000 -0.45399050
vn 0.80901699 0.00000000 -0.58778525
vn 0.80901699 0.00000000 -0.58778525
vn 0.80901699 0.00000000 -0.58778525
vn 0.80901699 0.00000000 -0.58778525
vn 0.70710678 0.00000000 -0.70710678
vn 0.70710678 0.00000000 -0.70710678
vn 0.70710678 0.00000000 -0.70710678
vn 0.70710678 0.00000000 -0.70710678
vn 0.58778525 0.00000000 -0.80901699
vn 0.58778525 0.00000000 -0.80901699
vn 0.58778525 0.00000000 -0.80901699
vn 0.58778525 0.00000000 -0.80901699
vn 0.45399050 0.00000000 -0.89100652
vn 0.45399050 0.00000000 -0.89100652
vn 0.45399050 0.00000000 -0.89100652
vn 0.45399050 0.00000000 -0.89100652
vn 0.30901699 0.00000000 -0.95105652
vn 0.30901699 0.00000000 -0.95105652
vn 0.30901699 0.00000000 -0.95105652
vn 0.30901699 0.00000000 -0.95105652
vn 0.15643447 0.00000000 -0.98768834
vn 0.15643447 0.00000000 -0.98768834
vn 0.15643447 0.00000000 -0.98768834
vn 0.15643447 0.00000000 -0.98768834
vn 0.00000000 0.00000000 -1.00000000
vn 0.00000000 0.00000000 -1.00000000
vn 0.00000000 0.00000000 -1.00000000
vn 0.00000000 0.00000000 -1.00000000
vn -1.00000000 0.00000000 0.00000000
vn -1.00000000 0.00000000 0.00000000
vn -1.00000000 0.00000000 0.00000000
vn -1.00000000 0.00000000 0.00000000
vn 0.00000000 0.00000000 1.00000000
vn 0.00000000 0.00000000 1.00000000
vn 0.00000000 0.00000000 1.00000000
vn 0.00000000 0.00000000 1.00000000
vn -0.15643447 0.00000000 0.98768834
vn -0.15643447 0.00000000 0.98768834
vn -0.15643447 0.00000000 0.98768834
vn -0.15643447 0.00000000 0.98768834
vn -0.30901699 0.00000000 0.95105652
vn -0.30901699 0.00000000 0.95105652
vn -0.30901699 0.00000000 0.95105652
vn -0.30901699 0.00000000 0.95105652
vn -0.45399050 0.00000000 0.89100652
vn -0.45399050 0.00000000 0.89100652
vn -0.45399050 0.00000000 0.89100652
vn -0.45399050 0.00000000 0.89100652
vn 0.00000000 -1.00000000 0.00000000
vn 0.00000000 -1.00000000 0.00000000
vn 0.00000000 -1.00000000 0.00000000
vn 0.00000000 -1.00000000 0.00000000
vn 0.00000000 -1.00000000 0.00000000
vn 0.00000000 -1.00000000 0.00000000
vn 0.00000000 -1.00000000 0.00000000
vn 0.00000000 -1.00000000 0.00000000
vn 0.00000000 -1.00000000 0.00000000
vn 0.00000000 -1.00000000 0.00000000
vn 0.00000000 -1.00000000 0.00000000
vn 0.00000000 -1.00000000 0.00000000
vn 0.00000000 -1.00000000 0.00000000
vn 0.00000000 -1.00000000 0.00000000
vn 0.00000000 -1.00000000 0.00000000
vn 0.00000000 -1.00000000 0.00000000
vn 0.00000000 -1.00000000 0.00000000
vn 0.00000000 -1.00000000 0.00000000
vn 0.00000000 -1.00000000 0.00000000
vn 0.00000000 -1.00000000 0.00000000
vn 0.00000000 -1.00000000 0.00000000
vn 0.00000000 -1.00000000 0.00000000
vn 0.00000000 -1.00000000 0.00000000
vn 0.00000000 -1.00000000 0.00000000
vn -0.58778525 0.00000000 0.80901699
vn -0.58778525 0.00000000 0.80901699
vn -0.58778525 0.00000000 0.80901699
vn -0.58778525 0.00000000 0.80901699
vn 0.00000000 1.00000000 0.00000000
vn 0.00000000 1.00000000 0.00000000
vn 0.00000000 1.00000000 0.00000000
vn 0.00000000 1.00000000 0.00000000
vn 0.00000000 1.00000000 0.00000000
vn 0.00000000 1.00000000 0.00000000
vn 0.00000000 1.00000000 0.00000000
vn 0.00000000 1.00000000 0.00000000
vn 0.00000000 1.00000000 0.00000000
vn 0.00000000 1.00000000 0.00000000
vn 0.00000000 1.00000000 0.00000000
vn 0.00000000 1.00000000 0.00000000
vn 0.00000000 1.00000000 0.00000000
vn 0.00000000 1.00000000 0.00000000
vn 0.00000000 1.00000000 0.00000000
vn 0.00000000 1.00000000 0.00000000
vn 0.00000000 1.00000000 0.00000000
vn 0.00000000 1.00000000 0.00000000
vn 0.00000000 1.00000000 0.00000000
vn 0.00000000 1.00000000 0.00000000
vn 0.00000000 1.00000000 0.00000000
vn 0.00000000 1.00000000 0.00000000
vn 0.00000000 1.00000000 0.00000000
vn 0.00000000 1.00000000 0.00000000
s 1
usemtl Beige
f 1/1/1 2/2/2 4/4/4
f 2/2/2 3/3/3 4/4/4
s 2
f 5/5/5 6/6/6 1/8/8
f 6/6/6 2/7/7 1/8/8
s 3
f 7/9/9 8/10/10 5/12/12
f 8/10/10 6/11/11 5/12/12
s 4
f 9/13/13 10/14/14 7/16/16
f 10/14/14 8/15/15 7/16/16
s 5
f 11/17/17 12/18/18 9/20/20
f 12/18/18 10/19/19 9/20/20
s 6
f 13/21/21 14/22/22 11/24/24
f 14/22/22 12/23/23 11/24/24
s 7
f 15/25/25 16/26/26 13/28/28
f 16/26/26 14/27/27 13/28/28
s 8
f 17/29/29 18/30/30 15/32/32
f 18/30/30 16/31/31 15/32/32
s 9
f 19/33/33 20/34/34 17/36/36
f 20/34/34 18/35/35 17/36/36
s 10
f 21/37/37 22/38/38 19/40/40
f 22/38/38 20/39/39 19/40/40
s 11
f 23/41/41 24/42/42 21/44/44
f 24/42/42 22/43/43 21/44/44
s 12
f 25/45/45 26/46/46 23/48/48
f 26/46/46 24/47/47 23/48/48
s 13
f 27/49/49 28/50/50 25/52/52
f 28/50/50 26/51/51 25/52/52
s 14
f 29/53/53 30/54/54 27/56/56
f 30/54/54 28/55/55 27/56/56
s 15
f 31/57/57 32/58/58 29/60/60
f 32/58/58 30/59/59 29/60/60
s 16
f 33/61/61 34/62/62 31/64/64
f 34/62/62 32/63/63 31/64/64
s 17
f 35/65/65 36/66/66 33/68/68
f 36/66/66 34/67/67 33/68/68
s 18
f 37/69/69 38/70/70 35/72/72
f 38/70/70 36/71/71 35/72/72
s 19
f 39/73/73 40/74/74 37/76/76
f 40/74/74 38/75/75 37/76/76
s 20
f 41/77/77 42/78/78 39/80/80
f 42/78/78 40/79/79 39/80/80
s 21
f 43/81/81 44/82/82 41/84/84
f 44/82/82 42/83/83 41/84/84
s 22
f 45/85/85 46/86/86 43/88/88
f 46/86/86 44/87/87 43/88/88
s 23
f 47/89/89 48/90/90 45/92/92
f 48/90/90 46/91/91 45/92/92
s 24
usemtl White
f 37/109/109 35/110/110 33/111/111
f 39/108/108 33/111/111 31/112/112
f 41/107/107 39/108/108 25/115/115
f 25/115/115 45/105/105 43/106/106
f 25/115/115 47/104/104 45/105/105
f 25/115/115 4/103/103 47/104/104
f 25/115/115 1/102/102 4/103/103
f 25/115/115 5/101/101 1/102/102
f 25/115/115 7/100/100 5/101/101
f 25/115/115 9/99/99 7/100/100
f 25/115/115 11/98/98 9/99/99
f 25/115/115 13/97/97 11/98/98
f 23/116/116 21/93/93 13/97/97
f 21/93/93 19/94/94 13/97/97
f 19/94/94 17/95/95 15/96/96
f 19/94/94 15/96/96 13/97/97
f 25/115/115 23/116/116 13/97/97
f 25/115/115 43/106/106 41/107/107
f 39/108/108 27/114/114 25/115/115
f 39/108/108 29/113/113 27/114/114
f 39/108/108 31/112/112 29/113/113
f 39/108/108 37/109/109 33/111/111
s 25
usemtl Beige
f 4/117/117 3/118/118 47/120/120
f 3/118/118 48/119/119 47/120/120
s 26
usemtl Dark_Wood
f 34/139/139 36/138/138 38/137/137
f 32/140/140 34/139/139 40/136/136
f 26/143/143 40/136/136 42/135/135
f 42/135/135 44/134/134 26/143/143
f 44/134/134 46/133/133 26/143/143
f 46/133/133 48/132/132 26/143/143
f 48/132/132 3/131/131 26/143/143
f 3/131/131 2/130/130 26/143/143
f 2/130/130 6/129/129 26/143/143
f 6/129/129 8/128/128 26/143/143
f 8/128/128 10/127/127 26/143/143
f 10/127/127 12/126/126 26/143/143
f 12/126/126 14/125/125 26/143/143
f 14/125/125 22/121/121 24/144/144
f 14/125/125 20/122/122 22/121/121
f 16/124/124 18/123/123 20/122/122
f 14/125/125 16/124/124 20/122/122
f 14/125/125 24/144/144 26/143/143
f 26/143/143 28/142/142 40/136/136
f 28/142/142 30/141/141 40/136/136
f 30/141/141 32/140/140 40/136/136
f 34/139/139 38/137/137 40/136/136
