mtllib Kitchen_Cabinet_Side_Shelves.mtl
o object1
g object1
v 0.17500000 2.22500000 -0.37500000
v 0.50000000 2.22500000 -0.37500000
v 0.50000000 2.22500000 -0.07500000
v 0.33535534 2.22500000 -0.07500000
v 0.17500000 2.22500000 -0.23535534
v 0.15000000 2.25000000 -0.40000000
v 0.50000000 2.25000000 -0.40000000
v 0.15000000 2.27500000 -0.40000000
v 0.50000000 2.27500000 -0.40000000
v 0.50000000 2.27500000 -0.05000000
v 0.32500000 2.27500000 -0.05000000
v 0.15000000 2.27500000 -0.22500000
v 0.50000000 2.25000000 -0.05000000
v 0.32500000 2.25000000 -0.05000000
v 0.15000000 2.25000000 -0.22500000
vt 1.00000000 0.00000000
vt 1.00000000 1.00000000
vt 0.00000000 1.00000000
vt 0.00000000 0.49340104
vt 0.53451780 0.00000000
vt 0.00000000 0.00000000
vt 1.00000000 0.00000000
vt 1.00000000 1.00000000
vt 0.07142857 1.00000000
vt 0.00000000 1.00000000
vt 0.00000000 0.00000000
vt 1.00000000 0.00000000
vt 1.00000000 1.00000000
vt 1.00000000 0.00000000
vt 1.00000000 1.00000000
vt 0.00000000 1.00000000
vt 0.00000000 0.50000000
vt 0.50000000 0.00000000
vt 0.00000000 1.00000000
vt 0.00000000 0.00000000
vt 1.00000000 0.00000000
vt 1.00000000 1.00000000
vt 1.00000000 0.00000000
vt 1.00000000 1.00000000
vt 0.00000000 1.00000000
vt 0.00000000 0.00000000
vt 0.00000000 1.00000000
vt 0.00000000 0.00000000
vt 1.00000000 0.00000000
vt 1.00000000 1.00000000
vt 0.00000000 0.00000000
vt 1.00000000 0.00000000
vt 0.85714286 1.00000000
vt 0.05917337 1.00000000
vt 0.04184189 0.00000000
vt 0.95815811 0.00000000
vt 1.00000000 1.00000000
vt 0.00000000 1.00000000
vt 0.05917337 0.00000000
vt 1.00000000 0.00000000
vt 1.00000000 1.00000000
vt 0.00000000 1.00000000
vt 1.00000000 0.00000000
vt 1.00000000 1.00000000
vt 0.50000000 1.00000000
vt 0.00000000 0.92857143
vt 0.00000000 0.07142857
vt 0.50000000 0.00000000
vn 0.00000000 -1.00000000 0.00000000
vn 0.00000000 -1.00000000 0.00000000
vn 0.00000000 -1.00000000 0.00000000
vn 0.00000000 -1.00000000 0.00000000
vn 0.00000000 -1.00000000 0.00000000
vn 0.00000000 -0.70710678 -0.70710678
vn 0.00000000 -0.70710678 -0.70710678
vn 0.00000000 -0.70710678 -0.70710678
vn 0.00000000 -0.70710678 -0.70710678
vn 0.00000000 0.00000000 -1.00000000
vn 0.00000000 0.00000000 -1.00000000
vn 0.00000000 0.00000000 -1.00000000
vn 0.00000000 0.00000000 -1.00000000
vn 0.00000000 1.00000000 0.00000000
vn 0.00000000 1.00000000 0.00000000
vn 0.00000000 1.00000000 0.00000000
vn 0.00000000 1.00000000 0.00000000
vn 0.00000000 1.00000000 0.00000000
vn 0.00000000 0.00000000 1.00000000
vn 0.00000000 0.00000000 1.00000000
vn 0.00000000 0.00000000 1.00000000
vn 0.00000000 0.00000000 1.00000000
vn -0.70710678 0.00000000 0.70710678
vn -0.70710678 0.00000000 0.70710678
vn -0.70710678 0.00000000 0.70710678
vn -0.70710678 0.00000000 0.70710678
vn -1.00000000 0.00000000 0.00000000
vn -1.00000000 0.00000000 0.00000000
vn -1.00000000 0.00000000 0.00000000
vn -1.00000000 0.00000000 0.00000000
vn -0.70710678 -0.70710678 0.00000000
vn -0.70710678 -0.70710678 0.00000000
vn -0.70710678 -0.70710678 0.00000000
vn -0.70710678 -0.70710678 0.00000000
vn -0.50000000 -0.70710678 0.50000000
vn -0.50000000 -0.70710678 0.50000000
vn -0.50000000 -0.70710678 0.50000000
vn -0.50000000 -0.70710678 0.50000000
vn 0.00000000 -0.70710678 0.70710678
vn 0.00000000 -0.70710678 0.70710678
vn 0.00000000 -0.70710678 0.70710678
vn 0.00000000 -0.70710678 0.70710678
vn 1.00000000 0.00000000 0.00000000
vn 1.00000000 0.00000000 0.00000000
vn 1.00000000 0.00000000 0.00000000
vn 1.00000000 0.00000000 0.00000000
vn 1.00000000 0.00000000 0.00000000
vn 1.00000000 0.00000000 0.00000000
s 1
usemtl Medium_Wood
f 4/4/4 5/5/5 1/1/1
f 1/1/1 2/2/2 4/4/4
f 2/2/2 3/3/3 4/4/4
s 2
f 6/6/6 7/7/7 1/9/9
f 7/7/7 2/8/8 1/9/9
s 3
f 7/10/10 6/11/11 9/13/13
f 6/11/11 8/12/12 9/13/13
s 4
f 8/14/14 12/18/18 11/17/17
f 11/17/17 10/16/16 9/15/15
f 11/17/17 9/15/15 8/14/14
s 5
f 10/22/22 11/21/21 13/19/19
f 11/21/21 14/20/20 13/19/19
s 6
f 11/26/26 12/25/25 14/23/23
f 12/25/25 15/24/24 14/23/23
s 7
f 6/27/27 15/28/28 12/29/29
f 6/27/27 12/29/29 8/30/30
s 8
f 15/31/31 6/32/32 1/33/33
f 15/31/31 1/33/33 5/34/34
s 9
f 5/35/35 4/36/36 15/38/38
f 4/36/36 14/37/37 15/38/38
s 10
f 4/39/39 3/40/40 13/41/41
f 4/39/39 13/41/41 14/42/42
s 11
f 2/46/46 7/45/45 9/44/44
f 3/47/47 9/44/44 10/43/43
f 10/43/43 13/48/48 3/47/47
f 3/47/47 2/46/46 9/44/44
o object2
g object2
v 0.15000000 1.92500000 -0.40000000
v 0.15000000 1.92500000 -0.22500000
v 0.15000000 1.95000000 -0.22500000
v 0.15000000 1.95000000 -0.40000000
v 0.17500000 1.90000000 -0.37500000
v 0.17500000 1.90000000 -0.23535534
v 0.33535534 1.90000000 -0.07500000
v 0.32500000 1.92500000 -0.05000000
v 0.50000000 1.90000000 -0.07500000
v 0.50000000 1.92500000 -0.05000000
v 0.32500000 1.95000000 -0.05000000
v 0.50000000 1.95000000 -0.05000000
v 0.50000000 1.92500000 -0.40000000
v 0.50000000 1.90000000 -0.37500000
v 0.50000000 1.95000000 -0.40000000
vt 0.00000000 1.00000000
vt 0.00000000 0.00000000
vt 1.00000000 0.00000000
vt 1.00000000 1.00000000
vt 0.00000000 0.00000000
vt 1.00000000 0.00000000
vt 0.85714286 1.00000000
vt 0.05917337 1.00000000
vt 0.04184189 0.00000000
vt 0.95815811 0.00000000
vt 1.00000000 1.00000000
vt 0.00000000 1.00000000
vt 0.05917337 0.00000000
vt 1.00000000 0.00000000
vt 1.00000000 1.00000000
vt 0.00000000 1.00000000
vt 0.00000000 1.00000000
vt 0.00000000 0.00000000
vt 1.00000000 0.00000000
vt 1.00000000 1.00000000
vt 0.50000000 1.00000000
vt 0.00000000 0.92857143
vt 0.00000000 0.07142857
vt 0.50000000 0.00000000
vt 1.00000000 0.00000000
vt 1.00000000 1.00000000
vt 0.53451780 0.00000000
vt 1.00000000 0.00000000
vt 1.00000000 1.00000000
vt 0.00000000 1.00000000
vt 0.00000000 0.49340104
vt 0.00000000 0.00000000
vt 1.00000000 0.00000000
vt 1.00000000 1.00000000
vt 0.07142857 1.00000000
vt 0.00000000 1.00000000
vt 0.00000000 0.00000000
vt 1.00000000 0.00000000
vt 1.00000000 1.00000000
vt 1.00000000 0.00000000
vt 1.00000000 1.00000000
vt 0.00000000 1.00000000
vt 0.00000000 0.50000000
vt 0.50000000 0.00000000
vt 1.00000000 0.00000000
vt 1.00000000 1.00000000
vt 0.00000000 1.00000000
vt 0.00000000 0.00000000
vn -1.00000000 0.00000000 0.00000000
vn -1.00000000 0.00000000 0.00000000
vn -1.00000000 0.00000000 0.00000000
vn -1.00000000 0.00000000 0.00000000
vn -0.70710678 -0.70710678 0.00000000
vn -0.70710678 -0.70710678 0.00000000
vn -0.70710678 -0.70710678 0.00000000
vn -0.70710678 -0.70710678 0.00000000
vn -0.50000000 -0.70710678 0.50000000
vn -0.50000000 -0.70710678 0.50000000
vn -0.50000000 -0.70710678 0.50000000
vn -0.50000000 -0.70710678 0.50000000
vn 0.00000000 -0.70710678 0.70710678
vn 0.00000000 -0.70710678 0.70710678
vn 0.00000000 -0.70710678 0.70710678
vn 0.00000000 -0.70710678 0.70710678
vn 0.00000000 0.00000000 1.00000000
vn 0.00000000 0.00000000 1.00000000
vn 0.00000000 0.00000000 1.00000000
vn 0.00000000 0.00000000 1.00000000
vn 1.00000000 0.00000000 0.00000000
vn 1.00000000 0.00000000 0.00000000
vn 1.00000000 0.00000000 0.00000000
vn 1.00000000 0.00000000 0.00000000
vn 1.00000000 0.00000000 0.00000000
vn 1.00000000 0.00000000 0.00000000
vn 0.00000000 -1.00000000 0.00000000
vn 0.00000000 -1.00000000 0.00000000
vn 0.00000000 -1.00000000 0.00000000
vn 0.00000000 -1.00000000 0.00000000
vn 0.00000000 -1.00000000 0.00000000
vn 0.00000000 -0.70710678 -0.70710678
vn 0.00000000 -0.70710678 -0.70710678
vn 0.00000000 -0.70710678 -0.70710678
vn 0.00000000 -0.70710678 -0.70710678
vn 0.00000000 0.00000000 -1.00000000
vn 0.00000000 0.00000000 -1.00000000
vn 0.00000000 0.00000000 -1.00000000
vn 0.00000000 0.00000000 -1.00000000
vn 0.00000000 1.00000000 0.00000000
vn 0.00000000 1.00000000 0.00000000
vn 0.00000000 1.00000000 0.00000000
vn 0.00000000 1.00000000 0.00000000
vn 0.00000000 1.00000000 0.00000000
vn -0.70710678 -0.00000000 0.70710678
vn -0.70710678 0.00000000 0.70710678
vn -0.70710678 0.00000000 0.70710678
vn -0.70710678 -0.00000000 0.70710678
s 1
usemtl Medium_Wood
f 16/49/49 17/50/50 18/51/51
f 16/49/49 18/51/51 19/52/52
s 2
f 17/53/53 16/54/54 20/55/55
f 17/53/53 20/55/55 21/56/56
s 3
f 21/57/57 22/58/58 17/60/60
f 22/58/58 23/59/59 17/60/60
s 4
f 22/61/61 24/62/62 25/63/63
f 22/61/61 25/63/63 23/64/64
s 5
f 27/68/68 26/67/67 25/65/65
f 26/67/67 23/66/66 25/65/65
s 6
f 27/73/73 25/72/72 24/71/71
f 30/74/74 27/73/73 29/70/70
f 29/70/70 28/69/69 30/74/74
f 27/73/73 24/71/71 29/70/70
s 7
f 22/79/79 21/75/75 20/76/76
f 20/76/76 29/77/77 22/79/79
f 29/77/77 24/78/78 22/79/79
s 8
f 16/80/80 28/81/81 20/83/83
f 28/81/81 29/82/82 20/83/83
s 9
f 28/84/84 16/85/85 30/87/87
f 16/85/85 19/86/86 30/87/87
s 10
f 19/88/88 18/92/92 26/91/91
f 26/91/91 27/90/90 30/89/89
f 26/91/91 30/89/89 19/88/88
s 11
f 26/96/96 18/95/95 23/93/93
f 18/95/95 17/94/94 23/93/93
o object3
g object3
v 0.32500000 1.57500000 -0.05000000
v 0.15000000 1.57500000 -0.22500000
v 0.15000000 1.60000000 -0.22500000
v 0.32500000 1.60000000 -0.05000000
v 0.15000000 1.60000000 -0.40000000
v 0.50000000 1.60000000 -0.40000000
v 0.50000000 1.60000000 -0.05000000
v 0.50000000 1.57500000 -0.40000000
v 0.15000000 1.57500000 -0.40000000
v 0.50000000 1.55000000 -0.37500000
v 0.17500000 1.55000000 -0.37500000
v 0.17500000 1.55000000 -0.23535534
v 0.50000000 1.55000000 -0.07500000
v 0.33535534 1.55000000 -0.07500000
v 0.50000000 1.57500000 -0.05000000
vt 1.00000000 0.00000000
vt 1.00000000 1.00000000
vt 0.00000000 1.00000000
vt 0.00000000 0.00000000
vt 1.00000000 0.00000000
vt 1.00000000 1.00000000
vt 0.00000000 1.00000000
vt 0.00000000 0.50000000
vt 0.50000000 0.00000000
vt 0.00000000 1.00000000
vt 0.00000000 0.00000000
vt 1.00000000 0.00000000
vt 1.00000000 1.00000000
vt 0.00000000 0.00000000
vt 1.00000000 0.00000000
vt 1.00000000 1.00000000
vt 0.07142857 1.00000000
vt 0.00000000 0.00000000
vt 1.00000000 0.00000000
vt 0.85714286 1.00000000
vt 0.05917337 1.00000000
vt 1.00000000 0.00000000
vt 1.00000000 1.00000000
vt 0.00000000 1.00000000
vt 0.00000000 0.49340104
vt 0.53451780 0.00000000
vt 0.05917337 0.00000000
vt 1.00000000 0.00000000
vt 1.00000000 1.00000000
vt 0.00000000 1.00000000
vt 0.50000000 1.00000000
vt 0.00000000 0.92857143
vt 0.00000000 0.07142857
vt 0.50000000 0.00000000
vt 1.00000000 0.00000000
vt 1.00000000 1.00000000
vt 0.00000000 1.00000000
vt 0.00000000 0.00000000
vt 1.00000000 0.00000000
vt 1.00000000 1.00000000
vt 0.00000000 0.00000000
vt 1.00000000 0.00000000
vt 0.95815811 1.00000000
vt 0.04184189 1.00000000
vt 0.00000000 1.00000000
vt 0.00000000 0.00000000
vt 1.00000000 0.00000000
vt 1.00000000 1.00000000
vn -0.70710678 0.00000000 0.70710678
vn -0.70710678 0.00000000 0.70710678
vn -0.70710678 0.00000000 0.70710678
vn -0.70710678 0.00000000 0.70710678
vn 0.00000000 1.00000000 0.00000000
vn 0.00000000 1.00000000 0.00000000
vn 0.00000000 1.00000000 0.00000000
vn 0.00000000 1.00000000 0.00000000
vn 0.00000000 1.00000000 0.00000000
vn 0.00000000 0.00000000 -1.00000000
vn 0.00000000 0.00000000 -1.00000000
vn 0.00000000 0.00000000 -1.00000000
vn 0.00000000 0.00000000 -1.00000000
vn 0.00000000 -0.70710678 -0.70710678
vn 0.00000000 -0.70710678 -0.70710678
vn 0.00000000 -0.70710678 -0.70710678
vn 0.00000000 -0.70710678 -0.70710678
vn -0.70710678 -0.70710678 0.00000000
vn -0.70710678 -0.70710678 0.00000000
vn -0.70710678 -0.70710678 0.00000000
vn -0.70710678 -0.70710678 0.00000000
vn 0.00000000 -1.00000000 0.00000000
vn 0.00000000 -1.00000000 0.00000000
vn 0.00000000 -1.00000000 0.00000000
vn 0.00000000 -1.00000000 0.00000000
vn 0.00000000 -1.00000000 0.00000000
vn 0.00000000 -0.70710678 0.70710678
vn 0.00000000 -0.70710678 0.70710678
vn 0.00000000 -0.70710678 0.70710678
vn 0.00000000 -0.70710678 0.70710678
vn 1.00000000 0.00000000 0.00000000
vn 1.00000000 0.00000000 0.00000000
vn 1.00000000 0.00000000 0.00000000
vn 1.00000000 0.00000000 0.00000000
vn 1.00000000 0.00000000 0.00000000
vn 1.00000000 0.00000000 0.00000000
vn 0.00000000 0.00000000 1.00000000
vn 0.00000000 0.00000000 1.00000000
vn 0.00000000 0.00000000 1.00000000
vn 0.00000000 0.00000000 1.00000000
vn -0.50000000 -0.70710678 0.50000000
vn -0.50000000 -0.70710678 0.50000000
vn -0.50000000 -0.70710678 0.50000000
vn -0.50000000 -0.70710678 0.50000000
vn -1.00000000 0.00000000 0.00000000
vn -1.00000000 0.00000000 0.00000000
vn -1.00000000 0.00000000 0.00000000
vn -1.00000000 0.00000000 0.00000000
s 1
usemtl Medium_Wood
f 34/100/100 33/99/99 31/97/97
f 33/99/99 32/98/98 31/97/97
s 2
f 35/101/101 33/105/105 34/104/104
f 34/104/104 37/103/103 36/102/102
f 34/104/104 36/102/102 35/101/101
s 3
f 38/106/106 39/107/107 36/109/109
f 39/107/107 35/108/108 36/109/109
s 4
f 39/110/110 38/111/111 41/113/113
f 38/111/111 40/112/112 41/113/113
s 5
f 32/114/114 39/115/115 41/116/116
f 32/114/114 41/116/116 42/117/117
s 6
f 44/121/121 42/122/122 41/118/118
f 41/118/118 40/119/119 44/121/121
f 40/119/119 43/120/120 44/121/121
s 7
f 44/123/123 43/124/124 45/125/125
f 44/123/123 45/125/125 31/126/126
s 8
f 37/131/131 45/130/130 43/129/129
f 36/132/132 37/131/131 40/128/128
f 40/128/128 38/127/127 36/132/132
f 37/131/131 43/129/129 40/128/128
s 9
f 37/136/136 34/135/135 45/133/133
f 34/135/135 31/134/134 45/133/133
s 10
f 31/137/137 32/138/138 42/139/139
f 31/137/137 42/139/139 44/140/140
s 11
f 39/141/141 32/142/142 33/143/143
f 39/141/141 33/143/143 35/144/144
