mtllib Kitchen_Cabinet_Wall_Half.mtl
o object1
g object1
v -0.47500000 1.57500000 0.00000000
v -0.02500000 1.57500000 0.00000000
v -0.02500000 2.62500000 0.00000000
v -0.47500000 2.62500000 0.00000000
v -0.10000000 1.65000000 0.01250000
v -0.40000000 1.65000000 0.01250000
v -0.40000000 2.55000000 0.01250000
v -0.10000000 2.55000000 0.01250000
v -0.47500000 2.62500000 0.01250000
v -0.02500000 2.62500000 0.01250000
v -0.02500000 1.57500000 0.01250000
v -0.47500000 1.57500000 0.01250000
v -0.08750000 2.10000000 0.02500000
v -0.08750000 1.63750000 0.02500000
v -0.41250000 1.63750000 0.02500000
v -0.41250000 2.10000000 0.02500000
v -0.46250000 2.10000000 0.02500000
v -0.46250000 1.58750000 0.02500000
v -0.03750000 1.58750000 0.02500000
v -0.03750000 2.10000000 0.02500000
v -0.41250000 2.56250000 0.02500000
v -0.08750000 2.56250000 0.02500000
v -0.03750000 2.61250000 0.02500000
v -0.46250000 2.61250000 0.02500000
vt 0.00000000 1.00000000
vt 0.00000000 0.00000000
vt 1.00000000 0.00000000
vt 1.00000000 1.00000000
vt 0.00000000 1.00000000
vt 0.00000000 0.00000000
vt 1.00000000 0.00000000
vt 1.00000000 1.00000000
vt 0.00000000 1.00000000
vt 0.00000000 0.00000000
vt 1.00000000 0.00000000
vt 1.00000000 1.00000000
vt 0.00000000 1.00000000
vt 0.00000000 0.00000000
vt 1.00000000 0.00000000
vt 1.00000000 1.00000000
vt 0.00000000 1.00000000
vt 0.00000000 0.00000000
vt 1.00000000 0.00000000
vt 1.00000000 1.00000000
vt 0.50000000 0.11764706
vt 0.04878049 0.11764706
vt 0.04878049 0.88235294
vt 0.50000000 0.88235294
vt 0.50000000 1.00000000
vt 0.00000000 1.00000000
vt 0.00000000 0.00000000
vt 0.50000000 0.00000000
vt 0.95121951 0.88235294
vt 0.95121951 0.11764706
vt 1.00000000 0.00000000
vt 1.00000000 1.00000000
vt 0.00000000 1.00000000
vt 0.00000000 0.00000000
vt 1.00000000 0.00000000
vt 1.00000000 1.00000000
vt 0.00000000 0.00000000
vt 1.00000000 0.00000000
vt 0.97222222 1.00000000
vt 0.02777778 1.00000000
vt 0.00000000 0.00000000
vt 1.00000000 0.00000000
vt 0.98809524 1.00000000
vt 0.01190476 1.00000000
vt 0.50000000 1.00000000
vt 0.02777778 0.00000000
vt 0.97222222 0.00000000
vt 1.00000000 1.00000000
vt 0.00000000 1.00000000
vt 0.01190476 0.00000000
vt 0.98809524 0.00000000
vt 1.00000000 1.00000000
vt 0.00000000 1.00000000
vt 0.50000000 0.00000000
vt 0.00000000 0.00000000
vt 1.00000000 0.00000000
vt 0.96153846 1.00000000
vt 0.03846154 1.00000000
vt 0.01351351 0.00000000
vt 0.98648649 0.00000000
vt 1.00000000 1.00000000
vt 0.00000000 1.00000000
vt 0.50000000 1.00000000
vt 0.03846154 0.00000000
vt 0.96153846 0.00000000
vt 1.00000000 1.00000000
vt 0.00000000 1.00000000
vt 0.00000000 0.00000000
vt 1.00000000 0.00000000
vt 0.98648649 1.00000000
vt 0.01351351 1.00000000
vt 0.50000000 0.00000000
vn 0.00000000 0.00000000 -1.00000000
vn 0.00000000 0.00000000 -1.00000000
vn 0.00000000 0.00000000 -1.00000000
vn 0.00000000 0.00000000 -1.00000000
vn 0.00000000 0.00000000 1.00000000
vn 0.00000000 0.00000000 1.00000000
vn 0.00000000 0.00000000 1.00000000
vn 0.00000000 0.00000000 1.00000000
vn 0.00000000 1.00000000 0.00000000
vn 0.00000000 1.00000000 0.00000000
vn 0.00000000 1.00000000 0.00000000
vn 0.00000000 1.00000000 0.00000000
vn 1.00000000 0.00000000 0.00000000
vn 1.00000000 0.00000000 0.00000000
vn 1.00000000 0.00000000 0.00000000
vn 1.00000000 0.00000000 0.00000000
vn 0.00000000 -1.00000000 0.00000000
vn 0.00000000 -1.00000000 0.00000000
vn 0.00000000 -1.00000000 0.00000000
vn 0.00000000 -1.00000000 0.00000000
vn 0.00000000 0.00000000 1.00000000
vn 0.00000000 0.00000000 1.00000000
vn 0.00000000 0.00000000 1.00000000
vn 0.00000000 0.00000000 1.00000000
vn 0.00000000 0.00000000 1.00000000
vn 0.00000000 0.00000000 1.00000000
vn 0.00000000 0.00000000 1.00000000
vn 0.00000000 0.00000000 1.00000000
vn 0.00000000 0.00000000 1.00000000
vn 0.00000000 0.00000000 1.00000000
vn 0.00000000 0.00000000 1.00000000
vn 0.00000000 0.00000000 1.00000000
vn -1.00000000 0.00000000 0.00000000
vn -1.00000000 0.00000000 0.00000000
vn -1.00000000 0.00000000 0.00000000
vn -1.00000000 0.00000000 0.00000000
vn 0.00000000 0.70710678 0.70710678
vn 0.00000000 0.70710678 0.70710678
vn 0.00000000 0.70710678 0.70710678
vn 0.00000000 0.70710678 0.70710678
vn 0.70710678 0.00000000 0.70710678
vn 0.70710678 0.00000000 0.70710678
vn 0.70710678 0.00000000 0.70710678
vn 0.70710678 0.00000000 0.70710678
vn 0.70710678 0.00000000 0.70710678
vn 0.00000000 -0.70710678 0.70710678
vn 0.00000000 -0.70710678 0.70710678
vn 0.00000000 -0.70710678 0.70710678
vn 0.00000000 -0.70710678 0.70710678
vn -0.70710678 0.00000000 0.70710678
vn -0.70710678 0.00000000 0.70710678
vn -0.70710678 0.00000000 0.70710678
vn -0.70710678 0.00000000 0.70710678
vn -0.70710678 0.00000000 0.70710678
vn -0.00000000 -0.70710678 0.70710678
vn -0.00000000 -0.70710678 0.70710678
vn 0.00000000 -0.70710678 0.70710678
vn 0.00000000 -0.70710678 0.70710678
vn -0.70710678 0.00000000 0.70710678
vn -0.70710678 0.00000000 0.70710678
vn -0.70710678 0.00000000 0.70710678
vn -0.70710678 0.00000000 0.70710678
vn -0.70710678 0.00000000 0.70710678
vn 0.00000000 0.70710678 0.70710678
vn 0.00000000 0.70710678 0.70710678
vn 0.00000000 0.70710678 0.70710678
vn 0.00000000 0.70710678 0.70710678
vn 0.70710678 0.00000000 0.70710678
vn 0.70710678 0.00000000 0.70710678
vn 0.70710678 0.00000000 0.70710678
vn 0.70710678 0.00000000 0.70710678
vn 0.70710678 0.00000000 0.70710678
s 1
usemtl Medium_Wood
f 4/4/4 3/3/3 1/1/1
f 3/3/3 2/2/2 1/1/1
s 2
f 8/8/8 7/7/7 5/5/5
f 7/7/7 6/6/6 5/5/5
s 3
f 9/9/9 10/10/10 3/11/11
f 9/9/9 3/11/11 4/12/12
s 4
f 10/13/13 11/14/14 3/16/16
f 11/14/14 2/15/15 3/16/16
s 5
f 1/20/20 2/19/19 11/18/18
f 1/20/20 11/18/18 12/17/17
s 6
f 15/23/23 16/24/24 17/25/25
f 24/32/32 17/25/25 21/29/29
f 23/31/31 24/32/32 22/30/30
f 22/30/30 13/21/21 20/28/28
f 14/22/22 19/27/27 20/28/28
f 14/22/22 18/26/26 19/27/27
f 20/28/28 13/21/21 14/22/22
f 22/30/30 20/28/28 23/31/31
f 24/32/32 21/29/29 22/30/30
f 17/25/25 16/24/24 21/29/29
f 14/22/22 15/23/23 18/26/26
f 15/23/23 17/25/25 18/26/26
s 7
f 4/36/36 1/35/35 9/33/33
f 1/35/35 12/34/34 9/33/33
s 8
f 10/37/37 9/38/38 23/40/40
f 9/38/38 24/39/39 23/40/40
s 9
f 20/45/45 19/44/44 11/41/41
f 11/41/41 10/42/42 20/45/45
f 10/42/42 23/43/43 20/45/45
s 10
f 19/46/46 18/47/47 11/49/49
f 18/47/47 12/48/48 11/49/49
s 11
f 17/54/54 24/51/51 9/52/52
f 17/54/54 9/52/52 12/53/53
f 12/53/53 18/50/50 17/54/54
s 12
f 22/55/55 21/56/56 8/58/58
f 21/56/56 7/57/57 8/58/58
s 13
f 13/63/63 22/62/62 8/59/59
f 8/59/59 5/60/60 13/63/63
f 5/60/60 14/61/61 13/63/63
s 14
f 5/64/64 6/65/65 14/67/67
f 6/65/65 15/66/66 14/67/67
s 15
f 7/71/71 21/68/68 16/72/72
f 16/72/72 15/69/69 6/70/70
f 16/72/72 6/70/70 7/71/71
o object2
g object2
v -0.05000000 2.60000000 0.00000000
v -0.45000000 2.60000000 0.00000000
v -0.45000000 2.60000000 -0.35000000
v -0.05000000 2.60000000 -0.35000000
v -0.45000000 2.10000000 0.00000000
v -0.05000000 2.10000000 0.00000000
v 0.00000000 2.10000000 0.00000000
v 0.00000000 2.65000000 0.00000000
v -0.50000000 2.65000000 0.00000000
v -0.50000000 2.10000000 0.00000000
v -0.05000000 1.60000000 0.00000000
v -0.45000000 1.60000000 0.00000000
v -0.50000000 1.55000000 0.00000000
v 0.00000000 1.55000000 0.00000000
v -0.45000000 1.60000000 -0.35000000
v -0.05000000 1.60000000 -0.35000000
v -0.45000000 1.92500000 -0.35000000
v -0.05000000 1.92500000 -0.35000000
v -0.05000000 1.92500000 -0.05000000
v -0.45000000 1.92500000 -0.05000000
v -0.45000000 1.95000000 -0.05000000
v -0.05000000 1.95000000 -0.05000000
v -0.45000000 1.95000000 -0.35000000
v -0.05000000 1.95000000 -0.35000000
v -0.45000000 2.25000000 -0.35000000
v -0.05000000 2.25000000 -0.35000000
v -0.05000000 2.25000000 -0.05000000
v -0.45000000 2.25000000 -0.05000000
v -0.45000000 2.27500000 -0.05000000
v -0.05000000 2.27500000 -0.05000000
v -0.45000000 2.27500000 -0.35000000
v -0.05000000 2.27500000 -0.35000000
v -0.50000000 2.65000000 -0.40000000
v 0.00000000 2.65000000 -0.40000000
v 0.00000000 1.55000000 -0.40000000
v -0.50000000 1.55000000 -0.40000000
vt 0.00000000 1.00000000
vt 0.00000000 0.00000000
vt 1.00000000 0.00000000
vt 1.00000000 1.00000000
vt 0.50000000 0.10000000
vt 0.04545455 0.10000000
vt 0.04545455 0.90000000
vt 0.50000000 0.90000000
vt 0.50000000 1.00000000
vt 0.00000000 1.00000000
vt 0.00000000 0.00000000
vt 0.50000000 0.00000000
vt 0.95454545 0.90000000
vt 0.95454545 0.10000000
vt 1.00000000 0.00000000
vt 1.00000000 1.00000000
vt 0.00000000 1.00000000
vt 0.00000000 0.00000000
vt 1.00000000 0.00000000
vt 1.00000000 1.00000000
vt 1.00000000 0.00000000
vt 1.00000000 1.00000000
vt 0.00000000 1.00000000
vt 0.00000000 0.00000000
vt 0.00000000 1.00000000
vt 0.00000000 0.00000000
vt 1.00000000 0.00000000
vt 1.00000000 1.00000000
vt 0.00000000 1.00000000
vt 0.00000000 0.00000000
vt 1.00000000 0.00000000
vt 1.00000000 1.00000000
vt 0.00000000 1.00000000
vt 0.00000000 0.00000000
vt 1.00000000 0.00000000
vt 1.00000000 1.00000000
vt 0.00000000 1.00000000
vt 0.00000000 0.00000000
vt 1.00000000 0.00000000
vt 1.00000000 1.00000000
vt 0.00000000 1.00000000
vt 0.00000000 0.00000000
vt 1.00000000 0.00000000
vt 1.00000000 1.00000000
vt 0.00000000 1.00000000
vt 0.00000000 0.00000000
vt 1.00000000 0.00000000
vt 1.00000000 1.00000000
vt 0.00000000 1.00000000
vt 0.00000000 0.00000000
vt 1.00000000 0.00000000
vt 1.00000000 1.00000000
vt 1.00000000 1.00000000
vt 0.00000000 1.00000000
vt 0.00000000 0.00000000
vt 1.00000000 0.00000000
vt 0.00000000 1.00000000
vt 0.00000000 0.00000000
vt 1.00000000 0.00000000
vt 1.00000000 1.00000000
vt 0.00000000 1.00000000
vt 0.00000000 0.00000000
vt 1.00000000 0.00000000
vt 1.00000000 1.00000000
vt 0.50000000 0.00000000
vt 1.00000000 1.00000000
vt 0.00000000 1.00000000
vt 0.00000000 0.00000000
vt 1.00000000 0.00000000
vt 0.00000000 1.00000000
vt 0.00000000 0.00000000
vt 1.00000000 0.00000000
vt 1.00000000 1.00000000
vt 0.50000000 1.00000000
vt 0.00000000 1.00000000
vt 0.00000000 0.00000000
vt 1.00000000 0.00000000
vt 1.00000000 1.00000000
vt 0.67500000 1.00000000
vt 0.67500000 0.14285714
vt 0.65000000 0.14285714
vt 0.65000000 1.00000000
vt 0.35000000 1.00000000
vt 0.35000000 0.14285714
vt 0.32500000 0.14285714
vt 0.32500000 1.00000000
vt 0.50000000 0.00000000
vt 0.00000000 1.00000000
vt 0.00000000 0.00000000
vt 1.00000000 0.00000000
vt 1.00000000 1.00000000
vt 0.00000000 1.00000000
vt 0.00000000 0.00000000
vt 1.00000000 0.00000000
vt 1.00000000 1.00000000
vt 0.67500000 1.00000000
vt 0.67500000 0.14285714
vt 0.65000000 0.14285714
vt 0.65000000 1.00000000
vt 0.35000000 1.00000000
vt 0.35000000 0.14285714
vt 0.32500000 0.14285714
vt 0.32500000 1.00000000
vt 0.50000000 0.00000000
vn 0.00000000 -1.00000000 0.00000000
vn 0.00000000 -1.00000000 0.00000000
vn 0.00000000 -1.00000000 0.00000000
vn 0.00000000 -1.00000000 0.00000000
vn 0.00000000 0.00000000 1.00000000
vn 0.00000000 0.00000000 1.00000000
vn 0.00000000 0.00000000 1.00000000
vn 0.00000000 0.00000000 1.00000000
vn 0.00000000 0.00000000 1.00000000
vn 0.00000000 0.00000000 1.00000000
vn 0.00000000 0.00000000 1.00000000
vn 0.00000000 0.00000000 1.00000000
vn 0.00000000 0.00000000 1.00000000
vn 0.00000000 0.00000000 1.00000000
vn 0.00000000 0.00000000 1.00000000
vn 0.00000000 0.00000000 1.00000000
vn 0.00000000 1.00000000 0.00000000
vn 0.00000000 1.00000000 0.00000000
vn 0.00000000 1.00000000 0.00000000
vn 0.00000000 1.00000000 0.00000000
vn 0.00000000 0.00000000 1.00000000
vn 0.00000000 0.00000000 1.00000000
vn 0.00000000 0.00000000 1.00000000
vn 0.00000000 0.00000000 1.00000000
vn 0.00000000 -1.00000000 0.00000000
vn 0.00000000 -1.00000000 0.00000000
vn 0.00000000 -1.00000000 0.00000000
vn 0.00000000 -1.00000000 0.00000000
vn 0.00000000 0.00000000 1.00000000
vn 0.00000000 0.00000000 1.00000000
vn 0.00000000 0.00000000 1.00000000
vn 0.00000000 0.00000000 1.00000000
vn 0.00000000 1.00000000 0.00000000
vn 0.00000000 1.00000000 0.00000000
vn 0.00000000 1.00000000 0.00000000
vn 0.00000000 1.00000000 0.00000000
vn 0.00000000 0.00000000 1.00000000
vn 0.00000000 0.00000000 1.00000000
vn 0.00000000 0.00000000 1.00000000
vn 0.00000000 0.00000000 1.00000000
vn 0.00000000 -1.00000000 0.00000000
vn 0.00000000 -1.00000000 0.00000000
vn 0.00000000 -1.00000000 0.00000000
vn 0.00000000 -1.00000000 0.00000000
vn 0.00000000 0.00000000 1.00000000
vn 0.00000000 0.00000000 1.00000000
vn 0.00000000 0.00000000 1.00000000
vn 0.00000000 0.00000000 1.00000000
vn 0.00000000 1.00000000 0.00000000
vn 0.00000000 1.00000000 0.00000000
vn 0.00000000 1.00000000 0.00000000
vn 0.00000000 1.00000000 0.00000000
vn 0.00000000 1.00000000 0.00000000
vn 0.00000000 1.00000000 0.00000000
vn 0.00000000 1.00000000 0.00000000
vn 0.00000000 1.00000000 0.00000000
vn 0.00000000 0.00000000 -1.00000000
vn 0.00000000 0.00000000 -1.00000000
vn 0.00000000 0.00000000 -1.00000000
vn 0.00000000 0.00000000 -1.00000000
vn 1.00000000 0.00000000 0.00000000
vn 1.00000000 0.00000000 0.00000000
vn 1.00000000 0.00000000 0.00000000
vn 1.00000000 0.00000000 0.00000000
vn 1.00000000 0.00000000 0.00000000
vn -0.00000000 -1.00000000 -0.00000000
vn 0.00000000 -1.00000000 -0.00000000
vn 0.00000000 -1.00000000 -0.00000000
vn -0.00000000 -1.00000000 -0.00000000
vn -1.00000000 0.00000000 0.00000000
vn -1.00000000 0.00000000 0.00000000
vn -1.00000000 0.00000000 0.00000000
vn -1.00000000 0.00000000 0.00000000
vn -1.00000000 0.00000000 0.00000000
vn -1.00000000 0.00000000 0.00000000
vn -1.00000000 0.00000000 0.00000000
vn -1.00000000 0.00000000 0.00000000
vn -1.00000000 0.00000000 0.00000000
vn -1.00000000 0.00000000 0.00000000
vn -1.00000000 0.00000000 0.00000000
vn -1.00000000 0.00000000 0.00000000
vn -1.00000000 0.00000000 0.00000000
vn -1.00000000 0.00000000 0.00000000
vn -1.00000000 0.00000000 0.00000000
vn -1.00000000 0.00000000 0.00000000
vn -1.00000000 0.00000000 0.00000000
vn -1.00000000 0.00000000 0.00000000
vn 0.00000000 0.00000000 1.00000000
vn 0.00000000 0.00000000 1.00000000
vn 0.00000000 0.00000000 1.00000000
vn 0.00000000 0.00000000 1.00000000
vn 1.00000000 0.00000000 0.00000000
vn 1.00000000 0.00000000 0.00000000
vn 1.00000000 0.00000000 0.00000000
vn 1.00000000 0.00000000 0.00000000
vn 1.00000000 0.00000000 0.00000000
vn 1.00000000 0.00000000 0.00000000
vn 1.00000000 0.00000000 0.00000000
vn 1.00000000 0.00000000 0.00000000
vn 1.00000000 0.00000000 0.00000000
vn 1.00000000 0.00000000 0.00000000
vn 1.00000000 0.00000000 0.00000000
vn 1.00000000 0.00000000 0.00000000
vn 1.00000000 0.00000000 0.00000000
s 1
usemtl Dark_Wood
f 25/73/73 26/74/74 28/76/76
f 26/74/74 27/75/75 28/76/76
s 2
f 34/84/84 29/77/77 26/78/78
f 33/83/83 26/78/78 25/79/79
f 25/79/79 31/81/81 32/82/82
f 35/85/85 38/88/88 31/81/81
f 35/85/85 37/87/87 38/88/88
f 35/85/85 36/86/86 37/87/87
f 31/81/81 30/80/80 35/85/85
f 25/79/79 30/80/80 31/81/81
f 32/82/82 33/83/83 25/79/79
f 36/86/86 34/84/84 37/87/87
f 36/86/86 29/77/77 34/84/84
f 33/83/83 34/84/84 26/78/78
s 3
f 40/92/92 39/91/91 35/89/89
f 39/91/91 36/90/90 35/89/89
s 4
f 39/96/96 40/95/95 41/93/93
f 40/95/95 42/94/94 41/93/93
s 5
usemtl Medium_Wood
f 43/97/97 44/98/98 42/100/100
f 44/98/98 41/99/99 42/100/100
s 6
f 46/104/104 45/103/103 43/101/101
f 45/103/103 44/102/102 43/101/101
s 7
f 48/108/108 47/107/107 46/105/105
f 47/107/107 45/106/106 46/105/105
s 8
usemtl Dark_Wood
f 50/112/112 49/111/111 48/109/109
f 49/111/111 47/110/110 48/109/109
s 9
usemtl Medium_Wood
f 51/113/113 52/114/114 50/116/116
f 52/114/114 49/115/115 50/116/116
s 10
f 54/120/120 53/119/119 51/117/117
f 53/119/119 52/118/118 51/117/117
s 11
f 56/124/124 55/123/123 54/121/121
f 55/123/123 53/122/122 54/121/121
s 12
usemtl Dark_Wood
f 57/125/125 33/126/126 32/127/127
f 57/125/125 32/127/127 58/128/128
s 13
f 57/129/129 58/130/130 60/132/132
f 58/130/130 59/131/131 60/132/132
s 14
f 58/133/133 32/134/134 31/137/137
f 31/137/137 38/135/135 59/136/136
f 58/133/133 31/137/137 59/136/136
s 15
f 59/141/141 38/140/140 60/138/138
f 38/140/140 37/139/139 60/138/138
s 16
f 34/146/146 33/142/142 57/143/143
f 57/143/143 60/144/144 34/146/146
f 60/144/144 37/145/145 34/146/146
s 17
f 51/153/153 50/154/154 48/155/155
f 30/159/159 51/153/153 46/156/156
f 46/156/156 43/157/157 35/148/148
f 43/157/157 40/147/147 35/148/148
f 43/157/157 42/158/158 40/147/147
f 35/148/148 30/159/159 46/156/156
f 30/159/159 25/149/149 51/153/153
f 25/149/149 28/150/150 54/152/152
f 28/150/150 56/151/151 54/152/152
f 25/149/149 54/152/152 51/153/153
f 51/153/153 48/155/155 46/156/156
s 18
f 28/163/163 27/162/162 56/160/160
f 27/162/162 55/161/161 56/160/160
s 19
f 47/172/172 49/171/171 52/170/170
f 45/173/173 52/170/170 29/176/176
f 45/173/173 29/176/176 36/165/165
f 36/165/165 39/164/164 44/174/174
f 39/164/164 41/175/175 44/174/174
f 36/165/165 44/174/174 45/173/173
f 52/170/170 26/166/166 29/176/176
f 53/169/169 27/167/167 26/166/166
f 53/169/169 55/168/168 27/167/167
f 52/170/170 53/169/169 26/166/166
f 45/173/173 47/172/172 52/170/170
