mtllib Roof_Eave_Corner_Inner.mtl
o object1
g object1
v -0.35000000 -0.05000000 -0.35000000
v -0.35000000 -0.05000000 0.50000000
v -0.45000000 -0.05000000 0.50000000
v -0.45000000 -0.05000000 -0.45000000
v 0.50000000 -0.05000000 -0.45000000
v 0.50000000 -0.05000000 -0.35000000
v -0.50000000 0.10000000 -0.50000000
v -0.50000000 0.10000000 0.50000000
v -0.50000000 0.00000000 -0.50000000
v -0.50000000 -0.00000000 0.50000000
v 0.50000000 0.10000000 -0.50000000
v 0.50000000 -0.00000000 -0.50000000
vt 0.89473684 0.10526316
vt 0.00000000 0.10526316
vt 0.00000000 0.00000000
vt 1.00000000 0.00000000
vt 1.00000000 1.00000000
vt 0.89473684 1.00000000
vt 0.00000000 0.00000000
vt 0.85000000 0.00000000
vt 1.00000000 1.00000000
vt 0.00000000 1.00000000
vt 0.00000000 0.00000000
vt 1.00000000 0.00000000
vt 1.00000000 1.00000000
vt 0.00000000 1.00000000
vt 0.00000000 0.00000000
vt 1.00000000 0.00000000
vt 1.00000000 1.00000000
vt 0.00000000 1.00000000
vt 1.00000000 1.00000000
vt 0.00000000 1.00000000
vt 0.15000000 0.00000000
vt 1.00000000 0.00000000
vt 1.00000000 0.00000000
vt 1.00000000 0.66666667
vt 0.66666667 1.00000000
vt 0.00000000 1.00000000
vt 0.00000000 0.00000000
vt 1.00000000 0.00000000
vt 1.00000000 1.00000000
vt 0.05000000 1.00000000
vt 0.00000000 1.00000000
vt 0.00000000 0.00000000
vt 1.00000000 0.00000000
vt 0.95000000 1.00000000
vt 0.00000000 1.00000000
vt 0.00000000 0.33333333
vt 0.33333333 0.00000000
vt 1.00000000 0.00000000
vn 0.00000000 -1.00000000 0.00000000
vn 0.00000000 -1.00000000 0.00000000
vn 0.00000000 -1.00000000 0.00000000
vn 0.00000000 -1.00000000 0.00000000
vn 0.00000000 -1.00000000 0.00000000
vn 0.00000000 -1.00000000 0.00000000
vn 0.70710678 0.70710678 0.00000000
vn 0.70710678 0.70710678 0.00000000
vn 0.70710678 0.70710678 0.00000000
vn 0.70710678 0.70710678 0.00000000
vn -1.00000000 0.00000000 -0.00000000
vn -1.00000000 0.00000000 -0.00000000
vn -1.00000000 0.00000000 -0.00000000
vn -1.00000000 0.00000000 -0.00000000
vn 0.00000000 0.00000000 -1.00000000
vn 0.00000000 0.00000000 -1.00000000
vn 0.00000000 0.00000000 -1.00000000
vn 0.00000000 0.00000000 -1.00000000
vn -0.00000000 0.70710678 0.70710678
vn -0.00000000 0.70710678 0.70710678
vn -0.00000000 0.70710678 0.70710678
vn -0.00000000 0.70710678 0.70710678
vn 1.00000000 0.00000000 0.00000000
vn 1.00000000 0.00000000 0.00000000
vn 1.00000000 0.00000000 0.00000000
vn 1.00000000 0.00000000 0.00000000
vn 0.00000000 -0.70710678 -0.70710678
vn 0.00000000 -0.70710678 -0.70710678
vn 0.00000000 -0.70710678 -0.70710678
vn 0.00000000 -0.70710678 -0.70710678
vn -0.70710678 -0.70710678 -0.00000000
vn -0.70710678 -0.70710678 -0.00000000
vn -0.70710678 -0.70710678 -0.00000000
vn -0.70710678 -0.70710678 -0.00000000
vn -0.00000000 -0.00000000 1.00000000
vn -0.00000000 -0.00000000 1.00000000
vn -0.00000000 -0.00000000 1.00000000
vn -0.00000000 -0.00000000 1.00000000
s 1
usemtl Roof
f 1/1/1 2/2/2 3/3/3
f 1/1/1 4/4/4 5/5/5
f 1/1/1 3/3/3 4/4/4
f 5/5/5 6/6/6 1/1/1
s 2
f 2/7/7 1/8/8 8/10/10
f 1/8/8 7/9/9 8/10/10
s 3
f 8/11/11 7/12/12 10/14/14
f 7/12/12 9/13/13 10/14/14
s 4
f 7/15/15 11/16/16 12/17/17
f 7/15/15 12/17/17 9/18/18
s 5
f 11/19/19 7/20/20 1/21/21
f 11/19/19 1/21/21 6/22/22
s 6
f 5/25/25 12/24/24 11/23/23
f 6/26/26 5/25/25 11/23/23
s 7
f 9/27/27 12/28/28 4/30/30
f 12/28/28 5/29/29 4/30/30
s 8
f 3/31/31 10/32/32 4/34/34
f 10/32/32 9/33/33 4/34/34
s 9
f 8/35/35 10/36/36 3/37/37
f 8/35/35 3/37/37 2/38/38
o object2
g object2
v -0.35000000 -0.15000000 -0.35000000
v 0.50000000 -0.15000000 -0.35000000
v 0.50000000 -0.10000000 -0.40000000
v -0.40000000 -0.10000000 -0.40000000
v 0.50000000 -0.05000000 -0.40000000
v -0.40000000 -0.05000000 -0.40000000
v -0.40000000 -0.05000000 0.50000000
v -0.40000000 -0.10000000 0.50000000
v -0.35000000 -0.15000000 0.50000000
v -0.35000000 -0.05000000 0.50000000
v -0.35000000 -0.10000000 0.50000000
v -0.25000000 -0.10000000 0.50000000
v -0.25000000 -0.05000000 0.50000000
v -0.20000000 -0.05000000 0.50000000
v -0.20000000 -0.10000000 0.50000000
v -0.25000000 -0.15000000 0.50000000
v -0.35000000 -0.10000000 -0.35000000
v -0.35000000 -0.05000000 -0.35000000
v 0.50000000 -0.05000000 -0.35000000
v 0.50000000 -0.10000000 -0.35000000
v 0.50000000 -0.10000000 -0.25000000
v -0.25000000 -0.10000000 -0.25000000
v 0.50000000 -0.05000000 -0.25000000
v -0.25000000 -0.05000000 -0.25000000
v 0.50000000 -0.05000000 -0.20000000
v -0.20000000 -0.05000000 -0.20000000
v 0.50000000 -0.10000000 -0.20000000
v -0.20000000 -0.10000000 -0.20000000
v 0.50000000 -0.15000000 -0.25000000
v -0.25000000 -0.15000000 -0.25000000
vt 0.05555556 0.00000000
vt 1.00000000 0.00000000
vt 1.00000000 1.00000000
vt 0.00000000 1.00000000
vt 1.00000000 0.00000000
vt 1.00000000 1.00000000
vt 0.00000000 1.00000000
vt 0.00000000 0.00000000
vt 1.00000000 0.00000000
vt 1.00000000 1.00000000
vt 0.00000000 1.00000000
vt 0.00000000 0.00000000
vt 0.75000000 0.00000000
vt 1.00000000 0.50000000
vt 1.00000000 1.00000000
vt 0.75000000 1.00000000
vt 0.75000000 0.50000000
vt 0.25000000 0.50000000
vt 0.25000000 1.00000000
vt 0.00000000 1.00000000
vt 0.00000000 0.50000000
vt 0.25000000 0.00000000
vt 1.00000000 1.00000000
vt 0.00000000 1.00000000
vt 0.00000000 0.00000000
vt 1.00000000 0.00000000
vt 1.00000000 0.00000000
vt 1.00000000 1.00000000
vt 0.00000000 1.00000000
vt 0.00000000 0.00000000
vt 0.00000000 0.00000000
vt 1.00000000 0.00000000
vt 1.00000000 1.00000000
vt 0.88235294 1.00000000
vt 0.88235294 0.11764706
vt 0.00000000 0.11764706
vt 0.00000000 0.00000000
vt 1.00000000 0.00000000
vt 1.00000000 1.00000000
vt 0.00000000 1.00000000
vt 1.00000000 1.00000000
vt 0.00000000 1.00000000
vt 0.00000000 0.00000000
vt 1.00000000 0.00000000
vt 0.00000000 0.06666667
vt 0.00000000 0.00000000
vt 1.00000000 0.00000000
vt 1.00000000 1.00000000
vt 0.93333333 1.00000000
vt 0.93333333 0.06666667
vt 1.00000000 0.00000000
vt 1.00000000 1.00000000
vt 0.00000000 1.00000000
vt 0.00000000 0.00000000
vt 1.00000000 0.00000000
vt 1.00000000 1.00000000
vt 0.00000000 1.00000000
vt 0.06666667 0.00000000
vt 0.00000000 1.00000000
vt 0.00000000 0.00000000
vt 1.00000000 0.00000000
vt 1.00000000 1.00000000
vt 0.00000000 1.00000000
vt 0.00000000 0.00000000
vt 0.93333333 0.00000000
vt 1.00000000 1.00000000
vt 0.00000000 0.05555556
vt 0.00000000 0.00000000
vt 1.00000000 0.00000000
vt 1.00000000 1.00000000
vt 0.94444444 1.00000000
vt 0.94444444 0.05555556
vt 1.00000000 1.00000000
vt 0.00000000 1.00000000
vt 0.00000000 0.00000000
vt 0.94444444 0.00000000
vt 0.00000000 0.88235294
vt 0.88235294 0.88235294
vt 0.88235294 0.00000000
vt 1.00000000 0.00000000
vt 1.00000000 1.00000000
vt 0.00000000 1.00000000
vt 0.75000000 0.00000000
vt 1.00000000 0.50000000
vt 1.00000000 1.00000000
vt 0.75000000 1.00000000
vt 0.75000000 0.50000000
vt 0.25000000 0.50000000
vt 0.25000000 1.00000000
vt 0.00000000 1.00000000
vt 0.00000000 0.50000000
vt 0.25000000 0.00000000
vn 0.00000000 -0.70710678 -0.70710678
vn 0.00000000 -0.70710678 -0.70710678
vn 0.00000000 -0.70710678 -0.70710678
vn 0.00000000 -0.70710678 -0.70710678
vn 0.00000000 0.00000000 -1.00000000
vn 0.00000000 0.00000000 -1.00000000
vn 0.00000000 0.00000000 -1.00000000
vn 0.00000000 0.00000000 -1.00000000
vn -1.00000000 0.00000000 0.00000000
vn -1.00000000 0.00000000 0.00000000
vn -1.00000000 0.00000000 0.00000000
vn -1.00000000 0.00000000 0.00000000
vn 0.00000000 0.00000000 1.00000000
vn 0.00000000 -0.00000000 1.00000000
vn 0.00000000 -0.00000000 1.00000000
vn 0.00000000 0.00000000 1.00000000
vn 0.00000000 0.00000000 1.00000000
vn 0.00000000 0.00000000 1.00000000
vn 0.00000000 0.00000000 1.00000000
vn 0.00000000 0.00000000 1.00000000
vn 0.00000000 0.00000000 1.00000000
vn 0.00000000 0.00000000 1.00000000
vn 1.00000000 0.00000000 0.00000000
vn 1.00000000 0.00000000 0.00000000
vn 1.00000000 0.00000000 0.00000000
vn 1.00000000 0.00000000 0.00000000
vn 0.00000000 0.00000000 1.00000000
vn 0.00000000 0.00000000 1.00000000
vn 0.00000000 0.00000000 1.00000000
vn 0.00000000 0.00000000 1.00000000
vn 0.00000000 1.00000000 0.00000000
vn 0.00000000 1.00000000 0.00000000
vn 0.00000000 1.00000000 0.00000000
vn 0.00000000 1.00000000 0.00000000
vn 0.00000000 1.00000000 0.00000000
vn 0.00000000 1.00000000 0.00000000
vn 0.00000000 0.00000000 -1.00000000
vn 0.00000000 0.00000000 -1.00000000
vn 0.00000000 0.00000000 -1.00000000
vn 0.00000000 0.00000000 -1.00000000
vn -1.00000000 0.00000000 0.00000000
vn -1.00000000 0.00000000 0.00000000
vn -1.00000000 0.00000000 0.00000000
vn -1.00000000 0.00000000 0.00000000
vn -0.00000000 1.00000000 0.00000000
vn -0.00000000 1.00000000 0.00000000
vn -0.00000000 1.00000000 0.00000000
vn -0.00000000 1.00000000 0.00000000
vn -0.00000000 1.00000000 0.00000000
vn -0.00000000 1.00000000 0.00000000
vn 0.00000000 0.00000000 1.00000000
vn 0.00000000 0.00000000 1.00000000
vn 0.00000000 0.00000000 1.00000000
vn 0.00000000 0.00000000 1.00000000
vn 0.00000000 -0.70710678 0.70710678
vn 0.00000000 -0.70710678 0.70710678
vn 0.00000000 -0.70710678 0.70710678
vn 0.00000000 -0.70710678 0.70710678
vn 1.00000000 0.00000000 0.00000000
vn 1.00000000 0.00000000 0.00000000
vn 1.00000000 0.00000000 0.00000000
vn 1.00000000 0.00000000 0.00000000
vn 0.70710678 -0.70710678 0.00000000
vn 0.70710678 -0.70710678 0.00000000
vn 0.70710678 -0.70710678 0.00000000
vn 0.70710678 -0.70710678 0.00000000
vn 0.00000000 1.00000000 0.00000000
vn 0.00000000 1.00000000 0.00000000
vn 0.00000000 1.00000000 0.00000000
vn 0.00000000 1.00000000 0.00000000
vn 0.00000000 1.00000000 0.00000000
vn 0.00000000 1.00000000 0.00000000
vn -0.70710678 -0.70710678 0.00000000
vn -0.70710678 -0.70710678 0.00000000
vn -0.70710678 -0.70710678 0.00000000
vn -0.70710678 -0.70710678 0.00000000
vn -0.00000000 -1.00000000 0.00000000
vn -0.00000000 -1.00000000 0.00000000
vn -0.00000000 -1.00000000 0.00000000
vn -0.00000000 -1.00000000 0.00000000
vn -0.00000000 -1.00000000 0.00000000
vn -0.00000000 -1.00000000 0.00000000
vn 1.00000000 0.00000000 -0.00000000
vn 1.00000000 0.00000000 -0.00000000
vn 1.00000000 0.00000000 -0.00000000
vn 1.00000000 0.00000000 -0.00000000
vn 1.00000000 0.00000000 -0.00000000
vn 1.00000000 0.00000000 -0.00000000
vn 1.00000000 0.00000000 -0.00000000
vn 1.00000000 0.00000000 -0.00000000
vn 1.00000000 0.00000000 -0.00000000
vn 1.00000000 0.00000000 -0.00000000
s 1
usemtl Silver
f 16/42/42 15/41/41 13/39/39
f 15/41/41 14/40/40 13/39/39
s 2
f 16/46/46 18/45/45 15/43/43
f 18/45/45 17/44/44 15/43/43
s 3
f 20/50/50 19/49/49 16/47/47
f 19/49/49 18/48/48 16/47/47
s 4
f 26/58/58 25/57/57 24/56/56
f 28/60/60 24/56/56 23/55/55
f 23/55/55 20/52/52 21/51/51
f 22/54/54 19/53/53 20/52/52
f 23/55/55 22/54/54 20/52/52
f 23/55/55 21/51/51 28/60/60
f 28/60/60 27/59/59 24/56/56
f 27/59/59 26/58/58 24/56/56
s 5
f 30/64/64 22/63/63 29/61/61
f 22/63/63 23/62/62 29/61/61
s 6
f 30/68/68 29/67/67 31/65/65
f 29/67/67 32/66/66 31/65/65
s 7
f 23/69/69 24/74/74 34/73/73
f 34/73/73 32/71/71 29/70/70
f 34/73/73 33/72/72 32/71/71
f 29/70/70 23/69/69 34/73/73
s 8
f 36/78/78 35/77/77 34/75/75
f 35/77/77 33/76/76 34/75/75
s 9
f 34/82/82 24/81/81 36/79/79
f 24/81/81 25/80/80 36/79/79
s 10
f 25/84/84 26/83/83 38/88/88
f 38/88/88 35/86/86 36/85/85
f 38/88/88 37/87/87 35/86/86
f 36/85/85 25/84/84 38/88/88
s 11
f 38/92/92 40/91/91 37/89/89
f 40/91/91 39/90/90 37/89/89
s 12
f 40/96/96 42/95/95 41/94/94
f 40/96/96 41/94/94 39/93/93
s 13
f 40/100/100 38/99/99 27/97/97
f 38/99/99 26/98/98 27/97/97
s 14
f 42/104/104 40/103/103 28/101/101
f 40/103/103 27/102/102 28/101/101
s 15
f 19/106/106 22/105/105 30/110/110
f 30/110/110 17/108/108 18/107/107
f 30/110/110 31/109/109 17/108/108
f 18/107/107 19/106/106 30/110/110
s 16
f 13/114/114 21/113/113 20/112/112
f 13/114/114 20/112/112 16/111/111
s 17
f 42/116/116 28/115/115 21/120/120
f 13/119/119 14/118/118 42/116/116
f 42/116/116 21/120/120 13/119/119
f 14/118/118 41/117/117 42/116/116
s 18
f 33/126/126 35/127/127 37/128/128
f 32/125/125 33/126/126 41/130/130
f 41/130/130 14/121/121 32/125/125
f 14/121/121 15/122/122 32/125/125
f 15/122/122 17/123/123 31/124/124
f 15/122/122 31/124/124 32/125/125
f 33/126/126 39/129/129 41/130/130
f 33/126/126 37/128/128 39/129/129
