mtllib Roof_Eave_Corner_Outer.mtl
o object1
g object1
v -0.50000000 0.10000000 0.50000000
v -0.50000000 -0.05000000 0.65000000
v 0.65000000 -0.05000000 0.65000000
v 0.50000000 0.10000000 0.50000000
v -0.50000000 0.00000000 0.50000000
v -0.50000000 -0.05000000 0.55000000
v 0.50000000 -0.00000000 0.50000000
v 0.55000000 -0.05000000 0.55000000
v 0.50000000 0.00000000 -0.50000000
v 0.55000000 -0.05000000 -0.50000000
v 0.50000000 0.10000000 -0.50000000
v 0.65000000 -0.05000000 -0.50000000
vt 0.00000000 1.00000000
vt 0.00000000 0.00000000
vt 1.00000000 0.00000000
vt 0.86956522 1.00000000
vt 1.00000000 0.00000000
vt 1.00000000 0.66666667
vt 0.66666667 1.00000000
vt 0.00000000 1.00000000
vt 0.00000000 1.00000000
vt 0.00000000 0.00000000
vt 0.95238095 0.00000000
vt 1.00000000 1.00000000
vt 1.00000000 0.00000000
vt 1.00000000 1.00000000
vt 0.00000000 1.00000000
vt 0.04761905 0.00000000
vt 1.00000000 0.00000000
vt 1.00000000 0.66666667
vt 0.66666667 1.00000000
vt 0.00000000 1.00000000
vt 1.00000000 0.00000000
vt 1.00000000 1.00000000
vt 0.00000000 1.00000000
vt 0.00000000 0.00000000
vt 0.00000000 1.00000000
vt 0.00000000 0.00000000
vt 1.00000000 0.00000000
vt 1.00000000 1.00000000
vt 0.00000000 0.00000000
vt 1.00000000 0.00000000
vt 1.00000000 1.00000000
vt 0.13043478 1.00000000
vt 1.00000000 0.00000000
vt 1.00000000 0.08695652
vt 0.08695652 0.08695652
vt 0.08695652 1.00000000
vt 0.00000000 1.00000000
vt 0.00000000 0.00000000
vn -0.00000000 0.70710678 0.70710678
vn -0.00000000 0.70710678 0.70710678
vn -0.00000000 0.70710678 0.70710678
vn -0.00000000 0.70710678 0.70710678
vn -1.00000000 0.00000000 -0.00000000
vn -1.00000000 0.00000000 -0.00000000
vn -1.00000000 0.00000000 -0.00000000
vn -1.00000000 0.00000000 -0.00000000
vn 0.00000000 -0.70710678 -0.70710678
vn 0.00000000 -0.70710678 -0.70710678
vn 0.00000000 -0.70710678 -0.70710678
vn 0.00000000 -0.70710678 -0.70710678
vn -0.70710678 -0.70710678 0.00000000
vn -0.70710678 -0.70710678 0.00000000
vn -0.70710678 -0.70710678 0.00000000
vn -0.70710678 -0.70710678 0.00000000
vn -0.00000000 0.00000000 -1.00000000
vn -0.00000000 0.00000000 -1.00000000
vn -0.00000000 0.00000000 -1.00000000
vn -0.00000000 0.00000000 -1.00000000
vn -1.00000000 0.00000000 0.00000000
vn -1.00000000 0.00000000 0.00000000
vn -1.00000000 0.00000000 0.00000000
vn -1.00000000 0.00000000 0.00000000
vn 0.00000000 0.00000000 -1.00000000
vn 0.00000000 0.00000000 -1.00000000
vn 0.00000000 0.00000000 -1.00000000
vn 0.00000000 0.00000000 -1.00000000
vn 0.70710678 0.70710678 -0.00000000
vn 0.70710678 0.70710678 -0.00000000
vn 0.70710678 0.70710678 -0.00000000
vn 0.70710678 0.70710678 -0.00000000
vn -0.00000000 -1.00000000 -0.00000000
vn -0.00000000 -1.00000000 -0.00000000
vn -0.00000000 -1.00000000 -0.00000000
vn -0.00000000 -1.00000000 -0.00000000
vn -0.00000000 -1.00000000 -0.00000000
vn -0.00000000 -1.00000000 -0.00000000
s 1
usemtl Roof
f 1/1/1 2/2/2 4/4/4
f 2/2/2 3/3/3 4/4/4
s 2
f 5/6/6 6/7/7 2/8/8
f 1/5/5 5/6/6 2/8/8
s 3
f 6/9/9 5/10/10 7/11/11
f 6/9/9 7/11/11 8/12/12
s 4
f 9/13/13 10/14/14 7/16/16
f 10/14/14 8/15/15 7/16/16
s 5
f 10/19/19 9/18/18 11/17/17
f 12/20/20 10/19/19 11/17/17
s 6
f 11/21/21 9/22/22 4/24/24
f 9/22/22 7/23/23 4/24/24
s 7
f 5/25/25 1/26/26 7/28/28
f 1/26/26 4/27/27 7/28/28
s 8
f 3/29/29 12/30/30 4/32/32
f 12/30/30 11/31/31 4/32/32
s 9
f 8/35/35 10/34/34 12/33/33
f 3/38/38 2/37/37 8/35/35
f 8/35/35 12/33/33 3/38/38
f 2/37/37 6/36/36 8/35/35
o object2
g object2
v -0.50000000 -0.15000000 0.65000000
v -0.50000000 -0.10000000 0.60000000
v -0.50000000 -0.05000000 0.60000000
v -0.50000000 -0.05000000 0.65000000
v -0.50000000 -0.10000000 0.65000000
v -0.50000000 -0.10000000 0.75000000
v -0.50000000 -0.05000000 0.75000000
v -0.50000000 -0.05000000 0.80000000
v -0.50000000 -0.10000000 0.80000000
v -0.50000000 -0.15000000 0.75000000
v 0.60000000 -0.05000000 0.60000000
v 0.60000000 -0.05000000 -0.50000000
v 0.65000000 -0.05000000 -0.50000000
v 0.65000000 -0.05000000 0.65000000
v 0.65000000 -0.15000000 -0.50000000
v 0.60000000 -0.10000000 -0.50000000
v 0.65000000 -0.10000000 -0.50000000
v 0.75000000 -0.10000000 -0.50000000
v 0.75000000 -0.05000000 -0.50000000
v 0.80000000 -0.05000000 -0.50000000
v 0.80000000 -0.10000000 -0.50000000
v 0.75000000 -0.15000000 -0.50000000
v 0.60000000 -0.10000000 0.60000000
v 0.65000000 -0.15000000 0.65000000
v 0.80000000 -0.10000000 0.80000000
v 0.75000000 -0.15000000 0.75000000
v 0.80000000 -0.05000000 0.80000000
v 0.75000000 -0.05000000 0.75000000
v 0.75000000 -0.10000000 0.75000000
v 0.65000000 -0.10000000 0.65000000
vt 0.75000000 0.00000000
vt 1.00000000 0.50000000
vt 1.00000000 1.00000000
vt 0.75000000 1.00000000
vt 0.75000000 0.50000000
vt 0.25000000 0.50000000
vt 0.25000000 1.00000000
vt 0.00000000 1.00000000
vt 0.00000000 0.50000000
vt 0.25000000 0.00000000
vt 0.00000000 0.95652174
vt 0.95652174 0.95652174
vt 0.95652174 0.00000000
vt 1.00000000 0.00000000
vt 1.00000000 1.00000000
vt 0.00000000 1.00000000
vt 0.75000000 0.00000000
vt 1.00000000 0.50000000
vt 1.00000000 1.00000000
vt 0.75000000 1.00000000
vt 0.75000000 0.50000000
vt 0.25000000 0.50000000
vt 0.25000000 1.00000000
vt 0.00000000 1.00000000
vt 0.00000000 0.50000000
vt 0.25000000 0.00000000
vt 1.00000000 0.00000000
vt 1.00000000 1.00000000
vt 0.04347826 1.00000000
vt 0.00000000 0.00000000
vt 0.00000000 0.00000000
vt 1.00000000 0.00000000
vt 1.00000000 1.00000000
vt 0.03846154 1.00000000
vt 0.00000000 0.00000000
vt 1.00000000 0.00000000
vt 1.00000000 1.00000000
vt 0.00000000 1.00000000
vt 1.00000000 0.00000000
vt 1.00000000 1.00000000
vt 0.00000000 1.00000000
vt 0.00000000 0.00000000
vt 0.00000000 0.00000000
vt 1.00000000 0.00000000
vt 1.00000000 1.00000000
vt 0.00000000 1.00000000
vt 1.00000000 0.00000000
vt 1.00000000 1.00000000
vt 0.00000000 1.00000000
vt 0.00000000 0.00000000
vt 1.00000000 1.00000000
vt 0.00000000 1.00000000
vt 0.00000000 0.00000000
vt 1.00000000 0.00000000
vt 1.00000000 1.00000000
vt 0.00000000 1.00000000
vt 0.00000000 0.00000000
vt 0.08000000 0.00000000
vt 0.08000000 0.92000000
vt 1.00000000 0.92000000
vt 0.00000000 1.00000000
vt 0.00000000 0.00000000
vt 1.00000000 0.00000000
vt 1.00000000 1.00000000
vt 1.00000000 0.00000000
vt 1.00000000 1.00000000
vt 0.00000000 1.00000000
vt 0.00000000 0.96153846
vt 0.96153846 0.96153846
vt 0.96153846 0.00000000
vt 1.00000000 1.00000000
vt 0.00000000 1.00000000
vt 0.00000000 0.00000000
vt 1.00000000 0.00000000
vt 0.96153846 1.00000000
vt 0.00000000 1.00000000
vt 0.00000000 0.00000000
vt 1.00000000 0.00000000
vt 0.00000000 0.00000000
vt 1.00000000 0.00000000
vt 1.00000000 1.00000000
vt 0.92000000 1.00000000
vt 0.92000000 0.08000000
vt 0.00000000 0.08000000
vt 0.00000000 1.00000000
vt 0.00000000 0.00000000
vt 1.00000000 0.00000000
vt 0.95652174 1.00000000
vt 0.00000000 1.00000000
vt 0.00000000 0.00000000
vt 1.00000000 0.00000000
vt 1.00000000 1.00000000
vn -1.00000000 0.00000000 0.00000000
vn -1.00000000 0.00000000 0.00000000
vn -1.00000000 0.00000000 0.00000000
vn -1.00000000 0.00000000 0.00000000
vn -1.00000000 0.00000000 0.00000000
vn -1.00000000 0.00000000 0.00000000
vn -1.00000000 0.00000000 0.00000000
vn -1.00000000 0.00000000 0.00000000
vn -1.00000000 0.00000000 0.00000000
vn -1.00000000 0.00000000 0.00000000
vn 0.00000000 1.00000000 0.00000000
vn 0.00000000 1.00000000 0.00000000
vn 0.00000000 1.00000000 0.00000000
vn 0.00000000 1.00000000 0.00000000
vn 0.00000000 1.00000000 0.00000000
vn 0.00000000 1.00000000 0.00000000
vn -0.00000000 0.00000000 -1.00000000
vn -0.00000000 0.00000000 -1.00000000
vn -0.00000000 0.00000000 -1.00000000
vn -0.00000000 0.00000000 -1.00000000
vn -0.00000000 0.00000000 -1.00000000
vn -0.00000000 0.00000000 -1.00000000
vn -0.00000000 0.00000000 -1.00000000
vn -0.00000000 0.00000000 -1.00000000
vn -0.00000000 0.00000000 -1.00000000
vn -0.00000000 0.00000000 -1.00000000
vn -0.70710678 -0.70710678 0.00000000
vn -0.70710678 -0.70710678 0.00000000
vn -0.70710678 -0.70710678 0.00000000
vn -0.70710678 -0.70710678 0.00000000
vn 0.70710678 -0.70710678 0.00000000
vn 0.70710678 -0.70710678 0.00000000
vn 0.70710678 -0.70710678 0.00000000
vn 0.70710678 -0.70710678 0.00000000
vn 1.00000000 0.00000000 0.00000000
vn 1.00000000 0.00000000 0.00000000
vn 1.00000000 0.00000000 0.00000000
vn 1.00000000 0.00000000 0.00000000
vn -1.00000000 0.00000000 0.00000000
vn -1.00000000 0.00000000 0.00000000
vn -1.00000000 0.00000000 0.00000000
vn -1.00000000 0.00000000 0.00000000
vn 1.00000000 0.00000000 0.00000000
vn 1.00000000 0.00000000 0.00000000
vn 1.00000000 0.00000000 0.00000000
vn 1.00000000 0.00000000 0.00000000
vn -1.00000000 0.00000000 0.00000000
vn -1.00000000 0.00000000 0.00000000
vn -1.00000000 0.00000000 0.00000000
vn -1.00000000 0.00000000 0.00000000
vn 0.00000000 0.00000000 1.00000000
vn 0.00000000 0.00000000 1.00000000
vn 0.00000000 0.00000000 1.00000000
vn 0.00000000 0.00000000 1.00000000
vn 0.00000000 1.00000000 0.00000000
vn 0.00000000 1.00000000 0.00000000
vn 0.00000000 1.00000000 0.00000000
vn 0.00000000 1.00000000 0.00000000
vn 0.00000000 1.00000000 0.00000000
vn 0.00000000 1.00000000 0.00000000
vn 0.00000000 0.00000000 -1.00000000
vn 0.00000000 0.00000000 -1.00000000
vn 0.00000000 0.00000000 -1.00000000
vn 0.00000000 0.00000000 -1.00000000
vn 0.00000000 1.00000000 -0.00000000
vn 0.00000000 1.00000000 -0.00000000
vn 0.00000000 1.00000000 -0.00000000
vn 0.00000000 1.00000000 -0.00000000
vn 0.00000000 1.00000000 -0.00000000
vn 0.00000000 1.00000000 -0.00000000
vn 0.00000000 0.00000000 1.00000000
vn 0.00000000 0.00000000 1.00000000
vn 0.00000000 0.00000000 1.00000000
vn 0.00000000 0.00000000 1.00000000
vn 0.00000000 -0.70710678 0.70710678
vn 0.00000000 -0.70710678 0.70710678
vn 0.00000000 -0.70710678 0.70710678
vn 0.00000000 -0.70710678 0.70710678
vn 0.00000000 -1.00000000 -0.00000000
vn 0.00000000 -1.00000000 -0.00000000
vn 0.00000000 -1.00000000 -0.00000000
vn 0.00000000 -1.00000000 -0.00000000
vn 0.00000000 -1.00000000 -0.00000000
vn 0.00000000 -1.00000000 -0.00000000
vn 0.00000000 -0.70710678 -0.70710678
vn 0.00000000 -0.70710678 -0.70710678
vn 0.00000000 -0.70710678 -0.70710678
vn 0.00000000 -0.70710678 -0.70710678
vn 0.00000000 0.00000000 -1.00000000
vn 0.00000000 0.00000000 -1.00000000
vn 0.00000000 0.00000000 -1.00000000
vn 0.00000000 0.00000000 -1.00000000
s 1
usemtl Silver
f 20/46/46 19/45/45 18/44/44
f 22/48/48 18/44/44 17/43/43
f 17/43/43 14/40/40 13/39/39
f 16/42/42 15/41/41 14/40/40
f 17/43/43 16/42/42 14/40/40
f 17/43/43 13/39/39 22/48/48
f 22/48/48 21/47/47 18/44/44
f 21/47/47 20/46/46 18/44/44
s 2
f 23/50/50 15/49/49 16/54/54
f 26/53/53 25/52/52 23/50/50
f 23/50/50 16/54/54 26/53/53
f 25/52/52 24/51/51 23/50/50
s 3
f 30/60/60 31/61/61 32/62/62
f 27/55/55 30/60/60 34/64/64
f 27/55/55 28/56/56 29/59/59
f 28/56/56 25/58/58 29/59/59
f 28/56/56 24/57/57 25/58/58
f 27/55/55 29/59/59 30/60/60
f 30/60/60 33/63/63 34/64/64
f 30/60/60 32/62/62 33/63/63
s 4
f 36/68/68 35/67/67 27/65/65
f 35/67/67 28/66/66 27/65/65
s 5
f 38/72/72 34/71/71 33/70/70
f 38/72/72 33/70/70 37/69/69
s 6
f 37/76/76 33/75/75 39/73/73
f 33/75/75 32/74/74 39/73/73
s 7
f 41/80/80 40/79/79 30/77/77
f 40/79/79 31/78/78 30/77/77
s 8
f 42/84/84 29/83/83 26/81/81
f 29/83/83 25/82/82 26/81/81
s 9
f 35/88/88 23/87/87 28/85/85
f 23/87/87 24/86/86 28/85/85
s 10
f 26/92/92 16/91/91 42/89/89
f 16/91/91 17/90/90 42/89/89
s 11
f 42/97/97 17/96/96 18/95/95
f 42/97/97 41/94/94 30/93/93
f 42/97/97 18/95/95 41/94/94
f 30/93/93 29/98/98 42/97/97
s 12
f 40/102/102 41/101/101 19/99/99
f 41/101/101 18/100/100 19/99/99
s 13
f 40/107/107 19/106/106 20/105/105
f 40/107/107 39/104/104 32/103/103
f 40/107/107 20/105/105 39/104/104
f 32/103/103 31/108/108 40/107/107
s 14
f 39/112/112 20/111/111 37/109/109
f 20/111/111 21/110/110 37/109/109
s 15
f 37/116/116 21/115/115 38/113/113
f 21/115/115 22/114/114 38/113/113
s 16
f 22/117/117 13/122/122 36/121/121
f 36/121/121 34/119/119 38/118/118
f 36/121/121 27/120/120 34/119/119
f 38/118/118 22/117/117 36/121/121
s 17
f 35/126/126 36/125/125 13/124/124
f 35/126/126 13/124/124 14/123/123
s 18
f 23/130/130 35/129/129 15/127/127
f 35/129/129 14/128/128 15/127/127
