mtllib Roof_Main_Chimney.mtl
o object1
g object1
v 0.50000000 1.00000000 -0.50000000
v 0.50000000 1.10000000 -0.50000000
v 0.50000000 0.10000000 0.50000000
v 0.50000000 0.00000000 0.50000000
v -0.50000000 1.00000000 -0.50000000
v -0.50000000 1.10000000 -0.50000000
v -0.50000000 0.10000000 0.50000000
v -0.50000000 0.00000000 0.50000000
vt 1.00000000 0.90909091
vt 1.00000000 1.00000000
vt 0.00000000 0.09090909
vt 0.00000000 0.00000000
vt 1.00000000 0.00000000
vt 1.00000000 1.00000000
vt 0.00000000 1.00000000
vt 0.00000000 0.00000000
vt 1.00000000 0.90909091
vt 1.00000000 1.00000000
vt 0.00000000 0.09090909
vt 0.00000000 0.00000000
vt 1.00000000 0.00000000
vt 1.00000000 1.00000000
vt 0.00000000 1.00000000
vt 0.00000000 0.00000000
vt 1.00000000 0.00000000
vt 1.00000000 1.00000000
vt 0.00000000 1.00000000
vt 0.00000000 0.00000000
vt 1.00000000 0.00000000
vt 1.00000000 1.00000000
vt 0.00000000 1.00000000
vt 0.00000000 0.00000000
vn 1.00000000 0.00000000 -0.00000000
vn 1.00000000 0.00000000 -0.00000000
vn 1.00000000 0.00000000 -0.00000000
vn 1.00000000 0.00000000 -0.00000000
vn -0.00000000 -0.00000000 -1.00000000
vn -0.00000000 -0.00000000 -1.00000000
vn -0.00000000 -0.00000000 -1.00000000
vn -0.00000000 -0.00000000 -1.00000000
vn -1.00000000 -0.00000000 0.00000000
vn -1.00000000 -0.00000000 0.00000000
vn -1.00000000 -0.00000000 0.00000000
vn -1.00000000 -0.00000000 0.00000000
vn -0.00000000 -0.70710678 -0.70710678
vn -0.00000000 -0.70710678 -0.70710678
vn -0.00000000 -0.70710678 -0.70710678
vn -0.00000000 -0.70710678 -0.70710678
vn 0.00000000 0.00000000 1.00000000
vn 0.00000000 0.00000000 1.00000000
vn 0.00000000 0.00000000 1.00000000
vn 0.00000000 0.00000000 1.00000000
vn 0.00000000 0.70710678 0.70710678
vn 0.00000000 0.70710678 0.70710678
vn 0.00000000 0.70710678 0.70710678
vn 0.00000000 0.70710678 0.70710678
s 1
usemtl Roof
f 1/1/1 2/2/2 3/3/3
f 1/1/1 3/3/3 4/4/4
s 2
f 5/5/5 6/6/6 1/8/8
f 6/6/6 2/7/7 1/8/8
s 3
f 8/12/12 7/11/11 5/9/9
f 7/11/11 6/10/10 5/9/9
s 4
f 8/13/13 5/14/14 1/15/15
f 8/13/13 1/15/15 4/16/16
s 5
f 7/17/17 8/18/18 4/19/19
f 7/17/17 4/19/19 3/20/20
s 6
f 6/21/21 7/22/22 3/23/23
f 6/21/21 3/23/23 2/24/24
o object2
g object2
v 0.30000000 1.20000000 0.30000000
v 0.30000000 1.20000000 -0.30000000
v 0.30000000 1.35000000 -0.30000000
v 0.30000000 1.35000000 0.30000000
v -0.00000000 1.20000000 -0.25000000
v -0.25000000 1.20000000 -0.25000000
v -0.25000000 1.20000000 0.25000000
v -0.00000000 1.20000000 0.25000000
v -0.00000000 1.20000000 0.30000000
v -0.30000000 1.20000000 0.30000000
v -0.30000000 1.20000000 -0.30000000
v -0.00000000 1.20000000 -0.30000000
v 0.25000000 1.20000000 0.25000000
v 0.25000000 1.20000000 -0.25000000
v -0.25000000 0.85000000 -0.25000000
v 0.25000000 0.85000000 -0.25000000
v -0.20000000 0.60000000 0.00000000
v -0.20000000 0.80000000 -0.20000000
v 0.20000000 0.80000000 -0.20000000
v 0.20000000 0.60000000 0.00000000
v 0.25000000 0.60000000 0.00000000
v -0.25000000 0.60000000 0.00000000
v 0.20000000 0.40000000 0.20000000
v -0.20000000 0.40000000 0.20000000
v -0.25000000 0.35000000 0.25000000
v 0.25000000 0.35000000 0.25000000
v 0.20000000 1.35000000 0.20000000
v 0.20000000 1.35000000 -0.20000000
v -0.20000000 1.35000000 0.20000000
v -0.00000000 1.35000000 0.20000000
v -0.20000000 1.35000000 -0.20000000
v -0.00000000 1.35000000 -0.20000000
v -0.30000000 1.35000000 0.30000000
v -0.30000000 1.35000000 -0.30000000
v -0.00000000 1.35000000 0.30000000
v -0.00000000 1.35000000 -0.30000000
vt 1.00000000 0.00000000
vt 1.00000000 1.00000000
vt 0.00000000 1.00000000
vt 0.00000000 0.00000000
vt 0.91666667 0.50000000
vt 0.91666667 0.08333333
vt 0.08333333 0.08333333
vt 0.08333333 0.50000000
vt 0.00000000 0.50000000
vt 0.00000000 0.00000000
vt 1.00000000 0.00000000
vt 1.00000000 0.50000000
vt 0.08333333 0.91666667
vt 0.91666667 0.91666667
vt 1.00000000 1.00000000
vt 0.00000000 1.00000000
vt 0.00000000 0.00000000
vt 1.00000000 0.00000000
vt 1.00000000 1.00000000
vt 0.00000000 1.00000000
vt 1.00000000 0.50000000
vt 0.90000000 0.50000000
vt 0.90000000 0.10000000
vt 0.10000000 0.10000000
vt 0.10000000 0.50000000
vt 0.00000000 0.50000000
vt 0.00000000 0.00000000
vt 1.00000000 0.00000000
vt 1.00000000 0.50000000
vt 0.10000000 0.90000000
vt 0.90000000 0.90000000
vt 1.00000000 1.00000000
vt 0.00000000 1.00000000
vt 1.00000000 0.00000000
vt 1.00000000 1.00000000
vt 0.42105263 1.00000000
vt 0.00000000 0.00000000
vt 0.21052632 0.50000000
vt 1.00000000 0.00000000
vt 1.00000000 1.00000000
vt 0.00000000 1.00000000
vt 0.00000000 0.00000000
vt 1.00000000 0.50000000
vt 1.00000000 0.00000000
vt 1.00000000 1.00000000
vt 0.42105263 1.00000000
vt 0.00000000 0.00000000
vt 0.21052632 0.50000000
vt 1.00000000 0.00000000
vt 1.00000000 1.00000000
vt 0.00000000 1.00000000
vt 0.00000000 0.00000000
vt 1.00000000 0.50000000
vt 0.00000000 0.00000000
vt 1.00000000 0.00000000
vt 1.00000000 1.00000000
vt 0.58823529 1.00000000
vt 0.29411765 0.50000000
vt 0.00000000 0.00000000
vt 1.00000000 0.00000000
vt 1.00000000 1.00000000
vt 0.00000000 1.00000000
vt 1.00000000 0.50000000
vt 0.00000000 0.00000000
vt 1.00000000 0.00000000
vt 1.00000000 1.00000000
vt 0.58823529 1.00000000
vt 0.29411765 0.50000000
vt 0.00000000 0.00000000
vt 1.00000000 0.00000000
vt 1.00000000 1.00000000
vt 0.00000000 1.00000000
vt 1.00000000 0.00000000
vt 1.00000000 1.00000000
vt 0.00000000 1.00000000
vt 0.00000000 0.00000000
vt 1.00000000 0.50000000
vt 0.00000000 0.50000000
vt 0.83333333 0.50000000
vt 0.83333333 0.16666667
vt 0.16666667 0.16666667
vt 0.16666667 0.50000000
vt 0.00000000 0.50000000
vt 0.00000000 0.00000000
vt 1.00000000 0.00000000
vt 1.00000000 0.50000000
vt 0.16666667 0.83333333
vt 0.83333333 0.83333333
vt 1.00000000 1.00000000
vt 0.00000000 1.00000000
vt 0.00000000 0.00000000
vt 1.00000000 0.00000000
vt 1.00000000 1.00000000
vt 0.00000000 1.00000000
vt 1.00000000 0.50000000
vt 0.00000000 0.50000000
vn 1.00000000 0.00000000 0.00000000
vn 1.00000000 0.00000000 0.00000000
vn 1.00000000 0.00000000 0.00000000
vn 1.00000000 0.00000000 0.00000000
vn 0.00000000 -1.00000000 0.00000000
vn 0.00000000 -1.00000000 0.00000000
vn 0.00000000 -1.00000000 0.00000000
vn 0.00000000 -1.00000000 0.00000000
vn 0.00000000 -1.00000000 0.00000000
vn 0.00000000 -1.00000000 0.00000000
vn 0.00000000 -1.00000000 0.00000000
vn 0.00000000 -1.00000000 0.00000000
vn 0.00000000 -1.00000000 0.00000000
vn 0.00000000 -1.00000000 0.00000000
vn 0.00000000 -1.00000000 0.00000000
vn 0.00000000 -1.00000000 0.00000000
vn 0.00000000 0.00000000 -1.00000000
vn 0.00000000 0.00000000 -1.00000000
vn 0.00000000 0.00000000 -1.00000000
vn 0.00000000 0.00000000 -1.00000000
vn 0.00000000 0.00000000 -1.00000000
vn -0.00000000 -0.70710678 -0.70710678
vn -0.00000000 -0.70710678 -0.70710678
vn -0.00000000 -0.70710678 -0.70710678
vn -0.00000000 -0.70710678 -0.70710678
vn -0.00000000 -0.70710678 -0.70710678
vn -0.00000000 -0.70710678 -0.70710678
vn -0.00000000 -0.70710678 -0.70710678
vn -0.00000000 -0.70710678 -0.70710678
vn -0.00000000 -0.70710678 -0.70710678
vn -0.00000000 -0.70710678 -0.70710678
vn -0.00000000 -0.70710678 -0.70710678
vn -0.00000000 -0.70710678 -0.70710678
vn -1.00000000 0.00000000 0.00000000
vn -1.00000000 0.00000000 0.00000000
vn -1.00000000 0.00000000 0.00000000
vn -1.00000000 0.00000000 0.00000000
vn -1.00000000 0.00000000 0.00000000
vn 0.00000000 0.00000000 -1.00000000
vn 0.00000000 0.00000000 -1.00000000
vn 0.00000000 0.00000000 -1.00000000
vn 0.00000000 0.00000000 -1.00000000
vn 0.00000000 0.00000000 -1.00000000
vn 1.00000000 0.00000000 0.00000000
vn 1.00000000 0.00000000 0.00000000
vn 1.00000000 0.00000000 0.00000000
vn 1.00000000 0.00000000 0.00000000
vn 1.00000000 0.00000000 0.00000000
vn 0.00000000 0.00000000 1.00000000
vn 0.00000000 0.00000000 1.00000000
vn 0.00000000 0.00000000 1.00000000
vn 0.00000000 0.00000000 1.00000000
vn 0.00000000 0.00000000 1.00000000
vn 1.00000000 0.00000000 0.00000000
vn 1.00000000 0.00000000 0.00000000
vn 1.00000000 0.00000000 0.00000000
vn 1.00000000 0.00000000 0.00000000
vn 1.00000000 0.00000000 0.00000000
vn 0.00000000 0.00000000 1.00000000
vn 0.00000000 0.00000000 1.00000000
vn 0.00000000 0.00000000 1.00000000
vn 0.00000000 0.00000000 1.00000000
vn 0.00000000 0.00000000 1.00000000
vn -1.00000000 0.00000000 0.00000000
vn -1.00000000 0.00000000 0.00000000
vn -1.00000000 0.00000000 0.00000000
vn -1.00000000 0.00000000 0.00000000
vn -1.00000000 0.00000000 0.00000000
vn -1.00000000 0.00000000 0.00000000
vn -1.00000000 0.00000000 0.00000000
vn -1.00000000 0.00000000 0.00000000
vn -1.00000000 0.00000000 0.00000000
vn 0.00000000 0.00000000 1.00000000
vn 0.00000000 0.00000000 1.00000000
vn 0.00000000 0.00000000 1.00000000
vn 0.00000000 0.00000000 1.00000000
vn 0.00000000 0.00000000 1.00000000
vn 0.00000000 0.00000000 1.00000000
vn 0.00000000 1.00000000 0.00000000
vn 0.00000000 1.00000000 0.00000000
vn 0.00000000 1.00000000 0.00000000
vn 0.00000000 1.00000000 0.00000000
vn 0.00000000 1.00000000 0.00000000
vn 0.00000000 1.00000000 0.00000000
vn 0.00000000 1.00000000 0.00000000
vn 0.00000000 1.00000000 0.00000000
vn 0.00000000 1.00000000 0.00000000
vn 0.00000000 1.00000000 0.00000000
vn 0.00000000 1.00000000 0.00000000
vn 0.00000000 1.00000000 0.00000000
vn 0.00000000 0.00000000 -1.00000000
vn 0.00000000 0.00000000 -1.00000000
vn 0.00000000 0.00000000 -1.00000000
vn 0.00000000 0.00000000 -1.00000000
vn 0.00000000 0.00000000 -1.00000000
vn 0.00000000 0.00000000 -1.00000000
s 1
usemtl Chimney
f 9/25/25 10/26/26 12/28/28
f 10/26/26 11/27/27 12/28/28
s 2
f 20/36/36 13/29/29 14/30/30
f 14/30/30 18/34/34 19/35/35
f 15/31/31 17/33/33 18/34/34
f 9/40/40 17/33/33 21/37/37
f 21/37/37 22/38/38 10/39/39
f 21/37/37 10/39/39 9/40/40
f 17/33/33 16/32/32 21/37/37
f 15/31/31 16/32/32 17/33/33
f 14/30/30 15/31/31 18/34/34
f 22/38/38 20/36/36 10/39/39
f 22/38/38 13/29/29 20/36/36
f 19/35/35 20/36/36 14/30/30
s 3
f 13/45/45 22/43/43 24/44/44
f 23/41/41 13/45/45 24/44/44
f 23/41/41 14/42/42 13/45/45
s 4
f 26/47/47 25/46/46 30/53/53
f 33/56/56 30/53/53 32/55/55
f 34/57/57 33/56/56 31/54/54
f 31/54/54 28/49/49 29/50/50
f 24/51/51 29/50/50 27/48/48
f 23/52/52 24/51/51 27/48/48
f 29/50/50 28/49/49 27/48/48
f 31/54/54 29/50/50 34/57/57
f 33/56/56 32/55/55 31/54/54
f 30/53/53 25/46/46 32/55/55
f 27/48/48 26/47/47 23/52/52
f 26/47/47 30/53/53 23/52/52
s 5
f 36/59/59 27/60/60 28/62/62
f 35/58/58 28/62/62 31/61/61
f 35/58/58 36/59/59 28/62/62
s 6
f 32/66/66 37/63/63 38/67/67
f 38/67/67 35/64/64 31/65/65
f 38/67/67 31/65/65 32/66/66
s 7
f 25/72/72 26/70/70 39/69/69
f 32/71/71 25/72/72 37/68/68
f 25/72/72 39/69/69 37/68/68
s 8
f 40/77/77 39/73/73 26/76/76
f 26/76/76 27/75/75 40/77/77
f 27/75/75 36/74/74 40/77/77
s 9
f 29/82/82 24/81/81 22/80/80
f 21/79/79 34/78/78 29/82/82
f 29/82/82 22/80/80 21/79/79
s 10
f 16/87/87 15/84/84 33/83/83
f 34/86/86 16/87/87 33/83/83
f 34/86/86 21/85/85 16/87/87
s 11
f 14/90/90 23/91/91 30/92/92
f 33/88/88 15/89/89 30/92/92
f 15/89/89 14/90/90 30/92/92
s 12
f 18/93/93 41/94/94 19/96/96
f 41/94/94 42/95/95 19/96/96
s 13
f 41/100/100 18/97/97 17/101/101
f 17/101/101 12/99/99 43/102/102
f 17/101/101 9/98/98 12/99/99
f 17/101/101 43/102/102 41/100/100
s 14
f 39/104/104 40/103/103 44/110/110
f 11/113/113 44/110/110 36/112/112
f 12/114/114 11/113/113 35/111/111
f 35/111/111 38/106/106 43/107/107
f 41/108/108 43/107/107 37/105/105
f 43/107/107 38/106/106 37/105/105
f 35/111/111 43/107/107 12/114/114
f 11/113/113 36/112/112 35/111/111
f 44/110/110 40/103/103 36/112/112
f 42/109/109 41/108/108 39/104/104
f 41/108/108 37/105/105 39/104/104
f 39/104/104 44/110/110 42/109/109
s 15
f 20/120/120 19/115/115 42/116/116
f 11/117/117 10/118/118 20/120/120
f 20/120/120 44/119/119 11/117/117
f 20/120/120 42/116/116 44/119/119
