mtllib Roof_Eave_Slanted_End.mtl
o object1
g object1
v -0.50000000 0.10000000 -0.50000000
v 0.50000000 0.10000000 -0.50000000
v 0.50000000 -0.00000000 -0.50000000
v -0.50000000 0.00000000 -0.50000000
v -0.35000000 -0.05000000 -0.35000000
v 0.50000000 -0.05000000 -0.35000000
v 0.50000000 -0.05000000 -0.45000000
v -0.35000000 -0.05000000 -0.20000000
v -0.45000000 -0.05000000 -0.20000000
v -0.45000000 -0.05000000 -0.45000000
v -0.50000000 -0.00000000 -0.20000000
v -0.50000000 0.10000000 -0.20000000
vt 0.00000000 0.00000000
vt 1.00000000 0.00000000
vt 1.00000000 1.00000000
vt 0.00000000 1.00000000
vt 1.00000000 1.00000000
vt 0.00000000 1.00000000
vt 0.15000000 0.00000000
vt 1.00000000 0.00000000
vt 1.00000000 1.00000000
vt 0.60000000 1.00000000
vt 0.60000000 0.10526316
vt 0.00000000 0.10526316
vt 0.00000000 0.00000000
vt 1.00000000 0.00000000
vt 0.00000000 0.00000000
vt 1.00000000 0.00000000
vt 0.83333333 1.00000000
vt 0.00000000 1.00000000
vt 0.00000000 1.00000000
vt 0.00000000 0.33333333
vt 0.33333333 0.00000000
vt 1.00000000 0.00000000
vt 1.00000000 1.00000000
vt 0.00000000 1.00000000
vt 0.00000000 0.00000000
vt 0.50000000 0.00000000
vt 1.00000000 1.00000000
vt 0.00000000 1.00000000
vt 0.00000000 0.00000000
vt 1.00000000 0.00000000
vt 0.00000000 0.00000000
vt 1.00000000 0.00000000
vt 1.00000000 1.00000000
vt 0.05000000 1.00000000
vt 1.00000000 0.00000000
vt 1.00000000 0.66666667
vt 0.66666667 1.00000000
vt 0.00000000 1.00000000
vn 0.00000000 0.00000000 -1.00000000
vn 0.00000000 0.00000000 -1.00000000
vn 0.00000000 0.00000000 -1.00000000
vn 0.00000000 0.00000000 -1.00000000
vn -0.00000000 0.70710678 0.70710678
vn -0.00000000 0.70710678 0.70710678
vn -0.00000000 0.70710678 0.70710678
vn -0.00000000 0.70710678 0.70710678
vn 0.00000000 -1.00000000 0.00000000
vn 0.00000000 -1.00000000 0.00000000
vn 0.00000000 -1.00000000 0.00000000
vn 0.00000000 -1.00000000 0.00000000
vn 0.00000000 -1.00000000 0.00000000
vn 0.00000000 -1.00000000 0.00000000
vn -0.70710678 -0.70710678 -0.00000000
vn -0.70710678 -0.70710678 -0.00000000
vn -0.70710678 -0.70710678 -0.00000000
vn -0.70710678 -0.70710678 -0.00000000
vn -0.00000000 -0.00000000 1.00000000
vn -0.00000000 -0.00000000 1.00000000
vn -0.00000000 -0.00000000 1.00000000
vn -0.00000000 -0.00000000 1.00000000
vn 0.70710678 0.70710678 0.00000000
vn 0.70710678 0.70710678 0.00000000
vn 0.70710678 0.70710678 0.00000000
vn 0.70710678 0.70710678 0.00000000
vn -1.00000000 0.00000000 -0.00000000
vn -1.00000000 0.00000000 -0.00000000
vn -1.00000000 0.00000000 -0.00000000
vn -1.00000000 0.00000000 -0.00000000
vn 0.00000000 -0.70710678 -0.70710678
vn 0.00000000 -0.70710678 -0.70710678
vn 0.00000000 -0.70710678 -0.70710678
vn 0.00000000 -0.70710678 -0.70710678
vn 1.00000000 0.00000000 0.00000000
vn 1.00000000 0.00000000 0.00000000
vn 1.00000000 0.00000000 0.00000000
vn 1.00000000 0.00000000 0.00000000
s 1
usemtl Roof
f 1/1/1 2/2/2 3/3/3
f 1/1/1 3/3/3 4/4/4
s 2
f 2/5/5 1/6/6 5/7/7
f 2/5/5 5/7/7 6/8/8
s 3
f 5/11/11 8/12/12 9/13/13
f 7/9/9 5/11/11 10/14/14
f 7/9/9 6/10/10 5/11/11
f 5/11/11 9/13/13 10/14/14
s 4
f 11/15/15 4/16/16 10/17/17
f 11/15/15 10/17/17 9/18/18
s 5
f 12/19/19 11/20/20 9/21/21
f 12/19/19 9/21/21 8/22/22
s 6
f 1/23/23 12/24/24 5/26/26
f 12/24/24 8/25/25 5/26/26
s 7
f 4/27/27 11/28/28 12/29/29
f 4/27/27 12/29/29 1/30/30
s 8
f 4/31/31 3/32/32 10/34/34
f 3/32/32 7/33/33 10/34/34
s 9
f 7/37/37 3/36/36 2/35/35
f 6/38/38 7/37/37 2/35/35
o object2
g object2
v 0.50000000 -0.15000000 -0.35000000
v 0.50000000 -0.10000000 -0.40000000
v 0.50000000 -0.05000000 -0.40000000
v 0.50000000 -0.05000000 -0.35000000
v 0.50000000 -0.10000000 -0.35000000
v 0.50000000 -0.10000000 -0.25000000
v 0.50000000 -0.05000000 -0.25000000
v 0.50000000 -0.05000000 -0.20000000
v 0.50000000 -0.10000000 -0.20000000
v 0.50000000 -0.15000000 -0.25000000
v -0.40000000 -0.10000000 -0.40000000
v -0.40000000 -0.15000000 -0.35000000
v -0.40000000 -0.05000000 -0.20000000
v -0.40000000 -0.10000000 -0.20000000
v -0.40000000 -0.15000000 -0.25000000
v -0.40000000 -0.05000000 -0.40000000
v -0.40000000 -0.05000000 -0.35000000
v -0.40000000 -0.05000000 -0.25000000
v -0.35000000 -0.05000000 -0.25000000
v -0.35000000 -0.05000000 -0.35000000
v -0.35000000 -0.10000000 -0.25000000
v -0.35000000 -0.10000000 -0.35000000
vt 0.75000000 0.00000000
vt 1.00000000 0.50000000
vt 1.00000000 1.00000000
vt 0.75000000 1.00000000
vt 0.75000000 0.50000000
vt 0.25000000 0.50000000
vt 0.25000000 1.00000000
vt 0.00000000 1.00000000
vt 0.00000000 0.50000000
vt 0.25000000 0.00000000
vt 1.00000000 0.00000000
vt 1.00000000 1.00000000
vt 0.00000000 1.00000000
vt 0.00000000 0.00000000
vt 0.00000000 1.00000000
vt 0.00000000 0.50000000
vt 0.25000000 0.00000000
vt 0.75000000 0.00000000
vt 1.00000000 0.50000000
vt 1.00000000 1.00000000
vt 0.75000000 1.00000000
vt 0.25000000 1.00000000
vt 1.00000000 0.00000000
vt 1.00000000 1.00000000
vt 0.00000000 1.00000000
vt 0.00000000 0.00000000
vt 1.00000000 0.00000000
vt 1.00000000 1.00000000
vt 0.00000000 1.00000000
vt 0.00000000 0.00000000
vt 1.00000000 0.00000000
vt 1.00000000 1.00000000
vt 0.00000000 1.00000000
vt 0.00000000 0.00000000
vt 1.00000000 0.00000000
vt 1.00000000 1.00000000
vt 0.00000000 1.00000000
vt 0.00000000 0.00000000
vt 1.00000000 0.00000000
vt 1.00000000 1.00000000
vt 0.00000000 1.00000000
vt 0.00000000 0.00000000
vt 1.00000000 1.00000000
vt 0.00000000 1.00000000
vt 0.00000000 0.00000000
vt 0.05555556 0.00000000
vt 1.00000000 0.00000000
vt 1.00000000 0.00000000
vt 1.00000000 1.00000000
vt 0.00000000 1.00000000
vt 0.00000000 0.00000000
vt 1.00000000 0.00000000
vt 1.00000000 1.00000000
vt 0.00000000 1.00000000
vt 0.00000000 0.00000000
vt 1.00000000 0.00000000
vt 1.00000000 1.00000000
vt 0.00000000 1.00000000
vt 0.00000000 0.00000000
vt 0.05555556 1.00000000
vt 0.00000000 1.00000000
vt 0.00000000 0.00000000
vt 1.00000000 0.00000000
vt 1.00000000 1.00000000
vt 1.00000000 0.00000000
vt 1.00000000 1.00000000
vt 0.00000000 1.00000000
vt 0.00000000 0.00000000
vn 1.00000000 0.00000000 -0.00000000
vn 1.00000000 0.00000000 -0.00000000
vn 1.00000000 0.00000000 -0.00000000
vn 1.00000000 0.00000000 -0.00000000
vn 1.00000000 0.00000000 -0.00000000
vn 1.00000000 0.00000000 -0.00000000
vn 1.00000000 0.00000000 -0.00000000
vn 1.00000000 0.00000000 -0.00000000
vn 1.00000000 0.00000000 -0.00000000
vn 1.00000000 0.00000000 -0.00000000
vn 0.00000000 -0.70710678 -0.70710678
vn 0.00000000 -0.70710678 -0.70710678
vn 0.00000000 -0.70710678 -0.70710678
vn 0.00000000 -0.70710678 -0.70710678
vn -1.00000000 0.00000000 0.00000000
vn -1.00000000 0.00000000 0.00000000
vn -1.00000000 0.00000000 0.00000000
vn -1.00000000 0.00000000 0.00000000
vn -1.00000000 0.00000000 0.00000000
vn -1.00000000 0.00000000 0.00000000
vn -1.00000000 0.00000000 0.00000000
vn -1.00000000 0.00000000 0.00000000
vn 0.00000000 1.00000000 0.00000000
vn 0.00000000 1.00000000 0.00000000
vn 0.00000000 1.00000000 0.00000000
vn 0.00000000 1.00000000 0.00000000
vn 1.00000000 0.00000000 0.00000000
vn 1.00000000 0.00000000 0.00000000
vn 1.00000000 0.00000000 0.00000000
vn 1.00000000 0.00000000 0.00000000
vn 0.00000000 -1.00000000 -0.00000000
vn 0.00000000 -1.00000000 -0.00000000
vn 0.00000000 -1.00000000 -0.00000000
vn 0.00000000 -1.00000000 -0.00000000
vn 0.00000000 -0.70710678 0.70710678
vn 0.00000000 -0.70710678 0.70710678
vn 0.00000000 -0.70710678 0.70710678
vn 0.00000000 -0.70710678 0.70710678
vn 0.00000000 0.00000000 1.00000000
vn 0.00000000 0.00000000 1.00000000
vn 0.00000000 0.00000000 1.00000000
vn 0.00000000 0.00000000 1.00000000
vn 0.00000000 1.00000000 -0.00000000
vn 0.00000000 1.00000000 -0.00000000
vn 0.00000000 1.00000000 -0.00000000
vn 0.00000000 0.00000000 -1.00000000
vn 0.00000000 0.00000000 -1.00000000
vn 0.00000000 0.00000000 -1.00000000
vn 0.00000000 0.00000000 -1.00000000
vn 0.00000000 1.00000000 0.00000000
vn 0.00000000 1.00000000 0.00000000
vn 0.00000000 1.00000000 0.00000000
vn 0.00000000 1.00000000 0.00000000
vn 0.00000000 0.00000000 1.00000000
vn 0.00000000 0.00000000 1.00000000
vn 0.00000000 0.00000000 1.00000000
vn 0.00000000 0.00000000 1.00000000
vn 0.00000000 1.00000000 0.00000000
vn 0.00000000 1.00000000 0.00000000
vn 0.00000000 1.00000000 0.00000000
vn 0.00000000 0.00000000 -1.00000000
vn 0.00000000 0.00000000 -1.00000000
vn 0.00000000 0.00000000 -1.00000000
vn 0.00000000 0.00000000 -1.00000000
s 1
usemtl Silver
f 18/44/44 19/45/45 20/46/46
f 17/43/43 18/44/44 22/48/48
f 22/48/48 13/39/39 17/43/43
f 13/39/39 14/40/40 17/43/43
f 14/40/40 15/41/41 16/42/42
f 14/40/40 16/42/42 17/43/43
f 18/44/44 21/47/47 22/48/48
f 18/44/44 20/46/46 21/47/47
s 2
f 24/52/52 23/51/51 14/50/50
f 24/52/52 14/50/50 13/49/49
s 3
f 26/54/54 25/53/53 30/60/60
f 30/60/60 29/59/59 27/55/55
f 29/59/59 24/56/56 27/55/55
f 29/59/59 23/57/57 24/56/56
f 29/59/59 28/58/58 23/57/57
f 27/55/55 26/54/54 30/60/60
s 4
f 30/61/61 31/62/62 32/63/63
f 15/101/97 28/100/96 32/98/63
f 32/98/63 16/102/98 15/101/97
f 28/100/96 29/99/64 32/98/63
f 31/84/62 25/82/82 20/81/81
f 20/81/81 19/85/83 31/84/62
f 31/84/62 30/83/61 25/82/82
f 30/61/61 32/63/63 29/64/64
s 5
f 34/68/68 32/67/67 33/65/65
f 32/67/67 31/66/66 33/65/65
s 6
f 27/72/72 24/71/71 13/70/70
f 27/72/72 13/70/70 22/69/69
s 7
f 26/76/76 27/75/75 22/74/74
f 26/76/76 22/74/74 21/73/73
s 8
f 25/80/80 26/79/79 20/77/77
f 26/79/79 21/78/78 20/77/77
s 9
f 33/89/87 31/88/86 18/86/84
f 31/88/86 19/87/85 18/86/84
s 10
f 34/93/91 33/92/90 18/91/89
f 34/93/91 18/91/89 17/90/88
s 11
f 32/97/95 34/96/94 16/94/92
f 34/96/94 17/95/93 16/94/92
s 12
f 23/106/102 28/105/101 14/103/99
f 28/105/101 15/104/100 14/103/99
o object3
g object3
v -0.41464466 -0.13535534 -0.10000000
v -0.50000000 -0.05000000 -0.10000000
v -0.50000000 0.15000000 -0.10000000
v -0.31464466 -0.03535534 -0.10000000
v -0.31464466 -0.03535534 -0.20000000
v -0.50000000 0.15000000 -0.20000000
v -0.41464466 -0.13535534 -0.20000000
v -0.50000000 -0.05000000 -0.20000000
vt 0.00000000 0.46049571
vt 0.29911947 0.00000000
vt 1.00000000 0.00000000
vt 0.35044026 1.00000000
vt 0.00000000 1.00000000
vt 0.00000000 0.00000000
vt 1.00000000 0.00000000
vt 1.00000000 1.00000000
vt 0.00000000 0.46049571
vt 0.29911947 0.00000000
vt 1.00000000 0.00000000
vt 0.35044026 1.00000000
vt 1.00000000 0.00000000
vt 1.00000000 1.00000000
vt 0.00000000 1.00000000
vt 0.00000000 0.00000000
vt 0.00000000 0.00000000
vt 1.00000000 0.00000000
vt 1.00000000 1.00000000
vt 0.00000000 1.00000000
vt 1.00000000 1.00000000
vt 0.00000000 1.00000000
vt 0.00000000 0.00000000
vt 1.00000000 0.00000000
vn 0.00000000 0.00000000 1.00000000
vn 0.00000000 0.00000000 1.00000000
vn 0.00000000 0.00000000 1.00000000
vn 0.00000000 0.00000000 1.00000000
vn 0.70710678 0.70710678 -0.00000000
vn 0.70710678 0.70710678 -0.00000000
vn 0.70710678 0.70710678 -0.00000000
vn 0.70710678 0.70710678 -0.00000000
vn -0.00000000 0.00000000 -1.00000000
vn -0.00000000 0.00000000 -1.00000000
vn -0.00000000 0.00000000 -1.00000000
vn -0.00000000 0.00000000 -1.00000000
vn 0.70710678 -0.70710678 -0.00000000
vn 0.70710678 -0.70710678 -0.00000000
vn 0.70710678 -0.70710678 -0.00000000
vn 0.70710678 -0.70710678 -0.00000000
vn -0.70710678 -0.70710678 0.00000000
vn -0.70710678 -0.70710678 0.00000000
vn -0.70710678 -0.70710678 0.00000000
vn -0.70710678 -0.70710678 0.00000000
vn -1.00000000 0.00000000 0.00000000
vn -1.00000000 0.00000000 0.00000000
vn -1.00000000 0.00000000 0.00000000
vn -1.00000000 0.00000000 0.00000000
s 1
usemtl Roof_Trim
f 36/108/104 35/107/103 38/110/106
f 38/110/106 37/109/105 36/108/104
s 2
f 39/111/107 40/112/108 38/114/110
f 40/112/108 37/113/109 38/114/110
s 3
f 39/118/114 41/115/111 42/116/112
f 42/116/112 40/117/113 39/118/114
s 4
f 38/122/118 35/121/117 39/119/115
f 35/121/117 41/120/116 39/119/115
s 5
f 36/123/119 42/124/120 41/125/121
f 36/123/119 41/125/121 35/126/122
s 6
f 40/127/123 42/128/124 37/130/126
f 42/128/124 36/129/125 37/130/126
