mtllib Stairs_Indoor_Balcony_Baseboard.mtl
o object1
g object1
v 0.50000000 0.05000000 0.60000000
v 0.50000000 0.05000000 -0.60000000
v 0.60000000 0.05000000 -0.60000000
v 0.60000000 0.05000000 0.60000000
v 0.65000000 0.02500000 -0.65000000
v 0.65000000 0.02500000 0.65000000
v 0.65000000 0.00000000 -0.65000000
v 0.65000000 0.00000000 0.65000000
v 0.45000000 0.00000000 0.65000000
v 0.45000000 0.02500000 0.65000000
v 0.45000000 0.02500000 -0.65000000
v 0.45000000 0.00000000 -0.65000000
vt 0.00000000 0.00000000
vt 1.00000000 0.00000000
vt 1.00000000 1.00000000
vt 0.00000000 1.00000000
vt 1.00000000 0.00000000
vt 0.96153846 1.00000000
vt 0.03846154 1.00000000
vt 0.00000000 0.00000000
vt 1.00000000 1.00000000
vt 0.00000000 1.00000000
vt 0.00000000 0.00000000
vt 1.00000000 0.00000000
vt 1.00000000 1.00000000
vt 0.00000000 1.00000000
vt 0.00000000 0.00000000
vt 1.00000000 0.00000000
vt 1.00000000 1.00000000
vt 0.00000000 1.00000000
vt 0.00000000 0.00000000
vt 1.00000000 0.00000000
vt 1.00000000 1.00000000
vt 0.00000000 1.00000000
vt 0.00000000 0.00000000
vt 1.00000000 0.00000000
vt 0.00000000 0.00000000
vt 1.00000000 0.00000000
vt 1.00000000 1.00000000
vt 0.00000000 1.00000000
vt 1.00000000 0.00000000
vt 0.75000000 1.00000000
vt 0.25000000 1.00000000
vt 0.00000000 0.00000000
vt 0.96153846 0.00000000
vt 1.00000000 1.00000000
vt 0.00000000 1.00000000
vt 0.03846154 0.00000000
vt 0.75000000 0.00000000
vt 1.00000000 1.00000000
vt 0.00000000 1.00000000
vt 0.25000000 0.00000000
vn 0.00000000 1.00000000 0.00000000
vn 0.00000000 1.00000000 0.00000000
vn 0.00000000 1.00000000 0.00000000
vn 0.00000000 1.00000000 0.00000000
vn 0.44721360 0.89442719 0.00000000
vn 0.44721360 0.89442719 0.00000000
vn 0.44721360 0.89442719 0.00000000
vn 0.44721360 0.89442719 0.00000000
vn 1.00000000 0.00000000 0.00000000
vn 1.00000000 0.00000000 0.00000000
vn 1.00000000 0.00000000 0.00000000
vn 1.00000000 0.00000000 0.00000000
vn 0.00000000 0.00000000 1.00000000
vn 0.00000000 0.00000000 1.00000000
vn 0.00000000 0.00000000 1.00000000
vn 0.00000000 0.00000000 1.00000000
vn -1.00000000 0.00000000 -0.00000000
vn -1.00000000 0.00000000 -0.00000000
vn -1.00000000 0.00000000 -0.00000000
vn -1.00000000 0.00000000 -0.00000000
vn 0.00000000 0.00000000 -1.00000000
vn 0.00000000 0.00000000 -1.00000000
vn 0.00000000 0.00000000 -1.00000000
vn 0.00000000 0.00000000 -1.00000000
vn 0.00000000 -1.00000000 0.00000000
vn 0.00000000 -1.00000000 0.00000000
vn 0.00000000 -1.00000000 0.00000000
vn 0.00000000 -1.00000000 0.00000000
vn 0.00000000 0.89442719 0.44721360
vn 0.00000000 0.89442719 0.44721360
vn 0.00000000 0.89442719 0.44721360
vn 0.00000000 0.89442719 0.44721360
vn -0.44721360 0.89442719 -0.00000000
vn -0.44721360 0.89442719 -0.00000000
vn -0.44721360 0.89442719 -0.00000000
vn -0.44721360 0.89442719 -0.00000000
vn 0.00000000 0.89442719 -0.44721360
vn 0.00000000 0.89442719 -0.44721360
vn 0.00000000 0.89442719 -0.44721360
vn 0.00000000 0.89442719 -0.44721360
s 1
usemtl Dark_Wood
f 4/4/4 3/3/3 1/1/1
f 3/3/3 2/2/2 1/1/1
s 2
f 5/5/5 3/6/6 6/8/8
f 3/6/6 4/7/7 6/8/8
s 3
f 6/12/12 8/11/11 5/9/9
f 8/11/11 7/10/10 5/9/9
s 4
f 10/16/16 9/15/15 6/13/13
f 9/15/15 8/14/14 6/13/13
s 5
f 11/17/17 12/18/18 10/20/20
f 12/18/18 9/19/19 10/20/20
s 6
f 5/21/21 7/22/22 11/24/24
f 7/22/22 12/23/23 11/24/24
s 7
f 9/25/25 12/26/26 7/27/27
f 9/25/25 7/27/27 8/28/28
s 8
f 6/29/29 4/30/30 10/32/32
f 4/30/30 1/31/31 10/32/32
s 9
f 2/33/33 11/34/34 1/36/36
f 11/34/34 10/35/35 1/36/36
s 10
f 3/37/37 5/38/38 2/40/40
f 5/38/38 11/39/39 2/40/40
