mtllib Stairs_Post.mtl
o object1
g object1
v 0.54375000 0.30000000 -0.44375000
v 0.54375000 0.55000000 -0.44375000
v 0.65625000 0.55000000 -0.44375000
v 0.65625000 0.30000000 -0.44375000
v 0.65625000 0.55000000 -0.55625000
v 0.65625000 0.30000000 -0.55625000
v 0.65625000 0.55000000 -0.50000000
v 0.54375000 0.30000000 -0.55625000
v 0.54375000 0.55000000 -0.55625000
v 0.52500000 0.27500000 -0.57500000
v 0.67500000 0.27500000 -0.57500000
v 0.52500000 0.27500000 -0.42500000
v 0.52500000 0.00000000 -0.42500000
v 0.52500000 0.00000000 -0.57500000
v 0.67500000 0.00000000 -0.42500000
v 0.67500000 0.27500000 -0.42500000
v 0.67500000 0.00000000 -0.57500000
v 0.54375000 0.55000000 -0.50000000
v 0.67500000 0.55000000 -0.50000000
v 0.67500000 0.55000000 -0.42500000
v 0.52500000 0.55000000 -0.42500000
v 0.52500000 0.55000000 -0.50000000
v 0.52500000 0.55000000 -0.57500000
v 0.67500000 0.55000000 -0.57500000
v 0.52500000 0.57500000 -0.42500000
v 0.67500000 0.57500000 -0.42500000
v 0.65625000 0.60000000 -0.44375000
v 0.54375000 0.60000000 -0.44375000
v 0.67500000 0.57500000 -0.57500000
v 0.65625000 0.60000000 -0.55625000
v 0.52500000 0.57500000 -0.57500000
v 0.54375000 0.60000000 -0.55625000
v 0.65625000 0.65000000 -0.55625000
v 0.54375000 0.65000000 -0.55625000
v 0.67500000 0.67500000 -0.57500000
v 0.52500000 0.67500000 -0.57500000
v 0.67500000 0.67500000 -0.42500000
v 0.65625000 0.65000000 -0.44375000
v 0.52500000 0.67500000 -0.42500000
v 0.54375000 0.65000000 -0.44375000
v 0.52500000 0.70000000 -0.42500000
v 0.67500000 0.70000000 -0.42500000
v 0.54375000 0.70000000 -0.50000000
v 0.54375000 0.70000000 -0.44375000
v 0.65625000 0.70000000 -0.44375000
v 0.65625000 0.70000000 -0.50000000
v 0.67500000 0.70000000 -0.50000000
v 0.52500000 0.70000000 -0.50000000
v 0.65625000 0.70000000 -0.55625000
v 0.54375000 0.70000000 -0.55625000
v 0.52500000 0.70000000 -0.57500000
v 0.67500000 0.70000000 -0.57500000
v 0.65625000 0.95000000 -0.55625000
v 0.65625000 0.95000000 -0.44375000
v 0.67500000 0.97500000 -0.42500000
v 0.67500000 0.97500000 -0.57500000
v 0.52500000 0.97500000 -0.42500000
v 0.54375000 0.95000000 -0.44375000
v 0.52500000 0.97500000 -0.57500000
v 0.54375000 0.95000000 -0.55625000
v 0.52500000 1.02500000 -0.57500000
v 0.52500000 1.02500000 -0.42500000
v 0.67500000 1.02500000 -0.57500000
v 0.65625000 1.05000000 -0.55625000
v 0.54375000 1.05000000 -0.55625000
v 0.65625000 1.05000000 -0.44375000
v 0.67500000 1.02500000 -0.42500000
v 0.54375000 1.05000000 -0.44375000
vt 0.00000000 0.00000000
vt 1.00000000 0.00000000
vt 1.00000000 1.00000000
vt 0.00000000 1.00000000
vt 0.00000000 0.00000000
vt 1.00000000 0.00000000
vt 1.00000000 1.00000000
vt 0.00000000 1.00000000
vt 1.00000000 0.50000000
vt 0.00000000 0.00000000
vt 1.00000000 0.00000000
vt 1.00000000 1.00000000
vt 0.00000000 1.00000000
vt 0.00000000 1.00000000
vt 0.12500000 0.00000000
vt 0.87500000 0.00000000
vt 1.00000000 1.00000000
vt 0.00000000 1.00000000
vt 0.12500000 0.00000000
vt 0.87500000 0.00000000
vt 1.00000000 1.00000000
vt 0.00000000 0.00000000
vt 1.00000000 0.00000000
vt 1.00000000 1.00000000
vt 0.00000000 1.00000000
vt 0.00000000 1.00000000
vt 0.00000000 0.00000000
vt 1.00000000 0.00000000
vt 1.00000000 1.00000000
vt 0.00000000 1.00000000
vt 0.00000000 0.00000000
vt 1.00000000 0.00000000
vt 1.00000000 1.00000000
vt 1.00000000 1.00000000
vt 0.00000000 1.00000000
vt 0.00000000 0.00000000
vt 1.00000000 0.00000000
vt 0.00000000 0.00000000
vt 1.00000000 0.00000000
vt 1.00000000 1.00000000
vt 0.00000000 1.00000000
vt 0.12500000 1.00000000
vt 0.00000000 0.00000000
vt 1.00000000 0.00000000
vt 0.87500000 1.00000000
vt 0.12500000 1.00000000
vt 0.00000000 0.00000000
vt 1.00000000 0.00000000
vt 0.87500000 1.00000000
vt 0.00000000 0.00000000
vt 1.00000000 0.00000000
vt 1.00000000 1.00000000
vt 0.00000000 1.00000000
vt 1.00000000 0.50000000
vt 0.50000000 0.12500000
vt 0.12500000 0.12500000
vt 0.12500000 0.87500000
vt 0.50000000 0.87500000
vt 0.50000000 1.00000000
vt 0.00000000 1.00000000
vt 0.00000000 0.00000000
vt 0.50000000 0.00000000
vt 0.87500000 0.87500000
vt 0.87500000 0.12500000
vt 1.00000000 0.00000000
vt 1.00000000 1.00000000
vt 1.00000000 0.00000000
vt 1.00000000 1.00000000
vt 0.00000000 1.00000000
vt 0.00000000 0.00000000
vt 0.00000000 1.00000000
vt 0.12500000 0.00000000
vt 0.87500000 0.00000000
vt 1.00000000 1.00000000
vt 0.00000000 1.00000000
vt 0.12500000 0.00000000
vt 0.87500000 0.00000000
vt 1.00000000 1.00000000
vt 0.12500000 1.00000000
vt 0.00000000 0.00000000
vt 1.00000000 0.00000000
vt 0.87500000 1.00000000
vt 1.00000000 1.00000000
vt 0.00000000 1.00000000
vt 0.00000000 0.00000000
vt 1.00000000 0.00000000
vt 0.00000000 1.00000000
vt 0.12500000 0.00000000
vt 0.87500000 0.00000000
vt 1.00000000 1.00000000
vt 0.00000000 1.00000000
vt 0.12500000 0.00000000
vt 0.87500000 0.00000000
vt 1.00000000 1.00000000
vt 0.12500000 1.00000000
vt 0.00000000 0.00000000
vt 1.00000000 0.00000000
vt 0.87500000 1.00000000
vt 0.00000000 1.00000000
vt 0.00000000 0.00000000
vt 1.00000000 0.00000000
vt 1.00000000 1.00000000
vt 0.50000000 0.12500000
vt 0.12500000 0.12500000
vt 0.12500000 0.87500000
vt 0.50000000 0.87500000
vt 0.50000000 1.00000000
vt 0.00000000 1.00000000
vt 0.00000000 0.00000000
vt 0.50000000 0.00000000
vt 0.87500000 0.87500000
vt 0.87500000 0.12500000
vt 1.00000000 0.00000000
vt 1.00000000 1.00000000
vt 1.00000000 1.00000000
vt 0.00000000 1.00000000
vt 0.00000000 0.00000000
vt 1.00000000 0.00000000
vt 0.00000000 0.50000000
vt 0.00000000 1.00000000
vt 0.12500000 0.00000000
vt 0.87500000 0.00000000
vt 1.00000000 1.00000000
vt 0.12500000 1.00000000
vt 0.00000000 0.00000000
vt 1.00000000 0.00000000
vt 0.87500000 1.00000000
vt 0.12500000 1.00000000
vt 0.00000000 0.00000000
vt 1.00000000 0.00000000
vt 0.87500000 1.00000000
vt 0.00000000 0.00000000
vt 1.00000000 0.00000000
vt 1.00000000 1.00000000
vt 0.00000000 1.00000000
vt 0.00000000 0.00000000
vt 1.00000000 0.00000000
vt 1.00000000 1.00000000
vt 0.00000000 1.00000000
vt 0.12500000 1.00000000
vt 0.00000000 0.00000000
vt 1.00000000 0.00000000
vt 0.87500000 1.00000000
vt 0.00000000 1.00000000
vt 0.12500000 0.00000000
vt 0.87500000 0.00000000
vt 1.00000000 1.00000000
vt 0.00000000 1.00000000
vt 0.12500000 0.00000000
vt 0.87500000 0.00000000
vt 1.00000000 1.00000000
vt 1.00000000 1.00000000
vt 0.00000000 1.00000000
vt 0.00000000 0.00000000
vt 1.00000000 0.00000000
vt 0.12500000 1.00000000
vt 0.00000000 0.00000000
vt 1.00000000 0.00000000
vt 0.87500000 1.00000000
vt 0.00000000 0.00000000
vt 1.00000000 0.00000000
vt 1.00000000 1.00000000
vt 0.00000000 1.00000000
vt 0.00000000 0.00000000
vt 1.00000000 0.00000000
vt 1.00000000 1.00000000
vt 0.00000000 1.00000000
vt 0.00000000 1.00000000
vt 0.12500000 0.00000000
vt 0.87500000 0.00000000
vt 1.00000000 1.00000000
vt 1.00000000 1.00000000
vt 0.00000000 1.00000000
vt 0.00000000 0.00000000
vt 1.00000000 0.00000000
vt 1.00000000 1.00000000
vt 0.00000000 1.00000000
vt 0.00000000 0.00000000
vt 1.00000000 0.00000000
vt 0.00000000 0.50000000
vt 1.00000000 1.00000000
vt 0.00000000 1.00000000
vt 0.00000000 0.00000000
vt 1.00000000 0.00000000
vt 0.00000000 1.00000000
vt 0.00000000 0.00000000
vt 1.00000000 0.00000000
vt 1.00000000 1.00000000
vt 1.00000000 0.50000000
vt 0.00000000 1.00000000
vt 0.00000000 0.00000000
vt 1.00000000 0.00000000
vt 1.00000000 1.00000000
vt 1.00000000 0.50000000
vt 0.00000000 1.00000000
vt 0.00000000 0.00000000
vt 1.00000000 0.00000000
vt 1.00000000 1.00000000
vt 0.12500000 1.00000000
vt 0.00000000 0.00000000
vt 1.00000000 0.00000000
vt 0.87500000 1.00000000
vt 1.00000000 1.00000000
vt 0.00000000 1.00000000
vt 0.00000000 0.00000000
vt 1.00000000 0.00000000
vt 1.00000000 1.00000000
vt 0.00000000 1.00000000
vt 0.00000000 0.00000000
vt 1.00000000 0.00000000
vt 0.12500000 1.00000000
vt 0.00000000 0.00000000
vt 1.00000000 0.00000000
vt 0.87500000 1.00000000
vt 1.00000000 1.00000000
vt 0.00000000 1.00000000
vt 0.00000000 0.00000000
vt 1.00000000 0.00000000
vt 1.00000000 0.00000000
vt 1.00000000 1.00000000
vt 0.00000000 1.00000000
vt 0.00000000 0.00000000
vt 0.00000000 0.50000000
vt 1.00000000 0.00000000
vt 1.00000000 1.00000000
vt 0.00000000 1.00000000
vt 0.00000000 0.00000000
vt 1.00000000 0.00000000
vt 1.00000000 1.00000000
vt 0.00000000 1.00000000
vt 0.00000000 0.00000000
vt 0.00000000 0.50000000
vn 0.00000000 0.00000000 1.00000000
vn 0.00000000 0.00000000 1.00000000
vn 0.00000000 0.00000000 1.00000000
vn 0.00000000 0.00000000 1.00000000
vn 1.00000000 0.00000000 0.00000000
vn 1.00000000 0.00000000 0.00000000
vn 1.00000000 0.00000000 0.00000000
vn 1.00000000 0.00000000 0.00000000
vn 1.00000000 0.00000000 0.00000000
vn 0.00000000 0.00000000 -1.00000000
vn 0.00000000 0.00000000 -1.00000000
vn 0.00000000 0.00000000 -1.00000000
vn 0.00000000 0.00000000 -1.00000000
vn 0.00000000 0.60000000 -0.80000000
vn 0.00000000 0.60000000 -0.80000000
vn 0.00000000 0.60000000 -0.80000000
vn 0.00000000 0.60000000 -0.80000000
vn -0.80000000 0.60000000 0.00000000
vn -0.80000000 0.60000000 0.00000000
vn -0.80000000 0.60000000 0.00000000
vn -0.80000000 0.60000000 0.00000000
vn -1.00000000 0.00000000 0.00000000
vn -1.00000000 0.00000000 0.00000000
vn -1.00000000 0.00000000 0.00000000
vn -1.00000000 0.00000000 0.00000000
vn 0.00000000 0.00000000 1.00000000
vn 0.00000000 0.00000000 1.00000000
vn 0.00000000 0.00000000 1.00000000
vn 0.00000000 0.00000000 1.00000000
vn 1.00000000 0.00000000 0.00000000
vn 1.00000000 0.00000000 0.00000000
vn 1.00000000 0.00000000 0.00000000
vn 1.00000000 0.00000000 0.00000000
vn 0.00000000 -1.00000000 0.00000000
vn 0.00000000 -1.00000000 0.00000000
vn 0.00000000 -1.00000000 0.00000000
vn 0.00000000 -1.00000000 0.00000000
vn 0.00000000 0.00000000 -1.00000000
vn 0.00000000 0.00000000 -1.00000000
vn 0.00000000 0.00000000 -1.00000000
vn 0.00000000 0.00000000 -1.00000000
vn 0.80000000 0.60000000 0.00000000
vn 0.80000000 0.60000000 0.00000000
vn 0.80000000 0.60000000 0.00000000
vn 0.80000000 0.60000000 0.00000000
vn 0.00000000 0.60000000 0.80000000
vn 0.00000000 0.60000000 0.80000000
vn 0.00000000 0.60000000 0.80000000
vn 0.00000000 0.60000000 0.80000000
vn -1.00000000 0.00000000 0.00000000
vn -1.00000000 0.00000000 0.00000000
vn -1.00000000 0.00000000 0.00000000
vn -1.00000000 0.00000000 0.00000000
vn -1.00000000 0.00000000 0.00000000
vn 0.00000000 -1.00000000 0.00000000
vn 0.00000000 -1.00000000 0.00000000
vn 0.00000000 -1.00000000 0.00000000
vn 0.00000000 -1.00000000 0.00000000
vn 0.00000000 -1.00000000 0.00000000
vn 0.00000000 -1.00000000 0.00000000
vn 0.00000000 -1.00000000 0.00000000
vn 0.00000000 -1.00000000 0.00000000
vn 0.00000000 -1.00000000 0.00000000
vn 0.00000000 -1.00000000 0.00000000
vn 0.00000000 -1.00000000 0.00000000
vn 0.00000000 -1.00000000 0.00000000
vn 0.00000000 0.00000000 1.00000000
vn 0.00000000 0.00000000 1.00000000
vn 0.00000000 0.00000000 1.00000000
vn 0.00000000 0.00000000 1.00000000
vn 0.00000000 0.60000000 0.80000000
vn 0.00000000 0.60000000 0.80000000
vn 0.00000000 0.60000000 0.80000000
vn 0.00000000 0.60000000 0.80000000
vn 0.80000000 0.60000000 0.00000000
vn 0.80000000 0.60000000 0.00000000
vn 0.80000000 0.60000000 0.00000000
vn 0.80000000 0.60000000 0.00000000
vn 0.00000000 0.60000000 -0.80000000
vn 0.00000000 0.60000000 -0.80000000
vn 0.00000000 0.60000000 -0.80000000
vn 0.00000000 0.60000000 -0.80000000
vn 0.00000000 0.00000000 -1.00000000
vn 0.00000000 0.00000000 -1.00000000
vn 0.00000000 0.00000000 -1.00000000
vn 0.00000000 0.00000000 -1.00000000
vn 0.00000000 -0.60000000 -0.80000000
vn 0.00000000 -0.60000000 -0.80000000
vn 0.00000000 -0.60000000 -0.80000000
vn 0.00000000 -0.60000000 -0.80000000
vn 0.80000000 -0.60000000 0.00000000
vn 0.80000000 -0.60000000 0.00000000
vn 0.80000000 -0.60000000 0.00000000
vn 0.80000000 -0.60000000 0.00000000
vn 0.00000000 -0.60000000 0.80000000
vn 0.00000000 -0.60000000 0.80000000
vn 0.00000000 -0.60000000 0.80000000
vn 0.00000000 -0.60000000 0.80000000
vn 0.00000000 0.00000000 1.00000000
vn 0.00000000 0.00000000 1.00000000
vn 0.00000000 0.00000000 1.00000000
vn 0.00000000 0.00000000 1.00000000
vn 0.00000000 1.00000000 0.00000000
vn 0.00000000 1.00000000 0.00000000
vn 0.00000000 1.00000000 0.00000000
vn 0.00000000 1.00000000 0.00000000
vn 0.00000000 1.00000000 0.00000000
vn 0.00000000 1.00000000 0.00000000
vn 0.00000000 1.00000000 0.00000000
vn 0.00000000 1.00000000 0.00000000
vn 0.00000000 1.00000000 0.00000000
vn 0.00000000 1.00000000 0.00000000
vn 0.00000000 1.00000000 0.00000000
vn 0.00000000 1.00000000 0.00000000
vn 1.00000000 0.00000000 0.00000000
vn 1.00000000 0.00000000 0.00000000
vn 1.00000000 0.00000000 0.00000000
vn 1.00000000 0.00000000 0.00000000
vn 1.00000000 0.00000000 0.00000000
vn 0.80000000 -0.60000000 0.00000000
vn 0.80000000 -0.60000000 0.00000000
vn 0.80000000 -0.60000000 0.00000000
vn 0.80000000 -0.60000000 0.00000000
vn 0.00000000 -0.60000000 0.80000000
vn 0.00000000 -0.60000000 0.80000000
vn 0.00000000 -0.60000000 0.80000000
vn 0.00000000 -0.60000000 0.80000000
vn -0.80000000 -0.60000000 0.00000000
vn -0.80000000 -0.60000000 0.00000000
vn -0.80000000 -0.60000000 0.00000000
vn -0.80000000 -0.60000000 0.00000000
vn -1.00000000 0.00000000 0.00000000
vn -1.00000000 0.00000000 0.00000000
vn -1.00000000 0.00000000 0.00000000
vn -1.00000000 0.00000000 0.00000000
vn 0.00000000 0.00000000 -1.00000000
vn 0.00000000 0.00000000 -1.00000000
vn 0.00000000 0.00000000 -1.00000000
vn 0.00000000 0.00000000 -1.00000000
vn 0.00000000 0.60000000 -0.80000000
vn 0.00000000 0.60000000 -0.80000000
vn 0.00000000 0.60000000 -0.80000000
vn 0.00000000 0.60000000 -0.80000000
vn 0.80000000 0.60000000 0.00000000
vn 0.80000000 0.60000000 0.00000000
vn 0.80000000 0.60000000 0.00000000
vn 0.80000000 0.60000000 0.00000000
vn 0.00000000 0.60000000 0.80000000
vn 0.00000000 0.60000000 0.80000000
vn 0.00000000 0.60000000 0.80000000
vn 0.00000000 0.60000000 0.80000000
vn 0.00000000 1.00000000 0.00000000
vn 0.00000000 1.00000000 0.00000000
vn 0.00000000 1.00000000 0.00000000
vn 0.00000000 1.00000000 0.00000000
vn -0.80000000 0.60000000 0.00000000
vn -0.80000000 0.60000000 0.00000000
vn -0.80000000 0.60000000 0.00000000
vn -0.80000000 0.60000000 0.00000000
vn 0.00000000 0.00000000 1.00000000
vn 0.00000000 0.00000000 1.00000000
vn 0.00000000 0.00000000 1.00000000
vn 0.00000000 0.00000000 1.00000000
vn 1.00000000 0.00000000 0.00000000
vn 1.00000000 0.00000000 0.00000000
vn 1.00000000 0.00000000 0.00000000
vn 1.00000000 0.00000000 0.00000000
vn 0.00000000 -0.60000000 -0.80000000
vn 0.00000000 -0.60000000 -0.80000000
vn 0.00000000 -0.60000000 -0.80000000
vn 0.00000000 -0.60000000 -0.80000000
vn 0.00000000 0.00000000 -1.00000000
vn 0.00000000 0.00000000 -1.00000000
vn 0.00000000 0.00000000 -1.00000000
vn 0.00000000 0.00000000 -1.00000000
vn -1.00000000 0.00000000 0.00000000
vn -1.00000000 0.00000000 0.00000000
vn -1.00000000 0.00000000 0.00000000
vn -1.00000000 0.00000000 0.00000000
vn -1.00000000 0.00000000 0.00000000
vn 0.00000000 0.00000000 1.00000000
vn 0.00000000 0.00000000 1.00000000
vn 0.00000000 0.00000000 1.00000000
vn 0.00000000 0.00000000 1.00000000
vn -1.00000000 0.00000000 0.00000000
vn -1.00000000 0.00000000 0.00000000
vn -1.00000000 0.00000000 0.00000000
vn -1.00000000 0.00000000 0.00000000
vn -1.00000000 0.00000000 0.00000000
vn 1.00000000 0.00000000 0.00000000
vn 1.00000000 0.00000000 0.00000000
vn 1.00000000 0.00000000 0.00000000
vn 1.00000000 0.00000000 0.00000000
vn 1.00000000 0.00000000 0.00000000
vn 0.00000000 0.00000000 -1.00000000
vn 0.00000000 0.00000000 -1.00000000
vn 0.00000000 0.00000000 -1.00000000
vn 0.00000000 0.00000000 -1.00000000
vn -0.80000000 -0.60000000 0.00000000
vn -0.80000000 -0.60000000 0.00000000
vn -0.80000000 -0.60000000 0.00000000
vn -0.80000000 -0.60000000 0.00000000
vn -1.00000000 0.00000000 0.00000000
vn -1.00000000 0.00000000 0.00000000
vn -1.00000000 0.00000000 0.00000000
vn -1.00000000 0.00000000 0.00000000
vn 1.00000000 0.00000000 0.00000000
vn 1.00000000 0.00000000 0.00000000
vn 1.00000000 0.00000000 0.00000000
vn 1.00000000 0.00000000 0.00000000
vn -0.80000000 0.60000000 0.00000000
vn -0.80000000 0.60000000 0.00000000
vn -0.80000000 0.60000000 0.00000000
vn -0.80000000 0.60000000 0.00000000
vn 0.00000000 0.00000000 1.00000000
vn 0.00000000 0.00000000 1.00000000
vn 0.00000000 0.00000000 1.00000000
vn 0.00000000 0.00000000 1.00000000
vn 1.00000000 0.00000000 0.00000000
vn 1.00000000 0.00000000 0.00000000
vn 1.00000000 0.00000000 0.00000000
vn 1.00000000 0.00000000 0.00000000
vn 1.00000000 0.00000000 0.00000000
vn 0.00000000 0.00000000 -1.00000000
vn 0.00000000 0.00000000 -1.00000000
vn 0.00000000 0.00000000 -1.00000000
vn 0.00000000 0.00000000 -1.00000000
vn -1.00000000 0.00000000 0.00000000
vn -1.00000000 0.00000000 0.00000000
vn -1.00000000 0.00000000 0.00000000
vn -1.00000000 0.00000000 0.00000000
vn -1.00000000 0.00000000 0.00000000
s 1
usemtl Dark_Wood
f 4/4/4 3/3/3 1/1/1
f 3/3/3 2/2/2 1/1/1
s 2
f 6/8/8 5/7/7 7/9/9
f 7/9/9 3/6/6 4/5/5
f 6/8/8 7/9/9 4/5/5
s 3
f 8/10/10 9/11/11 6/13/13
f 9/11/11 5/12/12 6/13/13
s 4
f 10/14/14 8/15/15 6/16/16
f 10/14/14 6/16/16 11/17/17
s 5
f 12/18/18 1/19/19 8/20/20
f 12/18/18 8/20/20 10/21/21
s 6
f 13/22/22 12/23/23 14/25/25
f 12/23/23 10/24/24 14/25/25
s 7
f 16/29/29 12/28/28 15/26/26
f 12/28/28 13/27/27 15/26/26
s 8
f 11/33/33 16/32/32 17/30/30
f 16/32/32 15/31/31 17/30/30
s 9
f 17/34/34 15/35/35 14/37/37
f 15/35/35 13/36/36 14/37/37
s 10
f 14/38/38 10/39/39 17/41/41
f 10/39/39 11/40/40 17/41/41
s 11
f 4/42/42 16/43/43 11/44/44
f 4/42/42 11/44/44 6/45/45
s 12
f 1/46/46 12/47/47 16/48/48
f 1/46/46 16/48/48 4/49/49
s 13
f 1/50/50 2/51/51 18/54/54
f 18/54/54 9/52/52 8/53/53
f 1/50/50 18/54/54 8/53/53
s 14
f 22/62/62 18/55/55 2/56/56
f 21/61/61 2/56/56 3/57/57
f 3/57/57 19/59/59 20/60/60
f 24/66/66 19/59/59 5/63/63
f 9/64/64 23/65/65 24/66/66
f 24/66/66 5/63/63 9/64/64
f 19/59/59 7/58/58 5/63/63
f 3/57/57 7/58/58 19/59/59
f 3/57/57 20/60/60 21/61/61
f 9/64/64 22/62/62 23/65/65
f 9/64/64 18/55/55 22/62/62
f 21/61/61 22/62/62 2/56/56
s 15
f 21/70/70 20/69/69 25/67/67
f 20/69/69 26/68/68 25/67/67
s 16
f 26/71/71 27/72/72 25/74/74
f 27/72/72 28/73/73 25/74/74
s 17
f 29/75/75 30/76/76 26/78/78
f 30/76/76 27/77/77 26/78/78
s 18
f 30/79/79 29/80/80 32/82/82
f 29/80/80 31/81/81 32/82/82
s 19
f 33/83/83 30/84/84 34/86/86
f 30/84/84 32/85/85 34/86/86
s 20
f 35/87/87 33/88/88 36/90/90
f 33/88/88 34/89/89 36/90/90
s 21
f 37/91/91 38/92/92 35/94/94
f 38/92/92 33/93/93 35/94/94
s 22
f 38/95/95 37/96/96 40/98/98
f 37/96/96 39/97/97 40/98/98
s 23
f 42/102/102 41/101/101 37/99/99
f 41/101/101 39/100/100 37/99/99
s 24
f 44/104/104 43/103/103 48/110/110
f 51/113/113 48/110/110 50/112/112
f 50/112/112 49/111/111 52/114/114
f 49/111/111 47/107/107 52/114/114
f 42/108/108 47/107/107 45/105/105
f 41/109/109 42/108/108 45/105/105
f 47/107/107 46/106/106 45/105/105
f 49/111/111 46/106/106 47/107/107
f 52/114/114 51/113/113 50/112/112
f 48/110/110 43/103/103 50/112/112
f 45/105/105 44/104/104 41/109/109
f 44/104/104 48/110/110 41/109/109
s 25
f 46/119/119 49/116/116 53/115/115
f 54/118/118 46/119/119 53/115/115
f 54/118/118 45/117/117 46/119/119
s 26
f 55/120/120 54/121/121 56/123/123
f 54/121/121 53/122/122 56/123/123
s 27
f 54/124/124 55/125/125 58/127/127
f 55/125/125 57/126/126 58/127/127
s 28
f 58/128/128 57/129/129 60/131/131
f 57/129/129 59/130/130 60/131/131
s 29
f 57/135/135 62/134/134 59/132/132
f 62/134/134 61/133/133 59/132/132
s 30
f 59/139/139 61/138/138 56/136/136
f 61/138/138 63/137/137 56/136/136
s 31
f 64/140/140 63/141/141 65/143/143
f 63/141/141 61/142/142 65/143/143
s 32
f 63/144/144 64/145/145 67/147/147
f 64/145/145 66/146/146 67/147/147
s 33
f 67/148/148 66/149/149 62/151/151
f 66/149/149 68/150/150 62/151/151
s 34
f 66/155/155 64/154/154 68/152/152
f 64/154/154 65/153/153 68/152/152
s 35
f 65/156/156 61/157/157 68/159/159
f 61/157/157 62/158/158 68/159/159
s 36
f 55/160/160 67/161/161 57/163/163
f 67/161/161 62/162/162 57/163/163
s 37
f 56/164/164 63/165/165 55/167/167
f 63/165/165 67/166/166 55/167/167
s 38
f 56/168/168 53/169/169 59/171/171
f 53/169/169 60/170/170 59/171/171
s 39
f 53/172/172 49/173/173 60/175/175
f 49/173/173 50/174/174 60/175/175
s 40
f 43/180/180 44/178/178 58/179/179
f 60/176/176 43/180/180 58/179/179
f 60/176/176 50/177/177 43/180/180
s 41
f 58/184/184 44/183/183 54/181/181
f 44/183/183 45/182/182 54/181/181
s 42
f 39/186/186 41/187/187 48/189/189
f 48/189/189 51/188/188 36/185/185
f 36/185/185 39/186/186 48/189/189
s 43
f 47/194/194 42/192/192 37/191/191
f 47/194/194 37/191/191 35/190/190
f 35/190/190 52/193/193 47/194/194
s 44
f 35/195/195 36/196/196 52/198/198
f 36/196/196 51/197/197 52/198/198
s 45
f 40/199/199 39/200/200 34/202/202
f 39/200/200 36/201/201 34/202/202
s 46
f 34/203/203 32/204/204 40/206/206
f 32/204/204 28/205/205 40/206/206
s 47
f 38/210/210 27/209/209 33/207/207
f 27/209/209 30/208/208 33/207/207
s 48
f 32/211/211 31/212/212 28/214/214
f 31/212/212 25/213/213 28/214/214
s 49
f 40/218/218 28/217/217 38/215/215
f 28/217/217 27/216/216 38/215/215
s 50
f 19/223/223 24/221/221 29/220/220
f 19/223/223 29/220/220 26/219/219
f 26/219/219 20/222/222 19/223/223
s 51
f 31/224/224 29/225/225 23/227/227
f 29/225/225 24/226/226 23/227/227
s 52
f 31/229/229 23/230/230 22/232/232
f 22/232/232 21/231/231 25/228/228
f 25/228/228 31/229/229 22/232/232
