mtllib Stairs_Indoor_Balcony_Floor_Corner.mtl
o object1
g object1
v 0.60000000 -0.20000000 0.50000000
v 0.60000000 -0.20000000 0.60000000
v 0.60000000 -0.05000000 0.60000000
v 0.60000000 -0.05000000 0.50000000
v 0.65000000 -0.02500000 0.65000000
v 0.65000000 -0.02500000 0.50000000
v 0.65000000 0.00000000 0.50000000
v 0.65000000 0.00000000 0.65000000
v 0.50000000 0.00000000 0.50000000
v 0.50000000 0.00000000 0.65000000
v 0.50000000 -0.20000000 0.50000000
v 0.50000000 -0.20000000 0.60000000
v 0.50000000 -0.05000000 0.60000000
v 0.50000000 -0.02500000 0.65000000
vt 0.00000000 0.00000000
vt 1.00000000 0.00000000
vt 1.00000000 1.00000000
vt 0.00000000 1.00000000
vt 0.00000000 0.00000000
vt 0.66666667 0.00000000
vt 1.00000000 1.00000000
vt 0.00000000 1.00000000
vt 0.00000000 0.00000000
vt 1.00000000 0.00000000
vt 1.00000000 1.00000000
vt 0.00000000 1.00000000
vt 0.00000000 1.00000000
vt 0.00000000 0.00000000
vt 1.00000000 0.00000000
vt 1.00000000 1.00000000
vt 1.00000000 0.00000000
vt 1.00000000 1.00000000
vt 0.00000000 1.00000000
vt 0.00000000 0.33333333
vt 0.75000000 0.33333333
vt 0.87500000 0.00000000
vt 1.00000000 0.00000000
vt 1.00000000 1.00000000
vt 0.00000000 1.00000000
vt 0.00000000 0.00000000
vt 1.00000000 1.00000000
vt 0.00000000 1.00000000
vt 0.33333333 0.00000000
vt 1.00000000 0.00000000
vt 0.87500000 1.00000000
vt 0.75000000 0.66666667
vt 0.00000000 0.66666667
vt 0.00000000 0.00000000
vt 1.00000000 0.00000000
vt 1.00000000 1.00000000
vt 1.00000000 0.00000000
vt 1.00000000 1.00000000
vt 0.00000000 1.00000000
vt 0.00000000 0.00000000
vt 1.00000000 1.00000000
vt 0.00000000 1.00000000
vt 0.00000000 0.00000000
vt 1.00000000 0.00000000
vn 1.00000000 0.00000000 0.00000000
vn 1.00000000 0.00000000 0.00000000
vn 1.00000000 0.00000000 0.00000000
vn 1.00000000 0.00000000 0.00000000
vn 0.44721360 -0.89442719 0.00000000
vn 0.44721360 -0.89442719 0.00000000
vn 0.44721360 -0.89442719 0.00000000
vn 0.44721360 -0.89442719 0.00000000
vn 1.00000000 0.00000000 0.00000000
vn 1.00000000 0.00000000 0.00000000
vn 1.00000000 0.00000000 0.00000000
vn 1.00000000 0.00000000 0.00000000
vn 0.00000000 1.00000000 0.00000000
vn 0.00000000 1.00000000 0.00000000
vn 0.00000000 1.00000000 0.00000000
vn 0.00000000 1.00000000 0.00000000
vn -1.00000000 0.00000000 0.00000000
vn -1.00000000 0.00000000 0.00000000
vn -1.00000000 0.00000000 0.00000000
vn -1.00000000 0.00000000 0.00000000
vn -1.00000000 0.00000000 0.00000000
vn -1.00000000 0.00000000 0.00000000
vn -0.00000000 0.00000000 1.00000000
vn -0.00000000 0.00000000 1.00000000
vn -0.00000000 0.00000000 1.00000000
vn -0.00000000 0.00000000 1.00000000
vn -0.00000000 -0.89442719 0.44721360
vn -0.00000000 -0.89442719 0.44721360
vn -0.00000000 -0.89442719 0.44721360
vn -0.00000000 -0.89442719 0.44721360
vn 0.00000000 0.00000000 -1.00000000
vn 0.00000000 0.00000000 -1.00000000
vn 0.00000000 0.00000000 -1.00000000
vn 0.00000000 0.00000000 -1.00000000
vn 0.00000000 0.00000000 -1.00000000
vn 0.00000000 0.00000000 -1.00000000
vn 0.00000000 -1.00000000 0.00000000
vn 0.00000000 -1.00000000 0.00000000
vn 0.00000000 -1.00000000 0.00000000
vn 0.00000000 -1.00000000 0.00000000
vn -0.00000000 0.00000000 1.00000000
vn -0.00000000 0.00000000 1.00000000
vn -0.00000000 0.00000000 1.00000000
vn -0.00000000 0.00000000 1.00000000
s 1
usemtl Beige
f 4/4/4 3/3/3 2/2/2
f 4/4/4 2/2/2 1/1/1
s 2
usemtl Dark_Wood
f 6/8/8 5/7/7 3/6/6
f 6/8/8 3/6/6 4/5/5
s 3
f 7/9/9 8/10/10 6/12/12
f 8/10/10 5/11/11 6/12/12
s 4
f 10/16/16 8/15/15 7/14/14
f 10/16/16 7/14/14 9/13/13
s 5
usemtl Beige
f 13/21/21 14/22/22 10/17/17
f 9/18/18 11/19/19 13/21/21
f 11/19/19 12/20/20 13/21/21
f 13/21/21 10/17/17 9/18/18
s 6
usemtl Dark_Wood
f 14/26/26 5/25/25 10/23/23
f 5/25/25 8/24/24 10/23/23
s 7
f 13/30/30 3/29/29 14/27/27
f 3/29/29 5/28/28 14/27/27
s 8
usemtl Beige
f 7/36/36 6/31/31 4/32/32
f 4/32/32 11/34/34 9/35/35
f 4/32/32 1/33/33 11/34/34
f 9/35/35 7/36/36 4/32/32
s 9
usemtl White
f 11/40/40 1/39/39 2/38/38
f 11/40/40 2/38/38 12/37/37
s 10
usemtl Beige
f 12/44/44 2/43/43 3/42/42
f 12/44/44 3/42/42 13/41/41
