mtllib Stairs_Indoor_Balcony_Handrail_Outer_Joint.mtl
o object1
g object1
v 0.60000000 0.75000000 -0.60000000
v 0.50000000 0.75000000 -0.60000000
v 0.50000000 0.80000000 -0.65000000
v 0.65000000 0.80000000 -0.65000000
v 0.55000000 0.80000000 -0.55000000
v 0.50000000 0.80000000 -0.55000000
v 0.55000000 0.85000000 -0.55000000
v 0.50000000 0.85000000 -0.55000000
v 0.65000000 0.85000000 -0.50000000
v 0.65000000 0.85000000 -0.65000000
v 0.50000000 0.85000000 -0.65000000
v 0.55000000 0.85000000 -0.50000000
v 0.65000000 0.80000000 -0.50000000
v 0.55000000 0.80000000 -0.50000000
v 0.60000000 0.75000000 -0.50000000
vt 0.66666667 1.00000000
vt 0.00000000 1.00000000
vt 0.00000000 0.00000000
vt 1.00000000 0.00000000
vt 0.50000000 1.00000000
vt 0.00000000 1.00000000
vt 0.00000000 0.00000000
vt 1.00000000 0.00000000
vt 1.00000000 1.00000000
vt 0.00000000 1.00000000
vt 0.00000000 0.00000000
vt 1.00000000 0.00000000
vt 1.00000000 0.00000000
vt 1.00000000 1.00000000
vt 0.00000000 1.00000000
vt 0.00000000 0.33333333
vt 0.33333333 0.33333333
vt 0.33333333 0.00000000
vt 0.00000000 0.00000000
vt 1.00000000 0.00000000
vt 1.00000000 1.00000000
vt 0.00000000 1.00000000
vt 0.50000000 0.00000000
vt 1.00000000 0.00000000
vt 1.00000000 1.00000000
vt 0.50000000 1.00000000
vt 0.00000000 0.50000000
vt 1.00000000 1.00000000
vt 0.00000000 1.00000000
vt 0.00000000 0.00000000
vt 1.00000000 0.00000000
vt 0.50000000 1.00000000
vt 0.00000000 1.00000000
vt 0.00000000 0.00000000
vt 1.00000000 0.00000000
vt 0.66666667 1.00000000
vt 0.00000000 1.00000000
vt 0.00000000 0.00000000
vt 1.00000000 0.00000000
vt 0.00000000 1.00000000
vt 0.00000000 0.00000000
vt 1.00000000 0.00000000
vt 1.00000000 1.00000000
vt 0.50000000 0.00000000
vt 1.00000000 0.00000000
vt 1.00000000 1.00000000
vt 0.50000000 1.00000000
vt 0.00000000 0.50000000
vn 0.00000000 -0.70710678 -0.70710678
vn 0.00000000 -0.70710678 -0.70710678
vn 0.00000000 -0.70710678 -0.70710678
vn 0.00000000 -0.70710678 -0.70710678
vn 0.00000000 -0.70710678 0.70710678
vn 0.00000000 -0.70710678 0.70710678
vn 0.00000000 -0.70710678 0.70710678
vn 0.00000000 -0.70710678 0.70710678
vn 0.00000000 0.00000000 1.00000000
vn 0.00000000 0.00000000 1.00000000
vn 0.00000000 0.00000000 1.00000000
vn 0.00000000 0.00000000 1.00000000
vn 0.00000000 1.00000000 0.00000000
vn 0.00000000 1.00000000 0.00000000
vn 0.00000000 1.00000000 0.00000000
vn 0.00000000 1.00000000 0.00000000
vn 0.00000000 1.00000000 0.00000000
vn 0.00000000 1.00000000 0.00000000
vn 1.00000000 0.00000000 0.00000000
vn 1.00000000 0.00000000 0.00000000
vn 1.00000000 0.00000000 0.00000000
vn 1.00000000 0.00000000 0.00000000
vn 0.00000000 0.00000000 1.00000000
vn 0.00000000 0.00000000 1.00000000
vn 0.00000000 0.00000000 1.00000000
vn 0.00000000 0.00000000 1.00000000
vn 0.00000000 0.00000000 1.00000000
vn -1.00000000 0.00000000 0.00000000
vn -1.00000000 0.00000000 0.00000000
vn -1.00000000 0.00000000 0.00000000
vn -1.00000000 0.00000000 0.00000000
vn -0.70710678 -0.70710678 0.00000000
vn -0.70710678 -0.70710678 0.00000000
vn -0.70710678 -0.70710678 0.00000000
vn -0.70710678 -0.70710678 0.00000000
vn 0.70710678 -0.70710678 0.00000000
vn 0.70710678 -0.70710678 0.00000000
vn 0.70710678 -0.70710678 0.00000000
vn 0.70710678 -0.70710678 0.00000000
vn 0.00000000 0.00000000 -1.00000000
vn 0.00000000 0.00000000 -1.00000000
vn 0.00000000 0.00000000 -1.00000000
vn 0.00000000 0.00000000 -1.00000000
vn -1.00000000 0.00000000 0.00000000
vn -1.00000000 0.00000000 0.00000000
vn -1.00000000 0.00000000 0.00000000
vn -1.00000000 0.00000000 0.00000000
vn -1.00000000 0.00000000 0.00000000
s 1
usemtl Dark_Wood
f 1/1/1 2/2/2 3/3/3
f 1/1/1 3/3/3 4/4/4
s 2
f 5/5/5 6/6/6 2/7/7
f 5/5/5 2/7/7 1/8/8
s 3
f 7/9/9 8/10/10 5/12/12
f 8/10/10 6/11/11 5/12/12
s 4
f 7/17/17 12/18/18 9/13/13
f 10/14/14 11/15/15 7/17/17
f 7/17/17 9/13/13 10/14/14
f 11/15/15 8/16/16 7/17/17
s 5
f 4/22/22 10/21/21 13/19/19
f 10/21/21 9/20/20 13/19/19
s 6
f 12/24/24 14/23/23 15/27/27
f 15/27/27 13/26/26 9/25/25
f 15/27/27 9/25/25 12/24/24
s 7
f 5/31/31 14/30/30 7/28/28
f 14/30/30 12/29/29 7/28/28
s 8
f 1/35/35 15/34/34 5/32/32
f 15/34/34 14/33/33 5/32/32
s 9
f 4/39/39 13/38/38 1/36/36
f 13/38/38 15/37/37 1/36/36
s 10
f 3/40/40 11/41/41 4/43/43
f 11/41/41 10/42/42 4/43/43
s 11
f 2/48/48 6/44/44 8/45/45
f 8/45/45 11/46/46 2/48/48
f 11/46/46 3/47/47 2/48/48
