mtllib Stairs_Indoor_Balcony_Handrail_Straight.mtl
o object1
g object1
v 0.55000000 0.80000000 0.50000000
v 0.55000000 0.85000000 0.50000000
v 0.65000000 0.85000000 0.50000000
v 0.65000000 0.80000000 0.50000000
v 0.60000000 0.75000000 0.50000000
v 0.65000000 0.85000000 -0.50000000
v 0.65000000 0.80000000 -0.50000000
v 0.55000000 0.80000000 -0.50000000
v 0.55000000 0.85000000 -0.50000000
v 0.60000000 0.75000000 -0.50000000
vt 0.50000000 0.00000000
vt 1.00000000 0.00000000
vt 1.00000000 1.00000000
vt 0.50000000 1.00000000
vt 0.00000000 0.50000000
vt 0.00000000 0.00000000
vt 1.00000000 0.00000000
vt 1.00000000 1.00000000
vt 0.00000000 1.00000000
vt 0.50000000 0.00000000
vt 1.00000000 0.00000000
vt 1.00000000 1.00000000
vt 0.50000000 1.00000000
vt 0.00000000 0.50000000
vt 0.00000000 0.00000000
vt 1.00000000 0.00000000
vt 1.00000000 1.00000000
vt 0.00000000 1.00000000
vt 0.00000000 0.00000000
vt 1.00000000 0.00000000
vt 1.00000000 1.00000000
vt 0.00000000 1.00000000
vt 0.00000000 0.00000000
vt 1.00000000 0.00000000
vt 1.00000000 1.00000000
vt 0.00000000 1.00000000
vt 0.00000000 0.00000000
vt 1.00000000 0.00000000
vt 1.00000000 1.00000000
vt 0.00000000 1.00000000
vn 0.00000000 0.00000000 1.00000000
vn 0.00000000 0.00000000 1.00000000
vn 0.00000000 0.00000000 1.00000000
vn 0.00000000 0.00000000 1.00000000
vn 0.00000000 0.00000000 1.00000000
vn 1.00000000 0.00000000 0.00000000
vn 1.00000000 0.00000000 0.00000000
vn 1.00000000 0.00000000 0.00000000
vn 1.00000000 0.00000000 0.00000000
vn 0.00000000 0.00000000 -1.00000000
vn 0.00000000 0.00000000 -1.00000000
vn 0.00000000 0.00000000 -1.00000000
vn 0.00000000 0.00000000 -1.00000000
vn 0.00000000 0.00000000 -1.00000000
vn 0.70710678 -0.70710678 0.00000000
vn 0.70710678 -0.70710678 0.00000000
vn 0.70710678 -0.70710678 0.00000000
vn 0.70710678 -0.70710678 0.00000000
vn -0.70710678 -0.70710678 0.00000000
vn -0.70710678 -0.70710678 0.00000000
vn -0.70710678 -0.70710678 0.00000000
vn -0.70710678 -0.70710678 0.00000000
vn -1.00000000 0.00000000 0.00000000
vn -1.00000000 0.00000000 0.00000000
vn -1.00000000 0.00000000 0.00000000
vn -1.00000000 0.00000000 0.00000000
vn 0.00000000 1.00000000 0.00000000
vn 0.00000000 1.00000000 0.00000000
vn 0.00000000 1.00000000 0.00000000
vn 0.00000000 1.00000000 0.00000000
s 1
usemtl Dark_Wood
f 2/2/2 1/1/1 5/5/5
f 5/5/5 4/4/4 3/3/3
f 5/5/5 3/3/3 2/2/2
s 2
f 4/9/9 7/8/8 3/6/6
f 7/8/8 6/7/7 3/6/6
s 3
f 10/14/14 8/10/10 9/11/11
f 9/11/11 6/12/12 10/14/14
f 6/12/12 7/13/13 10/14/14
s 4
f 5/18/18 10/17/17 7/16/16
f 5/18/18 7/16/16 4/15/15
s 5
f 1/22/22 8/21/21 10/20/20
f 1/22/22 10/20/20 5/19/19
s 6
f 2/26/26 9/25/25 1/23/23
f 9/25/25 8/24/24 1/23/23
s 7
f 3/30/30 6/29/29 2/27/27
f 6/29/29 9/28/28 2/27/27
