mtllib Wall_Curved_Large_Base_Outer_Half.mtl
o object1
g object1
v 0.54822847 0.00000000 -1.21055339
v 0.54822847 0.15000000 -1.21055339
v 0.26773353 0.15000000 -1.35347270
v 0.26773353 0.00000000 -1.35347270
v 0.80291254 0.00000000 -1.02551458
v 0.80291254 0.15000000 -1.02551458
v 1.02551458 0.00000000 -0.80291254
v 1.02551458 0.15000000 -0.80291254
v 1.21055339 0.00000000 -0.54822847
v 1.21055339 0.15000000 -0.54822847
v 1.35347270 0.00000000 -0.26773353
v 1.35347270 0.15000000 -0.26773353
v 1.45075336 0.00000000 0.03166555
v 1.45075336 0.15000000 0.03166555
v 1.50000000 0.00000000 0.34259659
v 1.50000000 0.15000000 0.34259659
v 1.50000000 0.15000000 0.50000000
v 1.50000000 0.00000000 0.50000000
v 1.62500000 0.15000000 0.50000000
v 1.65000000 0.10000000 0.50000000
v 1.65000000 0.00000000 0.50000000
v 1.65000000 0.10000000 0.33079133
v 1.62500000 0.15000000 0.33275887
v 1.57267545 0.15000000 0.00239465
v 1.59705986 0.10000000 -0.00345953
v 1.46931475 0.15000000 -0.31571688
v 1.49248316 0.10000000 -0.32531355
v 1.31746298 0.15000000 -0.61374275
v 1.33884490 0.10000000 -0.62684560
v 1.12085925 0.15000000 -0.88434458
v 1.13992818 0.10000000 -0.90063098
v 0.88434458 0.15000000 -1.12085925
v 0.90063098 0.10000000 -1.13992818
v 0.61374275 0.15000000 -1.31746298
v 0.62684560 0.10000000 -1.33884490
v 0.31571688 0.15000000 -1.46931475
v 0.32531355 0.10000000 -1.49248316
v -0.00239465 0.15000000 -1.57267545
v 0.00345953 0.10000000 -1.59705986
v -0.33275887 0.15000000 -1.62500000
v -0.33079133 0.10000000 -1.65000000
v -0.50000000 0.10000000 -1.65000000
v -0.50000000 0.15000000 -1.62500000
v -0.50000000 0.00000000 -1.50000000
v -0.50000000 0.15000000 -1.50000000
v -0.50000000 -0.00000000 -1.65000000
v -0.34259659 0.00000000 -1.50000000
v -0.34259659 0.15000000 -1.50000000
v -0.03166555 0.00000000 -1.45075336
v -0.03166555 0.15000000 -1.45075336
v -0.33079133 -0.00000000 -1.65000000
v 0.00345953 0.00000000 -1.59705986
v 0.32531355 -0.00000000 -1.49248316
v 0.62684560 -0.00000000 -1.33884490
v 0.90063098 -0.00000000 -1.13992818
v 1.13992818 -0.00000000 -0.90063098
v 1.33884490 -0.00000000 -0.62684560
v 1.49248316 -0.00000000 -0.32531355
v 1.59705986 0.00000000 -0.00345953
v 1.65000000 0.00000000 0.33079133
vt 0.00000000 0.00000000
vt 1.00000000 0.00000000
vt 1.00000000 1.00000000
vt 0.00000000 1.00000000
vt 0.00000000 0.00000000
vt 1.00000000 0.00000000
vt 1.00000000 1.00000000
vt 0.00000000 1.00000000
vt 0.00000000 0.00000000
vt 1.00000000 0.00000000
vt 1.00000000 1.00000000
vt 0.00000000 1.00000000
vt 0.00000000 0.00000000
vt 1.00000000 0.00000000
vt 1.00000000 1.00000000
vt 0.00000000 1.00000000
vt 0.00000000 0.00000000
vt 1.00000000 0.00000000
vt 1.00000000 1.00000000
vt 0.00000000 1.00000000
vt 0.00000000 0.00000000
vt 1.00000000 0.00000000
vt 1.00000000 1.00000000
vt 0.00000000 1.00000000
vt 0.00000000 0.00000000
vt 1.00000000 0.00000000
vt 1.00000000 1.00000000
vt 0.00000000 1.00000000
vt 1.00000000 0.00000000
vt 1.00000000 1.00000000
vt 0.00000000 1.00000000
vt 0.00000000 0.00000000
vt 0.00000000 0.00000000
vt 1.00000000 0.00000000
vt 1.00000000 0.83333333
vt 0.66666667 1.00000000
vt 0.00000000 1.00000000
vt 1.00000000 0.00000000
vt 1.00000000 1.00000000
vt 0.00000000 1.00000000
vt 0.01162791 0.00000000
vt 0.00581395 0.00000000
vt 0.99418605 0.00000000
vt 1.00000000 1.00000000
vt 0.00000000 1.00000000
vt 0.00581395 0.00000000
vt 0.99418605 0.00000000
vt 1.00000000 1.00000000
vt 0.00000000 1.00000000
vt 0.00581395 0.00000000
vt 0.99418605 0.00000000
vt 1.00000000 1.00000000
vt 0.00000000 1.00000000
vt 0.00581395 0.00000000
vt 0.99418605 0.00000000
vt 1.00000000 1.00000000
vt 0.00000000 1.00000000
vt 0.00581395 0.00000000
vt 0.99418605 0.00000000
vt 1.00000000 1.00000000
vt 0.00000000 1.00000000
vt 0.00581395 0.00000000
vt 0.99418605 0.00000000
vt 1.00000000 1.00000000
vt 0.00000000 1.00000000
vt 0.00581395 0.00000000
vt 0.99418605 0.00000000
vt 1.00000000 1.00000000
vt 0.00000000 1.00000000
vt 0.00581395 0.00000000
vt 0.99418605 0.00000000
vt 1.00000000 1.00000000
vt 0.00000000 1.00000000
vt 0.00581395 0.00000000
vt 0.99418605 0.00000000
vt 1.00000000 1.00000000
vt 0.00000000 1.00000000
vt 0.00000000 1.00000000
vt 0.00000000 0.00000000
vt 0.98837209 0.00000000
vt 1.00000000 1.00000000
vt 0.00000000 0.00000000
vt 1.00000000 0.00000000
vt 1.00000000 0.83333333
vt 0.66666667 1.00000000
vt 0.00000000 1.00000000
vt 0.00000000 1.00000000
vt 0.00000000 0.00000000
vt 1.00000000 0.00000000
vt 1.00000000 1.00000000
vt 0.00000000 0.00000000
vt 1.00000000 0.00000000
vt 1.00000000 1.00000000
vt 0.00000000 1.00000000
vt 0.00000000 1.00000000
vt 0.00000000 0.00000000
vt 1.00000000 0.00000000
vt 1.00000000 1.00000000
vt 0.00000000 1.00000000
vt 0.00000000 0.00000000
vt 1.00000000 0.00000000
vt 1.00000000 1.00000000
vt 0.00000000 1.00000000
vt 0.00000000 0.00000000
vt 1.00000000 0.00000000
vt 1.00000000 1.00000000
vt 0.00000000 1.00000000
vt 0.00000000 0.00000000
vt 1.00000000 0.00000000
vt 1.00000000 1.00000000
vt 0.00000000 1.00000000
vt 0.00000000 0.00000000
vt 1.00000000 0.00000000
vt 1.00000000 1.00000000
vt 0.00000000 1.00000000
vt 0.00000000 0.00000000
vt 1.00000000 0.00000000
vt 1.00000000 1.00000000
vt 0.00000000 1.00000000
vt 0.00000000 0.00000000
vt 1.00000000 0.00000000
vt 1.00000000 1.00000000
vt 0.00000000 1.00000000
vt 0.00000000 0.00000000
vt 1.00000000 0.00000000
vt 1.00000000 1.00000000
vt 0.00000000 1.00000000
vt 0.00000000 0.00000000
vt 1.00000000 0.00000000
vt 1.00000000 1.00000000
vt 0.00000000 1.00000000
vt 0.00000000 0.00000000
vt 1.00000000 0.00000000
vt 1.00000000 1.00000000
vt 0.00000000 1.00000000
vt 0.00000000 0.00000000
vt 1.00000000 0.00000000
vt 1.00000000 1.00000000
vt 0.90732715 0.21782998
vt 0.93023256 0.07321089
vt 0.93023256 0.00000000
vt 1.00000000 0.00000000
vt 1.00000000 0.07870171
vt 0.97537668 0.23416722
vt 0.92673635 0.38386677
vt 0.85527670 0.52411423
vt 0.76275729 0.65145627
vt 0.65145627 0.76275729
vt 0.52411423 0.85527670
vt 0.38386677 0.92673635
vt 0.23416722 0.97537668
vt 0.07870171 1.00000000
vt 0.00000000 1.00000000
vt 0.00000000 0.93023256
vt 0.07321089 0.93023256
vt 0.21782998 0.90732715
vt 0.35708536 0.86208033
vt 0.48754812 0.79560623
vt 0.60600583 0.70954167
vt 0.70954167 0.60600583
vt 0.79560623 0.48754812
vt 0.86208033 0.35708536
vt 0.00000000 0.00000000
vt 1.00000000 0.00000000
vt 1.00000000 1.00000000
vt 0.00000000 1.00000000
vt 0.52411423 0.85527670
vt 0.38386677 0.92673635
vt 0.23416722 0.97537668
vt 0.07870171 1.00000000
vt 0.00000000 1.00000000
vt 0.00000000 0.94117647
vt 0.07407219 0.94117647
vt 0.22039268 0.91800158
vt 0.36128637 0.87222245
vt 0.49328398 0.80496630
vt 0.61313531 0.71788922
vt 0.71788922 0.61313531
vt 0.80496630 0.49328398
vt 0.87222245 0.36128637
vt 0.91800158 0.22039268
vt 0.94117647 0.07407219
vt 0.94117647 0.00000000
vt 1.00000000 0.00000000
vt 1.00000000 0.07870171
vt 0.97537668 0.23416722
vt 0.92673635 0.38386677
vt 0.85527670 0.52411423
vt 0.76275729 0.65145627
vt 0.65145627 0.76275729
vn -0.45399050 0.00000000 0.89100652
vn -0.45399050 0.00000000 0.89100652
vn -0.45399050 0.00000000 0.89100652
vn -0.45399050 0.00000000 0.89100652
vn -0.58778525 0.00000000 0.80901699
vn -0.58778525 0.00000000 0.80901699
vn -0.58778525 0.00000000 0.80901699
vn -0.58778525 0.00000000 0.80901699
vn -0.70710678 0.00000000 0.70710678
vn -0.70710678 0.00000000 0.70710678
vn -0.70710678 0.00000000 0.70710678
vn -0.70710678 0.00000000 0.70710678
vn -0.80901699 0.00000000 0.58778525
vn -0.80901699 0.00000000 0.58778525
vn -0.80901699 0.00000000 0.58778525
vn -0.80901699 0.00000000 0.58778525
vn -0.89100652 0.00000000 0.45399050
vn -0.89100652 0.00000000 0.45399050
vn -0.89100652 0.00000000 0.45399050
vn -0.89100652 0.00000000 0.45399050
vn -0.95105652 0.00000000 0.30901699
vn -0.95105652 0.00000000 0.30901699
vn -0.95105652 0.00000000 0.30901699
vn -0.95105652 0.00000000 0.30901699
vn -0.98768834 0.00000000 0.15643447
vn -0.98768834 0.00000000 0.15643447
vn -0.98768834 0.00000000 0.15643447
vn -0.98768834 0.00000000 0.15643447
vn -1.00000000 0.00000000 0.00000000
vn -1.00000000 0.00000000 0.00000000
vn -1.00000000 0.00000000 0.00000000
vn -1.00000000 0.00000000 0.00000000
vn 0.00000000 0.00000000 1.00000000
vn 0.00000000 0.00000000 1.00000000
vn 0.00000000 0.00000000 1.00000000
vn 0.00000000 0.00000000 1.00000000
vn 0.00000000 0.00000000 1.00000000
vn 0.89442719 0.44721360 -0.00000000
vn 0.89442719 0.44721360 -0.00000000
vn 0.89442719 0.44721360 -0.00000000
vn 0.89442719 0.44721360 -0.00000000
vn 0.88341531 0.44721360 -0.13991924
vn 0.88341531 0.44721360 -0.13991924
vn 0.88341531 0.44721360 -0.13991924
vn 0.88341531 0.44721360 -0.13991924
vn 0.85065081 0.44721360 -0.27639320
vn 0.85065081 0.44721360 -0.27639320
vn 0.85065081 0.44721360 -0.27639320
vn 0.85065081 0.44721360 -0.27639320
vn 0.79694046 0.44721360 -0.40606145
vn 0.79694046 0.44721360 -0.40606145
vn 0.79694046 0.44721360 -0.40606145
vn 0.79694046 0.44721360 -0.40606145
vn 0.72360680 0.44721360 -0.52573111
vn 0.72360680 0.44721360 -0.52573111
vn 0.72360680 0.44721360 -0.52573111
vn 0.72360680 0.44721360 -0.52573111
vn 0.63245553 0.44721360 -0.63245553
vn 0.63245553 0.44721360 -0.63245553
vn 0.63245553 0.44721360 -0.63245553
vn 0.63245553 0.44721360 -0.63245553
vn 0.52573111 0.44721360 -0.72360680
vn 0.52573111 0.44721360 -0.72360680
vn 0.52573111 0.44721360 -0.72360680
vn 0.52573111 0.44721360 -0.72360680
vn 0.40606145 0.44721360 -0.79694046
vn 0.40606145 0.44721360 -0.79694046
vn 0.40606145 0.44721360 -0.79694046
vn 0.40606145 0.44721360 -0.79694046
vn 0.27639320 0.44721360 -0.85065081
vn 0.27639320 0.44721360 -0.85065081
vn 0.27639320 0.44721360 -0.85065081
vn 0.27639320 0.44721360 -0.85065081
vn 0.13991924 0.44721360 -0.88341531
vn 0.13991924 0.44721360 -0.88341531
vn 0.13991924 0.44721360 -0.88341531
vn 0.13991924 0.44721360 -0.88341531
vn 0.00000000 0.44721360 -0.89442719
vn 0.00000000 0.44721360 -0.89442719
vn 0.00000000 0.44721360 -0.89442719
vn 0.00000000 0.44721360 -0.89442719
vn -1.00000000 0.00000000 0.00000000
vn -1.00000000 0.00000000 0.00000000
vn -1.00000000 0.00000000 0.00000000
vn -1.00000000 0.00000000 0.00000000
vn -1.00000000 0.00000000 0.00000000
vn 0.00000000 0.00000000 1.00000000
vn 0.00000000 0.00000000 1.00000000
vn 0.00000000 0.00000000 1.00000000
vn 0.00000000 0.00000000 1.00000000
vn -0.15643447 0.00000000 0.98768834
vn -0.15643447 0.00000000 0.98768834
vn -0.15643447 0.00000000 0.98768834
vn -0.15643447 0.00000000 0.98768834
vn 0.00000000 0.00000000 -1.00000000
vn 0.00000000 0.00000000 -1.00000000
vn 0.00000000 0.00000000 -1.00000000
vn 0.00000000 0.00000000 -1.00000000
vn 0.15643447 0.00000000 -0.98768834
vn 0.15643447 0.00000000 -0.98768834
vn 0.15643447 0.00000000 -0.98768834
vn 0.15643447 0.00000000 -0.98768834
vn 0.30901699 0.00000000 -0.95105652
vn 0.30901699 0.00000000 -0.95105652
vn 0.30901699 0.00000000 -0.95105652
vn 0.30901699 0.00000000 -0.95105652
vn 0.45399050 0.00000000 -0.89100652
vn 0.45399050 0.00000000 -0.89100652
vn 0.45399050 0.00000000 -0.89100652
vn 0.45399050 0.00000000 -0.89100652
vn 0.58778525 0.00000000 -0.80901699
vn 0.58778525 0.00000000 -0.80901699
vn 0.58778525 0.00000000 -0.80901699
vn 0.58778525 0.00000000 -0.80901699
vn 0.70710678 0.00000000 -0.70710678
vn 0.70710678 0.00000000 -0.70710678
vn 0.70710678 0.00000000 -0.70710678
vn 0.70710678 0.00000000 -0.70710678
vn 0.80901699 0.00000000 -0.58778525
vn 0.80901699 0.00000000 -0.58778525
vn 0.80901699 0.00000000 -0.58778525
vn 0.80901699 0.00000000 -0.58778525
vn 0.89100652 0.00000000 -0.45399050
vn 0.89100652 0.00000000 -0.45399050
vn 0.89100652 0.00000000 -0.45399050
vn 0.89100652 0.00000000 -0.45399050
vn 0.95105652 0.00000000 -0.30901699
vn 0.95105652 0.00000000 -0.30901699
vn 0.95105652 0.00000000 -0.30901699
vn 0.95105652 0.00000000 -0.30901699
vn 0.98768834 0.00000000 -0.15643447
vn 0.98768834 0.00000000 -0.15643447
vn 0.98768834 0.00000000 -0.15643447
vn 0.98768834 0.00000000 -0.15643447
vn 1.00000000 0.00000000 -0.00000000
vn 1.00000000 0.00000000 -0.00000000
vn 1.00000000 0.00000000 -0.00000000
vn 1.00000000 0.00000000 -0.00000000
vn 0.00000000 -1.00000000 0.00000000
vn 0.00000000 -1.00000000 0.00000000
vn 0.00000000 -1.00000000 0.00000000
vn 0.00000000 -1.00000000 0.00000000
vn 0.00000000 -1.00000000 0.00000000
vn 0.00000000 -1.00000000 0.00000000
vn 0.00000000 -1.00000000 0.00000000
vn 0.00000000 -1.00000000 0.00000000
vn 0.00000000 -1.00000000 0.00000000
vn 0.00000000 -1.00000000 0.00000000
vn 0.00000000 -1.00000000 0.00000000
vn 0.00000000 -1.00000000 0.00000000
vn 0.00000000 -1.00000000 0.00000000
vn 0.00000000 -1.00000000 0.00000000
vn 0.00000000 -1.00000000 0.00000000
vn 0.00000000 -1.00000000 0.00000000
vn 0.00000000 -1.00000000 0.00000000
vn 0.00000000 -1.00000000 0.00000000
vn 0.00000000 -1.00000000 0.00000000
vn 0.00000000 -1.00000000 0.00000000
vn 0.00000000 -1.00000000 0.00000000
vn 0.00000000 -1.00000000 0.00000000
vn 0.00000000 -1.00000000 0.00000000
vn 0.00000000 -1.00000000 0.00000000
vn -0.30901699 0.00000000 0.95105652
vn -0.30901699 0.00000000 0.95105652
vn -0.30901699 0.00000000 0.95105652
vn -0.30901699 0.00000000 0.95105652
vn 0.00000000 1.00000000 0.00000000
vn 0.00000000 1.00000000 0.00000000
vn 0.00000000 1.00000000 0.00000000
vn 0.00000000 1.00000000 0.00000000
vn 0.00000000 1.00000000 0.00000000
vn 0.00000000 1.00000000 0.00000000
vn 0.00000000 1.00000000 0.00000000
vn 0.00000000 1.00000000 0.00000000
vn 0.00000000 1.00000000 0.00000000
vn 0.00000000 1.00000000 0.00000000
vn 0.00000000 1.00000000 0.00000000
vn 0.00000000 1.00000000 0.00000000
vn 0.00000000 1.00000000 0.00000000
vn 0.00000000 1.00000000 0.00000000
vn 0.00000000 1.00000000 0.00000000
vn 0.00000000 1.00000000 0.00000000
vn 0.00000000 1.00000000 0.00000000
vn 0.00000000 1.00000000 0.00000000
vn 0.00000000 1.00000000 0.00000000
vn 0.00000000 1.00000000 0.00000000
vn 0.00000000 1.00000000 0.00000000
vn 0.00000000 1.00000000 0.00000000
vn 0.00000000 1.00000000 0.00000000
vn 0.00000000 1.00000000 0.00000000
s 1
usemtl White
f 1/1/1 2/2/2 4/4/4
f 2/2/2 3/3/3 4/4/4
s 2
f 5/5/5 6/6/6 1/8/8
f 6/6/6 2/7/7 1/8/8
s 3
f 7/9/9 8/10/10 5/12/12
f 8/10/10 6/11/11 5/12/12
s 4
f 9/13/13 10/14/14 7/16/16
f 10/14/14 8/15/15 7/16/16
s 5
f 11/17/17 12/18/18 9/20/20
f 12/18/18 10/19/19 9/20/20
s 6
f 13/21/21 14/22/22 11/24/24
f 14/22/22 12/23/23 11/24/24
s 7
f 15/25/25 16/26/26 13/28/28
f 16/26/26 14/27/27 13/28/28
s 8
f 17/29/29 16/30/30 18/32/32
f 16/30/30 15/31/31 18/32/32
s 9
usemtl Beige
f 20/36/36 19/35/35 17/34/34
f 20/36/36 17/34/34 18/33/33
f 18/33/33 21/37/37 20/36/36
s 10
usemtl White
f 19/38/38 20/39/39 23/41/41
f 20/39/39 22/40/40 23/41/41
s 11
f 24/42/42 23/43/43 22/44/44
f 24/42/42 22/44/44 25/45/45
s 12
f 26/46/46 24/47/47 25/48/48
f 26/46/46 25/48/48 27/49/49
s 13
f 28/50/50 26/51/51 27/52/52
f 28/50/50 27/52/52 29/53/53
s 14
f 30/54/54 28/55/55 29/56/56
f 30/54/54 29/56/56 31/57/57
s 15
f 32/58/58 30/59/59 31/60/60
f 32/58/58 31/60/60 33/61/61
s 16
f 34/62/62 32/63/63 33/64/64
f 34/62/62 33/64/64 35/65/65
s 17
f 36/66/66 34/67/67 35/68/68
f 36/66/66 35/68/68 37/69/69
s 18
f 38/70/70 36/71/71 37/72/72
f 38/70/70 37/72/72 39/73/73
s 19
f 40/74/74 38/75/75 39/76/76
f 40/74/74 39/76/76 41/77/77
s 20
f 42/78/78 43/79/79 40/80/80
f 42/78/78 40/80/80 41/81/81
s 21
usemtl Beige
f 45/83/83 43/84/84 42/85/85
f 42/85/85 46/86/86 44/82/82
f 44/82/82 45/83/83 42/85/85
s 22
usemtl White
f 44/87/87 47/88/88 45/90/90
f 47/88/88 48/89/89 45/90/90
s 23
f 49/91/91 50/92/92 47/94/94
f 50/92/92 48/93/93 47/94/94
s 24
f 51/95/95 46/96/96 41/98/98
f 46/96/96 42/97/97 41/98/98
s 25
f 52/99/99 51/100/100 39/102/102
f 51/100/100 41/101/101 39/102/102
s 26
f 53/103/103 52/104/104 37/106/106
f 52/104/104 39/105/105 37/106/106
s 27
f 54/107/107 53/108/108 35/110/110
f 53/108/108 37/109/109 35/110/110
s 28
f 55/111/111 54/112/112 33/114/114
f 54/112/112 35/113/113 33/114/114
s 29
f 56/115/115 55/116/116 31/118/118
f 55/116/116 33/117/117 31/118/118
s 30
f 57/119/119 56/120/120 29/122/122
f 56/120/120 31/121/121 29/122/122
s 31
f 58/123/123 57/124/124 27/126/126
f 57/124/124 29/125/125 27/126/126
s 32
f 59/127/127 58/128/128 27/129/129
f 59/127/127 27/129/129 25/130/130
s 33
f 60/131/131 59/132/132 22/134/134
f 59/132/132 25/133/133 22/134/134
s 34
f 21/135/135 60/136/136 20/138/138
f 60/136/136 22/137/137 20/138/138
s 35
f 21/142/142 18/141/141 15/140/140
f 60/143/143 15/140/140 13/139/139
f 59/144/144 13/139/139 11/162/162
f 58/145/145 11/162/162 9/161/161
f 57/146/146 9/161/161 7/160/160
f 56/147/147 7/160/160 5/159/159
f 55/148/148 5/159/159 1/158/158
f 54/149/149 1/158/158 4/157/157
f 53/150/150 4/157/157 49/156/156
f 49/156/156 51/152/152 52/151/151
f 47/155/155 46/153/153 51/152/152
f 47/155/155 44/154/154 46/153/153
f 49/156/156 47/155/155 51/152/152
f 52/151/151 53/150/150 49/156/156
f 53/150/150 54/149/149 4/157/157
f 54/149/149 55/148/148 1/158/158
f 55/148/148 56/147/147 5/159/159
f 56/147/147 57/146/146 7/160/160
f 57/146/146 58/145/145 9/161/161
f 58/145/145 59/144/144 11/162/162
f 59/144/144 60/143/143 13/139/139
f 60/143/143 21/142/142 15/140/140
s 36
f 4/163/163 3/164/164 49/166/166
f 3/164/164 50/165/165 49/166/166
s 37
f 16/173/173 17/172/172 19/171/171
f 14/174/174 16/173/173 23/170/170
f 12/175/175 14/174/174 24/169/169
f 10/176/176 12/175/175 26/168/168
f 8/177/177 10/176/176 28/167/167
f 6/178/178 8/177/177 30/190/190
f 2/179/179 6/178/178 32/189/189
f 3/180/180 2/179/179 34/188/188
f 50/181/181 3/180/180 36/187/187
f 38/186/186 40/185/185 50/181/181
f 40/185/185 43/184/184 48/182/182
f 43/184/184 45/183/183 48/182/182
f 50/181/181 36/187/187 38/186/186
f 40/185/185 48/182/182 50/181/181
f 3/180/180 34/188/188 36/187/187
f 2/179/179 32/189/189 34/188/188
f 6/178/178 30/190/190 32/189/189
f 8/177/177 28/167/167 30/190/190
f 10/176/176 26/168/168 28/167/167
f 12/175/175 24/169/169 26/168/168
f 14/174/174 23/170/170 24/169/169
f 16/173/173 19/171/171 23/170/170
