mtllib Wall_Straight_Base.mtl
o object1
g object1
v -0.50000000 0.10000000 -0.35000000
v 0.50000000 0.10000000 -0.35000000
v 0.50000000 0.00000000 -0.35000000
v -0.50000000 0.00000000 -0.35000000
v -0.50000000 0.00000000 -0.65000000
v 0.50000000 0.00000000 -0.65000000
v 0.50000000 0.10000000 -0.65000000
v -0.50000000 0.10000000 -0.65000000
v 0.50000000 0.15000000 -0.62500000
v -0.50000000 0.15000000 -0.62500000
v -0.50000000 0.15000000 -0.37500000
v 0.50000000 0.15000000 -0.37500000
vt 1.00000000 0.00000000
vt 1.00000000 1.00000000
vt 0.00000000 1.00000000
vt 0.00000000 0.00000000
vt 1.00000000 1.00000000
vt 0.00000000 1.00000000
vt 0.00000000 0.00000000
vt 1.00000000 0.00000000
vt 1.00000000 0.00000000
vt 1.00000000 1.00000000
vt 0.00000000 1.00000000
vt 0.00000000 0.00000000
vt 0.00000000 1.00000000
vt 0.00000000 0.00000000
vt 1.00000000 0.00000000
vt 1.00000000 1.00000000
vt 1.00000000 1.00000000
vt 0.00000000 1.00000000
vt 0.00000000 0.00000000
vt 1.00000000 0.00000000
vt 1.00000000 0.91666667
vt 0.66666667 1.00000000
vt 0.00000000 1.00000000
vt 0.00000000 0.00000000
vt 0.66666667 0.00000000
vt 1.00000000 0.08333333
vt 1.00000000 0.00000000
vt 1.00000000 1.00000000
vt 0.00000000 1.00000000
vt 0.00000000 0.00000000
vt 0.66666667 1.00000000
vt 0.00000000 1.00000000
vt 0.00000000 0.00000000
vt 0.66666667 0.00000000
vt 1.00000000 0.08333333
vt 1.00000000 0.91666667
vn 0.00000000 0.00000000 1.00000000
vn 0.00000000 0.00000000 1.00000000
vn 0.00000000 0.00000000 1.00000000
vn 0.00000000 0.00000000 1.00000000
vn 0.00000000 -1.00000000 0.00000000
vn 0.00000000 -1.00000000 0.00000000
vn 0.00000000 -1.00000000 0.00000000
vn 0.00000000 -1.00000000 0.00000000
vn 0.00000000 0.00000000 -1.00000000
vn 0.00000000 0.00000000 -1.00000000
vn 0.00000000 0.00000000 -1.00000000
vn 0.00000000 0.00000000 -1.00000000
vn 0.00000000 0.44721360 -0.89442719
vn 0.00000000 0.44721360 -0.89442719
vn 0.00000000 0.44721360 -0.89442719
vn 0.00000000 0.44721360 -0.89442719
vn -0.00000000 1.00000000 0.00000000
vn -0.00000000 1.00000000 0.00000000
vn -0.00000000 1.00000000 0.00000000
vn -0.00000000 1.00000000 0.00000000
vn -1.00000000 -0.00000000 0.00000000
vn -1.00000000 -0.00000000 0.00000000
vn -1.00000000 -0.00000000 0.00000000
vn -1.00000000 -0.00000000 0.00000000
vn -1.00000000 -0.00000000 0.00000000
vn -1.00000000 -0.00000000 0.00000000
vn 0.00000000 0.44721360 0.89442719
vn 0.00000000 0.44721360 0.89442719
vn 0.00000000 0.44721360 0.89442719
vn 0.00000000 0.44721360 0.89442719
vn 1.00000000 0.00000000 0.00000000
vn 1.00000000 0.00000000 0.00000000
vn 1.00000000 0.00000000 0.00000000
vn 1.00000000 0.00000000 0.00000000
vn 1.00000000 0.00000000 0.00000000
vn 1.00000000 0.00000000 0.00000000
s 1
usemtl White
f 4/4/4 3/3/3 1/1/1
f 3/3/3 2/2/2 1/1/1
s 2
f 6/8/8 3/7/7 5/5/5
f 3/7/7 4/6/6 5/5/5
s 3
f 6/12/12 5/11/11 7/9/9
f 5/11/11 8/10/10 7/9/9
s 4
f 9/13/13 7/14/14 10/16/16
f 7/14/14 8/15/15 10/16/16
s 5
f 10/17/17 11/18/18 12/19/19
f 10/17/17 12/19/19 9/20/20
s 6
usemtl Beige
f 11/26/26 10/21/21 8/22/22
f 1/25/25 8/22/22 5/23/23
f 5/23/23 4/24/24 1/25/25
f 1/25/25 11/26/26 8/22/22
s 7
usemtl White
f 2/27/27 12/28/28 1/30/30
f 12/28/28 11/29/29 1/30/30
s 8
usemtl Beige
f 9/36/36 12/35/35 2/34/34
f 2/34/34 3/33/33 6/32/32
f 6/32/32 7/31/31 2/34/34
f 7/31/31 9/36/36 2/34/34
