mtllib Wall_Curved_Small_Top.mtl
o object1
g object1
v -0.31785789 1.00000000 -0.65000000
v -0.50000000 1.00000000 -0.65000000
v -0.50000000 1.00000000 -0.35000000
v -0.36537323 1.00000000 -0.35000000
v -0.10929788 1.00000000 -0.26679608
v 0.10853281 1.00000000 -0.10853281
v 0.26679608 1.00000000 0.10929788
v 0.35000000 1.00000000 0.36537323
v 0.35000000 1.00000000 0.50000000
v 0.65000000 1.00000000 0.50000000
v 0.65000000 1.00000000 0.31785789
v 0.53742999 1.00000000 -0.02859698
v 0.32330910 1.00000000 -0.32330910
v 0.02859698 1.00000000 -0.53742999
v -0.31785789 0.76250000 -0.65000000
v -0.50000000 0.76250000 -0.65000000
v -0.50000000 0.72500000 -0.63322949
v -0.32051408 0.72500000 -0.63322949
v 0.52230109 0.72500000 -0.02088842
v 0.63322949 0.72500000 0.32051408
v 0.63322949 0.72500000 0.50000000
v 0.62500000 0.72500000 0.50000000
v 0.62500000 0.72500000 0.32181750
v 0.51487716 0.72500000 -0.01710574
v 0.30541108 0.72500000 -0.30541108
v 0.01710574 0.72500000 -0.51487716
v -0.32181750 0.72500000 -0.62500000
v -0.50000000 0.72500000 -0.62500000
v 0.02088842 0.72500000 -0.52230109
v 0.31130274 0.72500000 -0.31130274
v 0.53742999 0.76250000 -0.02859698
v 0.65000000 0.76250000 0.31785789
v 0.32330910 0.76250000 -0.32330910
v 0.02859698 0.76250000 -0.53742999
v -0.50000000 0.65000000 -0.61000000
v -0.32419327 0.65000000 -0.61000000
v 0.01021100 0.65000000 -0.50134547
v 0.29467226 0.65000000 -0.29467226
v 0.50134547 0.65000000 -0.01021100
v 0.61000000 0.65000000 0.32419327
v 0.61000000 0.65000000 0.50000000
v 0.60000000 0.65000000 0.50000000
v 0.40000000 0.65000000 0.50000000
v 0.39000000 0.65000000 0.50000000
v 0.39000000 0.65000000 0.35903785
v 0.30288060 0.65000000 0.09091190
v 0.13716965 0.65000000 -0.13716965
v -0.09091190 0.65000000 -0.30288060
v -0.35903785 0.65000000 -0.39000000
v -0.50000000 0.65000000 -0.39000000
v -0.50000000 0.72500000 -0.37500000
v -0.36141361 0.72500000 -0.37500000
v 0.28934890 0.72500000 0.09780665
v 0.37500000 0.72500000 0.36141361
v 0.37500000 0.72500000 0.50000000
v 0.36677051 0.72500000 0.50000000
v 0.36677051 0.72500000 0.36271704
v 0.28192497 0.72500000 0.10158933
v 0.12053917 0.72500000 -0.12053917
v -0.10158933 0.72500000 -0.28192497
v -0.36271704 0.72500000 -0.36677051
v -0.50000000 0.72500000 -0.36677051
v -0.09780665 0.72500000 -0.28934890
v 0.12643084 0.72500000 -0.12643084
v -0.50000000 0.76250000 -0.35000000
v -0.36537323 0.76250000 -0.35000000
v -0.10929788 0.76250000 -0.26679608
v 0.10853281 0.76250000 -0.10853281
v 0.26679608 0.76250000 0.10929788
v 0.35000000 0.76250000 0.36537323
v 0.35000000 0.76250000 0.50000000
v 0.65000000 0.76250000 0.50000000
v 0.35000000 0.80000000 0.50000000
v 0.35000000 0.80000000 0.36537323
v 0.26679608 0.80000000 0.10929788
v 0.10853281 0.80000000 -0.10853281
v -0.10929788 0.80000000 -0.26679608
v -0.36537323 0.80000000 -0.35000000
v -0.50000000 0.80000000 -0.35000000
vt 0.15838444 1.00000000
vt 0.00000000 1.00000000
vt 0.00000000 0.73913043
vt 0.11706676 0.73913043
vt 0.33974097 0.66677920
vt 0.52915897 0.52915897
vt 0.66677920 0.33974097
vt 0.73913043 0.11706676
vt 0.73913043 0.00000000
vt 1.00000000 0.00000000
vt 1.00000000 0.15838444
vt 0.90211303 0.45964955
vt 0.71592096 0.71592096
vt 0.45964955 0.90211303
vt 0.00000000 1.00000000
vt 0.00000000 0.00000000
vt 1.00000000 0.00000000
vt 1.00000000 1.00000000
vt 0.00000000 1.00000000
vt 0.00000000 0.00000000
vt 1.00000000 0.00000000
vt 0.98541695 1.00000000
vt 0.54035045 0.09788697
vt 0.84161556 0.00000000
vt 1.00000000 0.00000000
vt 1.00000000 0.00726198
vt 0.84276574 0.00726198
vt 0.54368842 0.10443809
vt 0.28927805 0.28927805
vt 0.10443809 0.54368842
vt 0.00726198 0.84276574
vt 0.00726198 1.00000000
vt 0.00000000 1.00000000
vt 0.00000000 0.84161556
vt 0.09788697 0.54035045
vt 0.28407904 0.28407904
vt 0.00000000 0.00000000
vt 1.00000000 0.00000000
vt 0.99270847 1.00000000
vt 0.00729153 1.00000000
vt 0.00000000 0.00000000
vt 1.00000000 0.00000000
vt 0.99270847 1.00000000
vt 0.00729153 1.00000000
vt 0.99270847 1.00000000
vt 0.00729153 1.00000000
vt 0.00000000 0.00000000
vt 1.00000000 0.00000000
vt 0.00000000 1.00000000
vt 0.00000000 0.00000000
vt 1.00000000 0.00000000
vt 0.98666667 1.00000000
vt 0.00000000 1.00000000
vt 0.00000000 0.84161556
vt 0.09788697 0.54035045
vt 0.28407904 0.28407904
vt 0.54035045 0.09788697
vt 0.84161556 0.00000000
vt 1.00000000 0.00000000
vt 1.00000000 0.00900901
vt 1.00000000 0.18918919
vt 1.00000000 0.19819820
vt 0.87300707 0.19819820
vt 0.63145216 0.27668415
vt 0.42597329 0.42597329
vt 0.27668415 0.63145216
vt 0.19819820 0.87300707
vt 0.19819820 1.00000000
vt 0.00000000 1.00000000
vt 0.00000000 0.00000000
vt 1.00000000 0.00000000
vt 0.98314607 1.00000000
vt 0.54035045 0.09788697
vt 0.84161556 0.00000000
vt 1.00000000 0.00000000
vt 1.00000000 0.00940513
vt 0.84310519 0.00940513
vt 0.54467352 0.10637146
vt 0.29081237 0.29081237
vt 0.10637146 0.54467352
vt 0.00940513 0.84310519
vt 0.00940513 1.00000000
vt 0.00000000 1.00000000
vt 0.00000000 0.84161556
vt 0.09788697 0.54035045
vt 0.28407904 0.28407904
vt 0.00000000 1.00000000
vt 0.00000000 0.00000000
vt 1.00000000 0.00000000
vt 0.98065173 1.00000000
vt 1.00000000 0.00000000
vt 0.99032587 1.00000000
vt 0.00967413 1.00000000
vt 0.00000000 0.00000000
vt 1.00000000 0.00000000
vt 0.99032587 1.00000000
vt 0.00967413 1.00000000
vt 0.00000000 0.00000000
vt 1.00000000 0.00000000
vt 0.99032587 1.00000000
vt 0.00967413 1.00000000
vt 0.00000000 0.00000000
vt 1.00000000 0.00000000
vt 0.99032587 1.00000000
vt 0.00967413 1.00000000
vt 0.00000000 0.00000000
vt 1.00000000 0.00000000
vt 1.00000000 1.00000000
vt 0.01934827 1.00000000
vt 0.00000000 0.00000000
vt 1.00000000 0.00000000
vt 0.99157303 1.00000000
vt 0.00842697 1.00000000
vt 0.00000000 0.00000000
vt 1.00000000 0.00000000
vt 0.99157303 1.00000000
vt 0.00842697 1.00000000
vt 0.00000000 0.00000000
vt 1.00000000 0.00000000
vt 0.99157303 1.00000000
vt 0.00842697 1.00000000
vt 0.00000000 0.00000000
vt 1.00000000 0.00000000
vt 0.99157303 1.00000000
vt 0.00842697 1.00000000
vt 0.00000000 0.00000000
vt 1.00000000 0.00000000
vt 1.00000000 1.00000000
vt 0.01685393 1.00000000
vt 0.00000000 0.00000000
vt 0.99333333 1.00000000
vt 0.00666667 1.00000000
vt 0.00000000 0.00000000
vt 1.00000000 0.00000000
vt 0.99333333 1.00000000
vt 0.00666667 1.00000000
vt 0.00000000 0.00000000
vt 1.00000000 0.00000000
vt 0.00000000 0.00000000
vt 1.00000000 0.00000000
vt 0.99333333 1.00000000
vt 0.00666667 1.00000000
vt 0.00000000 0.00000000
vt 1.00000000 0.00000000
vt 0.99333333 1.00000000
vt 0.00666667 1.00000000
vt 1.00000000 0.00000000
vt 1.00000000 1.00000000
vt 0.01333333 1.00000000
vt 0.00000000 0.00000000
vt 1.00000000 0.00000000
vt 1.00000000 1.00000000
vt 0.01458305 1.00000000
vt 0.00000000 0.00000000
vt 0.99270847 1.00000000
vt 0.00729153 1.00000000
vt 0.00000000 0.00000000
vt 1.00000000 0.00000000
vt 0.00000000 1.00000000
vt 0.00000000 0.00000000
vt 1.00000000 0.00000000
vt 1.00000000 1.00000000
vt 0.00000000 1.00000000
vt 0.00000000 0.00000000
vt 1.00000000 0.00000000
vt 1.00000000 1.00000000
vt 0.00000000 1.00000000
vt 0.00000000 0.00000000
vt 1.00000000 0.00000000
vt 1.00000000 1.00000000
vt 0.00000000 1.00000000
vt 0.00000000 0.00000000
vt 1.00000000 0.00000000
vt 1.00000000 1.00000000
vt 0.00000000 1.00000000
vt 0.00000000 0.00000000
vt 1.00000000 0.00000000
vt 1.00000000 1.00000000
vt 0.32142857 0.00000000
vt 1.00000000 0.00000000
vt 1.00000000 1.00000000
vt 0.42857143 1.00000000
vt 0.32142857 1.00000000
vt 0.21428571 0.94409830
vt 0.21428571 0.91666667
vt 0.00000000 0.86666667
vt 0.00000000 0.83333333
vt 0.00000000 0.16666667
vt 0.00000000 0.13333333
vt 0.21428571 0.08333333
vt 0.21428571 0.05590170
vt 0.00000000 1.00000000
vt 0.00000000 0.15789474
vt 0.00000000 0.00000000
vt 1.00000000 0.00000000
vt 1.00000000 0.15789474
vt 1.00000000 1.00000000
vt 0.00000000 1.00000000
vt 0.00000000 0.15789474
vt 0.00000000 0.00000000
vt 1.00000000 0.00000000
vt 1.00000000 0.15789474
vt 1.00000000 1.00000000
vt 0.00000000 1.00000000
vt 0.00000000 0.15789474
vt 0.00000000 0.00000000
vt 1.00000000 0.00000000
vt 1.00000000 0.15789474
vt 1.00000000 1.00000000
vt 0.00000000 1.00000000
vt 0.00000000 0.15789474
vt 0.00000000 0.00000000
vt 1.00000000 0.00000000
vt 1.00000000 0.15789474
vt 1.00000000 1.00000000
vt 0.00000000 1.00000000
vt 0.00000000 0.15789474
vt 0.00000000 0.00000000
vt 1.00000000 0.00000000
vt 1.00000000 0.15789474
vt 1.00000000 1.00000000
vt 0.00000000 1.00000000
vt 0.00000000 0.15789474
vt 0.00000000 0.00000000
vt 1.00000000 0.00000000
vt 1.00000000 0.15789474
vt 1.00000000 1.00000000
vt 0.21428571 0.05590170
vt 0.32142857 0.00000000
vt 0.42857143 0.00000000
vt 1.00000000 0.00000000
vt 1.00000000 1.00000000
vt 0.32142857 1.00000000
vt 0.21428571 0.94409830
vt 0.21428571 0.91666667
vt 0.00000000 0.86666667
vt 0.00000000 0.13333333
vt 0.21428571 0.08333333
vn -0.00000000 1.00000000 0.00000000
vn -0.00000000 1.00000000 0.00000000
vn -0.00000000 1.00000000 0.00000000
vn -0.00000000 1.00000000 0.00000000
vn -0.00000000 1.00000000 0.00000000
vn -0.00000000 1.00000000 0.00000000
vn -0.00000000 1.00000000 0.00000000
vn -0.00000000 1.00000000 0.00000000
vn -0.00000000 1.00000000 0.00000000
vn -0.00000000 1.00000000 0.00000000
vn -0.00000000 1.00000000 0.00000000
vn -0.00000000 1.00000000 0.00000000
vn -0.00000000 1.00000000 0.00000000
vn -0.00000000 1.00000000 0.00000000
vn 0.00000000 0.00000000 -1.00000000
vn 0.00000000 0.00000000 -1.00000000
vn 0.00000000 0.00000000 -1.00000000
vn 0.00000000 0.00000000 -1.00000000
vn 0.00000000 -0.40824829 -0.91287093
vn 0.00000000 -0.40824829 -0.91287093
vn 0.00000000 -0.40824829 -0.91287093
vn 0.00000000 -0.40824829 -0.91287093
vn 0.00000000 -1.00000000 0.00000000
vn 0.00000000 -1.00000000 0.00000000
vn 0.00000000 -1.00000000 0.00000000
vn 0.00000000 -1.00000000 0.00000000
vn 0.00000000 -1.00000000 0.00000000
vn 0.00000000 -1.00000000 0.00000000
vn 0.00000000 -1.00000000 0.00000000
vn 0.00000000 -1.00000000 0.00000000
vn 0.00000000 -1.00000000 0.00000000
vn 0.00000000 -1.00000000 0.00000000
vn 0.00000000 -1.00000000 0.00000000
vn 0.00000000 -1.00000000 0.00000000
vn 0.00000000 -1.00000000 0.00000000
vn 0.00000000 -1.00000000 0.00000000
vn 0.86819185 -0.40824829 -0.28209263
vn 0.86819185 -0.40824829 -0.28209263
vn 0.86819185 -0.40824829 -0.28209263
vn 0.86819185 -0.40824829 -0.28209263
vn 0.73852810 -0.40824829 -0.53657207
vn 0.73852810 -0.40824829 -0.53657207
vn 0.73852810 -0.40824829 -0.53657207
vn 0.73852810 -0.40824829 -0.53657207
vn 0.53657207 -0.40824829 -0.73852810
vn 0.53657207 -0.40824829 -0.73852810
vn 0.53657207 -0.40824829 -0.73852810
vn 0.53657207 -0.40824829 -0.73852810
vn 0.00000000 -0.19611614 -0.98058068
vn 0.00000000 -0.19611614 -0.98058068
vn 0.00000000 -0.19611614 -0.98058068
vn 0.00000000 -0.19611614 -0.98058068
vn 0.00000000 -1.00000000 0.00000000
vn 0.00000000 -1.00000000 0.00000000
vn 0.00000000 -1.00000000 0.00000000
vn 0.00000000 -1.00000000 0.00000000
vn 0.00000000 -1.00000000 0.00000000
vn 0.00000000 -1.00000000 0.00000000
vn 0.00000000 -1.00000000 0.00000000
vn 0.00000000 -1.00000000 0.00000000
vn 0.00000000 -1.00000000 0.00000000
vn 0.00000000 -1.00000000 0.00000000
vn 0.00000000 -1.00000000 0.00000000
vn 0.00000000 -1.00000000 0.00000000
vn 0.00000000 -1.00000000 0.00000000
vn 0.00000000 -1.00000000 0.00000000
vn 0.00000000 -1.00000000 0.00000000
vn 0.00000000 -1.00000000 0.00000000
vn 0.00000000 -0.19611614 0.98058068
vn 0.00000000 -0.19611614 0.98058068
vn 0.00000000 -0.19611614 0.98058068
vn 0.00000000 -0.19611614 0.98058068
vn 0.00000000 -1.00000000 0.00000000
vn 0.00000000 -1.00000000 0.00000000
vn 0.00000000 -1.00000000 0.00000000
vn 0.00000000 -1.00000000 0.00000000
vn 0.00000000 -1.00000000 0.00000000
vn 0.00000000 -1.00000000 0.00000000
vn 0.00000000 -1.00000000 0.00000000
vn 0.00000000 -1.00000000 0.00000000
vn 0.00000000 -1.00000000 0.00000000
vn 0.00000000 -1.00000000 0.00000000
vn 0.00000000 -1.00000000 0.00000000
vn 0.00000000 -1.00000000 0.00000000
vn 0.00000000 -1.00000000 0.00000000
vn 0.00000000 -1.00000000 0.00000000
vn -0.00000000 -0.40824829 0.91287093
vn -0.00000000 -0.40824829 0.91287093
vn -0.00000000 -0.40824829 0.91287093
vn -0.00000000 -0.40824829 0.91287093
vn -0.28209263 -0.40824829 0.86819185
vn -0.28209263 -0.40824829 0.86819185
vn -0.28209263 -0.40824829 0.86819185
vn -0.28209263 -0.40824829 0.86819185
vn -0.53657207 -0.40824829 0.73852810
vn -0.53657207 -0.40824829 0.73852810
vn -0.53657207 -0.40824829 0.73852810
vn -0.53657207 -0.40824829 0.73852810
vn -0.73852810 -0.40824829 0.53657207
vn -0.73852810 -0.40824829 0.53657207
vn -0.73852810 -0.40824829 0.53657207
vn -0.73852810 -0.40824829 0.53657207
vn -0.86819185 -0.40824829 0.28209263
vn -0.86819185 -0.40824829 0.28209263
vn -0.86819185 -0.40824829 0.28209263
vn -0.86819185 -0.40824829 0.28209263
vn -0.91287093 -0.40824829 0.00000000
vn -0.91287093 -0.40824829 0.00000000
vn -0.91287093 -0.40824829 0.00000000
vn -0.91287093 -0.40824829 0.00000000
vn -0.30301609 -0.19611614 0.93258764
vn -0.30301609 -0.19611614 0.93258764
vn -0.30301609 -0.19611614 0.93258764
vn -0.30301609 -0.19611614 0.93258764
vn -0.57637086 -0.19611614 0.79330643
vn -0.57637086 -0.19611614 0.79330643
vn -0.57637086 -0.19611614 0.79330643
vn -0.57637086 -0.19611614 0.79330643
vn -0.79330643 -0.19611614 0.57637086
vn -0.79330643 -0.19611614 0.57637086
vn -0.79330643 -0.19611614 0.57637086
vn -0.79330643 -0.19611614 0.57637086
vn -0.93258764 -0.19611614 0.30301609
vn -0.93258764 -0.19611614 0.30301609
vn -0.93258764 -0.19611614 0.30301609
vn -0.93258764 -0.19611614 0.30301609
vn -0.98058068 -0.19611614 0.00000000
vn -0.98058068 -0.19611614 0.00000000
vn -0.98058068 -0.19611614 0.00000000
vn -0.98058068 -0.19611614 0.00000000
vn 0.30301609 -0.19611614 -0.93258764
vn 0.30301609 -0.19611614 -0.93258764
vn 0.30301609 -0.19611614 -0.93258764
vn 0.30301609 -0.19611614 -0.93258764
vn 0.57637086 -0.19611614 -0.79330643
vn 0.57637086 -0.19611614 -0.79330643
vn 0.57637086 -0.19611614 -0.79330643
vn 0.57637086 -0.19611614 -0.79330643
vn 0.79330643 -0.19611614 -0.57637086
vn 0.79330643 -0.19611614 -0.57637086
vn 0.79330643 -0.19611614 -0.57637086
vn 0.79330643 -0.19611614 -0.57637086
vn 0.93258764 -0.19611614 -0.30301609
vn 0.93258764 -0.19611614 -0.30301609
vn 0.93258764 -0.19611614 -0.30301609
vn 0.93258764 -0.19611614 -0.30301609
vn 0.98058068 -0.19611614 -0.00000000
vn 0.98058068 -0.19611614 -0.00000000
vn 0.98058068 -0.19611614 -0.00000000
vn 0.98058068 -0.19611614 -0.00000000
vn 0.91287093 -0.40824829 -0.00000000
vn 0.91287093 -0.40824829 -0.00000000
vn 0.91287093 -0.40824829 -0.00000000
vn 0.91287093 -0.40824829 -0.00000000
vn 0.28209263 -0.40824829 -0.86819185
vn 0.28209263 -0.40824829 -0.86819185
vn 0.28209263 -0.40824829 -0.86819185
vn 0.28209263 -0.40824829 -0.86819185
vn 0.30901699 0.00000000 -0.95105652
vn 0.30901699 0.00000000 -0.95105652
vn 0.30901699 0.00000000 -0.95105652
vn 0.30901699 0.00000000 -0.95105652
vn 0.58778525 0.00000000 -0.80901699
vn 0.58778525 0.00000000 -0.80901699
vn 0.58778525 0.00000000 -0.80901699
vn 0.58778525 0.00000000 -0.80901699
vn 0.80901699 0.00000000 -0.58778525
vn 0.80901699 0.00000000 -0.58778525
vn 0.80901699 0.00000000 -0.58778525
vn 0.80901699 0.00000000 -0.58778525
vn 0.95105652 0.00000000 -0.30901699
vn 0.95105652 0.00000000 -0.30901699
vn 0.95105652 0.00000000 -0.30901699
vn 0.95105652 0.00000000 -0.30901699
vn 1.00000000 0.00000000 -0.00000000
vn 1.00000000 0.00000000 -0.00000000
vn 1.00000000 0.00000000 -0.00000000
vn 1.00000000 0.00000000 -0.00000000
vn 0.00000000 0.00000000 1.00000000
vn 0.00000000 0.00000000 1.00000000
vn 0.00000000 0.00000000 1.00000000
vn 0.00000000 0.00000000 1.00000000
vn 0.00000000 0.00000000 1.00000000
vn 0.00000000 0.00000000 1.00000000
vn 0.00000000 0.00000000 1.00000000
vn 0.00000000 0.00000000 1.00000000
vn 0.00000000 0.00000000 1.00000000
vn 0.00000000 0.00000000 1.00000000
vn 0.00000000 0.00000000 1.00000000
vn 0.00000000 0.00000000 1.00000000
vn 0.00000000 0.00000000 1.00000000
vn -1.00000000 0.00000000 0.00000000
vn -1.00000000 0.00000000 0.00000000
vn -1.00000000 0.00000000 0.00000000
vn -1.00000000 0.00000000 0.00000000
vn -1.00000000 0.00000000 0.00000000
vn -1.00000000 0.00000000 0.00000000
vn -0.95105652 0.00000000 0.30901699
vn -0.95105652 0.00000000 0.30901699
vn -0.95105652 0.00000000 0.30901699
vn -0.95105652 0.00000000 0.30901699
vn -0.95105652 0.00000000 0.30901699
vn -0.95105652 0.00000000 0.30901699
vn -0.80901699 0.00000000 0.58778525
vn -0.80901699 0.00000000 0.58778525
vn -0.80901699 0.00000000 0.58778525
vn -0.80901699 0.00000000 0.58778525
vn -0.80901699 0.00000000 0.58778525
vn -0.80901699 0.00000000 0.58778525
vn -0.58778525 0.00000000 0.80901699
vn -0.58778525 0.00000000 0.80901699
vn -0.58778525 0.00000000 0.80901699
vn -0.58778525 0.00000000 0.80901699
vn -0.58778525 0.00000000 0.80901699
vn -0.58778525 0.00000000 0.80901699
vn -0.30901699 0.00000000 0.95105652
vn -0.30901699 0.00000000 0.95105652
vn -0.30901699 0.00000000 0.95105652
vn -0.30901699 0.00000000 0.95105652
vn -0.30901699 0.00000000 0.95105652
vn -0.30901699 0.00000000 0.95105652
vn -0.00000000 0.00000000 1.00000000
vn -0.00000000 0.00000000 1.00000000
vn -0.00000000 0.00000000 1.00000000
vn -0.00000000 0.00000000 1.00000000
vn -0.00000000 0.00000000 1.00000000
vn -0.00000000 0.00000000 1.00000000
vn -1.00000000 -0.00000000 0.00000000
vn -1.00000000 -0.00000000 0.00000000
vn -1.00000000 -0.00000000 0.00000000
vn -1.00000000 -0.00000000 0.00000000
vn -1.00000000 -0.00000000 0.00000000
vn -1.00000000 -0.00000000 0.00000000
vn -1.00000000 -0.00000000 0.00000000
vn -1.00000000 -0.00000000 0.00000000
vn -1.00000000 -0.00000000 0.00000000
vn -1.00000000 -0.00000000 0.00000000
vn -1.00000000 -0.00000000 0.00000000
s 1
usemtl Dark_Wood
f 8/8/8 9/9/9 10/10/10
f 7/7/7 8/8/8 11/11/11
f 6/6/6 7/7/7 12/12/12
f 6/6/6 13/13/13 14/14/14
f 14/14/14 1/1/1 5/5/5
f 1/1/1 4/4/4 5/5/5
f 2/2/2 3/3/3 4/4/4
f 1/1/1 2/2/2 4/4/4
f 6/6/6 12/12/12 13/13/13
f 14/14/14 5/5/5 6/6/6
f 7/7/7 11/11/11 12/12/12
f 8/8/8 10/10/10 11/11/11
s 2
usemtl White
f 15/15/15 16/16/16 1/18/18
f 16/16/16 2/17/17 1/18/18
s 3
f 17/19/19 16/20/20 18/22/22
f 16/20/20 15/21/21 18/22/22
s 4
f 21/25/25 22/26/26 23/27/27
f 20/24/24 23/27/27 24/28/28
f 19/23/23 24/28/28 25/29/29
f 25/29/29 29/35/35 30/36/36
f 26/30/30 18/34/34 29/35/35
f 27/31/31 17/33/33 18/34/34
f 27/31/31 28/32/32 17/33/33
f 26/30/30 27/31/31 18/34/34
f 25/29/29 26/30/30 29/35/35
f 30/36/36 19/23/23 25/29/29
f 19/23/23 20/24/24 24/28/28
f 20/24/24 21/25/25 23/27/27
s 5
f 31/37/37 32/38/38 19/40/40
f 32/38/38 20/39/39 19/40/40
s 6
f 33/41/41 31/42/42 30/44/44
f 31/42/42 19/43/43 30/44/44
s 7
f 30/45/45 29/46/46 34/47/47
f 30/45/45 34/47/47 33/48/48
s 8
f 35/49/49 28/50/50 36/52/52
f 28/50/50 27/51/51 36/52/52
s 9
f 49/67/67 50/68/68 35/53/53
f 48/66/66 49/67/67 36/54/54
f 47/65/65 48/66/66 37/55/55
f 46/64/64 47/65/65 38/56/56
f 45/63/63 46/64/64 39/57/57
f 44/62/62 45/63/63 40/58/58
f 40/58/58 42/60/60 43/61/61
f 40/58/58 41/59/59 42/60/60
f 40/58/58 43/61/61 44/62/62
f 45/63/63 39/57/57 40/58/58
f 46/64/64 38/56/56 39/57/57
f 47/65/65 37/55/55 38/56/56
f 48/66/66 36/54/54 37/55/55
f 49/67/67 35/53/53 36/54/54
s 10
f 51/69/69 50/70/70 52/72/72
f 50/70/70 49/71/71 52/72/72
s 11
f 55/75/75 56/76/76 57/77/77
f 54/74/74 57/77/77 58/78/78
f 53/73/73 58/78/78 59/79/79
f 59/79/79 63/85/85 64/86/86
f 60/80/80 52/84/84 63/85/85
f 61/81/81 51/83/83 52/84/84
f 61/81/81 62/82/82 51/83/83
f 60/80/80 61/81/81 52/84/84
f 59/79/79 60/80/80 63/85/85
f 64/86/86 53/73/73 59/79/79
f 53/73/73 54/74/74 58/78/78
f 54/74/74 55/75/75 57/77/77
s 12
f 65/87/87 62/88/88 66/90/90
f 62/88/88 61/89/89 66/90/90
s 13
f 60/91/91 67/92/92 61/94/94
f 67/92/92 66/93/93 61/94/94
s 14
f 59/95/95 68/96/96 60/98/98
f 68/96/96 67/97/97 60/98/98
s 15
f 58/99/99 69/100/100 59/102/102
f 69/100/100 68/101/101 59/102/102
s 16
f 57/103/103 70/104/104 58/106/106
f 70/104/104 69/105/105 58/106/106
s 17
f 56/107/107 71/108/108 70/109/109
f 56/107/107 70/109/109 57/110/110
s 18
f 48/111/111 63/112/112 49/114/114
f 63/112/112 52/113/113 49/114/114
s 19
f 47/115/115 64/116/116 48/118/118
f 64/116/116 63/117/117 48/118/118
s 20
f 46/119/119 53/120/120 47/122/122
f 53/120/120 64/121/121 47/122/122
s 21
f 45/123/123 54/124/124 46/126/126
f 54/124/124 53/125/125 46/126/126
s 22
f 44/127/127 55/128/128 54/129/129
f 44/127/127 54/129/129 45/130/130
s 23
f 37/131/131 36/132/132 27/133/133
f 37/131/131 27/133/133 26/134/134
s 24
f 38/135/135 37/136/136 26/137/137
f 38/135/135 26/137/137 25/138/138
s 25
f 25/139/139 24/140/140 38/142/142
f 24/140/140 39/141/141 38/142/142
s 26
f 24/143/143 23/144/144 39/146/146
f 23/144/144 40/145/145 39/146/146
s 27
f 22/147/147 41/148/148 40/149/149
f 22/147/147 40/149/149 23/150/150
s 28
f 72/151/151 21/152/152 20/153/153
f 72/151/151 20/153/153 32/154/154
s 29
f 29/155/155 18/156/156 15/157/157
f 29/155/155 15/157/157 34/158/158
s 30
f 34/159/159 15/160/160 14/162/162
f 15/160/160 1/161/161 14/162/162
s 31
f 33/163/163 34/164/164 13/166/166
f 34/164/164 14/165/165 13/166/166
s 32
f 31/167/167 33/168/168 12/170/170
f 33/168/168 13/169/169 12/170/170
s 33
f 32/171/171 31/172/172 11/174/174
f 31/172/172 12/173/173 11/174/174
s 34
f 72/175/175 32/176/176 11/177/177
f 72/175/175 11/177/177 10/178/178
s 35
usemtl Beige
f 73/182/182 71/183/183 56/184/184
f 72/179/179 56/184/184 55/185/185
f 55/185/185 42/188/188 22/190/190
f 42/188/188 41/189/189 22/190/190
f 55/185/185 43/187/187 42/188/188
f 55/185/185 44/186/186 43/187/187
f 72/179/179 55/185/185 22/190/190
f 22/190/190 21/191/191 72/179/179
f 72/179/179 10/180/180 56/184/184
f 10/180/180 73/182/182 56/184/184
f 10/180/180 9/181/181 73/182/182
s 36
usemtl White
f 70/194/194 71/195/195 73/196/196
f 74/193/193 73/196/196 9/197/197
f 8/192/192 74/193/193 9/197/197
f 74/193/193 70/194/194 73/196/196
s 37
f 8/203/203 7/198/198 75/199/199
f 75/199/199 69/200/200 70/201/201
f 70/201/201 74/202/202 75/199/199
f 74/202/202 8/203/203 75/199/199
s 38
f 7/209/209 6/204/204 76/205/205
f 76/205/205 68/206/206 75/208/208
f 68/206/206 69/207/207 75/208/208
f 75/208/208 7/209/209 76/205/205
s 39
f 6/215/215 5/210/210 77/211/211
f 76/214/214 77/211/211 67/212/212
f 67/212/212 68/213/213 76/214/214
f 76/214/214 6/215/215 77/211/211
s 40
f 5/221/221 4/216/216 78/217/217
f 78/217/217 67/219/219 77/220/220
f 78/217/217 66/218/218 67/219/219
f 77/220/220 5/221/221 78/217/217
s 41
f 79/223/223 65/224/224 66/225/225
f 3/222/222 79/223/223 78/226/226
f 78/226/226 4/227/227 3/222/222
f 79/223/223 66/225/225 78/226/226
s 42
usemtl Beige
f 62/228/228 65/229/229 79/230/230
f 79/230/230 3/231/231 2/232/232
f 51/238/238 62/228/228 16/233/233
f 16/233/233 17/234/234 28/235/235
f 16/233/233 28/235/235 51/238/238
f 28/235/235 35/236/236 51/238/238
f 35/236/236 50/237/237 51/238/238
f 62/228/228 2/232/232 16/233/233
f 62/228/228 79/230/230 2/232/232
