mtllib Wall_Inner_Joint_Top.mtl
o object1
g object1
v -0.50000000 0.72500000 0.37500000
v -0.62500000 0.72500000 0.50000000
v -0.50000000 0.72500000 0.62500000
v -0.50000000 0.72500000 0.63322949
v -0.63322949 0.72500000 0.50000000
v -0.50000000 0.72500000 0.36677051
v -0.37500000 0.72500000 0.50000000
v -0.36677051 0.72500000 0.50000000
v -0.50000000 0.65000000 0.39000000
v -0.61000000 0.65000000 0.50000000
v -0.39000000 0.65000000 0.50000000
v -0.50000000 0.65000000 0.61000000
v -0.35000000 0.76250000 0.50000000
v -0.50000000 0.76250000 0.35000000
v -0.50000000 1.00000000 0.35000000
v -0.35000000 1.00000000 0.50000000
v -0.65000000 0.76250000 0.50000000
v -0.65000000 1.00000000 0.50000000
v -0.50000000 0.76250000 0.65000000
v -0.50000000 1.00000000 0.65000000
vt 0.96911536 0.50000000
vt 0.50000000 0.03088464
vt 0.03088464 0.50000000
vt 0.00000000 0.50000000
vt 0.50000000 0.00000000
vt 1.00000000 0.50000000
vt 0.50000000 0.96911536
vt 0.50000000 1.00000000
vt 0.00000000 1.00000000
vt 0.00000000 0.00000000
vt 1.00000000 0.00000000
vt 1.00000000 1.00000000
vt 0.50000000 1.00000000
vt 0.00000000 0.50000000
vt 0.50000000 0.00000000
vt 1.00000000 0.50000000
vt 0.00000000 1.00000000
vt 0.00000000 0.00000000
vt 1.00000000 0.00000000
vt 1.00000000 1.00000000
vt 0.00000000 1.00000000
vt 0.00000000 0.00000000
vt 1.00000000 0.00000000
vt 1.00000000 1.00000000
vt 0.00000000 1.00000000
vt 0.00000000 0.00000000
vt 1.00000000 0.00000000
vt 1.00000000 1.00000000
vt 0.00000000 1.00000000
vt 0.00000000 0.00000000
vt 1.00000000 0.00000000
vt 1.00000000 1.00000000
vt 1.00000000 0.00000000
vt 1.00000000 1.00000000
vt 0.00000000 1.00000000
vt 0.00000000 0.00000000
vt 1.00000000 0.00000000
vt 1.00000000 1.00000000
vt 0.00000000 1.00000000
vt 0.00000000 0.00000000
vt 1.00000000 0.00000000
vt 1.00000000 1.00000000
vt 0.00000000 1.00000000
vt 0.00000000 0.00000000
vt 1.00000000 0.00000000
vt 1.00000000 1.00000000
vt 0.00000000 1.00000000
vt 0.00000000 0.00000000
vt 0.50000000 0.00000000
vt 1.00000000 0.50000000
vt 0.50000000 1.00000000
vt 0.00000000 0.50000000
vt 0.00000000 1.00000000
vt 0.00000000 0.00000000
vt 1.00000000 0.00000000
vt 1.00000000 1.00000000
vt 0.00000000 1.00000000
vt 0.00000000 0.00000000
vt 1.00000000 0.00000000
vt 1.00000000 1.00000000
vt 0.00000000 1.00000000
vt 0.00000000 0.00000000
vt 1.00000000 0.00000000
vt 1.00000000 1.00000000
vn 0.00000000 -1.00000000 0.00000000
vn 0.00000000 -1.00000000 0.00000000
vn 0.00000000 -1.00000000 0.00000000
vn 0.00000000 -1.00000000 0.00000000
vn 0.00000000 -1.00000000 0.00000000
vn 0.00000000 -1.00000000 0.00000000
vn 0.00000000 -1.00000000 0.00000000
vn 0.00000000 -1.00000000 0.00000000
vn -0.70014004 -0.14002801 -0.70014004
vn -0.70014004 -0.14002801 -0.70014004
vn -0.70014004 -0.14002801 -0.70014004
vn -0.70014004 -0.14002801 -0.70014004
vn 0.00000000 -1.00000000 0.00000000
vn 0.00000000 -1.00000000 0.00000000
vn 0.00000000 -1.00000000 0.00000000
vn 0.00000000 -1.00000000 0.00000000
vn 0.70014004 -0.14002801 -0.70014004
vn 0.70014004 -0.14002801 -0.70014004
vn 0.70014004 -0.14002801 -0.70014004
vn 0.70014004 -0.14002801 -0.70014004
vn 0.70014004 -0.14002801 0.70014004
vn 0.70014004 -0.14002801 0.70014004
vn 0.70014004 -0.14002801 0.70014004
vn 0.70014004 -0.14002801 0.70014004
vn -0.70014004 -0.14002801 0.70014004
vn -0.70014004 -0.14002801 0.70014004
vn -0.70014004 -0.14002801 0.70014004
vn -0.70014004 -0.14002801 0.70014004
vn 0.67419986 -0.30151134 -0.67419986
vn 0.67419986 -0.30151134 -0.67419986
vn 0.67419986 -0.30151134 -0.67419986
vn 0.67419986 -0.30151134 -0.67419986
vn 0.70710678 0.00000000 -0.70710678
vn 0.70710678 0.00000000 -0.70710678
vn 0.70710678 0.00000000 -0.70710678
vn 0.70710678 0.00000000 -0.70710678
vn -0.70710678 0.00000000 -0.70710678
vn -0.70710678 0.00000000 -0.70710678
vn -0.70710678 0.00000000 -0.70710678
vn -0.70710678 0.00000000 -0.70710678
vn -0.70710678 0.00000000 0.70710678
vn -0.70710678 0.00000000 0.70710678
vn -0.70710678 0.00000000 0.70710678
vn -0.70710678 0.00000000 0.70710678
vn 0.70710678 0.00000000 0.70710678
vn 0.70710678 0.00000000 0.70710678
vn 0.70710678 0.00000000 0.70710678
vn 0.70710678 0.00000000 0.70710678
vn 0.00000000 1.00000000 0.00000000
vn 0.00000000 1.00000000 0.00000000
vn 0.00000000 1.00000000 0.00000000
vn 0.00000000 1.00000000 0.00000000
vn -0.67419986 -0.30151134 -0.67419986
vn -0.67419986 -0.30151134 -0.67419986
vn -0.67419986 -0.30151134 -0.67419986
vn -0.67419986 -0.30151134 -0.67419986
vn -0.67419986 -0.30151134 0.67419986
vn -0.67419986 -0.30151134 0.67419986
vn -0.67419986 -0.30151134 0.67419986
vn -0.67419986 -0.30151134 0.67419986
vn 0.67419986 -0.30151134 0.67419986
vn 0.67419986 -0.30151134 0.67419986
vn 0.67419986 -0.30151134 0.67419986
vn 0.67419986 -0.30151134 0.67419986
s 1
usemtl White
f 6/6/6 1/1/1 2/2/2
f 2/2/2 4/4/4 5/5/5
f 8/8/8 4/4/4 7/7/7
f 4/4/4 3/3/3 7/7/7
f 2/2/2 3/3/3 4/4/4
f 7/7/7 6/6/6 8/8/8
f 7/7/7 1/1/1 6/6/6
f 5/5/5 6/6/6 2/2/2
s 2
f 1/9/9 9/10/10 10/11/11
f 1/9/9 10/11/11 2/12/12
s 3
f 9/13/13 11/14/14 12/15/15
f 9/13/13 12/15/15 10/16/16
s 4
f 7/17/17 11/18/18 1/20/20
f 11/18/18 9/19/19 1/20/20
s 5
f 3/21/21 12/22/22 7/24/24
f 12/22/22 11/23/23 7/24/24
s 6
f 2/25/25 10/26/26 12/27/27
f 2/25/25 12/27/27 3/28/28
s 7
f 13/29/29 8/30/30 14/32/32
f 8/30/30 6/31/31 14/32/32
s 8
f 14/33/33 15/34/34 16/35/35
f 14/33/33 16/35/35 13/36/36
s 9
f 17/37/37 18/38/38 15/39/39
f 17/37/37 15/39/39 14/40/40
s 10
f 19/41/41 20/42/42 17/44/44
f 20/42/42 18/43/43 17/44/44
s 11
f 13/45/45 16/46/46 19/48/48
f 16/46/46 20/47/47 19/48/48
s 12
usemtl Dark_Wood
f 20/51/51 16/50/50 15/49/49
f 18/52/52 20/51/51 15/49/49
s 13
usemtl White
f 14/53/53 6/54/54 5/55/55
f 14/53/53 5/55/55 17/56/56
s 14
f 17/57/57 5/58/58 4/59/59
f 17/57/57 4/59/59 19/60/60
s 15
f 19/61/61 4/62/62 13/64/64
f 4/62/62 8/63/63 13/64/64
