mtllib Wall_Curved_Large_Base_Inner_Half.mtl
o object1
g object1
v 1.45075336 0.15000000 0.03166555
v 1.50000000 0.15000000 0.34259659
v 1.50000000 0.15000000 0.50000000
v 1.37500000 0.15000000 0.50000000
v 1.37500000 0.15000000 0.35243430
v 1.32883128 0.15000000 0.06093646
v 1.23763066 0.15000000 -0.21975019
v 1.10364381 0.15000000 -0.48271419
v 0.93016992 0.15000000 -0.72148051
v 0.72148051 0.15000000 -0.93016992
v 0.48271419 0.15000000 -1.10364381
v 0.21975019 0.15000000 -1.23763066
v -0.06093646 0.15000000 -1.32883128
v -0.35243430 0.15000000 -1.37500000
v -0.50000000 0.15000000 -1.37500000
v -0.50000000 0.15000000 -1.50000000
v -0.34259659 0.15000000 -1.50000000
v -0.03166555 0.15000000 -1.45075336
v 0.26773353 0.15000000 -1.35347270
v 0.54822847 0.15000000 -1.21055339
v 0.80291254 0.15000000 -1.02551458
v 1.02551458 0.15000000 -0.80291254
v 1.21055339 0.15000000 -0.54822847
v 1.35347270 0.15000000 -0.26773353
v 1.50000000 0.00000000 0.50000000
v 1.35000000 -0.00000000 0.50000000
v 1.35000000 0.10000000 0.50000000
v 1.35000000 0.00000000 0.35440184
v 1.35000000 0.10000000 0.35440184
v 1.30444686 0.00000000 0.06679064
v 1.30444686 0.10000000 0.06679064
v 1.21446225 -0.00000000 -0.21015352
v 1.21446225 0.10000000 -0.21015352
v 1.08226189 0.00000000 -0.46961133
v 1.08226189 0.10000000 -0.46961133
v 0.91110099 -0.00000000 -0.70519410
v 0.91110099 0.10000000 -0.70519410
v 0.70519410 0.00000000 -0.91110099
v 0.70519410 0.10000000 -0.91110099
v 0.46961133 0.00000000 -1.08226189
v 0.46961133 0.10000000 -1.08226189
v 0.21015352 0.00000000 -1.21446225
v 0.21015352 0.10000000 -1.21446225
v -0.06679064 0.00000000 -1.30444686
v -0.06679064 0.10000000 -1.30444686
v -0.35440184 0.00000000 -1.35000000
v -0.35440184 0.10000000 -1.35000000
v -0.50000000 -0.00000000 -1.35000000
v -0.50000000 0.10000000 -1.35000000
v 1.50000000 0.00000000 0.34259659
v 1.45075336 0.00000000 0.03166555
v 1.35347270 0.00000000 -0.26773353
v 1.21055339 0.00000000 -0.54822847
v 1.02551458 0.00000000 -0.80291254
v 0.80291254 0.00000000 -1.02551458
v 0.54822847 0.00000000 -1.21055339
v 0.26773353 0.00000000 -1.35347270
v -0.03166555 0.00000000 -1.45075336
v -0.34259659 0.00000000 -1.50000000
v -0.50000000 0.00000000 -1.50000000
vt 0.23416722 0.97537668
vt 0.07870171 1.00000000
vt 0.00000000 1.00000000
vt 0.00000000 0.93750000
vt 0.07378285 0.93750000
vt 0.21953177 0.91441564
vt 0.35987509 0.86881533
vt 0.49135709 0.80182190
vt 0.61074025 0.71508496
vt 0.71508496 0.61074025
vt 0.80182190 0.49135709
vt 0.86881533 0.35987509
vt 0.91441564 0.21953177
vt 0.93750000 0.07378285
vt 0.93750000 0.00000000
vt 1.00000000 0.00000000
vt 1.00000000 0.07870171
vt 0.97537668 0.23416722
vt 0.92673635 0.38386677
vt 0.85527670 0.52411423
vt 0.76275729 0.65145627
vt 0.65145627 0.76275729
vt 0.52411423 0.85527670
vt 0.38386677 0.92673635
vt 1.00000000 1.00000000
vt 0.00000000 1.00000000
vt 0.00000000 0.00000000
vt 0.66666667 0.00000000
vt 1.00000000 0.16666667
vt 0.00000000 1.00000000
vt 0.00000000 0.00000000
vt 1.00000000 0.00000000
vt 1.00000000 1.00000000
vt 0.00000000 1.00000000
vt 0.00000000 0.00000000
vt 1.00000000 0.00000000
vt 1.00000000 1.00000000
vt 0.00000000 1.00000000
vt 0.00000000 0.00000000
vt 1.00000000 0.00000000
vt 1.00000000 1.00000000
vt 0.00000000 1.00000000
vt 0.00000000 0.00000000
vt 1.00000000 0.00000000
vt 1.00000000 1.00000000
vt 0.00000000 1.00000000
vt 0.00000000 0.00000000
vt 1.00000000 0.00000000
vt 1.00000000 1.00000000
vt 0.00000000 1.00000000
vt 0.00000000 0.00000000
vt 1.00000000 0.00000000
vt 1.00000000 1.00000000
vt 0.00000000 1.00000000
vt 0.00000000 0.00000000
vt 1.00000000 0.00000000
vt 1.00000000 1.00000000
vt 0.00000000 1.00000000
vt 0.00000000 0.00000000
vt 1.00000000 0.00000000
vt 1.00000000 1.00000000
vt 0.00000000 1.00000000
vt 0.00000000 0.00000000
vt 1.00000000 0.00000000
vt 1.00000000 1.00000000
vt 0.00000000 1.00000000
vt 0.00000000 0.00000000
vt 1.00000000 0.00000000
vt 1.00000000 1.00000000
vt 0.00000000 1.00000000
vt 0.00000000 0.00000000
vt 1.00000000 0.00000000
vt 1.00000000 1.00000000
vt 0.79113094 0.48480567
vt 0.85723113 0.35507676
vt 0.90222343 0.21660468
vt 0.92500000 0.07279908
vt 0.92500000 0.00000000
vt 1.00000000 0.00000000
vt 1.00000000 0.07870171
vt 0.97537668 0.23416722
vt 0.92673635 0.38386677
vt 0.85527670 0.52411423
vt 0.76275729 0.65145627
vt 0.65145627 0.76275729
vt 0.52411423 0.85527670
vt 0.38386677 0.92673635
vt 0.23416722 0.97537668
vt 0.07870171 1.00000000
vt 0.00000000 1.00000000
vt 0.00000000 0.92500000
vt 0.07279908 0.92500000
vt 0.21660468 0.90222343
vt 0.35507676 0.85723113
vt 0.48480567 0.79113094
vt 0.60259705 0.70555049
vt 0.70555049 0.60259705
vt 0.00000000 1.00000000
vt 0.00000000 0.00000000
vt 1.00000000 0.00000000
vt 0.98666667 1.00000000
vt 0.00000000 0.00000000
vt 1.00000000 0.00000000
vt 0.99333333 1.00000000
vt 0.00666667 1.00000000
vt 0.00000000 0.00000000
vt 1.00000000 0.00000000
vt 0.99333333 1.00000000
vt 0.00666667 1.00000000
vt 0.00000000 0.00000000
vt 1.00000000 0.00000000
vt 0.99333333 1.00000000
vt 0.00666667 1.00000000
vt 0.00000000 0.00000000
vt 1.00000000 0.00000000
vt 0.99333333 1.00000000
vt 0.00666667 1.00000000
vt 0.00000000 0.00000000
vt 1.00000000 0.00000000
vt 0.99333333 1.00000000
vt 0.00666667 1.00000000
vt 0.00000000 0.00000000
vt 1.00000000 0.00000000
vt 0.99333333 1.00000000
vt 0.00666667 1.00000000
vt 0.00000000 0.00000000
vt 1.00000000 0.00000000
vt 0.99333333 1.00000000
vt 0.00666667 1.00000000
vt 0.00000000 0.00000000
vt 1.00000000 0.00000000
vt 0.99333333 1.00000000
vt 0.00666667 1.00000000
vt 0.00000000 0.00000000
vt 1.00000000 0.00000000
vt 0.99333333 1.00000000
vt 0.00666667 1.00000000
vt 1.00000000 0.00000000
vt 1.00000000 1.00000000
vt 0.01333333 1.00000000
vt 0.00000000 0.00000000
vt 1.00000000 1.00000000
vt 0.00000000 1.00000000
vt 0.00000000 0.00000000
vt 0.66666667 0.00000000
vt 1.00000000 0.16666667
vt 0.00000000 1.00000000
vt 0.00000000 0.00000000
vt 1.00000000 0.00000000
vt 1.00000000 1.00000000
vt 0.00000000 0.00000000
vt 1.00000000 0.00000000
vt 1.00000000 1.00000000
vt 0.00000000 1.00000000
vt 0.00000000 0.00000000
vt 1.00000000 0.00000000
vt 1.00000000 1.00000000
vt 0.00000000 1.00000000
vt 0.00000000 0.00000000
vt 1.00000000 0.00000000
vt 1.00000000 1.00000000
vt 0.00000000 1.00000000
vt 0.00000000 0.00000000
vt 1.00000000 0.00000000
vt 1.00000000 1.00000000
vt 0.00000000 1.00000000
vt 0.00000000 0.00000000
vt 1.00000000 0.00000000
vt 1.00000000 1.00000000
vt 0.00000000 1.00000000
vt 0.00000000 0.00000000
vt 1.00000000 0.00000000
vt 1.00000000 1.00000000
vt 0.00000000 1.00000000
vt 0.00000000 0.00000000
vt 1.00000000 0.00000000
vt 1.00000000 1.00000000
vt 0.00000000 1.00000000
vt 0.00000000 0.00000000
vt 1.00000000 0.00000000
vt 1.00000000 1.00000000
vt 0.00000000 1.00000000
vt 0.00000000 0.00000000
vt 1.00000000 0.00000000
vt 1.00000000 1.00000000
vt 0.00000000 1.00000000
vt 1.00000000 0.00000000
vt 1.00000000 1.00000000
vt 0.00000000 1.00000000
vt 0.00000000 0.00000000
vn 0.00000000 1.00000000 0.00000000
vn 0.00000000 1.00000000 0.00000000
vn 0.00000000 1.00000000 0.00000000
vn 0.00000000 1.00000000 0.00000000
vn 0.00000000 1.00000000 0.00000000
vn 0.00000000 1.00000000 0.00000000
vn 0.00000000 1.00000000 0.00000000
vn 0.00000000 1.00000000 0.00000000
vn 0.00000000 1.00000000 0.00000000
vn 0.00000000 1.00000000 0.00000000
vn 0.00000000 1.00000000 0.00000000
vn 0.00000000 1.00000000 0.00000000
vn 0.00000000 1.00000000 0.00000000
vn 0.00000000 1.00000000 0.00000000
vn 0.00000000 1.00000000 0.00000000
vn 0.00000000 1.00000000 0.00000000
vn 0.00000000 1.00000000 0.00000000
vn 0.00000000 1.00000000 0.00000000
vn 0.00000000 1.00000000 0.00000000
vn 0.00000000 1.00000000 0.00000000
vn 0.00000000 1.00000000 0.00000000
vn 0.00000000 1.00000000 0.00000000
vn 0.00000000 1.00000000 0.00000000
vn 0.00000000 1.00000000 0.00000000
vn 0.00000000 0.00000000 1.00000000
vn 0.00000000 0.00000000 1.00000000
vn 0.00000000 0.00000000 1.00000000
vn 0.00000000 0.00000000 1.00000000
vn 0.00000000 0.00000000 1.00000000
vn -1.00000000 0.00000000 -0.00000000
vn -1.00000000 0.00000000 -0.00000000
vn -1.00000000 0.00000000 -0.00000000
vn -1.00000000 0.00000000 -0.00000000
vn -0.98768834 0.00000000 0.15643447
vn -0.98768834 0.00000000 0.15643447
vn -0.98768834 0.00000000 0.15643447
vn -0.98768834 0.00000000 0.15643447
vn -0.95105652 0.00000000 0.30901699
vn -0.95105652 0.00000000 0.30901699
vn -0.95105652 0.00000000 0.30901699
vn -0.95105652 0.00000000 0.30901699
vn -0.89100652 0.00000000 0.45399050
vn -0.89100652 0.00000000 0.45399050
vn -0.89100652 0.00000000 0.45399050
vn -0.89100652 0.00000000 0.45399050
vn -0.80901699 0.00000000 0.58778525
vn -0.80901699 0.00000000 0.58778525
vn -0.80901699 0.00000000 0.58778525
vn -0.80901699 0.00000000 0.58778525
vn -0.70710678 0.00000000 0.70710678
vn -0.70710678 0.00000000 0.70710678
vn -0.70710678 0.00000000 0.70710678
vn -0.70710678 0.00000000 0.70710678
vn -0.58778525 0.00000000 0.80901699
vn -0.58778525 0.00000000 0.80901699
vn -0.58778525 0.00000000 0.80901699
vn -0.58778525 0.00000000 0.80901699
vn -0.45399050 0.00000000 0.89100652
vn -0.45399050 0.00000000 0.89100652
vn -0.45399050 0.00000000 0.89100652
vn -0.45399050 0.00000000 0.89100652
vn -0.30901699 0.00000000 0.95105652
vn -0.30901699 0.00000000 0.95105652
vn -0.30901699 0.00000000 0.95105652
vn -0.30901699 0.00000000 0.95105652
vn -0.15643447 0.00000000 0.98768834
vn -0.15643447 0.00000000 0.98768834
vn -0.15643447 0.00000000 0.98768834
vn -0.15643447 0.00000000 0.98768834
vn 0.00000000 0.00000000 1.00000000
vn 0.00000000 0.00000000 1.00000000
vn 0.00000000 0.00000000 1.00000000
vn 0.00000000 0.00000000 1.00000000
vn 0.00000000 -1.00000000 0.00000000
vn 0.00000000 -1.00000000 0.00000000
vn 0.00000000 -1.00000000 0.00000000
vn 0.00000000 -1.00000000 0.00000000
vn 0.00000000 -1.00000000 0.00000000
vn 0.00000000 -1.00000000 0.00000000
vn 0.00000000 -1.00000000 0.00000000
vn 0.00000000 -1.00000000 0.00000000
vn 0.00000000 -1.00000000 0.00000000
vn 0.00000000 -1.00000000 0.00000000
vn 0.00000000 -1.00000000 0.00000000
vn 0.00000000 -1.00000000 0.00000000
vn 0.00000000 -1.00000000 0.00000000
vn 0.00000000 -1.00000000 0.00000000
vn 0.00000000 -1.00000000 0.00000000
vn 0.00000000 -1.00000000 0.00000000
vn 0.00000000 -1.00000000 0.00000000
vn 0.00000000 -1.00000000 0.00000000
vn 0.00000000 -1.00000000 0.00000000
vn 0.00000000 -1.00000000 0.00000000
vn 0.00000000 -1.00000000 0.00000000
vn 0.00000000 -1.00000000 0.00000000
vn 0.00000000 -1.00000000 0.00000000
vn 0.00000000 -1.00000000 0.00000000
vn -0.89442719 0.44721360 -0.00000000
vn -0.89442719 0.44721360 -0.00000000
vn -0.89442719 0.44721360 -0.00000000
vn -0.89442719 0.44721360 -0.00000000
vn -0.88341531 0.44721360 0.13991924
vn -0.88341531 0.44721360 0.13991924
vn -0.88341531 0.44721360 0.13991924
vn -0.88341531 0.44721360 0.13991924
vn -0.85065081 0.44721360 0.27639320
vn -0.85065081 0.44721360 0.27639320
vn -0.85065081 0.44721360 0.27639320
vn -0.85065081 0.44721360 0.27639320
vn -0.79694046 0.44721360 0.40606145
vn -0.79694046 0.44721360 0.40606145
vn -0.79694046 0.44721360 0.40606145
vn -0.79694046 0.44721360 0.40606145
vn -0.72360680 0.44721360 0.52573111
vn -0.72360680 0.44721360 0.52573111
vn -0.72360680 0.44721360 0.52573111
vn -0.72360680 0.44721360 0.52573111
vn -0.63245553 0.44721360 0.63245553
vn -0.63245553 0.44721360 0.63245553
vn -0.63245553 0.44721360 0.63245553
vn -0.63245553 0.44721360 0.63245553
vn -0.52573111 0.44721360 0.72360680
vn -0.52573111 0.44721360 0.72360680
vn -0.52573111 0.44721360 0.72360680
vn -0.52573111 0.44721360 0.72360680
vn -0.40606145 0.44721360 0.79694046
vn -0.40606145 0.44721360 0.79694046
vn -0.40606145 0.44721360 0.79694046
vn -0.40606145 0.44721360 0.79694046
vn -0.27639320 0.44721360 0.85065081
vn -0.27639320 0.44721360 0.85065081
vn -0.27639320 0.44721360 0.85065081
vn -0.27639320 0.44721360 0.85065081
vn -0.13991924 0.44721360 0.88341531
vn -0.13991924 0.44721360 0.88341531
vn -0.13991924 0.44721360 0.88341531
vn -0.13991924 0.44721360 0.88341531
vn 0.00000000 0.44721360 0.89442719
vn 0.00000000 0.44721360 0.89442719
vn 0.00000000 0.44721360 0.89442719
vn 0.00000000 0.44721360 0.89442719
vn -1.00000000 0.00000000 0.00000000
vn -1.00000000 0.00000000 0.00000000
vn -1.00000000 0.00000000 0.00000000
vn -1.00000000 0.00000000 0.00000000
vn -1.00000000 0.00000000 0.00000000
vn 0.00000000 0.00000000 -1.00000000
vn 0.00000000 0.00000000 -1.00000000
vn 0.00000000 0.00000000 -1.00000000
vn 0.00000000 0.00000000 -1.00000000
vn 0.15643447 0.00000000 -0.98768834
vn 0.15643447 0.00000000 -0.98768834
vn 0.15643447 0.00000000 -0.98768834
vn 0.15643447 0.00000000 -0.98768834
vn 0.30901699 0.00000000 -0.95105652
vn 0.30901699 0.00000000 -0.95105652
vn 0.30901699 0.00000000 -0.95105652
vn 0.30901699 0.00000000 -0.95105652
vn 0.45399050 0.00000000 -0.89100652
vn 0.45399050 0.00000000 -0.89100652
vn 0.45399050 0.00000000 -0.89100652
vn 0.45399050 0.00000000 -0.89100652
vn 0.58778525 0.00000000 -0.80901699
vn 0.58778525 0.00000000 -0.80901699
vn 0.58778525 0.00000000 -0.80901699
vn 0.58778525 0.00000000 -0.80901699
vn 0.70710678 0.00000000 -0.70710678
vn 0.70710678 0.00000000 -0.70710678
vn 0.70710678 0.00000000 -0.70710678
vn 0.70710678 0.00000000 -0.70710678
vn 0.80901699 0.00000000 -0.58778525
vn 0.80901699 0.00000000 -0.58778525
vn 0.80901699 0.00000000 -0.58778525
vn 0.80901699 0.00000000 -0.58778525
vn 0.89100652 0.00000000 -0.45399050
vn 0.89100652 0.00000000 -0.45399050
vn 0.89100652 0.00000000 -0.45399050
vn 0.89100652 0.00000000 -0.45399050
vn 0.95105652 0.00000000 -0.30901699
vn 0.95105652 0.00000000 -0.30901699
vn 0.95105652 0.00000000 -0.30901699
vn 0.95105652 0.00000000 -0.30901699
vn 0.98768834 0.00000000 -0.15643447
vn 0.98768834 0.00000000 -0.15643447
vn 0.98768834 0.00000000 -0.15643447
vn 0.98768834 0.00000000 -0.15643447
vn 1.00000000 0.00000000 0.00000000
vn 1.00000000 0.00000000 0.00000000
vn 1.00000000 0.00000000 0.00000000
vn 1.00000000 0.00000000 0.00000000
s 1
usemtl White
f 16/16/16 15/15/15 14/14/14
f 17/17/17 14/14/14 13/13/13
f 18/18/18 13/13/13 12/12/12
f 19/19/19 12/12/12 11/11/11
f 20/20/20 11/11/11 10/10/10
f 21/21/21 10/10/10 9/9/9
f 22/22/22 9/9/9 8/8/8
f 23/23/23 8/8/8 7/7/7
f 24/24/24 7/7/7 6/6/6
f 6/6/6 2/2/2 1/1/1
f 5/5/5 3/3/3 2/2/2
f 5/5/5 4/4/4 3/3/3
f 6/6/6 5/5/5 2/2/2
f 1/1/1 24/24/24 6/6/6
f 24/24/24 23/23/23 7/7/7
f 23/23/23 22/22/22 8/8/8
f 22/22/22 21/21/21 9/9/9
f 21/21/21 20/20/20 10/10/10
f 20/20/20 19/19/19 11/11/11
f 19/19/19 18/18/18 12/12/12
f 18/18/18 17/17/17 13/13/13
f 17/17/17 16/16/16 14/14/14
s 2
usemtl Beige
f 3/25/25 4/29/29 27/28/28
f 27/28/28 26/27/27 25/26/26
f 27/28/28 25/26/26 3/25/25
s 3
usemtl White
f 28/30/30 26/31/31 29/33/33
f 26/31/31 27/32/32 29/33/33
s 4
f 30/34/34 28/35/35 31/37/37
f 28/35/35 29/36/36 31/37/37
s 5
f 32/38/38 30/39/39 33/41/41
f 30/39/39 31/40/40 33/41/41
s 6
f 34/42/42 32/43/43 35/45/45
f 32/43/43 33/44/44 35/45/45
s 7
f 36/46/46 34/47/47 37/49/49
f 34/47/47 35/48/48 37/49/49
s 8
f 38/50/50 36/51/51 39/53/53
f 36/51/51 37/52/52 39/53/53
s 9
f 40/54/54 38/55/55 41/57/57
f 38/55/55 39/56/56 41/57/57
s 10
f 42/58/58 40/59/59 43/61/61
f 40/59/59 41/60/60 43/61/61
s 11
f 44/62/62 42/63/63 45/65/65
f 42/63/63 43/64/64 45/65/65
s 12
f 46/66/66 44/67/67 47/69/69
f 44/67/67 45/68/68 47/69/69
s 13
f 48/70/70 46/71/71 49/73/73
f 46/71/71 47/72/72 49/73/73
s 14
f 46/92/92 48/91/91 60/90/90
f 44/93/93 46/92/92 59/89/89
f 42/94/94 44/93/93 58/88/88
f 40/95/95 42/94/94 57/87/87
f 38/96/96 40/95/95 56/86/86
f 36/97/97 38/96/96 55/85/85
f 34/74/74 36/97/97 54/84/84
f 32/75/75 34/74/74 53/83/83
f 30/76/76 32/75/75 52/82/82
f 51/81/81 50/80/80 30/76/76
f 50/80/80 25/79/79 28/77/77
f 25/79/79 26/78/78 28/77/77
f 30/76/76 52/82/82 51/81/81
f 50/80/80 28/77/77 30/76/76
f 32/75/75 53/83/83 52/82/82
f 34/74/74 54/84/84 53/83/83
f 36/97/97 55/85/85 54/84/84
f 38/96/96 56/86/86 55/85/85
f 40/95/95 57/87/87 56/86/86
f 42/94/94 58/88/88 57/87/87
f 44/93/93 59/89/89 58/88/88
f 46/92/92 60/90/90 59/89/89
s 15
f 27/98/98 4/99/99 29/101/101
f 4/99/99 5/100/100 29/101/101
s 16
f 5/102/102 6/103/103 29/105/105
f 6/103/103 31/104/104 29/105/105
s 17
f 6/106/106 7/107/107 31/109/109
f 7/107/107 33/108/108 31/109/109
s 18
f 7/110/110 8/111/111 33/113/113
f 8/111/111 35/112/112 33/113/113
s 19
f 8/114/114 9/115/115 35/117/117
f 9/115/115 37/116/116 35/117/117
s 20
f 9/118/118 10/119/119 37/121/121
f 10/119/119 39/120/120 37/121/121
s 21
f 10/122/122 11/123/123 39/125/125
f 11/123/123 41/124/124 39/125/125
s 22
f 11/126/126 12/127/127 41/129/129
f 12/127/127 43/128/128 41/129/129
s 23
f 12/130/130 13/131/131 43/133/133
f 13/131/131 45/132/132 43/133/133
s 24
f 13/134/134 14/135/135 45/137/137
f 14/135/135 47/136/136 45/137/137
s 25
f 15/138/138 49/139/139 47/140/140
f 15/138/138 47/140/140 14/141/141
s 26
usemtl Beige
f 49/145/145 15/146/146 16/142/142
f 16/142/142 60/143/143 49/145/145
f 60/143/143 48/144/144 49/145/145
s 27
usemtl White
f 16/150/150 17/149/149 59/148/148
f 16/150/150 59/148/148 60/147/147
s 28
f 59/154/154 17/153/153 58/151/151
f 17/153/153 18/152/152 58/151/151
s 29
f 58/158/158 18/157/157 57/155/155
f 18/157/157 19/156/156 57/155/155
s 30
f 57/162/162 19/161/161 56/159/159
f 19/161/161 20/160/160 56/159/159
s 31
f 56/166/166 20/165/165 55/163/163
f 20/165/165 21/164/164 55/163/163
s 32
f 55/170/170 21/169/169 54/167/167
f 21/169/169 22/168/168 54/167/167
s 33
f 54/174/174 22/173/173 53/171/171
f 22/173/173 23/172/172 53/171/171
s 34
f 53/178/178 23/177/177 52/175/175
f 23/177/177 24/176/176 52/175/175
s 35
f 52/182/182 24/181/181 51/179/179
f 24/181/181 1/180/180 51/179/179
s 36
f 51/186/186 1/185/185 50/183/183
f 1/185/185 2/184/184 50/183/183
s 37
f 25/190/190 50/189/189 3/187/187
f 50/189/189 2/188/188 3/187/187
