# This file uses centimeters as units for non-parametric coordinates.

mtllib bed3.mtl
g default
v -1.376856 0.600716 0.834122
v -1.368283 0.568719 0.834122
v -1.344859 0.545296 0.834122
v -1.312863 0.536723 0.834122
v -1.312863 0.545296 0.866119
v -1.312863 0.568719 0.889543
v -1.312863 0.600716 0.898116
v -1.344859 0.600716 0.889543
v -1.368283 0.600716 0.866119
v 1.287066 0.536723 0.834122
v 1.319063 0.545296 0.834122
v 1.342486 0.568719 0.834122
v 1.351060 0.600716 0.834122
v 1.342486 0.600716 0.866119
v 1.319063 0.600716 0.889542
v 1.287066 0.600716 0.898116
v 1.287066 0.568719 0.889542
v 1.287066 0.545296 0.866119
v -1.312863 0.870066 0.834122
v -1.344859 0.861493 0.834122
v -1.368283 0.838070 0.834122
v -1.376856 0.806073 0.834122
v -1.368283 0.806073 0.866119
v -1.344859 0.806073 0.889543
v -1.312863 0.806073 0.898116
v -1.312863 0.838070 0.889543
v -1.312863 0.861493 0.866119
v 1.351060 0.806073 0.834122
v 1.342486 0.838069 0.834122
v 1.319063 0.861493 0.834122
v 1.287066 0.870066 0.834122
v 1.287066 0.861493 0.866119
v 1.287066 0.838069 0.889542
v 1.287066 0.806073 0.898116
v 1.319063 0.806073 0.889542
v 1.342486 0.806073 0.866119
v -1.312863 0.806073 -0.898116
v -1.344859 0.806073 -0.889542
v -1.368283 0.806073 -0.866119
v -1.376856 0.806073 -0.834122
v -1.368283 0.838070 -0.834122
v -1.344859 0.861493 -0.834122
v -1.312863 0.870066 -0.834122
v -1.312863 0.861493 -0.866119
v -1.312863 0.838070 -0.889542
v 1.351060 0.806073 -0.834122
v 1.342486 0.806073 -0.866119
v 1.319063 0.806073 -0.889543
v 1.287066 0.806073 -0.898116
v 1.287066 0.838070 -0.889543
v 1.287066 0.861493 -0.866119
v 1.287066 0.870066 -0.834122
v 1.319063 0.861493 -0.834122
v 1.342486 0.838070 -0.834122
v -1.312863 0.536723 -0.834122
v -1.344859 0.545296 -0.834122
v -1.368283 0.568719 -0.834122
v -1.376856 0.600716 -0.834122
v -1.368283 0.600716 -0.866119
v -1.344859 0.600716 -0.889542
v -1.312863 0.600716 -0.898116
v -1.312863 0.568719 -0.889542
v -1.312863 0.545296 -0.866119
v 1.351060 0.600716 -0.834122
v 1.342486 0.568719 -0.834122
v 1.319063 0.545296 -0.834122
v 1.287066 0.536723 -0.834122
v 1.287066 0.545296 -0.866119
v 1.287066 0.568719 -0.889543
v 1.287066 0.600716 -0.898116
v 1.319063 0.600716 -0.889543
v 1.342486 0.600716 -0.866119
v -1.360858 0.570863 0.863976
v -1.342716 0.552721 0.863976
v -1.342716 0.570863 0.882118
v 1.316919 0.552721 0.863976
v 1.335061 0.570863 0.863976
v 1.316919 0.570863 0.882118
v -1.342716 0.854068 0.863976
v -1.360858 0.835926 0.863976
v -1.342716 0.835926 0.882118
v 1.335061 0.835926 0.863976
v 1.316919 0.854068 0.863976
v 1.316919 0.835926 0.882118
v -1.342716 0.835926 -0.882117
v -1.360858 0.835926 -0.863976
v -1.342716 0.854068 -0.863976
v 1.335061 0.835926 -0.863976
v 1.316919 0.835926 -0.882118
v 1.316919 0.854068 -0.863976
v -1.342716 0.552721 -0.863976
v -1.360858 0.570863 -0.863976
v -1.342716 0.570863 -0.882117
v 1.335061 0.570863 -0.863976
v 1.316919 0.552721 -0.863976
v 1.316919 0.570863 -0.882118
v 1.358625 0.198334 0.898116
v 1.428612 0.198334 0.898116
v 1.358625 1.473312 0.898116
v 1.428612 1.473312 0.898116
v 1.358625 1.473312 -0.898116
v 1.428612 1.473312 -0.898116
v 1.358625 0.198334 -0.898116
v 1.428612 0.198334 -0.898116
v -1.428612 0.198334 0.898116
v -1.373982 0.198334 0.898116
v -1.428612 1.088780 0.898116
v -1.373982 1.088780 0.898116
v -1.428612 1.088780 -0.898116
v -1.373982 1.088780 -0.898116
v -1.428612 0.198334 -0.898116
v -1.373982 0.198334 -0.898116
v -1.398622 0.443765 0.845624
v -1.398622 0.443765 0.891340
v -1.398622 0.532054 0.845624
v -1.398622 0.532054 0.891340
v 1.366089 0.532054 0.845624
v 1.366089 0.532054 0.891340
v 1.366089 0.443765 0.845624
v 1.366089 0.443765 0.891340
v -1.398622 0.443765 -0.892641
v -1.398622 0.443765 -0.846924
v -1.398622 0.532054 -0.892641
v -1.398622 0.532054 -0.846924
v 1.366089 0.532054 -0.892641
v 1.366089 0.532054 -0.846924
v 1.366089 0.443765 -0.892641
v 1.366089 0.443765 -0.846924
vt 0.375786 0.992345
vt 0.132655 0.023997
vt 0.380865 0.006430
vt 0.619135 0.996172
vt 0.367345 0.047994
vt 0.371172 0.047994
vt 0.375786 0.202006
vt 0.632655 0.023997
vt 0.624214 0.757655
vt 0.619135 0.047994
vt 0.624214 0.047994
vt 0.628828 0.202006
vt 0.367345 0.202006
vt 0.367345 0.226003
vt 0.375786 0.492345
vt 0.380865 0.257655
vt 0.380865 0.253828
vt 0.619135 0.243570
vt 0.619135 0.202006
vt 0.619135 0.257655
vt 0.624214 0.257655
vt 0.867345 0.226003
vt 0.132655 0.202006
vt 0.128828 0.202006
vt 0.375786 0.702006
vt 0.380865 0.547994
vt 0.380865 0.523997
vt 0.619135 0.498974
vt 0.619135 0.492345
vt 0.619135 0.547994
vt 0.624214 0.547994
vt 0.867345 0.047994
vt 0.871172 0.047994
vt 0.380865 0.757655
vt 0.380865 0.753828
vt 0.619135 0.743570
vt 0.619135 0.702006
vt 0.367345 0.023997
vt 0.370916 0.025604
vt 0.376466 0.995916
vt 0.377932 0.992345
vt 0.378129 0.995916
vt 0.380865 0.992345
vt 0.380865 0.996172
vt 0.380865 0.023997
vt 0.380865 0.047994
vt 0.377932 0.047994
vt 0.375786 0.047994
vt 0.376466 0.025604
vt 0.378129 0.011998
vt 0.378129 0.025604
vt 0.619135 0.992345
vt 0.622068 0.992345
vt 0.621871 0.995916
vt 0.624214 0.992345
vt 0.623534 0.995916
vt 0.632655 0.047994
vt 0.628828 0.047994
vt 0.629084 0.025604
vt 0.622068 0.047994
vt 0.619135 0.023997
vt 0.619135 0.006430
vt 0.621871 0.011998
vt 0.623534 0.025604
vt 0.621871 0.025604
vt 0.377932 0.257655
vt 0.378129 0.254084
vt 0.375786 0.257655
vt 0.376466 0.254084
vt 0.371172 0.202006
vt 0.370916 0.224396
vt 0.377932 0.202006
vt 0.380865 0.202006
vt 0.380865 0.226003
vt 0.380865 0.243570
vt 0.378129 0.238002
vt 0.376466 0.224396
vt 0.378129 0.224396
vt 0.632655 0.202006
vt 0.632655 0.226003
vt 0.629084 0.224396
vt 0.623534 0.254084
vt 0.622068 0.257655
vt 0.621871 0.254084
vt 0.619135 0.253828
vt 0.619135 0.226003
vt 0.622068 0.202006
vt 0.624214 0.202006
vt 0.623534 0.224396
vt 0.621871 0.238002
vt 0.621871 0.224396
vt 0.377932 0.547994
vt 0.378129 0.525604
vt 0.375786 0.547994
vt 0.376466 0.525604
vt 0.132655 0.226003
vt 0.129084 0.224396
vt 0.377932 0.492345
vt 0.380865 0.492345
vt 0.380865 0.496172
vt 0.380865 0.498974
vt 0.378129 0.498086
vt 0.376466 0.495916
vt 0.378129 0.495916
vt 0.867345 0.202006
vt 0.871172 0.202006
vt 0.870916 0.224396
vt 0.623534 0.525604
vt 0.622068 0.547994
vt 0.621871 0.525604
vt 0.619135 0.523997
vt 0.619135 0.496172
vt 0.622068 0.492345
vt 0.624214 0.492345
vt 0.623534 0.495916
vt 0.621871 0.498086
vt 0.621871 0.495916
vt 0.377932 0.757655
vt 0.378129 0.754084
vt 0.375786 0.757655
vt 0.376466 0.754084
vt 0.132655 0.047994
vt 0.128828 0.047994
vt 0.129084 0.025604
vt 0.377932 0.702006
vt 0.380865 0.702006
vt 0.380865 0.726003
vt 0.380865 0.743570
vt 0.378129 0.738002
vt 0.376466 0.724396
vt 0.378129 0.724396
vt 0.867345 0.023997
vt 0.870916 0.025604
vt 0.623534 0.754084
vt 0.622068 0.757655
vt 0.621871 0.754084
vt 0.619135 0.757655
vt 0.619135 0.753828
vt 0.619135 0.726003
vt 0.622068 0.702006
vt 0.624214 0.702006
vt 0.623534 0.724396
vt 0.621871 0.738002
vt 0.621871 0.724396
vt 0.375000 0.000000
vt 0.625000 0.000000
vt 0.625000 0.250000
vt 0.375000 0.250000
vt 0.625000 0.500000
vt 0.375000 0.500000
vt 0.625000 0.750000
vt 0.375000 0.750000
vt 0.625000 1.000000
vt 0.375000 1.000000
vt 0.875000 0.000000
vt 0.875000 0.250000
vt 0.125000 0.000000
vt 0.125000 0.250000
vt 0.375000 0.000000
vt 0.625000 0.000000
vt 0.625000 0.250000
vt 0.375000 0.250000
vt 0.625000 0.500000
vt 0.375000 0.500000
vt 0.625000 0.750000
vt 0.375000 0.750000
vt 0.625000 1.000000
vt 0.375000 1.000000
vt 0.875000 0.000000
vt 0.875000 0.250000
vt 0.125000 0.000000
vt 0.125000 0.250000
vt 0.375000 0.250000
vt 0.625000 0.250000
vt 0.625000 0.500000
vt 0.375000 0.500000
vt 0.375000 0.750000
vt 0.625000 0.750000
vt 0.625000 1.000000
vt 0.375000 1.000000
vt 0.625000 0.000000
vt 0.875000 0.000000
vt 0.875000 0.250000
vt 0.125000 0.000000
vt 0.375000 0.000000
vt 0.125000 0.250000
vt 0.375000 0.250000
vt 0.625000 0.250000
vt 0.625000 0.500000
vt 0.375000 0.500000
vt 0.375000 0.750000
vt 0.625000 0.750000
vt 0.625000 1.000000
vt 0.375000 1.000000
vt 0.625000 0.000000
vt 0.875000 0.000000
vt 0.875000 0.250000
vt 0.125000 0.000000
vt 0.375000 0.000000
vt 0.125000 0.250000
vn -0.003251 -0.999982 -0.005036
vn 0.003251 -0.999982 -0.005036
vn 0.003251 -0.999982 0.005036
vn -0.003251 -0.999982 0.005036
vn 0.003209 -0.036057 0.999345
vn 0.003209 0.036057 0.999345
vn -0.003209 0.036057 0.999345
vn -0.003209 -0.036057 0.999345
vn -0.999338 0.036034 0.004968
vn -0.999338 0.036034 -0.004968
vn -0.999338 -0.036034 -0.004968
vn -0.999338 -0.036034 0.004968
vn 0.999338 -0.036035 -0.004968
vn 0.999338 0.036035 -0.004968
vn 0.999338 0.036035 0.004968
vn 0.999338 -0.036035 0.004968
vn 0.003251 0.999982 0.005036
vn 0.003251 0.999982 -0.005036
vn -0.003251 0.999982 -0.005036
vn -0.003251 0.999982 0.005036
vn 0.003209 0.036057 -0.999345
vn 0.003209 -0.036057 -0.999345
vn -0.003209 -0.036057 -0.999345
vn -0.003209 0.036057 -0.999345
vn -0.499631 -0.866229 0.004043
vn -0.499631 -0.866229 -0.004043
vn -0.866229 -0.499632 0.004043
vn -0.866228 -0.499632 -0.004043
vn -0.002609 -0.499764 0.866158
vn 0.002609 -0.499764 0.866158
vn -0.002609 -0.866158 0.499763
vn 0.002609 -0.866158 0.499763
vn -0.867178 -0.029475 0.497126
vn -0.867178 0.029474 0.497126
vn -0.497125 -0.029475 0.867178
vn -0.497125 0.029474 0.867178
vn 0.866228 -0.499632 0.004043
vn 0.866228 -0.499632 -0.004043
vn 0.499631 -0.866229 0.004043
vn 0.499631 -0.866229 -0.004043
vn 0.497125 -0.029474 0.867178
vn 0.497125 0.029474 0.867178
vn 0.867178 -0.029474 0.497126
vn 0.867178 0.029474 0.497126
vn -0.866229 0.499632 0.004043
vn -0.866229 0.499632 -0.004043
vn -0.499630 0.866229 0.004043
vn -0.499630 0.866229 -0.004043
vn -0.002609 0.866158 0.499763
vn 0.002609 0.866158 0.499763
vn -0.002609 0.499763 0.866158
vn 0.002609 0.499763 0.866158
vn 0.499630 0.866229 0.004043
vn 0.499630 0.866229 -0.004043
vn 0.866229 0.499632 0.004043
vn 0.866229 0.499632 -0.004043
vn -0.867178 0.029475 -0.497125
vn -0.867178 -0.029474 -0.497125
vn -0.497125 0.029475 -0.867178
vn -0.497125 -0.029475 -0.867178
vn -0.002609 0.499764 -0.866158
vn 0.002609 0.499764 -0.866158
vn -0.002609 0.866159 -0.499762
vn 0.002609 0.866159 -0.499762
vn 0.497127 0.029474 -0.867177
vn 0.497127 -0.029474 -0.867177
vn 0.867178 0.029474 -0.497125
vn 0.867178 -0.029474 -0.497125
vn -0.002609 -0.866159 -0.499762
vn 0.002609 -0.866159 -0.499762
vn -0.002609 -0.499763 -0.866158
vn 0.002609 -0.499763 -0.866158
vn -0.808363 -0.416263 0.416263
vn -0.416263 -0.808364 0.416261
vn -0.416263 -0.416267 0.808360
vn 0.416262 -0.808363 0.416264
vn 0.808361 -0.416265 0.416264
vn 0.416264 -0.416264 0.808362
vn -0.416261 0.808364 0.416262
vn -0.808361 0.416264 0.416264
vn -0.416262 0.416267 0.808361
vn 0.808361 0.416265 0.416264
vn 0.416263 0.808363 0.416263
vn 0.416264 0.416263 0.808362
vn -0.416263 0.416266 -0.808361
vn -0.808362 0.416264 -0.416264
vn -0.416263 0.808363 -0.416263
vn 0.808360 0.416266 -0.416265
vn 0.416264 0.416264 -0.808362
vn 0.416264 0.808362 -0.416263
vn -0.416263 -0.808363 -0.416263
vn -0.808362 -0.416263 -0.416264
vn -0.416263 -0.416267 -0.808361
vn 0.808361 -0.416265 -0.416264
vn 0.416264 -0.808362 -0.416263
vn 0.416265 -0.416265 -0.808361
vn -0.000000 0.000000 1.000000
vn -0.000000 0.000000 1.000000
vn -0.000000 0.000000 1.000000
vn -0.000000 0.000000 1.000000
vn 0.000000 1.000000 0.000000
vn 0.000000 1.000000 0.000000
vn 0.000000 1.000000 0.000000
vn 0.000000 1.000000 0.000000
vn 0.000000 0.000000 -1.000000
vn 0.000000 0.000000 -1.000000
vn 0.000000 0.000000 -1.000000
vn 0.000000 0.000000 -1.000000
vn 0.000000 -1.000000 0.000000
vn 0.000000 -1.000000 0.000000
vn 0.000000 -1.000000 0.000000
vn 0.000000 -1.000000 0.000000
vn 1.000000 0.000000 0.000000
vn 1.000000 0.000000 0.000000
vn 1.000000 0.000000 0.000000
vn 1.000000 0.000000 0.000000
vn -1.000000 0.000000 0.000000
vn -1.000000 0.000000 0.000000
vn -1.000000 0.000000 0.000000
vn -1.000000 0.000000 0.000000
vn -0.000000 0.000000 1.000000
vn -0.000000 0.000000 1.000000
vn -0.000000 0.000000 1.000000
vn -0.000000 0.000000 1.000000
vn 0.000000 1.000000 0.000000
vn 0.000000 1.000000 0.000000
vn 0.000000 1.000000 0.000000
vn 0.000000 1.000000 0.000000
vn 0.000000 0.000000 -1.000000
vn 0.000000 0.000000 -1.000000
vn 0.000000 0.000000 -1.000000
vn 0.000000 0.000000 -1.000000
vn 0.000000 -1.000000 0.000000
vn 0.000000 -1.000000 0.000000
vn 0.000000 -1.000000 0.000000
vn 0.000000 -1.000000 0.000000
vn 1.000000 0.000000 0.000000
vn 1.000000 0.000000 0.000000
vn 1.000000 0.000000 0.000000
vn 1.000000 0.000000 0.000000
vn -1.000000 0.000000 0.000000
vn -1.000000 0.000000 0.000000
vn -1.000000 0.000000 0.000000
vn -1.000000 0.000000 0.000000
vn 0.000000 1.000000 0.000000
vn 0.000000 1.000000 0.000000
vn 0.000000 1.000000 0.000000
vn 0.000000 1.000000 0.000000
vn 0.000000 -1.000000 0.000000
vn 0.000000 -1.000000 0.000000
vn 0.000000 -1.000000 0.000000
vn 0.000000 -1.000000 0.000000
vn -0.000000 0.000000 1.000000
vn -0.000000 0.000000 1.000000
vn -0.000000 0.000000 1.000000
vn -0.000000 0.000000 1.000000
vn 0.000000 0.000000 -1.000000
vn 0.000000 0.000000 -1.000000
vn 0.000000 0.000000 -1.000000
vn 0.000000 0.000000 -1.000000
vn 0.000000 1.000000 0.000000
vn 0.000000 1.000000 0.000000
vn 0.000000 1.000000 0.000000
vn 0.000000 1.000000 0.000000
vn 0.000000 -1.000000 0.000000
vn 0.000000 -1.000000 0.000000
vn 0.000000 -1.000000 0.000000
vn 0.000000 -1.000000 0.000000
vn -0.000000 0.000000 1.000000
vn -0.000000 0.000000 1.000000
vn -0.000000 0.000000 1.000000
vn -0.000000 0.000000 1.000000
vn 0.000000 0.000000 -1.000000
vn 0.000000 0.000000 -1.000000
vn 0.000000 0.000000 -1.000000
vn 0.000000 0.000000 -1.000000
s 1
g bed3
usemtl blinn1SG
f 55/34/1 67/137/2 10/52/3 4/43/4
f 16/10/5 34/19/6 25/73/7 7/46/8
f 22/13/9 40/23/10 58/122/11 1/5/12
f 64/32/13 46/105/14 28/79/15 13/57/16
f 31/20/17 52/29/18 43/99/19 19/16/20
f 49/30/21 70/37/22 61/126/23 37/26/24
f 4/43/4 3/41/25 56/118/26 55/34/1
f 3/41/25 2/1/27 57/120/28 56/118/26
f 2/38/27 1/5/12 58/122/11 57/2/28
f 7/46/8 6/45/29 17/61/30 16/10/5
f 6/45/29 5/3/31 18/62/32 17/61/30
f 5/44/31 4/43/4 10/52/3 18/4/32
f 1/5/12 9/6/33 23/70/34 22/13/9
f 9/48/33 8/47/35 24/72/36 23/7/34
f 8/47/35 7/46/8 25/73/7 24/72/36
f 13/57/16 12/8/37 65/132/38 64/32/13
f 12/55/37 11/53/39 66/135/40 65/9/38
f 11/53/39 10/52/3 67/137/2 66/135/40
f 16/10/5 15/60/41 35/87/42 34/19/6
f 15/60/41 14/11/43 36/88/44 35/87/42
f 14/58/43 13/57/16 28/79/15 36/12/44
f 22/13/9 21/14/45 41/96/46 40/23/10
f 21/68/45 20/66/47 42/98/48 41/15/46
f 20/66/47 19/16/20 43/99/19 42/98/48
f 19/16/20 27/17/49 32/85/50 31/20/17
f 27/75/49 26/74/51 33/86/52 32/18/50
f 26/74/51 25/73/7 34/19/6 33/86/52
f 31/20/17 30/83/53 53/113/54 52/29/18
f 30/83/53 29/21/55 54/114/56 53/113/54
f 29/80/55 28/79/15 46/105/14 54/22/56
f 40/23/10 39/24/57 59/123/58 58/122/11
f 39/94/57 38/92/59 60/125/60 59/25/58
f 38/92/59 37/26/24 61/126/23 60/125/60
f 37/26/24 45/27/61 50/111/62 49/30/21
f 45/101/61 44/100/63 51/112/64 50/28/62
f 44/100/63 43/99/19 52/29/18 51/112/64
f 49/30/21 48/109/65 71/140/66 70/37/22
f 48/109/65 47/31/67 72/141/68 71/140/66
f 47/106/67 46/105/14 64/32/13 72/33/68
f 55/34/1 63/35/69 68/138/70 67/137/2
f 63/128/69 62/127/71 69/139/72 68/36/70
f 62/127/71 61/126/23 70/37/22 69/139/72
f 9/6/33 1/5/12 2/38/27 73/39/73
f 73/40/73 2/1/27 3/41/25 74/42/74
f 3/41/25 4/43/4 5/44/31 74/42/74
f 74/50/74 5/3/31 6/45/29 75/51/75
f 6/45/29 7/46/8 8/47/35 75/51/75
f 75/51/75 8/47/35 9/48/33 73/49/73
f 73/49/73 74/50/74 75/51/75
f 18/4/32 10/52/3 11/53/39 76/54/76
f 76/54/76 11/53/39 12/55/37 77/56/77
f 12/8/37 13/57/16 14/58/43 77/59/77
f 77/64/77 14/11/43 15/60/41 78/65/78
f 15/60/41 16/10/5 17/61/30 78/65/78
f 78/65/78 17/61/30 18/62/32 76/63/76
f 76/63/76 77/64/77 78/65/78
f 27/17/49 19/16/20 20/66/47 79/67/79
f 79/67/79 20/66/47 21/68/45 80/69/80
f 21/14/45 22/13/9 23/70/34 80/71/80
f 80/77/80 23/7/34 24/72/36 81/78/81
f 24/72/36 25/73/7 26/74/51 81/78/81
f 81/78/81 26/74/51 27/75/49 79/76/79
f 79/76/79 80/77/80 81/78/81
f 36/12/44 28/79/15 29/80/55 82/81/82
f 82/82/82 29/21/55 30/83/53 83/84/83
f 30/83/53 31/20/17 32/85/50 83/84/83
f 83/90/83 32/18/50 33/86/52 84/91/84
f 33/86/52 34/19/6 35/87/42 84/91/84
f 84/91/84 35/87/42 36/88/44 82/89/82
f 82/89/82 83/90/83 84/91/84
f 45/27/61 37/26/24 38/92/59 85/93/85
f 85/93/85 38/92/59 39/94/57 86/95/86
f 39/24/57 40/23/10 41/96/46 86/97/86
f 86/103/86 41/15/46 42/98/48 87/104/87
f 42/98/48 43/99/19 44/100/63 87/104/87
f 87/104/87 44/100/63 45/101/61 85/102/85
f 85/102/85 86/103/86 87/104/87
f 54/22/56 46/105/14 47/106/67 88/107/88
f 88/108/88 47/31/67 48/109/65 89/110/89
f 48/109/65 49/30/21 50/111/62 89/110/89
f 89/116/89 50/28/62 51/112/64 90/117/90
f 51/112/64 52/29/18 53/113/54 90/117/90
f 90/117/90 53/113/54 54/114/56 88/115/88
f 88/115/88 89/116/89 90/117/90
f 63/35/69 55/34/1 56/118/26 91/119/91
f 91/119/91 56/118/26 57/120/28 92/121/92
f 57/2/28 58/122/11 59/123/58 92/124/92
f 92/130/92 59/25/58 60/125/60 93/131/93
f 60/125/60 61/126/23 62/127/71 93/131/93
f 93/131/93 62/127/71 63/128/69 91/129/91
f 91/129/91 92/130/92 93/131/93
f 72/33/68 64/32/13 65/132/38 94/133/94
f 94/134/94 65/9/38 66/135/40 95/136/95
f 66/135/40 67/137/2 68/138/70 95/136/95
f 95/143/95 68/36/70 69/139/72 96/144/96
f 69/139/72 70/37/22 71/140/66 96/144/96
f 96/144/96 71/140/66 72/141/68 94/142/94
f 94/142/94 95/143/95 96/144/96
s off
usemtl blinn2SG
f 97/145/97 98/146/98 100/147/99 99/148/100
f 99/148/101 100/147/102 102/149/103 101/150/104
f 101/150/105 102/149/106 104/151/107 103/152/108
f 103/152/109 104/151/110 98/153/111 97/154/112
f 98/146/113 104/155/114 102/156/115 100/147/116
f 103/157/117 97/145/118 99/148/119 101/158/120
f 105/159/121 106/160/122 108/161/123 107/162/124
f 107/162/125 108/161/126 110/163/127 109/164/128
f 109/164/129 110/163/130 112/165/131 111/166/132
f 111/166/133 112/165/134 106/167/135 105/168/136
f 106/160/137 112/169/138 110/170/139 108/161/140
f 111/171/141 105/159/142 107/162/143 109/172/144
f 115/173/145 116/174/146 118/175/147 117/176/148
f 119/177/149 120/178/150 114/179/151 113/180/152
f 114/181/153 120/182/154 118/183/155 116/174/156
f 119/184/157 113/185/158 115/173/159 117/186/160
f 123/187/161 124/188/162 126/189/163 125/190/164
f 127/191/165 128/192/166 122/193/167 121/194/168
f 122/195/169 128/196/170 126/197/171 124/188/172
f 127/198/173 121/199/174 123/187/175 125/200/176
