# This file uses centimeters as units for non-parametric coordinates.

mtllib doorframe1.mtl
g default
v -0.554770 0.000000 -0.110825
v 0.554770 0.000000 -0.110825
v -0.554770 2.370539 -0.110825
v 0.554770 2.370539 -0.110825
v -0.669970 2.485739 -0.110825
v 0.669970 2.485739 -0.110825
v 0.669970 0.000000 -0.110825
v -0.669970 0.000000 -0.110825
v -0.554770 2.370539 0.110825
v 0.554770 2.370539 0.110825
v 0.669970 2.485739 0.110825
v -0.669970 2.485739 0.110825
v 0.554770 0.000000 0.110825
v 0.669970 0.000000 0.110825
v -0.554770 0.000000 0.110825
v -0.669970 0.000000 0.110825
vt 0.375000 0.000000
vt 0.625000 0.000000
vt 0.375000 0.250000
vt 0.625000 0.250000
vt 0.375000 0.250000
vt 0.625000 0.250000
vt 0.625000 0.000000
vt 0.375000 0.000000
vt 0.375000 0.250000
vt 0.625000 0.250000
vt 0.625000 0.250000
vt 0.375000 0.250000
vt 0.625000 0.000000
vt 0.625000 0.000000
vt 0.375000 0.000000
vt 0.375000 0.000000
vt 0.375000 0.250000
vt 0.625000 0.250000
vt 0.625000 0.250000
vt 0.375000 0.250000
vt 0.625000 0.000000
vt 0.625000 0.000000
vt 0.375000 0.000000
vt 0.375000 0.000000
vn 0.000000 0.000000 1.000000
vn -0.000000 0.000000 1.000000
vn -0.000000 0.000000 1.000000
vn 0.000000 0.000000 1.000000
vn -0.000000 0.000000 1.000000
vn -0.000000 0.000000 1.000000
vn 0.000000 0.000000 1.000000
vn 0.000000 0.000000 1.000000
vn 0.000000 0.000000 -1.000000
vn 0.000000 0.000000 -1.000000
vn 0.000000 0.000000 -1.000000
vn 0.000000 0.000000 -1.000000
vn 0.000000 0.000000 -1.000000
vn 0.000000 0.000000 -1.000000
vn 0.000000 0.000000 -1.000000
vn 0.000000 0.000000 -1.000000
vn -0.000000 -1.000000 0.000000
vn -0.000000 -1.000000 0.000000
vn -0.000000 -1.000000 0.000000
vn -0.000000 -1.000000 0.000000
vn 0.000000 1.000000 0.000000
vn 0.000000 1.000000 0.000000
vn 0.000000 1.000000 0.000000
vn 0.000000 1.000000 0.000000
vn -1.000000 0.000000 -0.000000
vn -1.000000 0.000000 -0.000000
vn -1.000000 0.000000 -0.000000
vn -1.000000 0.000000 -0.000000
vn 1.000000 0.000000 0.000000
vn 1.000000 0.000000 0.000000
vn 1.000000 0.000000 0.000000
vn 1.000000 0.000000 0.000000
vn 1.000000 0.000000 0.000000
vn 1.000000 0.000000 0.000000
vn 1.000000 0.000000 0.000000
vn 1.000000 0.000000 0.000000
vn -1.000000 0.000000 -0.000000
vn -1.000000 0.000000 -0.000000
vn -1.000000 0.000000 -0.000000
vn -1.000000 0.000000 -0.000000
s 1
g doorframe1
usemtl blinn1SG
f 9/17/1 10/18/2 11/19/3 12/20/4
f 10/18/2 13/21/5 14/22/6 11/19/3
f 15/23/7 9/17/1 12/20/4 16/24/8
s 2
f 3/9/9 5/12/10 6/11/11 4/10/12
f 4/10/12 6/11/11 7/14/13 2/13/14
f 1/15/15 8/16/16 5/12/10 3/9/9
s off
f 3/3/17 4/4/18 10/18/19 9/17/20
f 6/6/21 5/5/22 12/20/23 11/19/24
f 4/4/25 2/2/26 13/21/27 10/18/28
f 7/7/29 6/6/30 11/19/31 14/22/32
f 1/1/33 3/3/34 9/17/35 15/23/36
f 5/5/37 8/8/38 16/24/39 12/20/40
