# This file uses centimeters as units for non-parametric coordinates.

mtllib fireplace.mtl
g default
v -1.060684 0.000000 0.210125
v 1.085586 0.000000 0.210125
v -1.060684 0.000000 -0.210125
v 1.085586 0.000000 -0.210125
v -1.043543 0.073308 0.192980
v -1.060684 0.056164 0.210125
v 1.068443 0.073308 0.192980
v 1.085586 0.056164 0.210125
v -1.060684 0.056164 -0.210125
v -1.043543 0.073308 -0.210125
v 1.085586 0.056164 -0.210125
v 1.068443 0.073308 -0.210125
v -1.115242 1.623508 0.194127
v -1.131240 1.607509 0.210125
v 1.115240 1.623508 0.194127
v 1.131240 1.607509 0.210125
v -1.131240 1.607509 -0.210125
v -1.115242 1.623508 -0.210125
v 1.131240 1.607509 -0.210125
v 1.115240 1.623508 -0.210125
v -1.115242 1.550199 0.194127
v -1.131240 1.566198 0.210125
v 1.115240 1.550199 0.194127
v 1.131240 1.566198 0.210125
v -1.131240 1.566198 -0.210125
v -1.115242 1.550199 -0.210125
v 1.131240 1.566198 -0.210125
v 1.115240 1.550199 -0.210125
v -1.036832 1.602595 -0.210125
v -0.819535 1.602595 -0.210125
v -1.036832 0.000000 -0.210125
v -0.819535 0.000000 -0.210125
v 0.804381 1.602595 -0.210125
v 1.021678 1.602595 -0.210125
v 0.804381 0.000000 -0.210125
v 1.021678 0.000000 -0.210125
v -1.025633 0.000000 -0.037523
v -1.036832 0.000000 -0.048723
v -1.036832 1.602595 -0.048723
v -1.025633 1.602595 -0.037523
v -0.819535 0.000000 -0.048723
v -0.830734 0.000000 -0.037523
v -0.830734 1.602595 -0.037523
v -0.819535 1.602595 -0.048723
v 0.815580 0.000000 -0.037523
v 0.804381 0.000000 -0.048723
v 0.804381 1.602595 -0.048723
v 0.815580 1.602595 -0.037523
v 1.021678 0.000000 -0.048723
v 1.010479 0.000000 -0.037523
v 1.010479 1.602595 -0.037523
v 1.021678 1.602595 -0.048723
v -0.945287 0.039455 -0.129895
v 0.970188 0.039455 -0.129895
v -0.942557 1.570451 -0.129895
v 0.978168 1.570451 -0.129895
v -0.494117 0.039455 -0.210125
v 0.456379 0.039455 -0.210125
v 0.456379 1.186421 -0.210125
v -0.494117 1.186421 -0.156363
v -0.478123 0.039455 -0.072098
v -0.494117 0.039455 -0.145893
v -0.510115 0.039455 -0.129895
v -0.494117 1.186421 -0.145893
v -0.507916 1.194621 -0.129895
v 0.472377 0.039455 -0.129895
v 0.456379 0.039455 -0.145893
v 0.440379 0.039455 -0.072098
v 0.456379 1.186421 -0.145893
v 0.470010 1.194854 -0.129895
v 0.786762 1.562935 -0.003845
v 1.038535 1.562935 -0.003845
v 0.786762 1.562935 -0.210125
v 1.038535 1.562935 -0.210125
v -1.055195 1.562935 -0.003845
v -0.803422 1.562935 -0.003845
v -1.055195 1.562935 -0.210125
v -0.803422 1.562935 -0.210125
v 0.797961 1.358234 -0.015044
v 0.786762 1.369433 -0.003845
v 1.027336 1.358234 -0.015044
v 1.038535 1.369433 -0.003845
v 0.797961 1.297035 -0.210125
v 0.786762 1.308234 -0.210125
v 1.027336 1.358234 -0.210125
v 1.038535 1.369433 -0.210125
v -1.043996 1.358234 -0.015044
v -1.055195 1.369433 -0.003845
v -0.814621 1.358234 -0.015044
v -0.803422 1.369433 -0.003845
v -1.043996 1.358234 -0.210125
v -1.055195 1.369433 -0.210125
v -0.814621 1.358234 -0.210125
v -0.803422 1.369433 -0.210125
vt 0.125000 0.000000
vt 0.375000 0.191532
vt 0.125000 0.191532
vt 0.376997 0.259462
vt 0.375000 0.000000
vt 0.625000 0.000000
vt 0.875000 0.000000
vt 0.875000 0.191532
vt 0.375000 0.250000
vt 0.376997 0.490538
vt 0.376997 0.250000
vt 0.625000 0.191532
vt 0.623003 0.250000
vt 0.623003 0.259462
vt 0.625000 0.250000
vt 0.625000 0.500000
vt 0.375000 0.500000
vt 0.623003 0.490538
vt 0.375000 0.054559
vt 0.625000 0.054559
vt 0.625000 0.195441
vt 0.375000 0.195441
vt 0.875000 0.054559
vt 0.875000 0.195441
vt 0.125000 0.054559
vt 0.125000 0.195441
vt 0.623137 0.258830
vt 0.623137 0.491171
vt 0.376863 0.491170
vt 0.376863 0.258830
vt 0.375000 0.250000
vt 0.375000 0.500000
vt 0.376863 0.250000
vt 0.623137 0.250000
vt 0.625000 0.250000
vt 0.625000 0.500000
vt 0.376864 0.758830
vt 0.623137 0.758830
vt 0.623137 0.991170
vt 0.376864 0.991170
vt 0.375000 1.000000
vt 0.375000 0.750000
vt 0.376864 0.000000
vt 0.623137 0.000000
vt 0.625000 1.000000
vt 0.625000 0.750000
vt 0.387885 0.250000
vt 0.387884 -0.000000
vt 0.612116 0.000000
vt 0.612115 0.250000
vt 0.638636 0.250000
vt 0.638636 -0.000000
vt 0.875000 0.000000
vt 0.875000 0.250000
vt 0.125000 0.000000
vt 0.361362 0.000000
vt 0.361364 0.250000
vt 0.125000 0.250000
vt 0.387885 0.250000
vt 0.387884 -0.000000
vt 0.612116 0.000000
vt 0.612115 0.250000
vt 0.638636 0.250000
vt 0.638636 -0.000000
vt 0.875000 0.000000
vt 0.875000 0.250000
vt 0.125000 0.000000
vt 0.361362 0.000000
vt 0.361364 0.250000
vt 0.125000 0.250000
vt 0.375000 0.000000
vt 0.375000 0.250000
vt 0.625000 0.000000
vt 0.625000 0.250000
vt 0.375000 0.000000
vt 0.375000 0.250000
vt 0.625000 0.000000
vt 0.625000 0.250000
vt 0.445047 0.198129
vt 0.557940 0.198614
vt 0.557940 0.250000
vt 0.398751 0.232411
vt 0.375000 0.000000
vt 0.444166 0.000000
vt 0.559692 0.197923
vt 0.560028 -0.000000
vt 0.625000 0.000000
vt 0.625000 0.223617
vt 0.557940 0.000000
vt 0.557940 0.197234
vt 0.557940 0.197234
vt 0.557940 0.000000
vt 0.446253 0.197234
vt 0.446253 0.197234
vt 0.446253 0.000000
vt 0.446253 0.000000
vt 0.448341 0.000000
vt 0.555852 0.000000
vt 0.446253 0.000000
vt 0.557940 0.000000
vt 0.375000 0.013677
vt 0.625000 0.013677
vt 0.625000 0.250000
vt 0.375000 0.250000
vt 0.625000 0.500000
vt 0.375000 0.500000
vt 0.875000 0.013677
vt 0.875000 0.250000
vt 0.125000 0.013677
vt 0.125000 0.250000
vt 0.375000 0.013677
vt 0.625000 0.013677
vt 0.625000 0.250000
vt 0.375000 0.250000
vt 0.625000 0.500000
vt 0.375000 0.500000
vt 0.875000 0.013677
vt 0.875000 0.250000
vt 0.125000 0.013677
vt 0.125000 0.250000
vt 0.386120 0.761715
vt 0.613880 0.761715
vt 0.613880 0.988285
vt 0.386120 0.988285
vt 0.386120 0.761715
vt 0.613880 0.761715
vt 0.613880 0.988285
vt 0.386120 0.988285
vt 0.375000 1.000000
vt 0.375000 0.750000
vt 0.386120 -0.000000
vt 0.613880 0.000000
vt 0.625000 1.000000
vt 0.625000 0.750000
vt 0.375000 1.000000
vt 0.375000 0.750000
vt 0.386120 -0.000000
vt 0.613880 0.000000
vt 0.625000 1.000000
vt 0.625000 0.750000
vn 0.000000 0.000000 1.000000
vn 0.000000 0.000000 1.000000
vn 0.000000 0.000000 1.000000
vn 0.000000 0.000000 1.000000
vn 1.000000 0.000000 0.000000
vn 1.000000 0.000000 0.000000
vn 1.000000 0.000000 0.000000
vn 1.000000 0.000000 0.000000
vn -1.000000 0.000000 0.000000
vn -1.000000 0.000000 0.000000
vn -1.000000 0.000000 0.000000
vn -1.000000 0.000000 0.000000
vn 0.000000 1.000000 0.000000
vn 0.000000 1.000000 0.000000
vn 0.000000 1.000000 0.000000
vn 0.000000 1.000000 0.000000
vn -0.707210 0.707003 0.000000
vn -0.707210 0.707003 0.000000
vn -0.707210 0.707003 0.000000
vn -0.707210 0.707003 0.000000
vn 0.000000 0.707104 0.707109
vn 0.000000 0.707104 0.707109
vn 0.000000 0.707104 0.707109
vn 0.000000 0.707104 0.707109
vn 0.707160 0.707054 0.000000
vn 0.707160 0.707054 0.000000
vn 0.707160 0.707054 0.000000
vn 0.707160 0.707054 0.000000
vn 0.000000 0.000000 1.000000
vn 0.000000 0.000000 1.000000
vn 0.000000 0.000000 1.000000
vn 0.000000 0.000000 1.000000
vn 1.000000 0.000000 0.000000
vn 1.000000 0.000000 0.000000
vn 1.000000 0.000000 0.000000
vn 1.000000 0.000000 0.000000
vn -1.000000 0.000000 0.000000
vn -1.000000 0.000000 0.000000
vn -1.000000 0.000000 0.000000
vn -1.000000 0.000000 0.000000
vn 0.000000 1.000000 0.000000
vn 0.000000 1.000000 0.000000
vn 0.000000 1.000000 0.000000
vn 0.000000 1.000000 0.000000
vn -0.707127 0.707087 0.000000
vn -0.707127 0.707087 0.000000
vn -0.707127 0.707087 0.000000
vn -0.707127 0.707087 0.000000
vn 0.000000 0.707097 0.707116
vn 0.000000 0.707097 0.707116
vn 0.000000 0.707097 0.707116
vn 0.000000 0.707097 0.707116
vn 0.707020 0.707194 0.000000
vn 0.707020 0.707194 0.000000
vn 0.707020 0.707194 0.000000
vn 0.707020 0.707194 0.000000
vn 0.000000 -1.000000 0.000000
vn 0.000000 -1.000000 0.000000
vn 0.000000 -1.000000 0.000000
vn 0.000000 -1.000000 0.000000
vn -0.707100 -0.707114 0.000000
vn -0.707100 -0.707114 0.000000
vn -0.707100 -0.707114 0.000000
vn -0.707100 -0.707114 0.000000
vn 0.000000 -0.707102 0.707111
vn 0.000000 -0.707102 0.707111
vn 0.000000 -0.707102 0.707111
vn 0.000000 -0.707102 0.707111
vn 0.707020 -0.707194 0.000000
vn 0.707020 -0.707194 0.000000
vn 0.707020 -0.707194 0.000000
vn 0.707020 -0.707194 0.000000
vn 0.000000 0.000000 1.000000
vn 0.000000 0.000000 1.000000
vn 0.000000 0.000000 1.000000
vn 0.000000 0.000000 1.000000
vn 1.000000 0.000000 0.000000
vn 1.000000 0.000000 0.000000
vn 1.000000 0.000000 0.000000
vn 1.000000 0.000000 0.000000
vn -1.000000 0.000000 0.000000
vn -1.000000 0.000000 0.000000
vn -1.000000 0.000000 0.000000
vn -1.000000 0.000000 0.000000
vn 0.000000 0.000000 1.000000
vn 0.000000 0.000000 1.000000
vn 0.000000 0.000000 1.000000
vn 0.000000 0.000000 1.000000
vn 1.000000 0.000000 0.000000
vn 1.000000 0.000000 0.000000
vn 1.000000 0.000000 0.000000
vn 1.000000 0.000000 0.000000
vn -1.000000 0.000000 0.000000
vn -1.000000 0.000000 0.000000
vn -1.000000 0.000000 0.000000
vn -1.000000 0.000000 0.000000
vn -0.707091 0.000000 0.707123
vn -0.707091 0.000000 0.707123
vn -0.707091 0.000000 0.707123
vn -0.707091 0.000000 0.707123
vn 0.707091 0.000000 0.707123
vn 0.707091 0.000000 0.707123
vn 0.707091 0.000000 0.707123
vn 0.707091 0.000000 0.707123
vn -0.707091 0.000000 0.707123
vn -0.707091 0.000000 0.707123
vn -0.707091 0.000000 0.707123
vn -0.707091 0.000000 0.707123
vn 0.707091 0.000000 0.707123
vn 0.707091 0.000000 0.707123
vn 0.707091 0.000000 0.707123
vn 0.707091 0.000000 0.707123
vn 0.000000 0.000000 1.000000
vn 0.000001 0.000000 1.000000
vn 0.000001 0.000000 1.000000
vn 0.000000 0.000000 1.000000
vn 0.000000 0.000000 1.000000
vn 0.000000 0.000000 1.000000
vn 0.000001 0.000000 1.000000
vn 0.000001 0.000000 1.000000
vn -1.000000 0.000000 0.000000
vn -1.000000 0.000000 0.000000
vn -1.000000 0.000000 0.000000
vn -1.000000 0.000000 0.000000
vn 0.000045 -0.981032 0.193847
vn 0.000045 -0.980941 0.194305
vn 0.000000 -1.000000 0.000000
vn 0.000000 -1.000000 0.000000
vn 1.000000 -0.000001 0.000000
vn 1.000000 -0.000001 0.000000
vn 1.000000 -0.000001 0.000000
vn 1.000000 -0.000001 0.000000
vn -0.000000 1.000000 -0.000000
vn -0.000000 1.000000 -0.000000
vn -0.000000 1.000000 -0.000000
vn -0.000000 1.000000 -0.000000
vn -0.000000 1.000000 -0.000000
vn -0.000000 1.000000 -0.000000
vn 0.731724 -0.000698 0.681601
vn 0.731724 -0.000698 0.681601
vn 0.731724 -0.000698 0.681601
vn 0.731724 -0.000698 0.681601
vn 0.000107 -0.887267 0.461256
vn 0.000107 -0.887267 0.461256
vn -0.733634 -0.000754 0.679544
vn -0.733634 -0.000754 0.679544
vn -0.733634 -0.000754 0.679544
vn -0.733634 -0.000754 0.679544
vn -0.000000 1.000000 -0.000000
vn -0.000000 1.000000 -0.000000
vn 0.000000 0.000000 1.000000
vn 0.000000 0.000000 1.000000
vn 0.000000 0.000000 1.000000
vn 0.000000 0.000000 1.000000
vn 0.000000 1.000000 0.000000
vn 0.000000 1.000000 0.000000
vn 0.000000 1.000000 0.000000
vn 0.000000 1.000000 0.000000
vn 1.000000 0.000000 0.000000
vn 1.000000 0.000000 0.000000
vn 1.000000 0.000000 0.000000
vn 1.000000 0.000000 0.000000
vn -1.000000 0.000000 0.000000
vn -1.000000 0.000000 0.000000
vn -1.000000 0.000000 0.000000
vn -1.000000 0.000000 0.000000
vn 0.000000 0.000000 1.000000
vn 0.000000 0.000000 1.000000
vn 0.000000 0.000000 1.000000
vn 0.000000 0.000000 1.000000
vn 0.000000 1.000000 0.000000
vn 0.000000 1.000000 0.000000
vn 0.000000 1.000000 0.000000
vn 0.000000 1.000000 0.000000
vn 1.000000 0.000000 0.000000
vn 1.000000 0.000000 0.000000
vn 1.000000 0.000000 0.000000
vn 1.000000 0.000000 0.000000
vn -1.000000 0.000000 0.000000
vn -1.000000 0.000000 0.000000
vn -1.000000 0.000000 0.000000
vn -1.000000 0.000000 0.000000
vn 0.130663 -0.979451 0.153633
vn 0.130663 -0.979451 0.153633
vn 0.130663 -0.979451 0.153633
vn 0.130663 -0.979451 0.153633
vn 0.000000 -1.000000 0.000000
vn 0.000000 -1.000000 0.000000
vn 0.000000 -1.000000 0.000000
vn 0.000000 -1.000000 0.000000
vn -0.629710 -0.743048 0.226595
vn -0.629710 -0.743048 0.226595
vn -0.629710 -0.743048 0.226595
vn -0.629710 -0.743048 0.226595
vn 0.000000 -0.707117 0.707097
vn 0.000000 -0.707117 0.707097
vn 0.000000 -0.707117 0.707097
vn 0.000000 -0.707117 0.707097
vn 0.707168 -0.707045 0.000000
vn 0.707168 -0.707045 0.000000
vn 0.707168 -0.707045 0.000000
vn 0.707168 -0.707045 0.000000
vn -0.707129 -0.707085 0.000000
vn -0.707129 -0.707085 0.000000
vn -0.707129 -0.707085 0.000000
vn -0.707129 -0.707085 0.000000
vn 0.000000 -0.707119 0.707094
vn 0.000000 -0.707119 0.707094
vn 0.000000 -0.707119 0.707094
vn 0.000000 -0.707119 0.707094
vn 0.707089 -0.707124 0.000000
vn 0.707089 -0.707124 0.000000
vn 0.707090 -0.707124 0.000000
vn 0.707090 -0.707124 0.000000
s off
g fireplace
usemtl blinn4SG
f 1/5/1 2/6/2 8/12/3 6/2/4
f 2/6/5 4/7/6 11/8/7 8/12/8
f 3/1/9 1/5/10 6/2/11 9/3/12
f 7/14/13 12/18/14 10/10/15 5/4/16
f 6/9/17 5/4/18 10/10/19 9/17/20
f 5/11/21 6/2/22 8/12/23 7/13/24
f 7/14/25 8/15/26 11/16/27 12/18/28
f 22/19/29 24/20/30 16/21/31 14/22/32
f 24/20/33 27/23/34 19/24/35 16/21/36
f 25/25/37 22/19/38 14/22/39 17/26/40
f 15/27/41 20/28/42 18/29/43 13/30/44
f 14/31/45 13/30/46 18/29/47 17/32/48
f 13/33/49 14/22/50 16/21/51 15/34/52
f 15/27/53 16/35/54 19/36/55 20/28/56
f 26/37/57 28/38/58 23/39/59 21/40/60
f 21/40/61 22/41/62 25/42/63 26/37/64
f 22/19/65 21/43/66 23/44/67 24/20/68
f 24/45/69 23/39/70 28/38/71 27/46/72
usemtl blinn1SG
f 40/47/73 37/48/74 42/49/75 43/50/76
f 44/51/77 41/52/78 32/53/79 30/54/80
f 31/55/81 38/56/82 39/57/83 29/58/84
f 48/59/85 45/60/86 50/61/87 51/62/88
f 52/63/89 49/64/90 36/65/91 34/66/92
f 35/67/93 46/68/94 47/69/95 33/70/96
f 38/71/97 37/48/98 40/47/99 39/72/100
f 42/49/101 41/73/102 44/74/103 43/50/104
f 46/75/105 45/60/106 48/59/107 47/76/108
f 50/61/109 49/77/110 52/78/111 51/62/112
s 1
f 65/79/113 70/80/114 56/81/115 55/82/116
f 53/83/117 63/84/118 65/79/113 55/82/116
f 70/85/114 66/86/119 54/87/120 56/88/115
s off
f 67/89/121 69/90/122 59/91/123 58/92/124
s 2
f 69/90/125 64/93/126 60/94/127 59/91/128
s off
f 64/93/129 62/95/130 57/96/131 60/94/132
s 3
f 62/95/133 61/97/134 68/98/135 67/89/136 58/92/137 57/96/138
s off
f 63/84/139 62/95/140 64/93/141 65/79/142
s 2
f 65/79/143 64/93/126 69/90/125 70/80/144
s off
f 67/89/145 66/86/146 70/85/147 69/90/148
s 3
f 61/99/134 62/95/133 63/84/149
f 66/86/150 67/89/136 68/100/135
s off
f 80/101/151 82/102/152 72/103/153 71/104/154
f 71/104/155 72/103/156 74/105/157 73/106/158
f 82/102/159 86/107/160 74/108/161 72/103/162
f 84/109/163 80/101/164 71/104/165 73/110/166
f 88/111/167 90/112/168 76/113/169 75/114/170
f 75/114/171 76/113/172 78/115/173 77/116/174
f 90/112/175 94/117/176 78/118/177 76/113/178
f 92/119/179 88/111/180 75/114/181 77/120/182
f 83/121/183 85/122/184 81/123/185 79/124/186
f 91/125/187 93/126/188 89/127/189 87/128/190
f 79/124/191 80/129/192 84/130/193 83/121/194
f 80/101/195 79/131/196 81/132/197 82/102/198
f 82/133/199 81/123/200 85/122/201 86/134/202
f 87/128/203 88/135/204 92/136/205 91/125/206
f 88/111/207 87/137/208 89/138/209 90/112/210
f 90/139/211 89/127/212 93/126/213 94/140/214
