# This file uses centimeters as units for non-parametric coordinates.

mtllib frame1.mtl
g default
v -0.599203 0.000366 -0.020490
v 0.599203 0.000366 -0.020490
v -0.599203 0.847911 -0.020490
v 0.599203 0.847911 -0.020490
v -0.568453 0.036813 0.000248
v 0.568452 0.036813 0.000248
v 0.568452 0.811464 0.000248
v -0.568453 0.811464 0.000248
v -0.590722 0.010418 0.020490
v -0.599203 0.000366 0.007386
v 0.590722 0.010418 0.020490
v 0.599203 0.000366 0.007386
v -0.590722 0.837859 0.020490
v -0.599203 0.847911 0.007386
v 0.590722 0.837859 0.020490
v 0.599203 0.847911 0.007386
v -0.568453 0.036813 0.007386
v -0.576948 0.026744 0.020490
v 0.568452 0.036813 0.007386
v 0.576948 0.026744 0.020490
v 0.568452 0.811464 0.007386
v 0.576948 0.821532 0.020490
v -0.568453 0.811464 0.007386
v -0.576948 0.821532 0.020490
vt 0.125000 0.000000
vt 0.125000 0.170056
vt 0.375000 0.000000
vt 0.625000 0.579944
vt 0.625000 0.750000
vt 0.375000 0.750000
vt 0.625000 0.000000
vt 0.875000 0.000000
vt 0.375000 0.500000
vt 0.375000 0.250000
vt 0.375000 0.250000
vt 0.625000 0.250000
vt 0.625000 0.250000
vt 0.625000 0.500000
vt 0.625000 0.500000
vt 0.375000 0.500000
vt 0.375000 0.170056
vt 0.372035 0.250000
vt 0.127965 0.250000
vt 0.376769 0.250000
vt 0.625000 0.170056
vt 0.623231 0.250000
vt 0.627965 0.250000
vt 0.875000 0.170056
vt 0.872035 0.250000
vt 0.375000 0.579944
vt 0.376769 0.500000
vt 0.623231 0.500000
vt 0.375000 0.250000
vt 0.375000 0.499998
vt 0.375001 0.250000
vt 0.625000 0.250000
vt 0.625000 0.250000
vt 0.625000 0.500000
vt 0.624999 0.500000
vt 0.375000 0.500000
vn 0.000000 -1.000000 0.000000
vn 0.000000 -1.000000 0.000000
vn 0.000000 -1.000000 0.000000
vn 0.000000 -1.000000 0.000000
vn 0.000000 0.000000 1.000000
vn 0.000000 0.000000 1.000000
vn 0.000000 0.000000 1.000000
vn 0.000000 0.000000 1.000000
vn 0.000000 1.000000 -0.000000
vn 0.000000 1.000000 -0.000000
vn 0.000000 1.000000 -0.000000
vn 0.000000 1.000000 -0.000000
vn 1.000000 0.000000 0.000000
vn 1.000000 0.000000 0.000000
vn 1.000000 0.000000 0.000000
vn 1.000000 0.000000 0.000000
vn -1.000000 0.000000 0.000000
vn -1.000000 0.000000 0.000000
vn -1.000000 0.000000 0.000000
vn -1.000000 0.000000 0.000000
vn 0.000000 -0.000000 1.000000
vn 0.000000 -0.000000 1.000000
vn 0.000000 -0.000000 1.000000
vn 0.000000 -0.000000 1.000000
vn 0.000000 0.000000 1.000000
vn 0.000000 0.000000 1.000000
vn 0.000000 0.000000 1.000000
vn 0.000000 0.000000 1.000000
vn 0.000000 -0.000000 1.000000
vn 0.000000 -0.000000 1.000000
vn 0.000000 -0.000000 1.000000
vn 0.000000 -0.000000 1.000000
vn 0.000000 0.000000 1.000000
vn 0.000000 0.000000 1.000000
vn 0.000000 0.000000 1.000000
vn 0.000000 0.000000 1.000000
vn 0.000000 1.000000 -0.000000
vn 0.000000 1.000000 -0.000000
vn 0.000000 1.000000 -0.000000
vn 0.000000 1.000000 -0.000000
vn -1.000000 0.000000 0.000000
vn -1.000000 0.000000 0.000000
vn -1.000000 0.000000 0.000000
vn -1.000000 0.000000 0.000000
vn 0.000000 -1.000000 0.000000
vn 0.000000 -1.000000 0.000000
vn 0.000000 -1.000000 0.000000
vn 0.000000 -1.000000 0.000000
vn 1.000000 0.000000 0.000000
vn 1.000000 0.000000 0.000000
vn 1.000000 0.000000 0.000000
vn 1.000000 0.000000 0.000000
vn -0.839517 0.000000 0.543334
vn -0.839517 0.000000 0.543334
vn -0.839517 0.000000 0.543334
vn -0.839517 0.000000 0.543334
vn -0.000000 -0.793446 0.608640
vn -0.000000 -0.793446 0.608640
vn -0.000000 -0.793446 0.608640
vn -0.000000 -0.793446 0.608640
vn 0.839518 0.000000 0.543332
vn 0.839518 0.000000 0.543332
vn 0.839518 0.000000 0.543332
vn 0.839518 0.000000 0.543332
vn 0.000000 0.793446 0.608640
vn 0.000000 0.793446 0.608640
vn 0.000000 0.793446 0.608640
vn 0.000000 0.793446 0.608640
vn 0.839117 0.000000 0.543951
vn 0.839117 0.000000 0.543951
vn 0.839117 0.000000 0.543951
vn 0.839117 0.000000 0.543951
vn -0.000000 0.792954 0.609282
vn -0.000000 0.792954 0.609282
vn -0.000000 0.792954 0.609282
vn -0.000000 0.792954 0.609282
vn -0.839110 0.000000 0.543962
vn -0.839110 0.000000 0.543962
vn -0.839110 0.000000 0.543962
vn -0.839110 0.000000 0.543962
vn 0.000000 -0.792968 0.609263
vn 0.000000 -0.792968 0.609263
vn 0.000000 -0.792968 0.609263
vn 0.000000 -0.792968 0.609263
s off
g frame1
usemtl blinn3SG
f 1/3/1 2/7/2 12/21/3 10/17/4
usemtl blinn1SG
f 5/10/5 6/12/6 7/14/7 8/16/8
usemtl blinn3SG
f 14/26/9 16/4/10 4/5/11 3/6/12
f 2/7/13 4/8/14 16/24/15 12/21/16
f 3/1/17 1/3/18 10/17/19 14/2/20
f 9/11/21 11/13/22 20/32/23 18/29/24
f 11/13/25 15/15/26 22/34/27 20/32/28
f 15/15/29 13/9/30 24/36/31 22/34/32
f 13/9/33 9/11/34 18/29/35 24/36/36
f 17/31/37 19/33/38 6/12/39 5/10/40
f 19/33/41 21/35/42 7/14/43 6/12/44
f 21/35/45 23/30/46 8/16/47 7/14/48
f 23/30/49 17/31/50 5/10/51 8/16/52
f 10/17/53 9/18/54 13/19/55 14/2/56
f 9/20/57 10/17/58 12/21/59 11/22/60
f 11/23/61 12/21/62 16/24/63 15/25/64
f 14/26/65 13/27/66 15/28/67 16/4/68
f 18/29/69 17/31/70 23/30/71 24/36/72
f 17/31/73 18/29/74 20/32/75 19/33/76
f 19/33/77 20/32/78 22/34/79 21/35/80
f 21/35/81 22/34/82 24/36/83 23/30/84
