# This file uses centimeters as units for non-parametric coordinates.

mtllib Roof1.mtl
g default
v -3.544885 0.078338 4.719791
v 3.544884 0.078338 4.719791
v -3.544885 0.266507 4.719791
v 3.544884 0.266507 4.719791
v -3.544885 0.266507 -4.766937
v 3.544884 0.266507 -4.766937
v -3.544885 0.078338 -4.766937
v 3.544884 0.078338 -4.766937
v 0.056765 2.350686 4.719791
v 0.056765 2.350686 -4.766937
v 0.056765 0.078338 -4.766937
v 0.056765 0.078338 4.719791
v -3.544885 0.266507 4.982309
v 0.056765 2.350686 4.982309
v 0.056765 2.350686 -4.982309
v -3.544885 0.266507 -4.982309
v 3.544884 -0.031702 -4.982309
v 3.544884 -0.031702 4.982309
v 3.544884 0.266507 -4.982309
v 3.544884 0.266507 4.982309
v -3.544885 -0.031702 -4.982309
v -3.544885 -0.031702 4.982309
v -3.700190 0.356070 4.982309
v 0.058026 2.530849 4.982309
v 0.058025 2.530849 -4.982309
v -3.700190 0.356070 -4.982309
v 3.700190 -0.031702 -4.982309
v 3.700190 -0.031702 4.982309
v 3.700190 0.354627 -4.982309
v 3.700190 0.354627 4.982309
v -3.700190 -0.031702 -4.982309
v -3.700190 -0.031702 4.982309
vt 0.375000 0.000000
vt 0.625000 0.000000
vt 0.375000 0.250000
vt 0.625000 0.250000
vt 0.375000 0.500000
vt 0.625000 0.500000
vt 0.375000 0.750000
vt 0.625000 0.750000
vt 0.375000 1.000000
vt 0.625000 1.000000
vt 0.875000 0.000000
vt 0.875000 0.250000
vt 0.125000 0.000000
vt 0.125000 0.250000
vt 0.502002 0.250000
vt 0.502002 0.500000
vt 0.502002 0.750000
vt 0.502002 0.000000
vt 0.502002 1.000000
vt 0.375000 0.250000
vt 0.502002 0.250000
vt 0.502002 0.500000
vt 0.375000 0.500000
vt 0.625000 0.000000
vt 0.875000 0.000000
vt 0.875000 0.250000
vt 0.625000 0.250000
vt 0.125000 0.000000
vt 0.375000 0.000000
vt 0.125000 0.250000
vt 0.625000 0.500000
vt 0.375000 0.250000
vt 0.502002 0.250000
vt 0.502002 0.500000
vt 0.375000 0.500000
vt 0.625000 0.000000
vt 0.875000 0.000000
vt 0.875000 0.250000
vt 0.625000 0.250000
vt 0.125000 0.000000
vt 0.375000 0.000000
vt 0.125000 0.250000
vt 0.625000 0.500000
vn -0.000000 -0.000000 1.000000
vn -0.000000 -0.000000 1.000000
vn -0.000000 -0.000000 1.000000
vn -0.000000 -0.000000 1.000000
vn -0.500859 0.865529 0.000000
vn -0.500859 0.865529 0.000000
vn -0.500859 0.865529 0.000000
vn -0.500859 0.865529 0.000000
vn -0.000000 -0.000000 -1.000000
vn -0.000000 -0.000000 -1.000000
vn -0.000000 -0.000000 -1.000000
vn -0.000000 -0.000000 -1.000000
vn 0.000000 -1.000000 0.000000
vn 0.000000 -1.000000 0.000000
vn 0.000000 -1.000000 0.000000
vn 0.000000 -1.000000 0.000000
vn 1.000000 0.000000 -0.000000
vn 1.000000 0.000000 -0.000000
vn 1.000000 0.000000 -0.000000
vn 1.000000 0.000000 -0.000000
vn -1.000000 -0.000000 0.000000
vn -1.000000 -0.000000 0.000000
vn -1.000000 -0.000000 0.000000
vn -1.000000 -0.000000 0.000000
vn 0.512922 0.858435 -0.000000
vn 0.512922 0.858435 -0.000000
vn 0.512922 0.858435 -0.000000
vn 0.512922 0.858435 -0.000000
vn 0.000000 0.000000 -1.000000
vn 0.000000 0.000000 -1.000000
vn 0.000000 0.000000 -1.000000
vn 0.000000 0.000000 -1.000000
vn 0.000000 -1.000000 0.000000
vn 0.000000 -1.000000 0.000000
vn 0.000000 -1.000000 0.000000
vn 0.000000 -1.000000 0.000000
vn 0.000000 0.000000 1.000000
vn 0.000000 0.000000 1.000000
vn 0.000000 0.000000 1.000000
vn 0.000000 0.000000 1.000000
vn 0.500858 -0.865529 -0.000000
vn 0.500858 -0.865529 -0.000000
vn 0.500858 -0.865529 -0.000000
vn 0.500858 -0.865529 -0.000000
vn 0.500859 -0.865529 -0.000000
vn 0.500859 -0.865529 -0.000000
vn 0.500859 -0.865529 -0.000000
vn 0.500859 -0.865529 -0.000000
vn -1.000000 0.000001 0.000000
vn -1.000000 0.000001 0.000000
vn -1.000000 0.000000 0.000000
vn -1.000000 0.000000 0.000000
vn -1.000000 -0.000000 0.000000
vn -1.000000 -0.000000 0.000000
vn -1.000000 -0.000000 0.000000
vn -1.000000 -0.000000 0.000000
vn 1.000000 -0.000002 -0.000000
vn 1.000000 -0.000002 -0.000000
vn 1.000000 -0.000002 -0.000000
vn 1.000000 -0.000002 -0.000000
vn 1.000000 0.000000 -0.000000
vn 1.000000 0.000000 -0.000000
vn 1.000000 0.000000 -0.000000
vn 1.000000 0.000000 -0.000000
vn -0.512921 -0.858436 0.000000
vn -0.512921 -0.858436 0.000000
vn -0.512921 -0.858436 0.000000
vn -0.512921 -0.858436 0.000000
vn -0.512922 -0.858435 0.000000
vn -0.512922 -0.858435 0.000000
vn -0.512922 -0.858435 0.000000
vn -0.512922 -0.858435 0.000000
vn 0.000000 0.000000 1.000000
vn -0.000001 -0.000000 1.000000
vn -0.000001 -0.000000 1.000000
vn 0.000000 0.000000 1.000000
vn -0.000001 -0.000000 -1.000000
vn -0.000002 -0.000000 -1.000000
vn -0.000002 -0.000000 -1.000000
vn -0.000001 -0.000000 -1.000000
vn 0.000000 -1.000000 0.000000
vn 0.000000 -1.000000 0.000000
vn 0.000000 -1.000000 0.000000
vn 0.000000 -1.000000 0.000000
vn 0.000000 0.000000 -1.000000
vn 0.000000 0.000000 -1.000000
vn 0.000000 0.000000 -1.000000
vn 0.000000 0.000000 -1.000000
vn -0.000002 -0.000000 1.000000
vn 0.000000 0.000000 1.000000
vn 0.000000 0.000000 1.000000
vn -0.000002 -0.000000 1.000000
vn 0.000000 -1.000000 0.000000
vn 0.000000 -1.000000 0.000000
vn 0.000000 -1.000000 0.000000
vn 0.000000 -1.000000 0.000000
vn 0.000002 0.000000 1.000000
vn 0.000002 0.000000 1.000000
vn 0.000000 0.000000 -1.000000
vn 0.000000 0.000000 -1.000000
s off
g Roof1
usemtl blinn1SG
f 1/1/1 12/18/2 9/15/3 3/3/4
usemtl blinn4SG
f 23/32/5 24/33/6 25/34/7 26/35/8
usemtl blinn1SG
f 5/5/9 10/16/10 11/17/11 7/7/12
f 7/7/13 11/17/14 12/19/15 1/9/16
usemtl blinn4SG
f 28/36/17 27/37/18 29/38/19 30/39/20
f 31/40/21 32/41/22 23/32/23 26/42/24
f 24/33/25 30/39/26 29/43/27 25/34/28
usemtl blinn1SG
f 11/17/29 10/16/30 6/6/31 8/8/32
f 12/19/33 11/17/34 8/8/35 2/10/36
f 9/15/37 12/18/38 2/2/39 4/4/40
usemtl blinn4SG
f 3/3/41 9/15/42 14/21/43 13/20/44
f 10/16/45 5/5/46 16/23/47 15/22/48
s 1
f 2/2/49 8/11/50 17/25/51 18/24/52
f 8/11/50 6/12/53 19/26/54 17/25/51
f 4/4/55 2/2/49 18/24/52 20/27/56
s 2
f 7/13/57 1/1/58 22/29/59 21/28/60
f 1/1/58 3/3/61 13/20/62 22/29/59
f 5/14/63 7/13/57 21/28/60 16/30/64
s off
f 9/15/65 4/4/66 20/27/67 14/21/68
f 6/6/69 10/16/70 15/22/71 19/31/72
s 3
f 13/20/73 14/21/74 24/33/75 23/32/76
s 4
f 15/22/77 16/23/78 26/35/79 25/34/80
s off
f 18/24/81 17/25/82 27/37/83 28/36/84
s 4
f 17/25/85 19/26/86 29/38/87 27/37/88
s 3
f 20/27/89 18/24/90 28/36/91 30/39/92
s off
f 21/28/93 22/29/94 32/41/95 31/40/96
s 3
f 22/29/97 13/20/73 23/32/76 32/41/98
s 4
f 16/30/78 21/28/99 31/40/100 26/42/79
s 3
f 14/21/74 20/27/89 30/39/92 24/33/75
s 4
f 19/31/86 15/22/77 25/34/80 29/43/87
