# This file uses centimeters as units for non-parametric coordinates.

mtllib shelves4.mtl
g default
v 0.395373 0.000000 0.221596
v 0.428593 0.000000 0.221596
v 0.395373 1.840944 0.221596
v 0.428593 1.840944 0.221596
v 0.395373 1.840944 -0.221596
v 0.428593 1.840944 -0.221596
v 0.395373 0.000000 -0.221596
v 0.428593 0.000000 -0.221596
v -0.428593 0.000000 0.221596
v -0.395373 0.000000 0.221596
v -0.428593 1.840944 0.221596
v -0.395373 1.840944 0.221596
v -0.428593 1.840944 -0.221596
v -0.395373 1.840944 -0.221596
v -0.428593 0.000000 -0.221596
v -0.395373 0.000000 -0.221596
v 0.422439 1.811864 -0.199590
v 0.422439 0.079875 -0.199590
v -0.417721 1.811864 -0.199590
v -0.417721 0.079875 -0.199590
v 0.409992 0.773796 0.185088
v 0.409992 0.807016 0.185088
v -0.414397 0.773796 0.185088
v -0.414397 0.807016 0.185088
v -0.414397 0.773796 -0.211254
v -0.414397 0.807016 -0.211254
v 0.409992 0.773796 -0.211254
v 0.409992 0.807016 -0.211254
v 0.409992 1.806275 0.212918
v 0.409992 1.839496 0.212918
v -0.414397 1.806275 0.212918
v -0.414397 1.839496 0.212918
v -0.414397 1.806275 -0.211254
v -0.414397 1.839496 -0.211254
v 0.409992 1.806275 -0.211254
v 0.409992 1.839496 -0.211254
v 0.409992 0.077165 0.185088
v 0.409992 0.110385 0.185088
v -0.414397 0.077165 0.185088
v -0.414397 0.110385 0.185088
v -0.414397 0.077165 -0.211254
v -0.414397 0.110385 -0.211254
v 0.409992 0.077165 -0.211254
v 0.409992 0.110385 -0.211254
v 0.409992 1.453227 0.185088
v 0.409992 1.486448 0.185088
v -0.414397 1.453227 0.185088
v -0.414397 1.486448 0.185088
v -0.414397 1.453227 -0.211254
v -0.414397 1.486448 -0.211254
v 0.409992 1.453227 -0.211254
v 0.409992 1.486448 -0.211254
v 0.409992 1.114084 0.185088
v 0.409992 1.147305 0.185088
v -0.414397 1.114084 0.185088
v -0.414397 1.147305 0.185088
v -0.414397 1.114084 -0.211254
v -0.414397 1.147305 -0.211254
v 0.409992 1.114084 -0.211254
v 0.409992 1.147305 -0.211254
v 0.409992 0.421949 0.185088
v 0.409992 0.455169 0.185088
v -0.414397 0.421949 0.185088
v -0.414397 0.455169 0.185088
v -0.414397 0.421949 -0.211254
v -0.414397 0.455169 -0.211254
v 0.409992 0.421949 -0.211254
v 0.409992 0.455169 -0.211254
vt 0.375000 0.000000
vt 0.625000 0.000000
vt 0.375000 0.250000
vt 0.625000 0.250000
vt 0.375000 0.500000
vt 0.625000 0.500000
vt 0.875000 0.000000
vt 0.875000 0.250000
vt 0.125000 0.000000
vt 0.125000 0.250000
vt 0.375000 0.000000
vt 0.625000 0.000000
vt 0.625000 0.250000
vt 0.375000 0.250000
vt 0.625000 0.500000
vt 0.375000 0.500000
vt 0.875000 0.000000
vt 0.875000 0.250000
vt 0.125000 0.000000
vt 0.125000 0.250000
vt 0.000000 0.000000
vt 1.000000 0.000000
vt 1.000000 1.000000
vt 0.000000 1.000000
vt 0.375000 0.000000
vt 0.625000 0.000000
vt 0.625000 0.250000
vt 0.375000 0.250000
vt 0.625000 0.500000
vt 0.375000 0.500000
vt 0.625000 0.750000
vt 0.375000 0.750000
vt 0.625000 1.000000
vt 0.375000 1.000000
vt 0.875000 0.000000
vt 0.875000 0.250000
vt 0.125000 0.000000
vt 0.125000 0.250000
vt 0.375000 0.000000
vt 0.625000 0.000000
vt 0.625000 0.250000
vt 0.375000 0.250000
vt 0.625000 0.500000
vt 0.375000 0.500000
vt 0.625000 0.750000
vt 0.375000 0.750000
vt 0.625000 1.000000
vt 0.375000 1.000000
vt 0.875000 0.000000
vt 0.875000 0.250000
vt 0.125000 0.000000
vt 0.125000 0.250000
vt 0.375000 0.000000
vt 0.625000 0.000000
vt 0.625000 0.250000
vt 0.375000 0.250000
vt 0.625000 0.500000
vt 0.375000 0.500000
vt 0.625000 0.750000
vt 0.375000 0.750000
vt 0.625000 1.000000
vt 0.375000 1.000000
vt 0.875000 0.000000
vt 0.875000 0.250000
vt 0.125000 0.000000
vt 0.125000 0.250000
vt 0.375000 0.000000
vt 0.625000 0.000000
vt 0.625000 0.250000
vt 0.375000 0.250000
vt 0.625000 0.500000
vt 0.375000 0.500000
vt 0.625000 0.750000
vt 0.375000 0.750000
vt 0.625000 1.000000
vt 0.375000 1.000000
vt 0.875000 0.000000
vt 0.875000 0.250000
vt 0.125000 0.000000
vt 0.125000 0.250000
vt 0.375000 0.000000
vt 0.625000 0.000000
vt 0.625000 0.250000
vt 0.375000 0.250000
vt 0.625000 0.500000
vt 0.375000 0.500000
vt 0.625000 0.750000
vt 0.375000 0.750000
vt 0.625000 1.000000
vt 0.375000 1.000000
vt 0.875000 0.000000
vt 0.875000 0.250000
vt 0.125000 0.000000
vt 0.125000 0.250000
vt 0.375000 0.000000
vt 0.625000 0.000000
vt 0.625000 0.250000
vt 0.375000 0.250000
vt 0.625000 0.500000
vt 0.375000 0.500000
vt 0.625000 0.750000
vt 0.375000 0.750000
vt 0.625000 1.000000
vt 0.375000 1.000000
vt 0.875000 0.000000
vt 0.875000 0.250000
vt 0.125000 0.000000
vt 0.125000 0.250000
vn 0.000000 0.000000 1.000000
vn 0.000000 0.000000 1.000000
vn 0.000000 0.000000 1.000000
vn 0.000000 0.000000 1.000000
vn 0.000000 1.000000 0.000000
vn 0.000000 1.000000 0.000000
vn 0.000000 1.000000 0.000000
vn 0.000000 1.000000 0.000000
vn 1.000000 0.000000 0.000000
vn 1.000000 0.000000 0.000000
vn 1.000000 0.000000 0.000000
vn 1.000000 0.000000 0.000000
vn -1.000000 0.000000 0.000000
vn -1.000000 0.000000 0.000000
vn -1.000000 0.000000 0.000000
vn -1.000000 0.000000 0.000000
vn 0.000000 0.000000 1.000000
vn 0.000000 0.000000 1.000000
vn 0.000000 0.000000 1.000000
vn 0.000000 0.000000 1.000000
vn 0.000000 1.000000 0.000000
vn 0.000000 1.000000 0.000000
vn 0.000000 1.000000 0.000000
vn 0.000000 1.000000 0.000000
vn 1.000000 0.000000 0.000000
vn 1.000000 0.000000 0.000000
vn 1.000000 0.000000 0.000000
vn 1.000000 0.000000 0.000000
vn -1.000000 0.000000 0.000000
vn -1.000000 0.000000 0.000000
vn -1.000000 0.000000 0.000000
vn -1.000000 0.000000 0.000000
vn 0.000000 0.000000 1.000000
vn 0.000000 0.000000 1.000000
vn 0.000000 0.000000 1.000000
vn 0.000000 0.000000 1.000000
vn 0.000000 0.000000 1.000000
vn 0.000000 0.000000 1.000000
vn 0.000000 0.000000 1.000000
vn 0.000000 0.000000 1.000000
vn -1.000000 0.000000 0.000000
vn -1.000000 0.000000 0.000000
vn -1.000000 0.000000 0.000000
vn -1.000000 0.000000 0.000000
vn 1.000000 0.000000 0.000000
vn 1.000000 0.000000 0.000000
vn 1.000000 0.000000 0.000000
vn 1.000000 0.000000 0.000000
vn 0.000000 1.000000 0.000000
vn 0.000000 1.000000 0.000000
vn 0.000000 1.000000 0.000000
vn 0.000000 1.000000 0.000000
vn 0.000000 -1.000000 0.000000
vn 0.000000 -1.000000 0.000000
vn 0.000000 -1.000000 0.000000
vn 0.000000 -1.000000 0.000000
vn 0.000000 0.000000 1.000000
vn 0.000000 0.000000 1.000000
vn 0.000000 0.000000 1.000000
vn 0.000000 0.000000 1.000000
vn -1.000000 0.000000 0.000000
vn -1.000000 0.000000 0.000000
vn -1.000000 0.000000 0.000000
vn -1.000000 0.000000 0.000000
vn 1.000000 0.000000 0.000000
vn 1.000000 0.000000 0.000000
vn 1.000000 0.000000 0.000000
vn 1.000000 0.000000 0.000000
vn 0.000000 1.000000 0.000000
vn 0.000000 1.000000 0.000000
vn 0.000000 1.000000 0.000000
vn 0.000000 1.000000 0.000000
vn 0.000000 -1.000000 0.000000
vn 0.000000 -1.000000 0.000000
vn 0.000000 -1.000000 0.000000
vn 0.000000 -1.000000 0.000000
vn 0.000000 0.000000 1.000000
vn 0.000000 0.000000 1.000000
vn 0.000000 0.000000 1.000000
vn 0.000000 0.000000 1.000000
vn -1.000000 0.000000 0.000000
vn -1.000000 0.000000 0.000000
vn -1.000000 0.000000 0.000000
vn -1.000000 0.000000 0.000000
vn 1.000000 0.000000 0.000000
vn 1.000000 0.000000 0.000000
vn 1.000000 0.000000 0.000000
vn 1.000000 0.000000 0.000000
vn 0.000000 1.000000 0.000000
vn 0.000000 1.000000 0.000000
vn 0.000000 1.000000 0.000000
vn 0.000000 1.000000 0.000000
vn 0.000000 -1.000000 0.000000
vn 0.000000 -1.000000 0.000000
vn 0.000000 -1.000000 0.000000
vn 0.000000 -1.000000 0.000000
vn 0.000000 0.000000 1.000000
vn 0.000000 0.000000 1.000000
vn 0.000000 0.000000 1.000000
vn 0.000000 0.000000 1.000000
vn -1.000000 0.000000 0.000000
vn -1.000000 0.000000 0.000000
vn -1.000000 0.000000 0.000000
vn -1.000000 0.000000 0.000000
vn 1.000000 0.000000 0.000000
vn 1.000000 0.000000 0.000000
vn 1.000000 0.000000 0.000000
vn 1.000000 0.000000 0.000000
vn 0.000000 1.000000 0.000000
vn 0.000000 1.000000 0.000000
vn 0.000000 1.000000 0.000000
vn 0.000000 1.000000 0.000000
vn 0.000000 -1.000000 0.000000
vn 0.000000 -1.000000 0.000000
vn 0.000000 -1.000000 0.000000
vn 0.000000 -1.000000 0.000000
vn 0.000000 0.000000 1.000000
vn 0.000000 0.000000 1.000000
vn 0.000000 0.000000 1.000000
vn 0.000000 0.000000 1.000000
vn -1.000000 0.000000 0.000000
vn -1.000000 0.000000 0.000000
vn -1.000000 0.000000 0.000000
vn -1.000000 0.000000 0.000000
vn 1.000000 0.000000 0.000000
vn 1.000000 0.000000 0.000000
vn 1.000000 0.000000 0.000000
vn 1.000000 0.000000 0.000000
vn 0.000000 1.000000 0.000000
vn 0.000000 1.000000 0.000000
vn 0.000000 1.000000 0.000000
vn 0.000000 1.000000 0.000000
vn 0.000000 -1.000000 0.000000
vn 0.000000 -1.000000 0.000000
vn 0.000000 -1.000000 0.000000
vn 0.000000 -1.000000 0.000000
vn 0.000000 0.000000 1.000000
vn 0.000000 0.000000 1.000000
vn 0.000000 0.000000 1.000000
vn 0.000000 0.000000 1.000000
vn -1.000000 0.000000 0.000000
vn -1.000000 0.000000 0.000000
vn -1.000000 0.000000 0.000000
vn -1.000000 0.000000 0.000000
vn 1.000000 0.000000 0.000000
vn 1.000000 0.000000 0.000000
vn 1.000000 0.000000 0.000000
vn 1.000000 0.000000 0.000000
vn 0.000000 1.000000 0.000000
vn 0.000000 1.000000 0.000000
vn 0.000000 1.000000 0.000000
vn 0.000000 1.000000 0.000000
vn 0.000000 -1.000000 0.000000
vn 0.000000 -1.000000 0.000000
vn 0.000000 -1.000000 0.000000
vn 0.000000 -1.000000 0.000000
s off
g shelves4
usemtl blinn2SG
f 1/1/1 2/2/2 4/4/3 3/3/4
f 3/3/5 4/4/6 6/6/7 5/5/8
f 2/2/9 8/7/10 6/8/11 4/4/12
f 7/9/13 1/1/14 3/3/15 5/10/16
f 9/11/17 10/12/18 12/13/19 11/14/20
f 11/14/21 12/13/22 14/15/23 13/16/24
f 10/12/25 16/17/26 14/18/27 12/13/28
f 15/19/29 9/11/30 11/14/31 13/20/32
f 19/21/33 20/22/34 18/23/35 17/24/36
f 21/25/37 22/26/38 24/27/39 23/28/40
f 23/28/41 24/27/42 26/29/43 25/30/44
f 27/32/45 28/31/46 22/33/47 21/34/48
f 22/26/49 28/35/50 26/36/51 24/27/52
f 27/37/53 21/25/54 23/28/55 25/38/56
f 29/39/57 30/40/58 32/41/59 31/42/60
f 31/42/61 32/41/62 34/43/63 33/44/64
f 35/46/65 36/45/66 30/47/67 29/48/68
f 30/40/69 36/49/70 34/50/71 32/41/72
f 35/51/73 29/39/74 31/42/75 33/52/76
f 37/53/77 38/54/78 40/55/79 39/56/80
f 39/56/81 40/55/82 42/57/83 41/58/84
f 43/60/85 44/59/86 38/61/87 37/62/88
f 38/54/89 44/63/90 42/64/91 40/55/92
f 43/65/93 37/53/94 39/56/95 41/66/96
f 45/67/97 46/68/98 48/69/99 47/70/100
f 47/70/101 48/69/102 50/71/103 49/72/104
f 51/74/105 52/73/106 46/75/107 45/76/108
f 46/68/109 52/77/110 50/78/111 48/69/112
f 51/79/113 45/67/114 47/70/115 49/80/116
f 53/81/117 54/82/118 56/83/119 55/84/120
f 55/84/121 56/83/122 58/85/123 57/86/124
f 59/88/125 60/87/126 54/89/127 53/90/128
f 54/82/129 60/91/130 58/92/131 56/83/132
f 59/93/133 53/81/134 55/84/135 57/94/136
f 61/95/137 62/96/138 64/97/139 63/98/140
f 63/98/141 64/97/142 66/99/143 65/100/144
f 67/102/145 68/101/146 62/103/147 61/104/148
f 62/96/149 68/105/150 66/106/151 64/97/152
f 67/107/153 61/95/154 63/98/155 65/108/156
