# This file uses centimeters as units for non-parametric coordinates.

mtllib shelve.mtl
g default
v -0.767766 0.259727 0.137648
v -0.766702 0.257159 0.137648
v -0.764135 0.256096 0.137648
v -0.764135 0.257159 0.140216
v -0.764135 0.259727 0.141279
v -0.766702 0.259727 0.140216
v 0.764135 0.256096 0.137648
v 0.766702 0.257159 0.137648
v 0.767766 0.259727 0.137648
v 0.766702 0.259727 0.140216
v 0.764135 0.259727 0.141279
v 0.764135 0.257159 0.140216
v -0.764135 0.299445 0.137648
v -0.766702 0.298382 0.137648
v -0.767766 0.295814 0.137648
v -0.766702 0.295814 0.140216
v -0.764135 0.295814 0.141279
v -0.764135 0.298382 0.140216
v 0.767766 0.295814 0.137648
v 0.766702 0.298382 0.137648
v 0.764135 0.299445 0.137648
v 0.764135 0.298382 0.140216
v 0.764135 0.295814 0.141279
v 0.766702 0.295814 0.140216
v -0.767766 0.295814 -0.141279
v -0.766702 0.298382 -0.141279
v -0.764135 0.299445 -0.141279
v 0.764135 0.299445 -0.141279
v 0.766702 0.298382 -0.141279
v 0.767766 0.295814 -0.141279
v -0.764135 0.256096 -0.141279
v -0.766702 0.257159 -0.141279
v -0.767766 0.259727 -0.141279
v 0.767766 0.259727 -0.141279
v 0.766702 0.257159 -0.141279
v 0.764135 0.256096 -0.141279
v -0.766202 0.257661 0.139714
v 0.766202 0.257661 0.139714
v -0.766202 0.297880 0.139714
v 0.766202 0.297880 0.139714
v -0.682060 0.280848 -0.141279
v -0.638711 0.280848 -0.141279
v -0.682060 0.230662 -0.141279
v -0.638711 0.230662 -0.141279
v -0.639737 0.090389 -0.084430
v -0.638711 0.092921 -0.085241
v -0.642342 0.089290 -0.084079
v -0.642342 0.230662 0.114121
v -0.639435 0.230662 0.112268
v -0.638711 0.230662 0.108896
v -0.682060 0.092921 -0.085241
v -0.681034 0.090389 -0.084430
v -0.678429 0.089290 -0.084079
v -0.678429 0.230662 0.114121
v -0.681336 0.230662 0.112268
v -0.682060 0.230662 0.108896
v -0.678429 0.089290 -0.141279
v -0.680997 0.090354 -0.141279
v -0.682060 0.092921 -0.141279
v -0.638711 0.092921 -0.141279
v -0.639774 0.090354 -0.141279
v -0.642342 0.089290 -0.141279
v -0.682060 0.280848 0.110490
v -0.680997 0.280848 0.113058
v -0.678429 0.280848 0.114121
v -0.642342 0.280848 0.114121
v -0.639774 0.280848 0.113058
v -0.638711 0.280848 0.110490
v 0.656835 0.280848 -0.141279
v 0.700184 0.280848 -0.141279
v 0.656835 0.230662 -0.141279
v 0.700184 0.230662 -0.141279
v 0.699158 0.090389 -0.084430
v 0.700184 0.092921 -0.085241
v 0.696552 0.089290 -0.084079
v 0.696552 0.230662 0.114121
v 0.699460 0.230662 0.112268
v 0.700184 0.230662 0.108896
v 0.656835 0.092921 -0.085241
v 0.657861 0.090389 -0.084430
v 0.660466 0.089290 -0.084079
v 0.660466 0.230662 0.114121
v 0.657558 0.230662 0.112268
v 0.656835 0.230662 0.108896
v 0.660466 0.089290 -0.141279
v 0.657898 0.090354 -0.141279
v 0.656835 0.092921 -0.141279
v 0.700184 0.092921 -0.141279
v 0.699120 0.090354 -0.141279
v 0.696552 0.089290 -0.141279
v 0.656835 0.280848 0.110490
v 0.657898 0.280848 0.113058
v 0.660466 0.280848 0.114121
v 0.696552 0.280848 0.114121
v 0.699120 0.280848 0.113058
v 0.700184 0.280848 0.110490
vt 0.375591 0.750000
vt 0.125000 0.229060
vt 0.875000 0.020940
vt 0.624409 0.500000
vt 0.375173 0.996787
vt 0.125000 0.020940
vt 0.125000 0.006134
vt 0.375591 0.006134
vt 0.624409 0.999059
vt 0.371787 0.020940
vt 0.374059 0.020940
vt 0.375173 0.229060
vt 0.628213 0.006134
vt 0.875000 0.006134
vt 0.624409 0.020940
vt 0.624827 0.020940
vt 0.625941 0.229060
vt 0.371787 0.229060
vt 0.371787 0.243866
vt 0.125000 0.243866
vt 0.375591 0.253213
vt 0.375591 0.250941
vt 0.624409 0.229060
vt 0.624409 0.243866
vt 0.624409 0.253213
vt 0.624827 0.253213
vt 0.875000 0.229060
vt 0.875000 0.243866
vt 0.375173 0.500000
vt 0.375591 0.500000
vt 0.624827 0.500000
vt 0.375173 0.750000
vt 0.624827 0.750000
vt 0.624409 0.750000
vt 0.371787 0.006134
vt 0.373615 0.009025
vt 0.375591 0.996787
vt 0.375591 0.999059
vt 0.375255 0.998615
vt 0.375591 0.020940
vt 0.375173 0.020940
vt 0.375255 0.009025
vt 0.624409 0.996787
vt 0.624827 0.996787
vt 0.624745 0.998615
vt 0.628213 0.020940
vt 0.625941 0.020940
vt 0.626385 0.009025
vt 0.624409 0.006134
vt 0.624745 0.009025
vt 0.375173 0.253213
vt 0.375255 0.251385
vt 0.374059 0.229060
vt 0.373615 0.240976
vt 0.375591 0.229060
vt 0.375591 0.243866
vt 0.375255 0.240976
vt 0.628213 0.229060
vt 0.628213 0.243866
vt 0.626385 0.240976
vt 0.624409 0.250941
vt 0.624745 0.251385
vt 0.624827 0.229060
vt 0.624745 0.240976
vt 0.375000 0.020941
vt 0.559502 0.020941
vt 0.559502 0.229060
vt 0.374999 0.229060
vt 0.379738 0.499999
vt 0.379738 0.256120
vt 0.559502 0.255114
vt 0.559502 0.500000
vt 0.559502 0.994886
vt 0.379739 0.993880
vt 0.379738 0.750001
vt 0.559502 0.750000
vt 0.125001 0.020941
vt 0.125001 0.229060
vt 0.625000 0.253554
vt 0.625000 0.500000
vt 0.625000 0.996446
vt 0.625000 0.750000
vt 0.625000 0.229060
vt 0.625000 0.020941
vt 0.376434 0.998147
vt 0.376388 0.750001
vt 0.373463 0.005917
vt 0.125001 0.006135
vt 0.375479 0.005917
vt 0.558567 0.004172
vt 0.559502 0.998186
vt 0.559502 0.004172
vt 0.625000 0.006135
vt 0.625000 0.998959
vt 0.373463 0.244084
vt 0.125001 0.243868
vt 0.376434 0.251853
vt 0.376388 0.499999
vt 0.559502 0.251815
vt 0.375479 0.244084
vt 0.558567 0.245829
vt 0.625000 0.251041
vt 0.559502 0.245829
vt 0.625000 0.243868
vt 0.625000 0.250000
vt 0.625000 1.000000
vt 0.375000 0.020941
vt 0.559502 0.020941
vt 0.559502 0.229060
vt 0.374999 0.229060
vt 0.379738 0.499999
vt 0.379738 0.256120
vt 0.559502 0.255114
vt 0.559502 0.500000
vt 0.559502 0.994886
vt 0.379739 0.993880
vt 0.379738 0.750001
vt 0.559502 0.750000
vt 0.125001 0.020941
vt 0.125001 0.229060
vt 0.625000 0.253554
vt 0.625000 0.500000
vt 0.625000 0.996446
vt 0.625000 0.750000
vt 0.625000 0.229060
vt 0.625000 0.020941
vt 0.376434 0.998147
vt 0.376388 0.750001
vt 0.373463 0.005917
vt 0.125001 0.006135
vt 0.375479 0.005917
vt 0.558567 0.004172
vt 0.559502 0.998186
vt 0.559502 0.004172
vt 0.625000 0.006135
vt 0.625000 0.998959
vt 0.373463 0.244084
vt 0.125001 0.243868
vt 0.376434 0.251853
vt 0.376388 0.499999
vt 0.559502 0.251815
vt 0.375479 0.244084
vt 0.558567 0.245829
vt 0.625000 0.251041
vt 0.559502 0.245829
vt 0.625000 0.243868
vt 0.625000 0.250000
vt 0.625000 1.000000
vn 0.000695 -1.000000 0.000000
vn 0.000693 -0.999993 0.003776
vn -0.000693 -0.999993 0.003776
vn -0.000695 -1.000000 0.000000
vn 0.000679 -0.027487 0.999622
vn 0.000679 0.027487 0.999622
vn -0.000679 0.027487 0.999622
vn -0.000679 -0.027487 0.999622
vn -0.999622 -0.027513 0.000000
vn -0.999617 -0.027433 0.003695
vn -0.999617 0.027433 0.003695
vn -0.999622 0.027513 0.000000
vn 0.999622 0.027513 0.000000
vn 0.999617 0.027433 0.003695
vn 0.999617 -0.027433 0.003695
vn 0.999622 -0.027513 0.000000
vn -0.000695 1.000000 0.000000
vn -0.000693 0.999993 0.003776
vn 0.000693 0.999993 0.003776
vn 0.000695 1.000000 0.000000
vn -0.382497 -0.923954 0.002370
vn -0.382689 -0.923877 0.000000
vn -0.923905 -0.382615 0.002369
vn -0.923829 -0.382806 0.000000
vn -0.000435 -0.382650 0.923893
vn 0.000435 -0.382650 0.923893
vn -0.000435 -0.923892 0.382652
vn 0.000435 -0.923892 0.382652
vn -0.924243 -0.017524 0.381403
vn -0.924242 0.017526 0.381404
vn -0.381338 -0.017531 0.924269
vn -0.381337 0.017531 0.924270
vn 0.923905 -0.382614 0.002369
vn 0.923829 -0.382806 0.000000
vn 0.382497 -0.923954 0.002371
vn 0.382689 -0.923877 0.000000
vn 0.381336 -0.017531 0.924270
vn 0.381339 0.017531 0.924269
vn 0.924243 -0.017518 0.381403
vn 0.924242 0.017520 0.381404
vn -0.923905 0.382615 0.002369
vn -0.923829 0.382806 0.000000
vn -0.382497 0.923954 0.002371
vn -0.382689 0.923877 0.000000
vn -0.000435 0.923892 0.382653
vn 0.000435 0.923892 0.382653
vn -0.000435 0.382650 0.923893
vn 0.000435 0.382650 0.923893
vn 0.382497 0.923954 0.002371
vn 0.382689 0.923877 0.000000
vn 0.923905 0.382614 0.002369
vn 0.923829 0.382806 0.000000
vn -0.881548 -0.333847 0.333796
vn -0.333794 -0.881569 0.333794
vn -0.333946 -0.333743 0.881531
vn 0.333758 -0.881596 0.333758
vn 0.881583 -0.333739 0.333810
vn 0.333907 -0.333744 0.881545
vn -0.333777 0.881566 0.333818
vn -0.881527 0.333880 0.333819
vn -0.333919 0.333756 0.881536
vn 0.881562 0.333771 0.333832
vn 0.333740 0.881590 0.333791
vn 0.333958 0.333755 0.881521
vn 0.025840 -0.813864 0.580481
vn 0.020268 -0.813964 0.580561
vn -0.020268 -0.813963 0.580564
vn -0.025841 -0.813861 0.580485
vn -0.999996 -0.002777 -0.000001
vn -0.999961 -0.007841 0.004133
vn -0.999337 -0.029708 0.021071
vn -1.000000 0.000000 0.000000
vn 0.999336 -0.029707 0.021076
vn 0.999961 -0.007840 0.004135
vn 0.999996 -0.002776 -0.000001
vn 1.000000 0.000000 0.000000
vn 0.027870 -0.999612 0.000012
vn 0.025812 -0.999667 0.000011
vn -0.025813 -0.999667 0.000011
vn -0.027871 -0.999612 0.000012
vn -0.999994 -0.000042 0.003381
vn -0.999993 -0.000046 0.003655
vn -1.000000 0.000000 0.000000
vn -1.000000 0.000000 0.000000
vn 0.999993 -0.000055 0.003657
vn 0.999994 -0.000052 0.003382
vn 1.000000 -0.000010 0.000000
vn 1.000000 -0.000010 0.000000
vn -0.037544 -0.000428 0.999295
vn -0.037544 -0.000428 0.999295
vn 0.037544 -0.000427 0.999295
vn 0.037544 -0.000427 0.999295
vn 0.925403 -0.378985 -0.000188
vn 0.925403 -0.378985 -0.000188
vn 0.385642 -0.922648 0.000161
vn 0.385642 -0.922648 0.000161
vn 0.366959 -0.757565 0.539849
vn 0.366959 -0.757565 0.539849
vn 0.931657 -0.296338 0.210238
vn 0.931657 -0.296338 0.210238
vn 0.470197 -0.005351 0.882545
vn 0.470197 -0.005351 0.882545
vn 0.957573 -0.003599 0.288168
vn 0.957573 -0.003599 0.288168
vn -0.385781 -0.922590 0.000163
vn -0.385781 -0.922590 0.000163
vn -0.925333 -0.379156 -0.000184
vn -0.925333 -0.379156 -0.000184
vn -0.931668 -0.296341 0.210182
vn -0.931668 -0.296341 0.210182
vn -0.367017 -0.757510 0.539886
vn -0.367017 -0.757510 0.539886
vn -0.957616 -0.003602 0.288025
vn -0.957616 -0.003602 0.288025
vn -0.470197 -0.005357 0.882545
vn -0.470197 -0.005357 0.882545
vn 0.000000 1.000000 0.000000
vn 0.000000 1.000000 0.000000
vn 0.000000 1.000000 0.000000
vn 0.000000 1.000000 0.000000
vn 0.000000 1.000000 0.000000
vn 0.000000 1.000000 0.000000
vn 0.025839 -0.813864 0.580481
vn 0.020267 -0.813965 0.580560
vn -0.020268 -0.813963 0.580563
vn -0.025840 -0.813861 0.580485
vn -0.999996 -0.002776 -0.000001
vn -0.999961 -0.007844 0.004134
vn -0.999336 -0.029730 0.021071
vn -1.000000 0.000000 0.000000
vn 0.999336 -0.029730 0.021076
vn 0.999961 -0.007845 0.004135
vn 0.999996 -0.002777 -0.000001
vn 1.000000 0.000000 0.000000
vn 0.027870 -0.999611 0.000012
vn 0.025813 -0.999667 0.000011
vn -0.025812 -0.999667 0.000011
vn -0.027870 -0.999611 0.000012
vn -0.999994 -0.000042 0.003381
vn -0.999993 -0.000046 0.003655
vn -1.000000 0.000000 0.000000
vn -1.000000 0.000000 0.000000
vn 0.999993 -0.000055 0.003657
vn 0.999994 -0.000052 0.003382
vn 1.000000 -0.000010 0.000000
vn 1.000000 -0.000010 0.000000
vn -0.037544 -0.000428 0.999295
vn -0.037544 -0.000428 0.999295
vn 0.037544 -0.000427 0.999295
vn 0.037544 -0.000427 0.999295
vn 0.925332 -0.379157 -0.000188
vn 0.925332 -0.379157 -0.000188
vn 0.385712 -0.922619 0.000161
vn 0.385712 -0.922619 0.000161
vn 0.366983 -0.757528 0.539884
vn 0.366983 -0.757528 0.539884
vn 0.931597 -0.296535 0.210225
vn 0.931597 -0.296535 0.210225
vn 0.470197 -0.005354 0.882545
vn 0.470197 -0.005354 0.882545
vn 0.957573 -0.003601 0.288168
vn 0.957573 -0.003601 0.288168
vn -0.385712 -0.922619 0.000163
vn -0.385712 -0.922619 0.000163
vn -0.925403 -0.378984 -0.000184
vn -0.925403 -0.378984 -0.000184
vn -0.931608 -0.296539 0.210168
vn -0.931608 -0.296539 0.210168
vn -0.367041 -0.757473 0.539921
vn -0.367041 -0.757473 0.539921
vn -0.957616 -0.003602 0.288025
vn -0.957616 -0.003602 0.288025
vn -0.470197 -0.005360 0.882545
vn -0.470197 -0.005360 0.882545
vn 0.000000 1.000000 0.000000
vn 0.000000 1.000000 0.000000
vn 0.000000 1.000000 0.000000
vn 0.000000 1.000000 0.000000
vn 0.000000 1.000000 0.000000
vn 0.000000 1.000000 0.000000
s 1
g shelve
usemtl blinn2SG
f 36/34/1 7/43/2 3/37/3 31/1/4
s 2
f 11/15/5 23/23/6 17/55/7 5/40/8
s 3
f 33/6/9 1/10/10 15/18/11 25/2/12
s 4
f 30/27/13 19/58/14 9/46/15 34/3/16
s 5
f 27/30/17 13/21/18 21/25/19 28/4/20
s 1
f 3/37/3 2/5/21 32/32/22 31/1/4
s 3
f 2/35/23 1/10/10 33/6/9 32/7/24
s 2
f 5/40/8 4/8/25 12/49/26 11/15/5
s 1
f 4/38/27 3/37/3 7/43/2 12/9/28
s 3
f 1/10/10 6/11/29 16/53/30 15/18/11
s 2
f 6/41/31 5/40/8 17/55/7 16/12/32
s 4
f 9/46/15 8/13/33 35/14/34 34/3/16
s 1
f 8/44/35 7/43/2 36/34/1 35/33/36
s 2
f 11/15/5 10/16/37 24/63/38 23/23/6
s 4
f 10/47/39 9/46/15 19/58/14 24/17/40
s 3
f 15/18/11 14/19/41 26/20/42 25/2/12
s 5
f 14/51/43 13/21/18 27/30/17 26/29/44
f 13/21/18 18/22/45 22/61/46 21/25/19
s 2
f 18/56/47 17/55/7 23/23/6 22/24/48
s 5
f 21/25/19 20/26/49 29/31/50 28/4/20
s 4
f 20/59/51 19/58/14 30/27/13 29/28/52
s 3
f 6/11/29 1/10/10 2/35/23 37/36/53
s 1
f 2/5/21 3/37/3 4/38/27 37/39/54
s 2
f 4/8/25 5/40/8 6/41/31 37/42/55
s 1
f 12/9/28 7/43/2 8/44/35 38/45/56
s 4
f 8/13/33 9/46/15 10/47/39 38/48/57
s 2
f 10/16/37 11/15/5 12/49/26 38/50/58
s 5
f 18/22/45 13/21/18 14/51/43 39/52/59
s 3
f 14/19/41 15/18/11 16/53/30 39/54/60
s 2
f 16/12/32 17/55/7 18/56/47 39/57/61
s 4
f 24/17/40 19/58/14 20/59/51 40/60/62
s 5
f 20/26/49 21/25/19 22/61/46 40/62/63
s 2
f 22/24/48 23/23/6 24/63/38 40/64/64
s 6
usemtl blinn1SG
f 47/65/65 48/66/66 54/67/67 53/68/68
s 7
f 59/69/69 51/70/70 56/71/71 43/72/72
s 8
f 50/73/73 46/74/74 60/75/75 44/76/76
s 9
f 62/77/77 47/65/78 53/68/79 57/78/80
s 10
f 56/71/81 63/79/82 41/80/83 43/72/84
s 11
f 68/81/85 50/73/86 44/76/87 42/82/88
s 12
f 65/83/89 54/67/90 48/66/91 66/84/92
s 8
f 46/74/74 45/85/93 61/86/94 60/75/75
s 9
f 45/87/95 47/65/78 62/77/77 61/88/96
s 6
f 47/65/65 45/89/97 49/90/98 48/66/66
s 8
f 45/85/99 46/74/74 50/73/73 49/91/100
s 12
f 48/66/91 49/92/101 67/93/102 66/84/92
s 11
f 49/91/103 50/73/86 68/81/85 67/94/104
s 9
f 53/68/79 52/95/105 58/96/106 57/78/80
s 7
f 52/97/107 51/70/70 59/69/69 58/98/108
f 51/70/70 52/97/109 55/99/110 56/71/71
s 6
f 52/100/111 53/68/68 54/67/67 55/101/112
s 10
f 56/71/81 55/99/113 64/102/114 63/79/82
s 12
f 55/103/115 54/67/90 65/83/89 64/104/116
s off
f 63/79/117 64/102/118 65/105/119
f 66/106/120 67/94/121 68/81/122
s 13
f 75/107/123 76/108/124 82/109/125 81/110/126
s 14
f 87/111/127 79/112/128 84/113/129 71/114/130
s 15
f 78/115/131 74/116/132 88/117/133 72/118/134
s 16
f 90/119/135 75/107/136 81/110/137 85/120/138
s 17
f 84/113/139 91/121/140 69/122/141 71/114/142
s 18
f 96/123/143 78/115/144 72/118/145 70/124/146
s 19
f 93/125/147 82/109/148 76/108/149 94/126/150
s 15
f 74/116/132 73/127/151 89/128/152 88/117/133
s 16
f 73/129/153 75/107/136 90/119/135 89/130/154
s 13
f 75/107/123 73/131/155 77/132/156 76/108/124
s 15
f 73/127/157 74/116/132 78/115/131 77/133/158
s 19
f 76/108/149 77/134/159 95/135/160 94/126/150
s 18
f 77/133/161 78/115/144 96/123/143 95/136/162
s 16
f 81/110/137 80/137/163 86/138/164 85/120/138
s 14
f 80/139/165 79/112/128 87/111/127 86/140/166
f 79/112/128 80/139/167 83/141/168 84/113/129
s 13
f 80/142/169 81/110/126 82/109/125 83/143/170
s 17
f 84/113/139 83/141/171 92/144/172 91/121/140
s 19
f 83/145/173 82/109/148 93/125/147 92/146/174
s off
f 91/121/175 92/144/176 93/147/177
f 94/148/178 95/136/179 96/123/180
