# This file uses centimeters as units for non-parametric coordinates.

mtllib table4.mtl
g default
v -0.018158 0.549092 -0.463643
v -0.161431 0.549092 -0.440951
v -0.290680 0.549092 -0.375095
v -0.393253 0.549092 -0.272523
v -0.459109 0.549092 -0.143274
v -0.481801 0.549092 0.000000
v -0.459109 0.549092 0.143274
v -0.393253 0.549092 0.272523
v -0.290680 0.549092 0.375095
v -0.161431 0.549092 0.440951
v -0.018158 0.549092 0.463643
v -0.018158 0.549092 0.000000
v -0.018158 0.596468 0.000000
v 0.018158 0.549092 -0.463643
v 0.161432 0.549092 -0.440951
v 0.290681 0.549092 -0.375095
v 0.393253 0.549092 -0.272523
v 0.459109 0.549092 -0.143274
v 0.481801 0.549092 0.000000
v 0.459109 0.549092 0.143274
v 0.393253 0.549092 0.272523
v 0.290680 0.549092 0.375095
v 0.161431 0.549092 0.440951
v 0.018158 0.549092 0.463643
v 0.018158 0.549092 0.000000
v 0.018158 0.596468 0.000000
v -0.018158 0.590899 -0.463643
v -0.018158 0.596468 -0.458073
v -0.159710 0.596468 -0.435655
v -0.161431 0.590899 -0.440951
v -0.287407 0.596468 -0.370590
v -0.290680 0.590899 -0.375095
v -0.388748 0.596468 -0.269249
v -0.393253 0.590899 -0.272523
v -0.453812 0.596468 -0.141552
v -0.459109 0.590899 -0.143274
v -0.476232 0.596468 0.000000
v -0.481801 0.590899 0.000000
v -0.453812 0.596468 0.141553
v -0.459109 0.590899 0.143274
v -0.388747 0.596468 0.269249
v -0.393253 0.590899 0.272523
v -0.287407 0.596468 0.370590
v -0.290680 0.590899 0.375095
v -0.159710 0.596468 0.435655
v -0.161431 0.590899 0.440951
v -0.018158 0.596468 0.458073
v -0.018158 0.590899 0.463643
v 0.159711 0.596468 -0.435655
v 0.161432 0.590899 -0.440951
v 0.018158 0.596468 -0.458073
v 0.018158 0.590899 -0.463643
v 0.287407 0.596468 -0.370590
v 0.290681 0.590899 -0.375095
v 0.388748 0.596468 -0.269249
v 0.393253 0.590899 -0.272523
v 0.453812 0.596468 -0.141552
v 0.459109 0.590899 -0.143274
v 0.476232 0.596468 0.000000
v 0.481801 0.590899 0.000000
v 0.453812 0.596468 0.141553
v 0.459109 0.590899 0.143274
v 0.388748 0.596468 0.269249
v 0.393253 0.590899 0.272523
v 0.287407 0.596468 0.370590
v 0.290680 0.590899 0.375095
v 0.159711 0.596468 0.435655
v 0.161431 0.590899 0.440951
v 0.018158 0.590899 0.463643
v 0.018158 0.596468 0.458073
v -0.296549 -0.015217 0.262694
v -0.317191 -0.015217 0.262694
v -0.327512 -0.015217 0.280571
v -0.317191 -0.015217 0.298447
v -0.296549 -0.015217 0.298447
v -0.286228 -0.015217 0.280571
v -0.296549 0.585933 0.262694
v -0.317191 0.585933 0.262694
v -0.327512 0.585933 0.280571
v -0.317191 0.585933 0.298447
v -0.296549 0.585933 0.298447
v -0.286228 0.585933 0.280571
v 0.321511 -0.015217 0.262694
v 0.300869 -0.015217 0.262694
v 0.290548 -0.015217 0.280571
v 0.300869 -0.015217 0.298447
v 0.321511 -0.015217 0.298447
v 0.331832 -0.015217 0.280571
v 0.321511 0.585933 0.262694
v 0.300869 0.585933 0.262694
v 0.290548 0.585933 0.280571
v 0.300869 0.585933 0.298447
v 0.321511 0.585933 0.298447
v 0.331832 0.585933 0.280571
v 0.321511 -0.015217 -0.308847
v 0.300869 -0.015217 -0.308847
v 0.290548 -0.015217 -0.290971
v 0.300869 -0.015217 -0.273094
v 0.321511 -0.015217 -0.273094
v 0.331832 -0.015217 -0.290971
v 0.321511 0.585933 -0.308847
v 0.300869 0.585933 -0.308847
v 0.290548 0.585933 -0.290971
v 0.300869 0.585933 -0.273094
v 0.321511 0.585933 -0.273094
v 0.331832 0.585933 -0.290971
v -0.296549 -0.015217 -0.308847
v -0.317191 -0.015217 -0.308847
v -0.327512 -0.015217 -0.290971
v -0.317191 -0.015217 -0.273094
v -0.296549 -0.015217 -0.273094
v -0.286228 -0.015217 -0.290971
v -0.296549 0.585933 -0.308847
v -0.317191 0.585933 -0.308847
v -0.327512 0.585933 -0.290971
v -0.317191 0.585933 -0.273094
v -0.296549 0.585933 -0.273094
v -0.286228 0.585933 -0.290971
vt 0.500000 -0.000000
vt 0.451716 0.007647
vt 0.408159 0.029841
vt 0.373591 0.064409
vt 0.351397 0.107966
vt 0.343750 0.156250
vt 0.351397 0.204534
vt 0.373591 0.248091
vt 0.408159 0.282659
vt 0.451716 0.304853
vt 0.500000 0.312500
vt 0.500000 0.150000
vt 0.000000 0.000000
vt 1.000000 0.000000
vt 0.000000 0.000000
vt 1.000000 0.000000
vt 0.451716 0.007647
vt 0.500000 -0.000000
vt 0.500000 0.150000
vt 0.408159 0.029841
vt 0.373591 0.064409
vt 0.351397 0.107966
vt 0.343750 0.156250
vt 0.351397 0.204534
vt 0.373591 0.248091
vt 0.408159 0.282659
vt 0.451716 0.304853
vt 0.500000 0.312500
vt 0.000000 0.000000
vt 1.000000 0.000000
vt 0.000000 0.000000
vt 1.000000 0.000000
vt 0.882452 0.000000
vt 0.000000 0.000000
vt 0.000000 0.000000
vt 0.500000 0.998048
vt 0.500000 0.837500
vt 0.425000 0.312500
vt 0.425000 0.644249
vt 0.452296 0.990493
vt 0.437500 0.312500
vt 0.409262 0.968566
vt 0.450000 0.312500
vt 0.375109 0.934413
vt 0.462500 0.312500
vt 0.353182 0.891379
vt 0.475000 0.312500
vt 0.345627 0.843675
vt 0.487500 0.312500
vt 0.353182 0.795971
vt 0.500000 0.312500
vt 0.375109 0.752937
vt 0.512500 0.312500
vt 0.409262 0.718784
vt 0.525000 0.312500
vt 0.452296 0.696857
vt 0.500000 0.689302
vt 0.000000 0.000000
vt 0.987986 0.000000
vt 0.987986 0.000000
vt 0.000000 0.000000
vt 0.537500 0.312500
vt 0.550000 0.312500
vt 0.450000 0.312500
vt 0.452296 0.990493
vt 0.500000 0.998048
vt 1.000000 0.000000
vt 1.000000 0.000000
vt 0.012014 0.000000
vt 0.012014 0.000000
vt 0.425000 0.312500
vt 0.437500 0.312500
vt 0.462500 0.312500
vt 0.409262 0.968566
vt 0.475000 0.312500
vt 0.375109 0.934413
vt 0.487500 0.312500
vt 0.353182 0.891379
vt 0.500000 0.312500
vt 0.345627 0.843675
vt 0.512500 0.312500
vt 0.353182 0.795971
vt 0.525000 0.312500
vt 0.375109 0.752937
vt 0.537500 0.312500
vt 0.409262 0.718784
vt 0.550000 0.644249
vt 0.550000 0.312500
vt 0.452296 0.696857
vt 0.117544 0.000000
vt 1.000000 0.000000
vt 1.000000 0.000000
vt 0.500000 0.689302
vt 0.500000 0.837500
vt 0.882452 0.000000
vt 1.000000 0.000000
vt 1.000000 0.000000
vt 0.425075 0.688440
vt 0.437500 0.644249
vt 0.437425 0.688440
vt 0.437575 0.688440
vt 0.450000 0.644249
vt 0.449925 0.688440
vt 0.450075 0.688440
vt 0.462500 0.644249
vt 0.462425 0.688440
vt 0.462575 0.688440
vt 0.475000 0.644249
vt 0.474925 0.688440
vt 0.475075 0.688440
vt 0.487500 0.644249
vt 0.487425 0.688440
vt 0.487575 0.688440
vt 0.500000 0.644249
vt 0.499925 0.688440
vt 0.500075 0.688440
vt 0.512500 0.644249
vt 0.512425 0.688440
vt 0.512575 0.688440
vt 0.525000 0.644249
vt 0.524925 0.688440
vt 0.525075 0.688440
vt 0.537500 0.644249
vt 0.537425 0.688440
vt 0.537575 0.688440
vt 0.550000 0.644249
vt 0.549925 0.688440
vt 0.000000 0.000000
vt 0.117548 0.000000
vt 0.000000 0.000000
vt 0.437500 0.644249
vt 0.437575 0.688440
vt 0.449925 0.688440
vt 0.437425 0.688440
vt 0.425000 0.644249
vt 0.425075 0.688440
vt 0.450000 0.644249
vt 0.450075 0.688440
vt 0.462425 0.688440
vt 0.462500 0.644249
vt 0.462575 0.688440
vt 0.474925 0.688440
vt 0.475000 0.644249
vt 0.475075 0.688440
vt 0.487425 0.688440
vt 0.487500 0.644249
vt 0.487575 0.688440
vt 0.499925 0.688440
vt 0.500000 0.644249
vt 0.500075 0.688440
vt 0.512425 0.688440
vt 0.512500 0.644249
vt 0.512575 0.688440
vt 0.524925 0.688440
vt 0.525000 0.644249
vt 0.525075 0.688440
vt 0.537425 0.688440
vt 0.537500 0.644249
vt 0.537575 0.688440
vt 0.549925 0.688440
vt 0.375000 0.312500
vt 0.416667 0.312500
vt 0.416667 0.688440
vt 0.375000 0.688440
vt 0.458333 0.312500
vt 0.458333 0.688440
vt 0.500000 0.312500
vt 0.500000 0.688440
vt 0.541667 0.312500
vt 0.541667 0.688440
vt 0.583333 0.312500
vt 0.583333 0.688440
vt 0.625000 0.312500
vt 0.625000 0.688440
vt 0.375000 0.312500
vt 0.416667 0.312500
vt 0.416667 0.688440
vt 0.375000 0.688440
vt 0.458333 0.312500
vt 0.458333 0.688440
vt 0.500000 0.312500
vt 0.500000 0.688440
vt 0.541667 0.312500
vt 0.541667 0.688440
vt 0.583333 0.312500
vt 0.583333 0.688440
vt 0.625000 0.312500
vt 0.625000 0.688440
vt 0.375000 0.312500
vt 0.416667 0.312500
vt 0.416667 0.688440
vt 0.375000 0.688440
vt 0.458333 0.312500
vt 0.458333 0.688440
vt 0.500000 0.312500
vt 0.500000 0.688440
vt 0.541667 0.312500
vt 0.541667 0.688440
vt 0.583333 0.312500
vt 0.583333 0.688440
vt 0.625000 0.312500
vt 0.625000 0.688440
vt 0.375000 0.312500
vt 0.416667 0.312500
vt 0.416667 0.688440
vt 0.375000 0.688440
vt 0.458333 0.312500
vt 0.458333 0.688440
vt 0.500000 0.312500
vt 0.500000 0.688440
vt 0.541667 0.312500
vt 0.541667 0.688440
vt 0.583333 0.312500
vt 0.583333 0.688440
vt 0.625000 0.312500
vt 0.625000 0.688440
vn -0.125360 0.000000 -0.992111
vn -0.309017 0.000000 -0.951056
vn -0.309017 0.000000 -0.951056
vn -0.125360 0.000000 -0.992111
vn -0.587785 0.000000 -0.809017
vn -0.587785 0.000000 -0.809017
vn -0.809017 0.000000 -0.587785
vn -0.809017 0.000000 -0.587785
vn -0.951057 0.000000 -0.309017
vn -0.951057 0.000000 -0.309017
vn -1.000000 0.000000 0.000000
vn -1.000000 0.000000 0.000000
vn -0.951056 0.000000 0.309018
vn -0.951056 0.000000 0.309018
vn -0.809017 0.000000 0.587785
vn -0.809017 0.000000 0.587785
vn -0.587785 0.000000 0.809017
vn -0.587785 0.000000 0.809017
vn -0.309017 0.000000 0.951056
vn -0.309017 0.000000 0.951056
vn -0.125361 0.000000 0.992111
vn -0.125361 0.000000 0.992111
vn 0.000000 -1.000000 0.000000
vn 0.000000 -1.000000 0.000000
vn 0.000000 -1.000000 0.000000
vn 0.000000 -1.000000 0.000000
vn 0.000000 -1.000000 0.000000
vn 0.000000 -1.000000 0.000000
vn 0.000000 -1.000000 0.000000
vn 0.000000 -1.000000 -0.000000
vn 0.000000 -1.000000 0.000000
vn 0.000000 -1.000000 0.000000
vn 0.000000 -1.000000 0.000000
vn 0.000000 -1.000000 0.000000
vn 0.000000 1.000000 -0.000000
vn 0.000000 1.000000 -0.000000
vn 0.000000 1.000000 0.000000
vn 0.000000 1.000000 -0.000000
vn 0.000000 1.000000 0.000000
vn 0.000000 1.000000 0.000000
vn 0.000000 1.000000 -0.000000
vn 0.000000 1.000000 -0.000000
vn 0.000000 1.000000 -0.000000
vn 0.000000 1.000000 -0.000000
vn 0.000000 1.000000 -0.000000
vn 0.000000 1.000000 -0.000000
vn 0.125361 0.000000 0.992111
vn 0.125361 0.000000 0.992111
vn 0.000000 -1.000000 -0.000000
vn 0.000000 -1.000000 0.000000
vn 0.000000 1.000000 -0.000000
vn 0.000000 1.000000 0.000000
vn 0.125360 0.000000 -0.992111
vn 0.125360 0.000000 -0.992111
vn 0.309017 0.000000 -0.951057
vn 0.309017 0.000000 -0.951057
vn 0.587785 0.000000 -0.809017
vn 0.587785 0.000000 -0.809017
vn 0.809017 0.000000 -0.587785
vn 0.809017 0.000000 -0.587785
vn 0.951057 0.000000 -0.309017
vn 0.951057 0.000000 -0.309017
vn 1.000000 0.000000 0.000000
vn 1.000000 0.000000 0.000000
vn 0.951057 0.000000 0.309017
vn 0.951057 0.000000 0.309017
vn 0.809017 0.000000 0.587785
vn 0.809017 0.000000 0.587785
vn 0.587786 0.000000 0.809017
vn 0.587786 0.000000 0.809017
vn 0.309018 0.000000 0.951056
vn 0.309018 0.000000 0.951056
vn 0.000000 -1.000000 0.000000
vn 0.000000 -1.000000 0.000000
vn 0.000000 -1.000000 0.000000
vn 0.000000 -1.000000 -0.000000
vn 0.000000 -1.000000 -0.000000
vn 0.000000 -1.000000 -0.000000
vn 0.000000 -1.000000 0.000000
vn 0.000000 -1.000000 -0.000000
vn 0.000000 -1.000000 0.000000
vn 0.000000 -1.000000 0.000000
vn 0.000000 1.000000 -0.000000
vn 0.000000 1.000000 -0.000000
vn 0.000000 1.000000 -0.000000
vn 0.000000 1.000000 -0.000000
vn 0.000000 1.000000 0.000000
vn 0.000000 1.000000 0.000000
vn 0.000000 1.000000 -0.000000
vn 0.000000 1.000000 -0.000000
vn 0.000000 1.000000 -0.000000
vn 0.000000 1.000000 -0.000000
vn -0.087537 0.704441 -0.704344
vn -0.090074 0.704280 -0.704185
vn 0.090074 0.704280 -0.704185
vn 0.087537 0.704441 -0.704344
vn -0.218502 0.707120 -0.672487
vn -0.218501 0.707120 -0.672487
vn -0.415630 0.707101 -0.572066
vn -0.415629 0.707101 -0.572067
vn -0.572056 0.707113 -0.415624
vn -0.572057 0.707113 -0.415623
vn -0.672495 0.707109 -0.218511
vn -0.672497 0.707109 -0.218506
vn -0.707118 0.707096 0.000001
vn -0.707118 0.707096 0.000001
vn -0.672509 0.707096 0.218510
vn -0.672508 0.707096 0.218514
vn -0.572069 0.707100 0.415629
vn -0.572069 0.707100 0.415628
vn -0.415631 0.707103 0.572063
vn -0.415630 0.707103 0.572064
vn -0.218499 0.707126 0.672481
vn -0.218498 0.707126 0.672481
vn -0.087537 0.704440 0.704345
vn -0.090074 0.704279 0.704186
vn 0.087537 0.704435 0.704349
vn 0.090074 0.704274 0.704191
vn 0.218500 0.707125 -0.672482
vn 0.218503 0.707125 -0.672481
vn 0.415630 0.707104 -0.572062
vn 0.415631 0.707104 -0.572061
vn 0.572073 0.707096 -0.415629
vn 0.572072 0.707096 -0.415630
vn 0.672510 0.707095 -0.218510
vn 0.672509 0.707095 -0.218515
vn 0.707118 0.707096 0.000000
vn 0.707118 0.707096 0.000000
vn 0.672508 0.707096 0.218514
vn 0.672509 0.707096 0.218511
vn 0.572066 0.707102 0.415628
vn 0.572065 0.707102 0.415629
vn 0.415630 0.707103 0.572064
vn 0.415631 0.707103 0.572063
vn 0.218502 0.707122 0.672485
vn 0.218499 0.707122 0.672486
vn 0.500006 0.000000 -0.866022
vn -0.500006 0.000000 -0.866022
vn -0.500006 0.000000 -0.866022
vn 0.500006 0.000000 -0.866022
vn -1.000000 0.000000 0.000000
vn -1.000000 0.000000 0.000000
vn -0.500006 0.000000 0.866022
vn -0.500006 0.000000 0.866022
vn 0.500006 0.000000 0.866022
vn 0.500006 0.000000 0.866022
vn 1.000000 0.000000 0.000000
vn 1.000000 0.000000 0.000000
vn 0.500006 0.000000 -0.866022
vn -0.500006 0.000000 -0.866022
vn -0.500006 0.000000 -0.866022
vn 0.500006 0.000000 -0.866022
vn -1.000000 0.000000 0.000000
vn -1.000000 0.000000 0.000000
vn -0.500006 0.000000 0.866022
vn -0.500006 0.000000 0.866022
vn 0.500006 0.000000 0.866022
vn 0.500006 0.000000 0.866022
vn 1.000000 0.000000 0.000000
vn 1.000000 0.000000 0.000000
vn 0.499997 0.000000 -0.866027
vn -0.499997 0.000000 -0.866027
vn -0.499997 0.000000 -0.866027
vn 0.499997 0.000000 -0.866027
vn -1.000000 0.000000 0.000000
vn -1.000000 0.000000 0.000000
vn -0.499997 0.000000 0.866027
vn -0.499997 0.000000 0.866027
vn 0.499997 0.000000 0.866027
vn 0.499997 0.000000 0.866027
vn 1.000000 0.000000 0.000000
vn 1.000000 0.000000 0.000000
vn 0.499997 0.000000 -0.866027
vn -0.499997 0.000000 -0.866027
vn -0.499997 0.000000 -0.866027
vn 0.499997 0.000000 -0.866027
vn -1.000000 0.000000 0.000000
vn -1.000000 0.000000 0.000000
vn -0.499997 0.000000 0.866027
vn -0.499997 0.000000 0.866027
vn 0.499997 0.000000 0.866027
vn 0.499997 0.000000 0.866027
vn 1.000000 0.000000 0.000000
vn 1.000000 0.000000 0.000000
s 1
g table4
usemtl blinn2SG
f 1/38/1 2/41/2 30/99/3 27/39/4
f 2/41/2 3/43/5 32/102/6 30/99/3
f 3/43/5 4/45/7 34/105/8 32/102/6
f 4/45/7 5/47/9 36/108/10 34/105/8
f 5/47/9 6/49/11 38/111/12 36/108/10
f 6/49/11 7/51/13 40/114/14 38/111/12
f 7/51/13 8/53/15 42/117/16 40/114/14
f 8/53/15 9/55/17 44/120/18 42/117/16
f 9/55/17 10/62/19 46/123/20 44/120/18
f 10/62/19 11/63/21 48/126/22 46/123/20
s 2
f 2/2/23 1/1/24 12/12/25
f 3/3/26 2/2/23 12/12/25
f 4/4/27 3/3/26 12/12/25
f 5/5/28 4/4/27 12/12/25
f 6/6/29 5/5/28 12/12/25
f 7/7/30 6/6/29 12/12/25
f 8/8/31 7/7/30 12/12/25
f 9/9/32 8/8/31 12/12/25
f 10/10/33 9/9/32 12/12/25
f 11/11/34 10/10/33 12/12/25
s 3
f 28/36/35 29/40/36 13/37/37
f 29/40/36 31/42/38 13/37/37
f 31/42/38 33/44/39 13/37/37
f 33/44/39 35/46/40 13/37/37
f 35/46/40 37/48/41 13/37/37
f 37/48/41 39/50/42 13/37/37
f 39/50/42 41/52/43 13/37/37
f 41/52/43 43/54/44 13/37/37
f 43/54/44 45/56/45 13/37/37
f 45/56/45 47/57/46 13/37/37
s 1
f 69/129/47 48/90/22 11/91/21 24/92/48
s 2
f 11/15/34 12/16/25 25/32/49 24/31/50
s 3
f 13/58/37 47/59/46 70/60/51 26/61/52
s 1
f 14/71/53 52/135/54 50/131/55 15/72/56
f 15/72/56 50/131/55 54/137/57 16/64/58
f 16/64/58 54/137/57 56/140/59 17/73/60
f 17/73/60 56/140/59 58/143/61 18/75/62
f 18/75/62 58/143/61 60/146/63 19/77/64
f 19/77/64 60/146/63 62/149/65 20/79/66
f 20/79/66 62/149/65 64/152/67 21/81/68
f 21/81/68 64/152/67 66/155/69 22/83/70
f 22/83/70 66/155/69 68/158/71 23/85/72
f 23/85/72 68/158/71 69/87/47 24/88/48
s 2
f 15/17/73 25/19/49 14/18/74
f 16/20/75 25/19/49 15/17/73
f 17/21/76 25/19/49 16/20/75
f 18/22/77 25/19/49 17/21/76
f 19/23/78 25/19/49 18/22/77
f 20/24/79 25/19/49 19/23/78
f 21/25/80 25/19/49 20/24/79
f 22/26/81 25/19/49 21/25/80
f 23/27/82 25/19/49 22/26/81
f 24/28/50 25/19/49 23/27/82
s 3
f 49/65/83 51/66/84 26/94/52
f 53/74/85 49/65/83 26/94/52
f 55/76/86 53/74/85 26/94/52
f 57/78/87 55/76/86 26/94/52
f 59/80/88 57/78/87 26/94/52
f 61/82/89 59/80/88 26/94/52
f 63/84/90 61/82/89 26/94/52
f 65/86/91 63/84/90 26/94/52
f 67/89/92 65/86/91 26/94/52
f 70/93/51 67/89/92 26/94/52
s 1
f 27/95/4 52/33/54 14/34/53 1/35/1
s 2
f 1/14/24 14/30/74 25/29/49 12/13/25
s 3
f 13/67/37 26/68/52 51/69/84 28/70/35
s 5
f 27/95/93 28/96/94 51/97/95 52/33/96
f 28/98/94 27/39/93 30/99/97 29/100/98
f 29/101/98 30/99/97 32/102/99 31/103/100
f 31/104/100 32/102/99 34/105/101 33/106/102
f 33/107/102 34/105/101 36/108/103 35/109/104
f 35/110/104 36/108/103 38/111/105 37/112/106
f 37/113/106 38/111/105 40/114/107 39/115/108
f 39/116/108 40/114/107 42/117/109 41/118/110
f 41/119/110 42/117/109 44/120/111 43/121/112
f 43/122/112 44/120/111 46/123/113 45/124/114
f 45/125/114 46/123/113 48/126/115 47/127/116
f 47/128/116 48/90/115 69/129/117 70/130/118
f 50/131/119 49/132/120 53/133/121 54/137/122
f 49/134/120 50/131/119 52/135/96 51/136/95
f 54/137/122 53/138/121 55/139/123 56/140/124
f 56/140/124 55/141/123 57/142/125 58/143/126
f 58/143/126 57/144/125 59/145/127 60/146/128
f 60/146/128 59/147/127 61/148/129 62/149/130
f 62/149/130 61/150/129 63/151/131 64/152/132
f 64/152/132 63/153/131 65/154/133 66/155/134
f 66/155/134 65/156/133 67/157/135 68/158/136
f 68/158/136 67/159/135 70/160/118 69/87/117
s 6
f 71/161/137 72/162/138 78/163/139 77/164/140
f 72/162/138 73/165/141 79/166/142 78/163/139
f 73/165/141 74/167/143 80/168/144 79/166/142
f 74/167/143 75/169/145 81/170/146 80/168/144
f 75/169/145 76/171/147 82/172/148 81/170/146
f 76/171/147 71/173/137 77/174/140 82/172/148
s 7
f 83/175/149 84/176/150 90/177/151 89/178/152
f 84/176/150 85/179/153 91/180/154 90/177/151
f 85/179/153 86/181/155 92/182/156 91/180/154
f 86/181/155 87/183/157 93/184/158 92/182/156
f 87/183/157 88/185/159 94/186/160 93/184/158
f 88/185/159 83/187/149 89/188/152 94/186/160
s 8
f 95/189/161 96/190/162 102/191/163 101/192/164
f 96/190/162 97/193/165 103/194/166 102/191/163
f 97/193/165 98/195/167 104/196/168 103/194/166
f 98/195/167 99/197/169 105/198/170 104/196/168
f 99/197/169 100/199/171 106/200/172 105/198/170
f 100/199/171 95/201/161 101/202/164 106/200/172
s 9
f 107/203/173 108/204/174 114/205/175 113/206/176
f 108/204/174 109/207/177 115/208/178 114/205/175
f 109/207/177 110/209/179 116/210/180 115/208/178
f 110/209/179 111/211/181 117/212/182 116/210/180
f 111/211/181 112/213/183 118/214/184 117/212/182
f 112/213/183 107/215/173 113/216/176 118/214/184
