# This file uses centimeters as units for non-parametric coordinates.

mtllib table1.mtl
g default
v -0.658558 0.648475 -0.463643
v -0.801832 0.648475 -0.440951
v -0.931081 0.648475 -0.375095
v -1.033654 0.648475 -0.272523
v -1.099509 0.648475 -0.143274
v -1.122202 0.648475 0.000000
v -1.099509 0.648475 0.143274
v -1.033654 0.648475 0.272523
v -0.931081 0.648475 0.375095
v -0.801832 0.648475 0.440951
v -0.658558 0.648475 0.463643
v -0.658558 0.648475 0.000000
v -0.658558 0.695851 0.000000
v 0.658559 0.648475 -0.463643
v 0.801833 0.648475 -0.440951
v 0.931082 0.648475 -0.375095
v 1.033654 0.648475 -0.272523
v 1.099509 0.648475 -0.143274
v 1.122202 0.648475 0.000000
v 1.099509 0.648475 0.143274
v 1.033654 0.648475 0.272523
v 0.931081 0.648475 0.375095
v 0.801832 0.648475 0.440951
v 0.658559 0.648475 0.463643
v 0.658559 0.648475 0.000000
v 0.658559 0.695851 0.000000
v -0.936172 -0.035663 0.337375
v -0.887429 -0.035663 0.337375
v -0.936172 0.673447 0.337375
v -0.887429 0.673447 0.337375
v -0.936172 0.673447 0.294937
v -0.887429 0.673447 0.294937
v -0.936172 -0.035663 0.294937
v -0.887429 -0.035663 0.294937
v 0.825743 -0.035663 0.337375
v 0.883206 -0.035663 0.337375
v 0.825743 0.673447 0.337375
v 0.883206 0.673447 0.337375
v 0.825743 0.673447 0.294937
v 0.883206 0.673447 0.294937
v 0.825743 -0.035663 0.294937
v 0.883206 -0.035663 0.294937
v 0.825743 -0.035663 -0.289805
v 0.883206 -0.035663 -0.289805
v 0.825743 0.673447 -0.289805
v 0.883206 0.673447 -0.289805
v 0.825743 0.673447 -0.336225
v 0.883206 0.673447 -0.336225
v 0.825743 -0.035663 -0.336225
v 0.883206 -0.035663 -0.336225
v -0.936172 -0.035663 -0.289805
v -0.887429 -0.035663 -0.289805
v -0.936172 0.673447 -0.289805
v -0.887429 0.673447 -0.289805
v -0.936172 0.673447 -0.336225
v -0.887429 0.673447 -0.336225
v -0.936172 -0.035663 -0.336225
v -0.887429 -0.035663 -0.336225
v -0.051682 -0.035663 0.337375
v -0.002940 -0.035663 0.337375
v -0.051682 0.673447 0.337375
v -0.002940 0.673447 0.337375
v -0.051682 0.673447 0.294937
v -0.002940 0.673447 0.294937
v -0.051682 -0.035663 0.294937
v -0.002940 -0.035663 0.294937
v -0.051682 -0.035663 -0.289805
v -0.002940 -0.035663 -0.289805
v -0.051682 0.673447 -0.289805
v -0.002940 0.673447 -0.289805
v -0.051682 0.673447 -0.336225
v -0.002940 0.673447 -0.336225
v -0.051682 -0.035663 -0.336225
v -0.002940 -0.035663 -0.336225
v -0.658558 0.690282 -0.463643
v -0.658558 0.695851 -0.458073
v -0.800111 0.695851 -0.435655
v -0.801832 0.690282 -0.440951
v -0.927808 0.695851 -0.370590
v -0.931081 0.690282 -0.375095
v -1.029148 0.695851 -0.269249
v -1.033654 0.690282 -0.272523
v -1.094213 0.695851 -0.141553
v -1.099509 0.690282 -0.143274
v -1.116633 0.695851 0.000000
v -1.122202 0.690282 0.000000
v -1.094213 0.695851 0.141553
v -1.099509 0.690282 0.143274
v -1.029148 0.695851 0.269249
v -1.033654 0.690282 0.272523
v -0.927808 0.695851 0.370590
v -0.931081 0.690282 0.375095
v -0.800111 0.695851 0.435655
v -0.801832 0.690282 0.440951
v -0.658558 0.695851 0.458073
v -0.658558 0.690282 0.463643
v 0.800112 0.695851 -0.435655
v 0.801833 0.690282 -0.440951
v 0.658559 0.695851 -0.458073
v 0.658559 0.690282 -0.463643
v 0.927808 0.695851 -0.370590
v 0.931082 0.690282 -0.375095
v 1.029148 0.695851 -0.269249
v 1.033654 0.690282 -0.272523
v 1.094213 0.695851 -0.141553
v 1.099509 0.690282 -0.143274
v 1.116633 0.695851 0.000000
v 1.122202 0.690282 0.000000
v 1.094213 0.695851 0.141553
v 1.099509 0.690282 0.143274
v 1.029148 0.695851 0.269249
v 1.033654 0.690282 0.272523
v 0.927808 0.695851 0.370590
v 0.931081 0.690282 0.375095
v 0.800111 0.695851 0.435655
v 0.801832 0.690282 0.440951
v 0.658559 0.690282 0.463643
v 0.658559 0.695851 0.458073
vt 0.500000 -0.000000
vt 0.451716 0.007647
vt 0.408159 0.029841
vt 0.373591 0.064409
vt 0.351397 0.107966
vt 0.343750 0.156250
vt 0.351397 0.204534
vt 0.373591 0.248091
vt 0.408159 0.282659
vt 0.451716 0.304853
vt 0.500000 0.312500
vt 0.500000 0.150000
vt 0.000000 0.000000
vt 1.000000 0.000000
vt 0.000000 0.000000
vt 1.000000 0.000000
vt 0.451716 0.007647
vt 0.500000 -0.000000
vt 0.500000 0.150000
vt 0.408159 0.029841
vt 0.373591 0.064409
vt 0.351397 0.107966
vt 0.343750 0.156250
vt 0.351397 0.204534
vt 0.373591 0.248091
vt 0.408159 0.282659
vt 0.451716 0.304853
vt 0.500000 0.312500
vt 0.000000 0.000000
vt 1.000000 0.000000
vt 0.000000 0.000000
vt 1.000000 0.000000
vt 0.375000 0.000000
vt 0.625000 0.000000
vt 0.625000 0.250000
vt 0.375000 0.250000
vt 0.375000 0.500000
vt 0.625000 0.500000
vt 0.625000 0.750000
vt 0.375000 0.750000
vt 0.625000 1.000000
vt 0.375000 1.000000
vt 0.875000 0.000000
vt 0.875000 0.250000
vt 0.125000 0.000000
vt 0.125000 0.250000
vt 0.375000 0.000000
vt 0.625000 0.000000
vt 0.625000 0.250000
vt 0.375000 0.250000
vt 0.375000 0.500000
vt 0.625000 0.500000
vt 0.625000 0.750000
vt 0.375000 0.750000
vt 0.625000 1.000000
vt 0.375000 1.000000
vt 0.875000 0.000000
vt 0.875000 0.250000
vt 0.125000 0.000000
vt 0.125000 0.250000
vt 0.375000 0.000000
vt 0.625000 0.000000
vt 0.625000 0.250000
vt 0.375000 0.250000
vt 0.375000 0.500000
vt 0.625000 0.500000
vt 0.625000 0.750000
vt 0.375000 0.750000
vt 0.625000 1.000000
vt 0.375000 1.000000
vt 0.875000 0.000000
vt 0.875000 0.250000
vt 0.125000 0.000000
vt 0.125000 0.250000
vt 0.375000 0.000000
vt 0.625000 0.000000
vt 0.625000 0.250000
vt 0.375000 0.250000
vt 0.375000 0.500000
vt 0.625000 0.500000
vt 0.625000 0.750000
vt 0.375000 0.750000
vt 0.625000 1.000000
vt 0.375000 1.000000
vt 0.875000 0.000000
vt 0.875000 0.250000
vt 0.125000 0.000000
vt 0.125000 0.250000
vt 0.375000 0.000000
vt 0.625000 0.000000
vt 0.625000 0.250000
vt 0.375000 0.250000
vt 0.375000 0.500000
vt 0.625000 0.500000
vt 0.625000 0.750000
vt 0.375000 0.750000
vt 0.625000 1.000000
vt 0.375000 1.000000
vt 0.875000 0.000000
vt 0.875000 0.250000
vt 0.125000 0.000000
vt 0.125000 0.250000
vt 0.375000 0.000000
vt 0.625000 0.000000
vt 0.625000 0.250000
vt 0.375000 0.250000
vt 0.375000 0.500000
vt 0.625000 0.500000
vt 0.625000 0.750000
vt 0.375000 0.750000
vt 0.625000 1.000000
vt 0.375000 1.000000
vt 0.875000 0.000000
vt 0.875000 0.250000
vt 0.125000 0.000000
vt 0.125000 0.250000
vt 0.882452 0.000000
vt 0.000000 0.000000
vt 0.000000 0.000000
vt 0.500000 0.998048
vt 0.500000 0.837500
vt 0.425000 0.312500
vt 0.425000 0.644249
vt 0.452296 0.990493
vt 0.437500 0.312500
vt 0.409262 0.968566
vt 0.450000 0.312500
vt 0.375109 0.934413
vt 0.462500 0.312500
vt 0.353182 0.891379
vt 0.475000 0.312500
vt 0.345627 0.843675
vt 0.487500 0.312500
vt 0.353182 0.795971
vt 0.500000 0.312500
vt 0.375109 0.752937
vt 0.512500 0.312500
vt 0.409262 0.718784
vt 0.525000 0.312500
vt 0.452296 0.696857
vt 0.500000 0.689302
vt 0.000000 0.000000
vt 0.987986 0.000000
vt 0.987986 0.000000
vt 0.000000 0.000000
vt 0.537500 0.312500
vt 0.550000 0.312500
vt 0.450000 0.312500
vt 0.452296 0.990493
vt 0.500000 0.998048
vt 1.000000 0.000000
vt 1.000000 0.000000
vt 0.012014 0.000000
vt 0.012014 0.000000
vt 0.425000 0.312500
vt 0.437500 0.312500
vt 0.462500 0.312500
vt 0.409262 0.968566
vt 0.475000 0.312500
vt 0.375109 0.934413
vt 0.487500 0.312500
vt 0.353182 0.891379
vt 0.500000 0.312500
vt 0.345627 0.843675
vt 0.512500 0.312500
vt 0.353182 0.795971
vt 0.525000 0.312500
vt 0.375109 0.752937
vt 0.537500 0.312500
vt 0.409262 0.718784
vt 0.550000 0.644249
vt 0.550000 0.312500
vt 0.452296 0.696857
vt 0.117544 0.000000
vt 1.000000 0.000000
vt 1.000000 0.000000
vt 0.500000 0.689302
vt 0.500000 0.837500
vt 0.882452 0.000000
vt 1.000000 0.000000
vt 1.000000 0.000000
vt 0.425075 0.688440
vt 0.437500 0.644249
vt 0.437425 0.688440
vt 0.437575 0.688440
vt 0.450000 0.644249
vt 0.449925 0.688440
vt 0.450075 0.688440
vt 0.462500 0.644249
vt 0.462425 0.688440
vt 0.462575 0.688440
vt 0.475000 0.644249
vt 0.474925 0.688440
vt 0.475075 0.688440
vt 0.487500 0.644249
vt 0.487425 0.688440
vt 0.487575 0.688440
vt 0.500000 0.644249
vt 0.499925 0.688440
vt 0.500075 0.688440
vt 0.512500 0.644249
vt 0.512425 0.688440
vt 0.512575 0.688440
vt 0.525000 0.644249
vt 0.524925 0.688440
vt 0.525075 0.688440
vt 0.537500 0.644249
vt 0.537425 0.688440
vt 0.537575 0.688440
vt 0.550000 0.644249
vt 0.549925 0.688440
vt 0.000000 0.000000
vt 0.117548 0.000000
vt 0.000000 0.000000
vt 0.437500 0.644249
vt 0.437575 0.688440
vt 0.449925 0.688440
vt 0.437425 0.688440
vt 0.425000 0.644249
vt 0.425075 0.688440
vt 0.450000 0.644249
vt 0.450075 0.688440
vt 0.462425 0.688440
vt 0.462500 0.644249
vt 0.462575 0.688440
vt 0.474925 0.688440
vt 0.475000 0.644249
vt 0.475075 0.688440
vt 0.487425 0.688440
vt 0.487500 0.644249
vt 0.487575 0.688440
vt 0.499925 0.688440
vt 0.500000 0.644249
vt 0.500075 0.688440
vt 0.512425 0.688440
vt 0.512500 0.644249
vt 0.512575 0.688440
vt 0.524925 0.688440
vt 0.525000 0.644249
vt 0.525075 0.688440
vt 0.537425 0.688440
vt 0.537500 0.644249
vt 0.537575 0.688440
vt 0.549925 0.688440
vn -0.015536 0.000000 -0.999879
vn -0.309017 0.000000 -0.951056
vn -0.309017 0.000000 -0.951056
vn -0.015536 0.000000 -0.999879
vn -0.587786 0.000000 -0.809017
vn -0.587786 0.000000 -0.809017
vn -0.809017 0.000000 -0.587785
vn -0.809017 0.000000 -0.587785
vn -0.951057 0.000000 -0.309017
vn -0.951057 0.000000 -0.309017
vn -1.000000 0.000000 0.000000
vn -1.000000 0.000000 0.000000
vn -0.951056 0.000000 0.309017
vn -0.951056 0.000000 0.309017
vn -0.809017 0.000000 0.587785
vn -0.809017 0.000000 0.587785
vn -0.587785 0.000000 0.809017
vn -0.587785 0.000000 0.809017
vn -0.309017 0.000000 0.951057
vn -0.309017 0.000000 0.951057
vn -0.015537 0.000000 0.999879
vn -0.015537 0.000000 0.999879
vn 0.000000 -1.000000 0.000000
vn 0.000000 -1.000000 0.000000
vn 0.000000 -1.000000 0.000000
vn 0.000000 -1.000000 0.000000
vn 0.000000 -1.000000 0.000000
vn 0.000000 -1.000000 0.000000
vn 0.000000 -1.000000 0.000000
vn 0.000000 -1.000000 -0.000000
vn 0.000000 -1.000000 0.000000
vn 0.000000 -1.000000 0.000000
vn 0.000000 -1.000000 0.000000
vn 0.000000 -1.000000 0.000000
vn -0.000000 1.000000 0.000000
vn -0.000000 1.000000 -0.000000
vn -0.000000 1.000000 0.000000
vn -0.000000 1.000000 -0.000000
vn -0.000000 1.000000 0.000000
vn -0.000000 1.000000 0.000000
vn -0.000000 1.000000 0.000000
vn -0.000000 1.000000 0.000000
vn -0.000000 1.000000 0.000000
vn -0.000000 1.000000 0.000000
vn -0.000000 1.000000 0.000000
vn -0.000000 1.000000 0.000000
vn 0.015537 0.000000 0.999879
vn 0.015537 0.000000 0.999879
vn 0.000000 -1.000000 0.000000
vn 0.000000 -1.000000 0.000000
vn -0.000000 1.000000 0.000000
vn -0.000000 1.000000 0.000000
vn 0.015536 0.000000 -0.999879
vn 0.015536 0.000000 -0.999879
vn 0.309017 0.000000 -0.951057
vn 0.309017 0.000000 -0.951057
vn 0.587786 0.000000 -0.809016
vn 0.587786 0.000000 -0.809016
vn 0.809018 0.000000 -0.587784
vn 0.809018 0.000000 -0.587784
vn 0.951057 0.000000 -0.309017
vn 0.951057 0.000000 -0.309017
vn 1.000000 0.000000 0.000000
vn 1.000000 0.000000 0.000000
vn 0.951057 0.000000 0.309017
vn 0.951057 0.000000 0.309017
vn 0.809017 0.000000 0.587785
vn 0.809017 0.000000 0.587785
vn 0.587785 0.000000 0.809017
vn 0.587785 0.000000 0.809017
vn 0.309017 0.000000 0.951057
vn 0.309017 0.000000 0.951057
vn 0.000000 -1.000000 0.000000
vn 0.000000 -1.000000 0.000000
vn 0.000000 -1.000000 0.000000
vn 0.000000 -1.000000 -0.000000
vn 0.000000 -1.000000 -0.000000
vn 0.000000 -1.000000 0.000000
vn 0.000000 -1.000000 0.000000
vn 0.000000 -1.000000 -0.000000
vn 0.000000 -1.000000 0.000000
vn 0.000000 -1.000000 0.000000
vn -0.000000 1.000000 -0.000000
vn -0.000000 1.000000 0.000000
vn -0.000000 1.000000 -0.000000
vn -0.000000 1.000000 0.000000
vn -0.000000 1.000000 0.000000
vn -0.000000 1.000000 0.000000
vn -0.000000 1.000000 0.000000
vn -0.000000 1.000000 0.000000
vn -0.000000 1.000000 0.000000
vn -0.000000 1.000000 0.000000
vn 0.000000 0.000000 1.000000
vn 0.000000 0.000000 1.000000
vn 0.000000 0.000000 1.000000
vn 0.000000 0.000000 1.000000
vn 0.000000 0.000000 -1.000000
vn 0.000000 0.000000 -1.000000
vn 0.000000 0.000000 -1.000000
vn 0.000000 0.000000 -1.000000
vn 0.000000 -1.000000 0.000000
vn 0.000000 -1.000000 0.000000
vn 0.000000 -1.000000 0.000000
vn 0.000000 -1.000000 0.000000
vn 1.000000 0.000000 0.000000
vn 1.000000 0.000000 0.000000
vn 1.000000 0.000000 0.000000
vn 1.000000 0.000000 0.000000
vn -1.000000 0.000000 0.000000
vn -1.000000 0.000000 0.000000
vn -1.000000 0.000000 0.000000
vn -1.000000 0.000000 0.000000
vn 0.000000 0.000000 1.000000
vn 0.000000 0.000000 1.000000
vn 0.000000 0.000000 1.000000
vn 0.000000 0.000000 1.000000
vn 0.000000 0.000000 -1.000000
vn 0.000000 0.000000 -1.000000
vn 0.000000 0.000000 -1.000000
vn 0.000000 0.000000 -1.000000
vn 0.000000 -1.000000 0.000000
vn 0.000000 -1.000000 0.000000
vn 0.000000 -1.000000 0.000000
vn 0.000000 -1.000000 0.000000
vn 1.000000 0.000000 0.000000
vn 1.000000 0.000000 0.000000
vn 1.000000 0.000000 0.000000
vn 1.000000 0.000000 0.000000
vn -1.000000 0.000000 0.000000
vn -1.000000 0.000000 0.000000
vn -1.000000 0.000000 0.000000
vn -1.000000 0.000000 0.000000
vn 0.000000 0.000000 1.000000
vn 0.000000 0.000000 1.000000
vn 0.000000 0.000000 1.000000
vn 0.000000 0.000000 1.000000
vn 0.000000 0.000000 -1.000000
vn 0.000000 0.000000 -1.000000
vn 0.000000 0.000000 -1.000000
vn 0.000000 0.000000 -1.000000
vn 0.000000 -1.000000 0.000000
vn 0.000000 -1.000000 0.000000
vn 0.000000 -1.000000 0.000000
vn 0.000000 -1.000000 0.000000
vn 1.000000 0.000000 0.000000
vn 1.000000 0.000000 0.000000
vn 1.000000 0.000000 0.000000
vn 1.000000 0.000000 0.000000
vn -1.000000 0.000000 0.000000
vn -1.000000 0.000000 0.000000
vn -1.000000 0.000000 0.000000
vn -1.000000 0.000000 0.000000
vn 0.000000 0.000000 1.000000
vn 0.000000 0.000000 1.000000
vn 0.000000 0.000000 1.000000
vn 0.000000 0.000000 1.000000
vn 0.000000 0.000000 -1.000000
vn 0.000000 0.000000 -1.000000
vn 0.000000 0.000000 -1.000000
vn 0.000000 0.000000 -1.000000
vn 0.000000 -1.000000 0.000000
vn 0.000000 -1.000000 0.000000
vn 0.000000 -1.000000 0.000000
vn 0.000000 -1.000000 0.000000
vn 1.000000 0.000000 0.000000
vn 1.000000 0.000000 0.000000
vn 1.000000 0.000000 0.000000
vn 1.000000 0.000000 0.000000
vn -1.000000 0.000000 0.000000
vn -1.000000 0.000000 0.000000
vn -1.000000 0.000000 0.000000
vn -1.000000 0.000000 0.000000
vn 0.000000 0.000000 1.000000
vn 0.000000 0.000000 1.000000
vn 0.000000 0.000000 1.000000
vn 0.000000 0.000000 1.000000
vn 0.000000 0.000000 -1.000000
vn 0.000000 0.000000 -1.000000
vn 0.000000 0.000000 -1.000000
vn 0.000000 0.000000 -1.000000
vn 0.000000 -1.000000 0.000000
vn 0.000000 -1.000000 0.000000
vn 0.000000 -1.000000 0.000000
vn 0.000000 -1.000000 0.000000
vn 1.000000 0.000000 0.000000
vn 1.000000 0.000000 0.000000
vn 1.000000 0.000000 0.000000
vn 1.000000 0.000000 0.000000
vn -1.000000 0.000000 0.000000
vn -1.000000 0.000000 0.000000
vn -1.000000 0.000000 0.000000
vn -1.000000 0.000000 0.000000
vn 0.000000 0.000000 1.000000
vn 0.000000 0.000000 1.000000
vn 0.000000 0.000000 1.000000
vn 0.000000 0.000000 1.000000
vn 0.000000 0.000000 -1.000000
vn 0.000000 0.000000 -1.000000
vn 0.000000 0.000000 -1.000000
vn 0.000000 0.000000 -1.000000
vn 0.000000 -1.000000 0.000000
vn 0.000000 -1.000000 0.000000
vn 0.000000 -1.000000 0.000000
vn 0.000000 -1.000000 0.000000
vn 1.000000 0.000000 0.000000
vn 1.000000 0.000000 0.000000
vn 1.000000 0.000000 0.000000
vn 1.000000 0.000000 0.000000
vn -1.000000 0.000000 0.000000
vn -1.000000 0.000000 0.000000
vn -1.000000 0.000000 0.000000
vn -1.000000 0.000000 0.000000
vn -0.010225 0.707133 -0.707007
vn -0.011617 0.707121 -0.706997
vn 0.011617 0.707121 -0.706997
vn 0.010225 0.707133 -0.707007
vn -0.218503 0.707119 -0.672487
vn -0.218502 0.707119 -0.672488
vn -0.415626 0.707108 -0.572061
vn -0.415624 0.707108 -0.572061
vn -0.572059 0.707110 -0.415625
vn -0.572060 0.707110 -0.415624
vn -0.672502 0.707102 -0.218510
vn -0.672503 0.707102 -0.218509
vn -0.707111 0.707103 0.000000
vn -0.707111 0.707103 0.000000
vn -0.672502 0.707102 0.218510
vn -0.672503 0.707102 0.218510
vn -0.572066 0.707103 0.415626
vn -0.572067 0.707103 0.415625
vn -0.415628 0.707106 0.572061
vn -0.415627 0.707106 0.572062
vn -0.218501 0.707122 0.672484
vn -0.218500 0.707123 0.672485
vn -0.010225 0.707133 0.707007
vn -0.011617 0.707121 0.706997
vn 0.010225 0.707132 0.707007
vn 0.011617 0.707121 0.706997
vn 0.218504 0.707114 -0.672493
vn 0.218507 0.707114 -0.672492
vn 0.415639 0.707090 -0.572073
vn 0.415640 0.707090 -0.572073
vn 0.572066 0.707104 -0.415625
vn 0.572066 0.707104 -0.415626
vn 0.672503 0.707102 -0.218510
vn 0.672502 0.707102 -0.218511
vn 0.707125 0.707089 -0.000000
vn 0.707125 0.707089 -0.000000
vn 0.672503 0.707102 0.218509
vn 0.672503 0.707102 0.218510
vn 0.572060 0.707109 0.415625
vn 0.572059 0.707109 0.415626
vn 0.415633 0.707096 0.572070
vn 0.415634 0.707096 0.572070
vn 0.218505 0.707112 0.672494
vn 0.218502 0.707112 0.672495
s 1
g table1
usemtl blinn2SG
f 1/122/1 2/125/2 78/183/3 75/123/4
f 2/125/2 3/127/5 80/186/6 78/183/3
f 3/127/5 4/129/7 82/189/8 80/186/6
f 4/129/7 5/131/9 84/192/10 82/189/8
f 5/131/9 6/133/11 86/195/12 84/192/10
f 6/133/11 7/135/13 88/198/14 86/195/12
f 7/135/13 8/137/15 90/201/16 88/198/14
f 8/137/15 9/139/17 92/204/18 90/201/16
f 9/139/17 10/146/19 94/207/20 92/204/18
f 10/146/19 11/147/21 96/210/22 94/207/20
s 2
f 2/2/23 1/1/24 12/12/25
f 3/3/26 2/2/23 12/12/25
f 4/4/27 3/3/26 12/12/25
f 5/5/28 4/4/27 12/12/25
f 6/6/29 5/5/28 12/12/25
f 7/7/30 6/6/29 12/12/25
f 8/8/31 7/7/30 12/12/25
f 9/9/32 8/8/31 12/12/25
f 10/10/33 9/9/32 12/12/25
f 11/11/34 10/10/33 12/12/25
s 3
f 76/120/35 77/124/36 13/121/37
f 77/124/36 79/126/38 13/121/37
f 79/126/38 81/128/39 13/121/37
f 81/128/39 83/130/40 13/121/37
f 83/130/40 85/132/41 13/121/37
f 85/132/41 87/134/42 13/121/37
f 87/134/42 89/136/43 13/121/37
f 89/136/43 91/138/44 13/121/37
f 91/138/44 93/140/45 13/121/37
f 93/140/45 95/141/46 13/121/37
s 1
f 117/213/47 96/174/22 11/175/21 24/176/48
s 2
f 11/15/34 12/16/25 25/32/49 24/31/50
s 3
f 13/142/37 95/143/46 118/144/51 26/145/52
s 1
f 14/155/53 100/219/54 98/215/55 15/156/56
f 15/156/56 98/215/55 102/221/57 16/148/58
f 16/148/58 102/221/57 104/224/59 17/157/60
f 17/157/60 104/224/59 106/227/61 18/159/62
f 18/159/62 106/227/61 108/230/63 19/161/64
f 19/161/64 108/230/63 110/233/65 20/163/66
f 20/163/66 110/233/65 112/236/67 21/165/68
f 21/165/68 112/236/67 114/239/69 22/167/70
f 22/167/70 114/239/69 116/242/71 23/169/72
f 23/169/72 116/242/71 117/171/47 24/172/48
s 2
f 15/17/73 25/19/49 14/18/74
f 16/20/75 25/19/49 15/17/73
f 17/21/76 25/19/49 16/20/75
f 18/22/77 25/19/49 17/21/76
f 19/23/78 25/19/49 18/22/77
f 20/24/79 25/19/49 19/23/78
f 21/25/80 25/19/49 20/24/79
f 22/26/81 25/19/49 21/25/80
f 23/27/82 25/19/49 22/26/81
f 24/28/50 25/19/49 23/27/82
s 3
f 97/149/83 99/150/84 26/178/52
f 101/158/85 97/149/83 26/178/52
f 103/160/86 101/158/85 26/178/52
f 105/162/87 103/160/86 26/178/52
f 107/164/88 105/162/87 26/178/52
f 109/166/89 107/164/88 26/178/52
f 111/168/90 109/166/89 26/178/52
f 113/170/91 111/168/90 26/178/52
f 115/173/92 113/170/91 26/178/52
f 118/177/51 115/173/92 26/178/52
s 1
f 75/179/4 100/117/54 14/118/53 1/119/1
s 2
f 1/14/24 14/30/74 25/29/49 12/13/25
s 3
f 13/151/37 26/152/52 99/153/84 76/154/35
s off
f 27/33/93 28/34/94 30/35/95 29/36/96
f 31/37/97 32/38/98 34/39/99 33/40/100
f 33/40/101 34/39/102 28/41/103 27/42/104
f 28/34/105 34/43/106 32/44/107 30/35/108
f 33/45/109 27/33/110 29/36/111 31/46/112
f 35/47/113 36/48/114 38/49/115 37/50/116
f 39/51/117 40/52/118 42/53/119 41/54/120
f 41/54/121 42/53/122 36/55/123 35/56/124
f 36/48/125 42/57/126 40/58/127 38/49/128
f 41/59/129 35/47/130 37/50/131 39/60/132
f 43/61/133 44/62/134 46/63/135 45/64/136
f 47/65/137 48/66/138 50/67/139 49/68/140
f 49/68/141 50/67/142 44/69/143 43/70/144
f 44/62/145 50/71/146 48/72/147 46/63/148
f 49/73/149 43/61/150 45/64/151 47/74/152
f 51/75/153 52/76/154 54/77/155 53/78/156
f 55/79/157 56/80/158 58/81/159 57/82/160
f 57/82/161 58/81/162 52/83/163 51/84/164
f 52/76/165 58/85/166 56/86/167 54/77/168
f 57/87/169 51/75/170 53/78/171 55/88/172
f 59/89/173 60/90/174 62/91/175 61/92/176
f 63/93/177 64/94/178 66/95/179 65/96/180
f 65/96/181 66/95/182 60/97/183 59/98/184
f 60/90/185 66/99/186 64/100/187 62/91/188
f 65/101/189 59/89/190 61/92/191 63/102/192
f 67/103/193 68/104/194 70/105/195 69/106/196
f 71/107/197 72/108/198 74/109/199 73/110/200
f 73/110/201 74/109/202 68/111/203 67/112/204
f 68/104/205 74/113/206 72/114/207 70/105/208
f 73/115/209 67/103/210 69/106/211 71/116/212
s 5
f 75/179/213 76/180/214 99/181/215 100/117/216
f 76/182/214 75/123/213 78/183/217 77/184/218
f 77/185/218 78/183/217 80/186/219 79/187/220
f 79/188/220 80/186/219 82/189/221 81/190/222
f 81/191/222 82/189/221 84/192/223 83/193/224
f 83/194/224 84/192/223 86/195/225 85/196/226
f 85/197/226 86/195/225 88/198/227 87/199/228
f 87/200/228 88/198/227 90/201/229 89/202/230
f 89/203/230 90/201/229 92/204/231 91/205/232
f 91/206/232 92/204/231 94/207/233 93/208/234
f 93/209/234 94/207/233 96/210/235 95/211/236
f 95/212/236 96/174/235 117/213/237 118/214/238
f 98/215/239 97/216/240 101/217/241 102/221/242
f 97/218/240 98/215/239 100/219/216 99/220/215
f 102/221/242 101/222/241 103/223/243 104/224/244
f 104/224/244 103/225/243 105/226/245 106/227/246
f 106/227/246 105/228/245 107/229/247 108/230/248
f 108/230/248 107/231/247 109/232/249 110/233/250
f 110/233/250 109/234/249 111/235/251 112/236/252
f 112/236/252 111/237/251 113/238/253 114/239/254
f 114/239/254 113/240/253 115/241/255 116/242/256
f 116/242/256 115/243/255 118/244/238 117/171/237
