# This file uses centimeters as units for non-parametric coordinates.

mtllib Wall7.mtl
g default
v 3.337262 3.199425 1.172684
v 3.491603 3.199425 1.172682
v 3.491603 0.000000 1.151429
v 3.337262 -0.000000 1.151429
v 3.336363 3.199425 5.690971
v 3.492168 3.199425 5.845377
v 3.493501 0.000000 5.845377
v 3.337697 0.000000 5.690971
v 3.491603 2.448924 3.194641
v 3.491603 2.448924 4.555509
v 3.337262 2.448924 4.555509
v 3.337262 2.448924 3.194641
v 3.337262 1.257439 3.194641
v 3.491603 1.257439 3.194641
v 3.491603 1.257439 4.555509
v 3.337262 1.257439 4.555509
v 2.259543 0.000000 5.844488
v 2.259543 0.000000 5.690148
v 1.017213 3.199425 5.690148
v 1.017213 3.199425 5.844488
v 1.030954 0.000000 5.844488
v 1.030954 0.000000 5.690148
v 0.155860 3.199425 5.690148
v 0.155860 3.199425 5.844488
v -3.351497 3.199425 5.690148
v -3.496028 3.199425 5.844488
v -3.496028 0.000000 5.844488
v -3.351497 0.000000 5.690148
v 1.017213 2.448924 5.690148
v 2.259543 2.448924 5.690148
v 2.259543 2.448924 5.844488
v 1.017213 2.448924 5.844488
v 0.155860 2.448924 5.844488
v -1.205008 2.448924 5.844488
v -1.205008 2.448924 5.690148
v 0.155860 2.448924 5.690148
v 0.155860 1.257439 5.690148
v 0.155860 1.257439 5.844488
v -1.205008 1.257439 5.844488
v -1.205008 1.257439 5.690148
v 3.491603 1.257439 -0.891783
v 3.491603 1.257439 -2.252651
v 3.496368 -0.000000 -5.845377
v 3.337262 1.257439 -2.252651
v 3.337262 1.257439 -0.891783
v 3.340435 -0.000000 -5.691004
v 3.491603 2.448924 -0.891783
v 3.491603 2.448924 -2.252651
v 3.491965 3.199520 -5.845377
v 3.337262 2.448924 -0.891783
v 3.337262 2.448924 -2.252651
v 3.336032 3.199520 -5.691004
v 0.581870 1.257439 -5.844933
v -0.778998 1.257439 -5.844933
v -3.496368 -0.000000 -5.844933
v -0.778998 1.257439 -5.690593
v 0.581870 1.257439 -5.690593
v -3.352052 0.000000 -5.690593
v 0.581870 2.448924 -5.844933
v -0.778998 2.448924 -5.844933
v -3.496368 3.199425 -5.844933
v 0.581870 2.448924 -5.690593
v -0.778998 2.448924 -5.690593
v -3.352052 3.199425 -5.690593
vt 0.493157 0.250000
vt 0.493157 0.500000
vt 0.487651 0.717945
vt 0.476641 0.048083
vt 0.509672 0.000000
vt 0.598975 0.229096
vt 0.589696 0.531356
vt 0.598975 0.717945
vt 0.598975 0.032055
vt 0.509672 0.562712
vt 0.561859 0.562712
vt 0.561859 0.187288
vt 0.509672 0.187288
vt 0.509672 0.096166
vt 0.509672 0.653834
vt 0.561859 0.653834
vt 0.561859 0.096166
vt 0.487651 0.717945
vt 0.509672 0.653834
vt 0.561859 0.653834
vt 0.598975 0.717945
vt 0.561859 0.096166
vt 0.509672 0.096166
vt 0.509672 0.000000
vt 0.598975 0.032055
vt 0.397244 0.229096
vt 0.428999 0.187288
vt 0.476641 0.187288
vt 0.476641 0.250000
vt 0.397244 0.520904
vt 0.476641 0.500000
vt 0.476641 0.562712
vt 0.428999 0.562712
vt 0.509672 0.562712
vt 0.509672 0.500000
vt 0.561859 0.562712
vt 0.589696 0.531356
vt 0.509672 0.250000
vt 0.509672 0.187288
vt 0.561859 0.187288
vt 0.598975 0.229096
vt 0.476641 0.048083
vt 0.428999 0.750000
vt 0.381366 0.750000
vt 0.381366 0.000000
vt 0.428999 0.000000
vt 0.487651 0.717945
vt 0.509672 0.653834
vt 0.561859 0.653834
vt 0.598975 0.717945
vt 0.561859 0.096166
vt 0.509672 0.096166
vt 0.509672 0.000000
vt 0.598975 0.032055
vt 0.509672 0.562712
vt 0.493157 0.500000
vt 0.561859 0.562712
vt 0.589696 0.531356
vt 0.493157 0.250000
vt 0.509672 0.187288
vt 0.561859 0.187288
vt 0.598975 0.229096
vt 0.476641 0.048083
vt 0.487651 0.717945
vt 0.509672 0.653834
vt 0.561859 0.653834
vt 0.598975 0.717945
vt 0.561859 0.096166
vt 0.509672 0.096166
vt 0.509672 0.000000
vt 0.598975 0.032055
vt 0.487651 0.229096
vt 0.493157 0.500000
vt 0.476641 0.562712
vt 0.509672 0.562712
vt 0.561859 0.562712
vt 0.589696 0.531356
vt 0.509672 0.187288
vt 0.561859 0.187288
vt 0.598975 0.229096
vt 0.476641 0.048083
vt 0.000000 0.000000
vt 1.000000 0.000000
vt 0.000000 0.000000
vt 1.000000 0.000000
vt 0.000000 0.000000
vt 1.000000 0.000000
vt 0.000000 0.000000
vt 1.000000 0.000000
vn 1.000000 0.000269 -0.000100
vn 1.000000 0.000433 -0.000160
vn 1.000000 0.000618 -0.000560
vn 1.000000 0.000612 -0.000566
vn -1.000000 -0.000242 -0.000069
vn -1.000000 -0.000100 0.000037
vn -1.000000 -0.000062 0.000023
vn -1.000000 -0.000238 -0.000055
vn 1.000000 -0.000058 -0.000495
vn 1.000000 -0.000179 -0.000040
vn 1.000000 -0.000054 -0.000012
vn 1.000000 0.000095 -0.000665
vn -1.000000 -0.000087 -0.000019
vn -1.000000 -0.000287 -0.000064
vn -1.000000 -0.000501 -0.000211
vn -1.000000 -0.000436 -0.000231
vn -0.000000 0.000000 1.000000
vn -0.000000 0.000000 1.000000
vn -0.000000 0.000000 1.000000
vn -0.000000 0.000000 1.000000
vn 0.000000 0.000000 -1.000000
vn 0.000000 0.000000 -1.000000
vn 0.000000 0.000000 -1.000000
vn 0.000000 0.000000 -1.000000
vn 0.000647 0.000084 -1.000000
vn 0.000583 0.000130 -1.000000
vn 0.000087 0.000144 -1.000000
vn 0.000156 0.000258 -1.000000
vn -0.000636 -0.000070 1.000000
vn -0.000163 -0.000270 1.000000
vn -0.000092 -0.000152 1.000000
vn -0.000562 -0.000131 1.000000
vn -0.000000 0.000001 1.000000
vn -0.000000 0.000002 1.000000
vn -0.000000 0.000001 1.000000
vn -0.000000 0.000000 1.000000
vn 0.000000 -0.000002 -1.000000
vn 0.000000 -0.000001 -1.000000
vn 0.000000 -0.000001 -1.000000
vn 0.000000 -0.000000 -1.000000
vn -0.000721 -0.000001 1.000000
vn -0.000721 -0.000001 1.000000
vn 0.000763 0.000001 -1.000000
vn 0.000763 0.000001 -1.000000
vn 1.000000 0.000594 0.000219
vn 0.999999 0.001086 0.000632
vn 0.999999 0.001270 0.000607
vn 1.000000 0.000906 0.000335
vn -1.000000 -0.001025 -0.000297
vn -1.000000 -0.001010 -0.000238
vn -1.000000 -0.000399 -0.000147
vn -1.000000 -0.000610 -0.000225
vn 1.000000 -0.000099 0.000022
vn 1.000000 -0.000033 0.000007
vn 1.000000 0.000526 0.000405
vn 0.999999 0.000935 0.000609
vn -1.000000 -0.000112 0.000025
vn -1.000000 -0.000983 -0.000187
vn -1.000000 -0.000874 -0.000065
vn -1.000000 -0.000340 0.000075
vn -0.000130 0.000038 -1.000000
vn -0.000013 0.000043 -1.000000
vn -0.000029 0.000094 -1.000000
vn -0.000100 0.000091 -1.000000
vn 0.000028 -0.000087 1.000000
vn 0.000014 -0.000043 1.000000
vn 0.000126 -0.000038 1.000000
vn 0.000097 -0.000085 1.000000
vn -0.000024 -0.000130 -1.000000
vn -0.000005 -0.000028 -1.000000
vn -0.000144 -0.000025 -1.000000
vn -0.000109 -0.000127 -1.000000
vn 0.000140 0.000025 1.000000
vn 0.000005 0.000028 1.000000
vn 0.000023 0.000121 1.000000
vn 0.000106 0.000118 1.000000
vn -1.000000 0.000000 0.000029
vn -1.000000 0.000000 0.000029
vn -1.000000 0.000000 0.000029
vn -1.000000 0.000000 0.000029
vn 1.000000 0.000000 -0.000049
vn 1.000000 0.000000 -0.000049
vn 1.000000 0.000000 -0.000049
vn 1.000000 0.000000 -0.000049
s 1
g Wall7
usemtl blinn1SG
f 3/3/1 14/15/2 15/16/3 7/8/4
s 2
f 16/17/5 13/14/6 4/5/7 8/9/8
s 1
f 10/11/9 9/10/10 2/2/11 6/7/12
s 2
f 1/1/13 12/13/14 11/12/15 5/6/16
f 4/4/7 13/14/6 12/13/14 1/1/13
s 1
f 9/10/10 14/15/2 3/3/1 2/2/11
f 7/8/4 15/16/3 10/11/9 6/7/12
s 2
f 11/12/15 16/17/5 8/9/8 5/6/16
s 3
f 21/18/17 38/19/18 39/20/19 27/21/20
s 4
f 40/22/21 37/23/22 22/24/23 28/25/24
f 5/26/25 30/27/26 29/28/27 19/29/28
s 3
f 6/30/29 20/31/30 32/32/31 31/33/32
f 33/34/33 32/32/31 20/31/30 24/35/34
f 34/36/35 33/34/33 24/35/34 26/37/36
s 4
f 23/38/37 36/39/38 35/40/39 25/41/40
f 19/29/28 29/28/27 36/39/38 23/38/37
f 36/39/38 29/28/27 22/42/23 37/23/22
s 3
f 38/19/18 21/18/17 32/32/31 33/34/33
f 27/21/20 39/20/19 34/36/35 26/37/36
s 4
f 35/40/39 40/22/21 28/25/24 25/41/40
s 3
f 31/33/32 17/43/41 7/44/42 6/30/29
s 4
f 5/26/25 8/45/43 18/46/44 30/27/26
s 7
f 3/47/45 43/50/46 42/49/47 41/48/48
s 8
f 44/51/49 46/54/50 4/53/51 45/52/52
s 7
f 47/55/53 2/56/54 3/47/45 41/48/48
f 48/57/55 49/58/56 2/56/54 47/55/53
s 8
f 1/59/57 52/62/58 51/61/59 50/60/60
f 4/63/51 1/59/57 50/60/60 45/52/52
s 7
f 43/50/46 49/58/56 48/57/55 42/49/47
s 8
f 51/61/59 52/62/58 46/54/50 44/51/49
s 9
f 43/64/61 55/67/62 54/66/63 53/65/64
s 10
f 56/68/65 58/71/66 46/70/67 57/69/68
s 9
f 60/76/69 61/77/70 49/73/71 59/75/72
s 10
f 52/72/73 64/80/74 63/79/75 62/78/76
f 62/78/76 57/69/68 46/81/67 52/72/73
s 9
f 53/65/64 59/75/72 49/74/71 43/64/61
f 55/67/62 61/77/70 60/76/69 54/66/63
s 10
f 63/79/75 64/80/74 58/71/66 56/68/65
s off
f 55/87/77 27/82/78 26/83/79 61/86/80
f 64/89/81 25/84/82 28/85/83 58/88/84
