# This file uses centimeters as units for non-parametric coordinates.

mtllib Wall6.mtl
g default
v -2.990494 3.199425 -0.036484
v -1.751050 -0.000000 -0.036484
v -1.751050 -0.000000 0.036484
v -2.990494 3.199425 0.036484
v -0.508720 3.199425 0.036484
v -0.508720 3.199425 -0.036484
v -0.522461 -0.000000 -0.036484
v -0.522461 -0.000000 0.036484
v 0.352633 3.199425 0.036484
v 0.352633 3.199425 -0.036484
v 2.993161 3.199425 0.036484
v 2.993161 3.199425 -0.036484
v 2.993161 -0.000000 -0.036484
v 2.993161 -0.000000 0.036484
v -0.508720 2.448924 0.036484
v -1.751050 2.448924 0.036484
v -1.751050 2.448924 -0.036484
v -0.508720 2.448924 -0.036484
v 0.352633 2.448924 -0.036484
v 1.713501 2.448924 -0.036484
v 1.713501 2.448924 0.036484
v 0.352633 2.448924 0.036484
v 0.352633 1.257439 0.036484
v 0.352633 1.257439 -0.036484
v 1.713501 1.257439 -0.036484
v 1.713501 1.257439 0.036484
v -2.993161 -0.000000 -0.036484
v -2.993161 -0.000000 0.036484
vt 0.397244 0.520904
vt 0.428999 0.750000
vt 0.428999 0.000000
vt 0.397244 0.229096
vt 0.476641 0.250000
vt 0.476641 0.500000
vt 0.487651 0.717945
vt 0.476641 0.048083
vt 0.509672 0.250000
vt 0.509672 0.500000
vt 0.509672 0.000000
vt 0.598975 0.229096
vt 0.589696 0.531356
vt 0.598975 0.717945
vt 0.598975 0.032055
vt 0.476641 0.187288
vt 0.428999 0.187288
vt 0.428999 0.562712
vt 0.476641 0.562712
vt 0.509672 0.562712
vt 0.561859 0.562712
vt 0.561859 0.187288
vt 0.509672 0.187288
vt 0.509672 0.096166
vt 0.509672 0.653834
vt 0.561859 0.653834
vt 0.561859 0.096166
vt 0.381366 0.750000
vt 0.381366 0.000000
vn 0.000000 -0.000000 -1.000000
vn 0.000000 -0.000000 -1.000000
vn -0.000000 0.000000 -1.000000
vn -0.000000 0.000000 -1.000000
vn -0.000000 0.000000 1.000000
vn 0.000000 -0.000000 1.000000
vn 0.000000 -0.000000 1.000000
vn -0.000000 0.000000 1.000000
vn -0.000000 0.000000 1.000000
vn -0.000000 0.000000 1.000000
vn 0.000000 -0.000000 1.000000
vn -0.000000 0.000000 1.000000
vn -0.000000 0.000000 -1.000000
vn -0.000000 0.000000 -1.000000
vn 0.000000 -0.000000 -1.000000
vn -0.000000 0.000000 -1.000000
vn 0.000000 -0.000000 -1.000000
vn 0.000000 -0.000000 -1.000000
vn -0.000000 0.000000 -1.000000
vn -0.000000 0.000000 -1.000000
vn 0.000000 -0.000000 1.000000
vn 0.000000 -0.000000 1.000000
vn -0.000000 0.000000 1.000000
vn -0.000000 0.000000 1.000000
vn 0.000000 -0.000000 -1.000000
vn 0.000000 -0.000000 -1.000000
vn -0.000000 0.000000 1.000000
vn -0.000000 0.000000 1.000000
s 1
g Wall6
usemtl blinn1SG
f 7/7/1 24/25/2 25/26/3 13/14/4
s 2
f 26/27/5 23/24/6 8/11/7 14/15/8
f 4/4/9 16/17/10 15/16/11 5/5/12
s 1
f 1/1/13 6/6/14 18/19/15 17/18/16
f 19/20/17 18/19/15 6/6/14 10/10/18
f 20/21/19 19/20/17 10/10/18 12/13/20
s 2
f 9/9/21 22/23/22 21/22/23 11/12/24
f 5/5/12 15/16/11 22/23/22 9/9/21
f 22/23/22 15/16/11 8/8/7 23/24/6
s 1
f 24/25/2 7/7/1 18/19/15 19/20/17
f 13/14/4 25/26/3 20/21/19 12/13/20
s 2
f 21/22/23 26/27/5 14/15/8 11/12/24
s 1
f 17/18/16 2/2/25 27/28/26 1/1/13
s 2
f 4/4/9 28/29/27 3/3/28 16/17/10
