# This file uses centimeters as units for non-parametric coordinates.

mtllib Wall2.mtl
g default
v -3.394050 3.199425 -0.036484
v 0.169888 -0.000000 -0.036484
v 0.169888 -0.000000 0.036484
v -3.394050 3.199425 0.036484
v 3.394052 3.199529 0.036484
v 3.394052 3.199529 -0.036484
v 1.398476 -0.000000 -0.036484
v 1.398476 -0.000000 0.036484
v 1.412218 2.448924 0.036484
v 0.169888 2.448924 0.036484
v 0.169888 2.448924 -0.036484
v 1.412218 2.448924 -0.036484
v 3.394050 -0.000000 0.036484
v 3.394050 -0.000000 -0.036484
v -3.394052 -0.000000 -0.036484
v -3.394052 -0.000000 0.036484
vt 0.397244 0.520904
vt 0.428999 0.750000
vt 0.428999 0.000000
vt 0.397244 0.229096
vt 0.498662 0.229096
vt 0.493157 0.531356
vt 0.487651 0.717945
vt 0.476641 0.048083
vt 0.476641 0.187288
vt 0.428999 0.187288
vt 0.428999 0.562712
vt 0.476641 0.562712
vt 0.509672 0.096166
vt 0.509672 0.653834
vt 0.381366 0.750000
vt 0.381366 0.000000
vn -0.000000 0.000000 1.000000
vn -0.000000 0.000000 1.000000
vn -0.000000 0.000000 1.000000
vn -0.000000 0.000000 1.000000
vn -0.000000 0.000000 -1.000000
vn -0.000000 0.000000 -1.000000
vn -0.000000 0.000000 -1.000000
vn -0.000000 0.000000 -1.000000
vn 0.000000 0.000000 1.000000
vn 0.000000 0.000000 1.000000
vn 0.000000 0.000000 -1.000000
vn 0.000000 0.000000 -1.000000
vn 0.000000 0.000000 -1.000000
vn 0.000000 0.000000 -1.000000
vn 0.000000 0.000000 1.000000
vn 0.000000 0.000000 1.000000
s 1
g Wall2
usemtl blinn1SG
f 4/4/1 10/10/2 9/9/3 5/5/4
s 2
f 1/1/5 6/6/6 12/12/7 11/11/8
s 1
f 5/5/4 9/9/3 8/8/9 13/13/10
s 2
f 14/14/11 7/7/12 12/12/7 6/6/6
f 11/11/8 2/2/13 15/15/14 1/1/5
s 1
f 4/4/1 16/16/15 3/3/16 10/10/2
