# This file uses centimeters as units for non-parametric coordinates.

mtllib Wall4.mtl
g default
v 4.556401 3.199425 -0.168216
v 4.556401 0.000000 -0.189469
v 4.556964 3.199425 3.723624
v 4.558300 0.000000 3.723624
v 4.556401 2.448924 1.072887
v 4.556401 2.448924 2.433755
v 4.556401 1.257439 1.072887
v 4.556401 1.257439 2.433755
v 3.324341 0.000000 3.722735
v 2.082011 3.199425 3.722735
v 2.095753 0.000000 3.722735
v 1.220657 3.199425 3.722735
v -4.560827 3.199425 3.722735
v -4.560827 0.000000 3.722735
v 3.324341 2.448924 3.722735
v 2.082011 2.448924 3.722735
v -0.066462 2.448924 3.722735
v -1.427331 2.448924 3.722735
v -0.066462 1.257439 3.722735
v -1.427331 1.257439 3.722735
v 4.556401 1.257439 -1.073332
v 4.556401 1.257439 -2.434200
v 4.561167 -0.000000 -3.723624
v 4.556401 2.448924 -1.073332
v 4.556401 2.448924 -2.434200
v 4.556761 3.199520 -3.723624
v 0.581415 1.257439 -3.723179
v -0.779454 1.257439 -3.723179
v -4.561167 -0.000000 -3.723179
v 0.581415 2.448924 -3.723179
v -0.779454 2.448924 -3.723179
v -4.561167 3.199425 -3.723179
v 4.402058 3.199425 -0.168214
v 4.402058 -0.000000 -0.189469
v 4.401159 3.199425 3.569217
v 4.402495 0.000000 3.569217
v 4.402058 2.448924 2.433755
v 4.402058 2.448924 1.072887
v 4.402058 1.257439 1.072887
v 4.402058 1.257439 2.433755
v 3.324341 0.000000 3.568395
v 2.082011 3.199425 3.568395
v 2.095753 0.000000 3.568395
v 1.220659 3.199425 3.568395
v -4.416298 3.199425 3.568395
v -4.416298 0.000000 3.568395
v 2.082011 2.448924 3.568395
v 3.324341 2.448924 3.568395
v -1.427331 2.448924 3.568395
v -0.066462 2.448924 3.568395
v -0.066462 1.257439 3.568395
v -1.427331 1.257439 3.568395
v 4.402058 1.257439 -2.434200
v 4.402058 1.257439 -1.073332
v 4.405233 -0.000000 -3.569250
v 4.402058 2.448924 -1.073332
v 4.402058 2.448924 -2.434200
v 4.400831 3.199520 -3.569250
v -0.779454 1.257439 -3.568839
v 0.581415 1.257439 -3.568839
v -4.416853 0.000000 -3.568839
v 0.581415 2.448924 -3.568839
v -0.779454 2.448924 -3.568839
v -4.416853 3.199425 -3.568839
vt 0.487651 0.717945
vt 0.509672 0.653834
vt 0.561859 0.653834
vt 0.598975 0.717945
vt 0.561859 0.562712
vt 0.509672 0.562712
vt 0.493157 0.500000
vt 0.589696 0.531356
vt 0.487651 0.717945
vt 0.509672 0.653834
vt 0.561859 0.653834
vt 0.598975 0.717945
vt 0.397244 0.520904
vt 0.476641 0.500000
vt 0.476641 0.562712
vt 0.428999 0.562712
vt 0.509672 0.562712
vt 0.509672 0.500000
vt 0.561859 0.562712
vt 0.589696 0.531356
vt 0.428999 0.750000
vt 0.381366 0.750000
vt 0.487651 0.717945
vt 0.598975 0.717945
vt 0.561859 0.653834
vt 0.509672 0.653834
vt 0.509672 0.562712
vt 0.493157 0.500000
vt 0.561859 0.562712
vt 0.589696 0.531356
vt 0.487651 0.717945
vt 0.598975 0.717945
vt 0.561859 0.653834
vt 0.509672 0.653834
vt 0.561859 0.562712
vt 0.589696 0.531356
vt 0.493157 0.500000
vt 0.509672 0.562712
vt 0.476641 0.562712
vt 1.000000 0.000000
vt 0.000000 0.000000
vt 1.000000 0.000000
vt 0.000000 0.000000
vt 0.561859 0.096166
vt 0.509672 0.096166
vt 0.509672 0.000000
vt 0.598975 0.032055
vt 0.493157 0.250000
vt 0.509672 0.187288
vt 0.561859 0.187288
vt 0.598975 0.229096
vt 0.476641 0.048083
vt 0.561859 0.096166
vt 0.509672 0.096166
vt 0.509672 0.000000
vt 0.598975 0.032055
vt 0.397244 0.229096
vt 0.428999 0.187288
vt 0.476641 0.187288
vt 0.476641 0.250000
vt 0.509672 0.250000
vt 0.509672 0.187288
vt 0.561859 0.187288
vt 0.598975 0.229096
vt 0.476641 0.048083
vt 0.381366 0.000000
vt 0.428999 0.000000
vt 0.561859 0.096166
vt 0.598975 0.032055
vt 0.509672 0.000000
vt 0.509672 0.096166
vt 0.493157 0.250000
vt 0.598975 0.229096
vt 0.561859 0.187288
vt 0.509672 0.187288
vt 0.476641 0.048083
vt 0.561859 0.096166
vt 0.598975 0.032055
vt 0.509672 0.000000
vt 0.509672 0.096166
vt 0.487651 0.229096
vt 0.598975 0.229096
vt 0.561859 0.187288
vt 0.509672 0.187288
vt 0.476641 0.048083
vt 1.000000 0.000000
vt 0.000000 0.000000
vt 1.000000 0.000000
vt 0.000000 0.000000
vn 1.000000 0.000412 -0.000197
vn 1.000000 0.000412 -0.000197
vn 1.000000 0.000547 -0.000605
vn 1.000000 0.000542 -0.000610
vn 1.000000 -0.000011 -0.000529
vn 1.000000 -0.000175 -0.000050
vn 1.000000 -0.000102 -0.000029
vn 1.000000 0.000128 -0.000690
vn 0.000000 0.000000 1.000000
vn 0.000000 0.000000 1.000000
vn -0.000000 0.000000 1.000000
vn -0.000000 0.000000 1.000000
vn -0.000636 -0.000070 1.000000
vn -0.000132 -0.000219 1.000000
vn -0.000052 -0.000085 1.000000
vn -0.000562 -0.000130 1.000000
vn 0.000000 0.000000 1.000000
vn 0.000000 0.000000 1.000000
vn -0.000000 0.000000 1.000000
vn -0.000000 0.000000 1.000000
vn -0.000721 -0.000000 1.000000
vn -0.000721 -0.000000 1.000000
vn 0.999999 0.001230 0.000689
vn 0.999998 0.001380 0.001371
vn 0.999998 0.001388 0.001363
vn 0.999999 0.000999 0.000559
vn 1.000000 -0.000110 0.000037
vn 1.000000 -0.000093 0.000031
vn 0.999999 0.000455 0.001021
vn 0.999999 0.000701 0.001365
vn -0.000101 0.000027 -1.000000
vn -0.000007 0.000029 -1.000000
vn -0.000023 0.000094 -1.000000
vn -0.000075 0.000092 -1.000000
vn -0.000019 -0.000128 -1.000000
vn -0.000003 -0.000018 -1.000000
vn -0.000108 -0.000017 -1.000000
vn -0.000082 -0.000125 -1.000000
vn -1.000000 0.000000 0.000046
vn -1.000000 0.000000 0.000046
vn -1.000000 0.000000 0.000046
vn -1.000000 0.000000 0.000046
vn -1.000000 -0.000235 -0.000074
vn -1.000000 -0.000096 0.000046
vn -1.000000 -0.000096 0.000046
vn -1.000000 -0.000229 -0.000059
vn -1.000000 -0.000163 -0.000047
vn -1.000000 -0.000281 -0.000081
vn -1.000000 -0.000451 -0.000226
vn -1.000000 -0.000400 -0.000241
vn -0.000000 0.000000 -1.000000
vn 0.000000 0.000000 -1.000000
vn 0.000000 0.000000 -1.000000
vn -0.000000 0.000000 -1.000000
vn 0.000647 0.000083 -1.000000
vn 0.000583 0.000129 -1.000000
vn 0.000048 0.000080 -1.000000
vn 0.000125 0.000207 -1.000000
vn 0.000000 0.000000 -1.000000
vn 0.000000 0.000000 -1.000000
vn -0.000000 0.000000 -1.000000
vn -0.000000 0.000000 -1.000000
vn 0.000763 0.000000 -1.000000
vn 0.000763 0.000000 -1.000000
vn -0.999999 -0.001105 -0.000654
vn -0.999999 -0.001114 -0.000655
vn -1.000000 -0.000838 -0.000470
vn -1.000000 -0.000678 -0.000380
vn -1.000000 -0.000326 0.000108
vn -1.000000 -0.000935 -0.000369
vn -1.000000 -0.000899 -0.000225
vn -1.000000 -0.000386 0.000128
vn 0.000022 -0.000087 1.000000
vn 0.000007 -0.000028 1.000000
vn 0.000097 -0.000026 1.000000
vn 0.000072 -0.000085 1.000000
vn 0.000104 0.000016 1.000000
vn 0.000003 0.000018 1.000000
vn 0.000018 0.000119 1.000000
vn 0.000079 0.000116 1.000000
vn 1.000000 0.000000 -0.000078
vn 1.000000 0.000000 -0.000078
vn 1.000000 0.000000 -0.000078
vn 1.000000 0.000000 -0.000078
s 1
g Wall4
usemtl blinn1SG
f 2/1/1 7/2/2 8/3/3 4/4/4
f 6/5/5 5/6/6 1/7/7 3/8/8
f 5/6/6 7/2/2 2/1/1 1/7/7
f 4/4/4 8/3/3 6/5/5 3/8/8
s 2
f 11/9/9 19/10/10 20/11/11 14/12/12
f 3/13/13 10/14/14 16/15/15 15/16/16
f 17/17/17 16/15/15 10/14/14 12/18/18
f 18/19/19 17/17/17 12/18/18 13/20/20
f 19/10/10 11/9/9 16/15/15 17/17/17
f 14/12/12 20/11/11 18/19/19 13/20/20
f 15/16/16 9/21/21 4/22/22 3/13/13
s 4
f 2/23/23 23/24/24 22/25/25 21/26/26
f 24/27/27 1/28/28 2/23/23 21/26/26
f 25/29/29 26/30/30 1/28/28 24/27/27
f 23/24/24 26/30/30 25/29/29 22/25/25
s 5
f 23/31/31 29/32/32 28/33/33 27/34/34
f 31/35/35 32/36/36 26/37/37 30/38/38
f 27/34/34 30/38/38 26/39/37 23/31/31
f 29/32/32 32/36/36 31/35/35 28/33/33
s off
f 29/40/39 14/41/40 13/42/41 32/43/42
s 6
f 40/44/43 39/45/44 34/46/45 36/47/46
f 33/48/47 38/49/48 37/50/49 35/51/50
f 34/52/45 39/45/44 38/49/48 33/48/47
f 37/50/49 40/44/43 36/47/46 35/51/50
s 7
f 52/53/51 51/54/52 43/55/53 46/56/54
f 35/57/55 48/58/56 47/59/57 42/60/58
f 44/61/59 50/62/60 49/63/61 45/64/62
f 42/60/58 47/59/57 50/62/60 44/61/59
f 50/62/60 47/59/57 43/65/53 51/54/52
f 49/63/61 52/53/51 46/56/54 45/64/62
f 35/57/55 36/66/63 41/67/64 48/58/56
s 9
f 53/68/65 55/69/66 34/70/67 54/71/68
f 33/72/69 58/73/70 57/74/71 56/75/72
f 34/76/67 33/72/69 56/75/72 54/71/68
f 57/74/71 58/73/70 55/69/66 53/68/65
s 10
f 59/77/73 61/78/74 55/79/75 60/80/76
f 58/81/77 64/82/78 63/83/79 62/84/80
f 62/84/80 60/80/76 55/85/75 58/81/77
f 63/83/79 64/82/78 61/78/74 59/77/73
s off
f 64/86/81 45/87/82 46/88/83 61/89/84
