# This file uses centimeters as units for non-parametric coordinates.

mtllib windowframe1.mtl
g default
v -0.640027 0.281415 -0.103291
v 0.615365 0.281415 -0.103291
v -0.640027 2.289692 -0.103291
v 0.615365 2.289692 -0.103291
v -0.764353 0.128003 -0.103291
v 0.739692 0.128003 -0.103291
v -0.764353 2.443104 -0.103291
v 0.739692 2.443104 -0.103291
v -0.640027 0.281415 0.096188
v 0.615365 0.281415 0.096188
v -0.764353 0.128003 0.096188
v 0.739692 0.128003 0.096188
v -0.640027 2.289692 0.096188
v 0.615365 2.289692 0.096188
v 0.739692 2.443104 0.096188
v -0.764353 2.443104 0.096188
v -0.789504 0.104367 0.140802
v 0.789504 0.104367 0.140802
v -0.789504 0.237476 0.140802
v 0.789504 0.237476 0.140802
v -0.789504 0.237476 -0.140802
v 0.789504 0.237476 -0.140802
v -0.789504 0.104367 -0.140802
v 0.789504 0.104367 -0.140802
v -0.789504 2.322759 0.140802
v 0.789504 2.322759 0.140802
v -0.789504 2.455868 0.140802
v 0.789504 2.455868 0.140802
v -0.789504 2.455868 -0.140802
v 0.789504 2.455868 -0.140802
v -0.789504 2.322759 -0.140802
v 0.789504 2.322759 -0.140802
v -0.687860 1.299587 0.075975
v 0.687860 1.299587 0.075975
v -0.687860 1.417844 0.075975
v 0.687860 1.417844 0.075975
v -0.687860 1.417844 -0.075975
v 0.687860 1.417844 -0.075975
v -0.687860 1.299587 -0.075975
v 0.687860 1.299587 -0.075975
v -0.687860 1.318604 0.091118
v 0.687860 1.318604 0.091118
v -0.687860 1.398827 0.091118
v 0.687860 1.398827 0.091118
v -0.687860 1.398827 -0.091118
v 0.687860 1.398827 -0.091118
v -0.687860 1.318604 -0.091118
v 0.687860 1.318604 -0.091118
vt 0.000000 0.000000
vt 1.000000 0.000000
vt 0.000000 0.000000
vt 1.000000 0.000000
vt 1.000000 1.000000
vt 0.000000 1.000000
vt 0.000000 0.000000
vt 1.000000 0.000000
vt 1.000000 1.000000
vt 0.000000 1.000000
vt 0.000000 0.000000
vt 1.000000 0.000000
vt 1.000000 1.000000
vt 0.000000 1.000000
vt 0.000000 0.000000
vt 1.000000 0.000000
vt 1.000000 1.000000
vt 0.000000 1.000000
vt 0.000000 0.000000
vt 1.000000 0.000000
vt 1.000000 1.000000
vt 0.000000 1.000000
vt 0.000000 0.000000
vt 1.000000 0.000000
vt 1.000000 1.000000
vt 0.000000 1.000000
vt 0.000000 0.000000
vt 1.000000 0.000000
vt 1.000000 1.000000
vt 0.000000 1.000000
vt 0.000000 0.000000
vt 1.000000 0.000000
vt 1.000000 1.000000
vt 0.000000 1.000000
vt 0.000000 0.000000
vt 1.000000 0.000000
vt 1.000000 1.000000
vt 0.000000 1.000000
vt 0.000000 0.000000
vt 1.000000 0.000000
vt 1.000000 1.000000
vt 0.000000 1.000000
vt 0.000000 0.000000
vt 1.000000 0.000000
vt 1.000000 1.000000
vt 0.000000 1.000000
vt 0.375000 0.000000
vt 0.625000 0.000000
vt 0.625000 0.250000
vt 0.375000 0.250000
vt 0.625000 0.500000
vt 0.375000 0.500000
vt 0.625000 0.750000
vt 0.375000 0.750000
vt 0.625000 1.000000
vt 0.375000 1.000000
vt 0.875000 0.000000
vt 0.875000 0.250000
vt 0.125000 0.000000
vt 0.125000 0.250000
vt 0.375000 0.000000
vt 0.625000 0.000000
vt 0.625000 0.250000
vt 0.375000 0.250000
vt 0.625000 0.500000
vt 0.375000 0.500000
vt 0.625000 0.750000
vt 0.375000 0.750000
vt 0.625000 1.000000
vt 0.375000 1.000000
vt 0.875000 0.000000
vt 0.875000 0.250000
vt 0.125000 0.000000
vt 0.125000 0.250000
vt 0.375000 0.000000
vt 0.625000 0.000000
vt 0.625000 0.250000
vt 0.375000 0.250000
vt 0.625000 0.500000
vt 0.375000 0.500000
vt 0.625000 0.750000
vt 0.375000 0.750000
vt 0.625000 1.000000
vt 0.375000 1.000000
vt 0.375000 0.000000
vt 0.625000 0.000000
vt 0.625000 0.250000
vt 0.375000 0.250000
vt 0.625000 0.500000
vt 0.375000 0.500000
vt 0.625000 0.750000
vt 0.375000 0.750000
vt 0.625000 1.000000
vt 0.375000 1.000000
vn 0.000000 0.000000 1.000000
vn 0.000000 0.000000 1.000000
vn 0.000000 0.000000 1.000000
vn 0.000000 0.000000 1.000000
vn 0.000000 0.000000 1.000000
vn 0.000000 0.000000 1.000000
vn 0.000000 0.000000 1.000000
vn 0.000000 0.000000 1.000000
vn -0.000001 0.000000 1.000000
vn -0.000001 0.000000 1.000000
vn -0.000001 0.000000 1.000000
vn -0.000001 0.000000 1.000000
vn 0.000001 0.000000 1.000000
vn 0.000001 0.000000 1.000000
vn 0.000001 0.000000 1.000000
vn 0.000001 0.000000 1.000000
vn -0.000000 0.000000 -1.000000
vn -0.000000 0.000000 -1.000000
vn -0.000000 0.000000 -1.000000
vn -0.000000 0.000000 -1.000000
vn -0.000000 0.000000 -1.000000
vn -0.000000 0.000000 -1.000000
vn -0.000000 0.000000 -1.000000
vn -0.000000 0.000000 -1.000000
vn -0.000000 0.000000 -1.000000
vn -0.000000 0.000000 -1.000000
vn -0.000000 0.000000 -1.000000
vn -0.000000 0.000000 -1.000000
vn -0.000000 0.000000 -1.000000
vn -0.000000 0.000000 -1.000000
vn -0.000000 0.000000 -1.000000
vn -0.000000 0.000000 -1.000000
vn 0.000000 1.000000 0.000000
vn 0.000000 1.000000 0.000000
vn 0.000000 1.000000 0.000000
vn 0.000000 1.000000 0.000000
vn 0.000000 -1.000000 0.000000
vn 0.000000 -1.000000 0.000000
vn 0.000000 -1.000000 0.000000
vn 0.000000 -1.000000 0.000000
vn 0.000000 1.000000 0.000000
vn 0.000000 1.000000 0.000000
vn 0.000000 1.000000 0.000000
vn 0.000000 1.000000 0.000000
vn 1.000000 0.000000 0.000000
vn 1.000000 0.000000 0.000000
vn 1.000000 0.000000 0.000000
vn 1.000000 0.000000 0.000000
vn -1.000000 0.000000 0.000000
vn -1.000000 0.000000 0.000000
vn -1.000000 0.000000 0.000000
vn -1.000000 0.000000 0.000000
vn -1.000000 0.000000 0.000000
vn -1.000000 0.000000 0.000000
vn -1.000000 0.000000 0.000000
vn -1.000000 0.000000 0.000000
vn 1.000000 0.000000 0.000000
vn 1.000000 0.000000 0.000000
vn 1.000000 0.000000 0.000000
vn 1.000000 0.000000 0.000000
vn 0.000000 0.000000 1.000000
vn 0.000000 0.000000 1.000000
vn 0.000000 0.000000 1.000000
vn 0.000000 0.000000 1.000000
vn 0.000000 1.000000 0.000000
vn 0.000000 1.000000 0.000000
vn 0.000000 1.000000 0.000000
vn 0.000000 1.000000 0.000000
vn -0.000000 0.000000 -1.000000
vn -0.000000 0.000000 -1.000000
vn -0.000000 0.000000 -1.000000
vn -0.000000 0.000000 -1.000000
vn 0.000000 -1.000000 0.000000
vn 0.000000 -1.000000 0.000000
vn 0.000000 -1.000000 0.000000
vn 0.000000 -1.000000 0.000000
vn 1.000000 0.000000 0.000000
vn 1.000000 0.000000 0.000000
vn 1.000000 0.000000 0.000000
vn 1.000000 0.000000 0.000000
vn -1.000000 0.000000 0.000000
vn -1.000000 0.000000 0.000000
vn -1.000000 0.000000 0.000000
vn -1.000000 0.000000 0.000000
vn 0.000000 0.000000 1.000000
vn 0.000000 0.000000 1.000000
vn 0.000000 0.000000 1.000000
vn 0.000000 0.000000 1.000000
vn 0.000000 1.000000 0.000000
vn 0.000000 1.000000 0.000000
vn 0.000000 1.000000 0.000000
vn 0.000000 1.000000 0.000000
vn -0.000000 0.000000 -1.000000
vn -0.000000 0.000000 -1.000000
vn -0.000000 0.000000 -1.000000
vn -0.000000 0.000000 -1.000000
vn 0.000000 -1.000000 0.000000
vn 0.000000 -1.000000 0.000000
vn 0.000000 -1.000000 0.000000
vn 0.000000 -1.000000 0.000000
vn 1.000000 0.000000 0.000000
vn 1.000000 0.000000 0.000000
vn 1.000000 0.000000 0.000000
vn 1.000000 0.000000 0.000000
vn -1.000000 0.000000 0.000000
vn -1.000000 0.000000 0.000000
vn -1.000000 0.000000 0.000000
vn -1.000000 0.000000 0.000000
vn 0.000000 0.000000 1.000000
vn 0.000000 0.000000 1.000000
vn 0.000000 0.000000 1.000000
vn 0.000000 0.000000 1.000000
vn 0.000000 1.000000 0.000000
vn 0.000000 1.000000 0.000000
vn 0.000000 1.000000 0.000000
vn 0.000000 1.000000 0.000000
vn -0.000000 0.000000 -1.000000
vn -0.000000 0.000000 -1.000000
vn -0.000000 0.000000 -1.000000
vn -0.000000 0.000000 -1.000000
vn 0.000000 -1.000000 0.000000
vn 0.000000 -1.000000 0.000000
vn 0.000000 -1.000000 0.000000
vn 0.000000 -1.000000 0.000000
vn 0.000000 0.000000 1.000000
vn 0.000000 0.000000 1.000000
vn 0.000000 0.000000 1.000000
vn 0.000000 0.000000 1.000000
vn 0.000000 1.000000 0.000000
vn 0.000000 1.000000 0.000000
vn 0.000000 1.000000 0.000000
vn 0.000000 1.000000 0.000000
vn -0.000000 0.000000 -1.000000
vn -0.000000 0.000000 -1.000000
vn -0.000000 0.000000 -1.000000
vn -0.000000 0.000000 -1.000000
vn 0.000000 -1.000000 0.000000
vn 0.000000 -1.000000 0.000000
vn 0.000000 -1.000000 0.000000
vn 0.000000 -1.000000 0.000000
s off
g windowframe1
usemtl blinn1SG
f 10/31/1 9/32/2 11/33/3 12/34/4
f 13/35/5 14/36/6 15/37/7 16/38/8
f 9/39/9 13/40/10 16/41/11 11/42/12
f 14/43/13 10/44/14 12/45/15 15/46/16
f 2/15/17 6/18/18 5/17/19 1/16/20
f 3/19/21 7/22/22 8/21/23 4/20/24
f 1/23/25 5/26/26 7/25/27 3/24/28
f 4/27/29 8/30/30 6/29/31 2/28/32
f 2/1/33 1/2/34 9/32/35 10/31/36
f 3/3/37 4/4/38 14/36/39 13/35/40
f 8/5/41 7/6/42 16/38/43 15/37/44
f 1/7/45 3/8/46 13/40/47 9/39/48
f 7/9/49 5/10/50 11/42/51 16/41/52
f 4/11/53 2/12/54 10/44/55 14/43/56
f 6/13/57 8/14/58 15/46/59 12/45/60
f 17/47/61 18/48/62 20/49/63 19/50/64
f 19/50/65 20/49/66 22/51/67 21/52/68
f 21/52/69 22/51/70 24/53/71 23/54/72
f 23/54/73 24/53/74 18/55/75 17/56/76
f 18/48/77 24/57/78 22/58/79 20/49/80
f 23/59/81 17/47/82 19/50/83 21/60/84
f 25/61/85 26/62/86 28/63/87 27/64/88
f 27/64/89 28/63/90 30/65/91 29/66/92
f 29/66/93 30/65/94 32/67/95 31/68/96
f 31/68/97 32/67/98 26/69/99 25/70/100
f 26/62/101 32/71/102 30/72/103 28/63/104
f 31/73/105 25/61/106 27/64/107 29/74/108
f 33/75/109 34/76/110 36/77/111 35/78/112
f 35/78/113 36/77/114 38/79/115 37/80/116
f 37/80/117 38/79/118 40/81/119 39/82/120
f 39/82/121 40/81/122 34/83/123 33/84/124
f 41/85/125 42/86/126 44/87/127 43/88/128
f 43/88/129 44/87/130 46/89/131 45/90/132
f 45/90/133 46/89/134 48/91/135 47/92/136
f 47/92/137 48/91/138 42/93/139 41/94/140
