#
# object headusOBJexport
#

v  -283.8509 0.7316 3.9446
v  -212.8622 0.7146 7.0099
v  -212.8622 5.8830 -2.7321
v  -283.8509 6.4800 -5.8418
v  -141.8736 0.6899 9.3049
v  -141.8736 5.4815 -1.3662
v  -70.8849 0.6446 10.9896
v  -70.8849 5.0819 -1.3662
v  0.1038 0.6446 11.3040
v  0.1038 5.0819 -1.3662
v  71.0925 0.6646 11.4399
v  71.0925 5.0874 -1.8089
v  150.5652 1.1917 11.3501
v  150.5652 6.0519 -1.3662
v  213.0699 10.2916 12.1747
v  284.0586 11.2344 8.9974
v  284.0586 14.8631 -1.3662
v  213.0699 14.8631 -1.3662
v  355.3011 9.7975 2.3983
v  355.0473 15.6106 -6.9347
v  -212.8622 6.2799 -16.5044
v  -283.8509 6.9925 -19.1109
v  -141.8736 5.8006 -14.3624
v  -70.8849 5.3235 -12.6777
v  0.1038 5.3235 -12.0574
v  71.0925 5.3659 -11.6847
v  150.5652 6.4815 -13.5966
v  284.0586 12.1957 -16.9016
v  213.0699 12.3925 -13.1321
v  352.3381 11.5129 -24.4891
v  -283.8509 -0.3877 3.9446
v  -283.8509 -1.3734 -6.4533
v  -212.8622 -1.9757 -3.7021
v  -212.8622 -0.5067 7.0099
v  -141.8736 -2.5820 -1.3662
v  -141.8736 -0.7146 9.3049
v  -70.8849 -2.7929 -1.3662
v  -70.8849 -0.7200 10.9896
v  0.1038 -2.7961 -1.3662
v  0.1038 -0.5447 11.3040
v  71.0925 -2.4726 -1.3662
v  71.0925 -0.6160 11.4399
v  150.5652 -3.1477 -1.3662
v  150.5652 -1.7581 11.3501
v  213.0699 -8.5346 14.3010
v  213.0699 -13.5443 -1.3662
v  284.0586 -12.4545 -1.3662
v  284.0586 -7.9142 11.1778
v  355.0473 -6.8967 -4.0042
v  355.3011 -5.1991 1.4151
v  -283.8509 2.8266 -19.1109
v  -212.8622 2.1076 -16.5044
v  -141.8736 1.3838 -14.3624
v  -70.8849 1.1320 -12.6777
v  0.1038 1.1282 -12.0574
v  71.0925 1.5144 -11.6847
v  150.5652 0.7085 -13.5966
v  213.0699 -7.3255 -17.2233
v  284.0586 -5.2877 -20.9612
v  352.3381 -5.0172 -18.9346
v  213.0699 0.2306 14.3010
v  284.0586 0.2306 11.1778
v  355.3010 0.2306 5.4901
v  355.0473 0.2306 -1.3662
v  352.3381 0.2306 -24.3179
v  284.0586 0.2306 -20.9612
v  213.0699 0.2306 -17.2233
v  151.2312 17.1801 -27.1310
v  151.2312 6.0760 -29.7016
v  151.2312 -5.5794 -29.5568
v  151.2312 -15.1785 -27.0820
v  151.2312 25.5037 17.5588
v  151.2312 29.9135 4.3260
v  151.2312 29.7788 -7.0118
v  151.2312 25.0572 -20.1322
v  151.2312 -29.0338 4.1690
v  151.2312 -23.6914 16.9407
v  151.2312 -23.3485 -20.0676
v  151.2312 -28.9893 -6.8826
v  151.2312 6.0180 28.0623
v  151.2312 17.8194 24.8341
v  151.2312 -15.6813 24.3655
v  151.2312 -5.4641 27.7558
v  -354.3529 4.1663 -11.0660
v  -354.3529 1.0581 -10.3353
v  -338.3514 -0.2607 1.4245
v  -338.3514 0.7316 1.4245
v  -362.0459 6.9925 -24.0357
v  -362.0459 2.8266 -24.0357
v  158.5701 14.8631 -1.3662
v  158.5701 11.2570 12.2900
v  158.5701 12.0571 -14.1824
v  158.5701 0.2306 -17.2233
v  158.5701 -8.8165 -13.7313
v  158.5701 -13.5443 -1.3662
v  158.5701 -10.4242 12.0430
v  158.5701 0.2306 14.3010
v  158.1501 28.9572 4.4130
v  158.1501 24.9850 16.9394
v  158.1501 24.7592 -19.7858
v  158.1501 28.9148 -7.0119
v  158.1501 5.8214 -29.2271
v  158.1501 17.0415 -26.7733
v  158.1501 -15.2449 -26.3780
v  158.1501 -5.8302 -28.9358
v  158.1501 -28.4540 -6.8515
v  158.1501 -23.3265 -19.2597
v  158.1501 -23.1976 16.3607
v  158.1501 -28.3882 4.2113
v  158.1501 -5.6856 27.3328
v  158.1501 -15.1948 23.9102
v  158.1501 17.4070 24.3241
v  158.1501 5.7242 27.6994
# 113 vertices

vn -0.0372 0.8693 0.4928
vn -0.0123 0.8849 0.4656
vn -0.0029 0.9661 0.2581
vn -0.0208 0.9578 0.2868
vn -0.0045 0.9141 0.4055
vn 0.0011 0.9746 0.2241
vn -0.0038 0.9413 0.3375
vn -0.0002 0.9829 0.1841
vn 0.0001 0.9441 0.3297
vn 0.0000 0.9838 0.1794
vn -0.0034 0.9485 0.3166
vn -0.0049 0.9845 0.1754
vn -0.0125 0.9357 0.3526
vn -0.0134 0.9800 0.1988
vn 0.0151 0.6600 0.7512
vn 0.0412 0.6526 0.7566
vn 0.0019 0.9962 0.0870
vn -0.0023 0.9982 0.0602
vn 0.0848 0.6192 0.7807
vn 0.0184 0.9874 0.1570
vn 0.0066 0.9995 0.0294
vn 0.0029 0.9993 0.0386
vn 0.0057 0.9997 0.0248
vn 0.0028 0.9998 0.0215
vn -0.0004 0.9997 0.0225
vn -0.0062 0.9996 0.0283
vn -0.0132 0.9993 0.0351
vn -0.0461 0.7646 -0.6429
vn -0.0163 0.7520 -0.6590
vn -0.0511 0.6405 -0.7663
vn -0.0092 -0.9953 0.0964
vn -0.0088 -0.9932 -0.1163
vn -0.0045 -0.9963 -0.0863
vn -0.0101 -0.9904 0.1376
vn -0.0020 -0.9981 -0.0609
vn -0.0057 -0.9851 0.1720
vn -0.0011 -0.9965 -0.0840
vn -0.0019 -0.9861 0.1660
vn 0.0033 -0.9961 -0.0885
vn 0.0027 -0.9849 0.1731
vn -0.0046 -0.9937 -0.1122
vn -0.0077 -0.9896 0.1435
vn -0.0126 -0.9948 -0.1008
vn -0.0090 -0.9936 0.1122
vn 0.0232 -0.5832 0.8120
vn 0.0107 -0.9994 -0.0342
vn 0.0385 -0.9992 0.0079
vn 0.0869 -0.5691 0.8177
vn 0.0770 -0.9925 0.0953
vn 0.0778 -0.8102 0.5810
vn -0.0056 -0.9525 -0.3044
vn 0.0015 -0.9525 -0.3045
vn 0.0023 -0.9562 -0.2926
vn 0.0004 -0.9455 -0.3257
vn 0.0036 -0.9391 -0.3437
vn -0.0022 -0.9342 -0.3566
vn -0.0169 -0.9536 -0.3007
vn -0.0329 -0.5631 -0.8257
vn -0.0220 -0.5726 -0.8195
vn 0.0465 -0.8984 -0.4367
vn 0.0231 0.1029 0.9944
vn 0.0746 0.0887 0.9933
vn 0.0875 -0.1740 0.9808
vn -0.0447 0.0000 0.9990
vn -0.0377 0.0000 0.9993
vn -0.0280 0.0000 0.9996
vn -0.0141 0.0000 0.9999
vn -0.0032 0.0000 1.0000
vn -0.0004 0.0000 1.0000
vn 0.0011 0.0000 1.0000
vn 0.9993 -0.0125 -0.0356
vn 0.9993 0.0049 -0.0370
vn 0.9969 -0.0007 -0.0781
vn 0.9945 -0.0257 -0.1013
vn 0.9901 -0.0531 -0.1298
vn 0.9884 -0.0023 -0.1520
vn 0.9987 0.0232 -0.0458
vn 0.9902 0.0485 -0.1311
vn 0.9880 -0.0894 -0.1257
vn -0.0160 -0.3743 -0.9272
vn -0.0629 0.1537 -0.9861
vn -0.0405 0.1520 -0.9875
vn -0.9996 0.0164 -0.0242
vn -0.9992 0.0188 -0.0343
vn -0.9991 0.0041 -0.0414
vn -0.9992 -0.0059 -0.0393
vn -0.9994 -0.0170 -0.0293
vn -0.9995 -0.0120 -0.0279
vn -0.0095 0.0000 -1.0000
vn -0.0094 0.0000 -1.0000
vn 0.0070 0.0000 -1.0000
vn 0.0162 0.0000 -0.9999
vn 0.0269 0.0000 -0.9996
vn 0.0270 0.0000 -0.9996
vn 0.0334 0.0000 -0.9994
vn 0.0497 0.0000 -0.9988
vn 0.0498 0.0000 -0.9988
vn -0.9996 0.0240 0.0142
vn -0.9996 0.0269 0.0044
vn -0.9996 0.0268 0.0049
vn -0.9995 0.0103 0.0288
vn -0.9996 0.0293 -0.0039
vn -0.9994 0.0293 -0.0185
vn -0.9996 -0.0262 0.0043
vn -0.9995 -0.0261 0.0167
vn -0.9994 -0.0122 0.0313
vn -0.9997 -0.0251 -0.0030
vn -0.9996 -0.0230 -0.0150
vn -0.9997 -0.0247 -0.0051
vn -0.9993 0.0051 0.0383
vn -0.9995 0.0175 0.0278
vn -0.9994 -0.0187 0.0302
vn -0.9993 -0.0073 0.0376
vn -0.0241 0.0000 -0.9997
vn -0.7640 0.1351 0.6309
vn -0.7066 0.1619 0.6888
vn -0.3385 0.0097 0.9409
vn -0.3622 0.0000 0.9321
vn -0.0445 0.9638 0.2629
vn -0.0130 0.9598 0.2805
vn -0.0418 0.9774 0.2074
vn 0.0629 0.0000 -0.9980
vn -0.0016 -0.9912 -0.1322
vn 0.0084 -0.9911 -0.1326
vn -0.0288 -0.9979 -0.0581
vn 0.0076 0.9996 0.0268
vn 0.0109 0.6831 0.7302
vn 0.0100 0.7159 -0.6981
vn 0.0077 -0.0530 -0.9986
vn -0.0015 -0.7090 -0.7052
vn 0.0011 -0.9976 -0.0691
vn -0.0168 -0.7077 0.7063
vn -0.0153 -0.0037 0.9999
vn 0.9996 0.0171 0.0211
vn 0.9996 0.0281 -0.0001
vn 0.9996 0.0283 0.0046
vn 0.9996 0.0256 0.0148
vn 0.9996 0.0196 -0.0196
vn 0.9996 0.0255 -0.0151
vn 0.9996 0.0279 -0.0050
vn 0.9995 -0.0011 -0.0314
vn 0.9995 0.0042 -0.0326
vn 0.9995 0.0139 -0.0278
vn 0.9996 -0.0180 -0.0198
vn 0.9995 -0.0147 -0.0265
vn 0.9994 -0.0056 -0.0329
vn 0.9997 -0.0264 -0.0006
vn 0.9996 -0.0263 -0.0055
vn 0.9996 -0.0231 -0.0154
vn 0.9996 -0.0201 0.0202
vn 0.9995 -0.0260 0.0155
vn 0.9996 -0.0261 0.0059
vn 0.9995 0.0000 0.0302
vn 0.9995 -0.0057 0.0309
vn 0.9994 -0.0169 0.0286
vn 0.9995 0.0146 0.0266
vn 0.9996 0.0044 0.0295
vn 0.1267 0.9796 0.1558
vn 0.1335 0.9797 0.1495
vn 0.1106 0.8404 0.5306
vn 0.1099 0.8490 0.5169
vn 0.0930 0.4905 0.8665
vn 0.0931 0.4903 0.8666
vn 0.0631 0.1260 0.9900
vn 0.0571 0.1205 0.9911
vn 0.0600 -0.1817 0.9815
vn 0.0548 -0.1686 0.9842
vn 0.0879 -0.5188 0.8504
vn 0.0924 -0.5183 0.8502
vn 0.1010 -0.8180 0.5663
vn 0.1060 -0.8131 0.5724
vn 0.0892 -0.9764 0.1967
vn 0.0897 -0.9745 0.2057
vn 0.0734 -0.8166 -0.5725
vn 0.0794 -0.9775 -0.1956
vn 0.0728 -0.9778 -0.1967
vn 0.0684 -0.7992 -0.5971
vn 0.0870 -0.1437 -0.9858
vn 0.0883 -0.4756 -0.8752
vn 0.0819 -0.4576 -0.8854
vn 0.0802 -0.1322 -0.9880
vn 0.0586 0.4615 -0.8852
vn 0.0753 0.0967 -0.9925
vn 0.0683 0.1053 -0.9921
vn 0.0577 0.4601 -0.8860
vn 0.0702 0.8312 -0.5516
vn 0.0636 0.8250 -0.5615
vn 0.1156 0.9801 -0.1615
vn 0.1223 0.9796 -0.1592
vn -0.8601 0.0000 0.5102
vn -0.8606 0.0140 0.5090
# 191 vertex normals

vt 0.1950 0.2012 0.0000
vt 0.3185 0.3185 0.0000
vt 0.2996 0.3370 0.0000
vt 0.1756 0.2202 0.0000
vt 0.4411 0.4365 0.0000
vt 0.4212 0.4562 0.0000
vt 0.5633 0.5548 0.0000
vt 0.5411 0.5770 0.0000
vt 0.6844 0.6745 0.0000
vt 0.6616 0.6973 0.0000
vt 0.8050 0.7948 0.0000
vt 0.7812 0.8185 0.0000
vt 0.9387 0.9307 0.0000
vt 0.9156 0.9537 0.0000
vt 0.7987 0.3585 0.0000
vt 0.6386 0.2238 0.0000
vt 0.6574 0.1983 0.0000
vt 0.8242 0.3251 0.0000
vt 0.4712 0.0955 0.0000
vt 0.4913 0.0685 0.0000
vt 0.2760 0.3601 0.0000
vt 0.1526 0.2422 0.0000
vt 0.3990 0.4781 0.0000
vt 0.5219 0.5962 0.0000
vt 0.6434 0.7154 0.0000
vt 0.7644 0.8352 0.0000
vt 0.8947 0.9744 0.0000
vt 0.6848 0.1611 0.0000
vt 0.8459 0.2971 0.0000
vt 0.5289 0.0290 0.0000
vt 0.1970 0.1994 0.0000
vt 0.2135 0.1806 0.0000
vt 0.3379 0.2972 0.0000
vt 0.3206 0.3165 0.0000
vt 0.4611 0.4151 0.0000
vt 0.4435 0.4342 0.0000
vt 0.5861 0.5308 0.0000
vt 0.5655 0.5526 0.0000
vt 0.7080 0.6502 0.0000
vt 0.6864 0.6724 0.0000
vt 0.8290 0.7703 0.0000
vt 0.8072 0.7925 0.0000
vt 0.9651 0.9038 0.0000
vt 0.9436 0.9256 0.0000
vt 0.7637 0.4009 0.0000
vt 0.7311 0.4362 0.0000
vt 0.5781 0.2942 0.0000
vt 0.6042 0.2665 0.0000
vt 0.4248 0.1505 0.0000
vt 0.4374 0.1364 0.0000
vt 0.2344 0.1564 0.0000
vt 0.3591 0.2730 0.0000
vt 0.4829 0.3908 0.0000
vt 0.6057 0.5098 0.0000
vt 0.7270 0.6305 0.0000
vt 0.8476 0.7512 0.0000
vt 0.9866 0.8818 0.0000
vt 0.6967 0.4725 0.0000
vt 0.5358 0.3377 0.0000
vt 0.3984 0.1892 0.0000
vt 0.7800 0.3817 0.0000
vt 0.6184 0.2487 0.0000
vt 0.4521 0.1200 0.0000
vt 0.3781 0.1661 0.0000
vt 0.3291 0.1819 0.0000
vt 0.3290 0.1467 0.0000
vt 0.4080 0.1183 0.0000
vt 0.3291 0.0281 0.0000
vt 0.3869 0.0272 0.0000
vt 0.3012 0.1611 0.0000
vt 0.2924 0.1334 0.0000
vt 0.3019 0.0555 0.0000
vt 0.3595 0.2303 0.0000
vt 0.3828 0.2060 0.0000
vt 0.5253 0.3494 0.0000
vt 0.5007 0.3772 0.0000
vt 0.6819 0.4890 0.0000
vt 0.6571 0.5176 0.0000
vt 0.1748 0.5779 0.0000
vt 0.1810 0.4977 0.0000
vt 0.2272 0.5241 0.0000
vt 0.2666 0.5615 0.0000
vt 0.2915 0.6003 0.0000
vt 0.1945 0.5962 0.0000
vt 0.7014 0.8240 0.0000
vt 0.6964 0.8295 0.0000
vt 0.5987 0.7324 0.0000
vt 0.6046 0.7268 0.0000
vt 0.5087 0.6283 0.0000
vt 0.5147 0.6227 0.0000
vt 0.4149 0.5281 0.0000
vt 0.4207 0.5218 0.0000
vt 0.3095 0.4406 0.0000
vt 0.3143 0.4341 0.0000
vt 0.1972 0.3618 0.0000
vt 0.2015 0.3550 0.0000
vt 0.0110 0.6242 0.0000
vt 0.0379 0.5650 0.0000
vt 0.1375 0.6211 0.0000
vt 0.1139 0.6799 0.0000
vt 0.0742 0.5266 0.0000
vt 0.1319 0.4967 0.0000
vt 0.2399 0.7511 0.0000
vt 0.1812 0.7779 0.0000
vt 0.1239 0.6892 0.0000
vt 0.1690 0.6502 0.0000
vt 0.2973 0.6502 0.0000
vt 0.2748 0.7132 0.0000
vt 0.0444 0.7218 0.0000
vt 0.0143 0.6734 0.0000
vt 0.1303 0.7779 0.0000
vt 0.0846 0.7571 0.0000
vt 0.8232 0.9173 0.0000
vt 0.8163 0.9260 0.0000
vt 0.0914 0.2366 0.0000
vt 0.1040 0.2299 0.0000
vt 0.1603 0.2989 0.0000
vt 0.1567 0.3015 0.0000
vt 0.0513 0.1048 0.0000
vt 0.1004 0.1109 0.0000
vt 0.0154 0.1134 0.0000
vt 0.0672 0.2842 0.0000
vt 0.0713 0.2773 0.0000
vt 0.0918 0.0627 0.0000
vt 0.0994 0.0256 0.0000
vt 0.1022 0.1092 0.0000
vt 0.9494 0.4271 0.0000
vt 0.9232 0.4608 0.0000
vt 0.9734 0.3964 0.0000
vt 0.8038 0.5938 0.0000
vt 0.7803 0.6211 0.0000
vt 0.8228 0.5723 0.0000
vt 0.8500 0.5435 0.0000
vt 0.8785 0.5128 0.0000
vt 0.9011 0.4875 0.0000
vt 0.4389 0.8936 0.0000
vt 0.4319 0.8282 0.0000
vt 0.5029 0.8299 0.0000
vt 0.5065 0.8911 0.0000
vt 0.3984 0.7771 0.0000
vt 0.4444 0.7316 0.0000
vt 0.4838 0.7803 0.0000
vt 0.3419 0.7835 0.0000
vt 0.3463 0.7219 0.0000
vt 0.3992 0.7140 0.0000
vt 0.3083 0.8137 0.0000
vt 0.2593 0.7693 0.0000
vt 0.2961 0.7425 0.0000
vt 0.3083 0.8754 0.0000
vt 0.2343 0.8763 0.0000
vt 0.2360 0.8138 0.0000
vt 0.3442 0.9286 0.0000
vt 0.2957 0.9686 0.0000
vt 0.2529 0.9244 0.0000
vt 0.3943 0.9207 0.0000
vt 0.3902 0.9873 0.0000
vt 0.3431 0.9882 0.0000
vt 0.4857 0.9358 0.0000
vt 0.4405 0.9699 0.0000
vt 0.2256 0.4532 0.0000
vt 0.2144 0.4733 0.0000
vt 0.1756 0.4490 0.0000
vt 0.1889 0.4303 0.0000
vt 0.5608 0.8524 0.0000
vt 0.5398 0.8615 0.0000
vt 0.5254 0.8239 0.0000
vt 0.5464 0.8150 0.0000
vt 0.5332 0.7797 0.0000
vt 0.5122 0.7888 0.0000
vt 0.4996 0.7562 0.0000
vt 0.5208 0.7482 0.0000
vt 0.5069 0.7140 0.0000
vt 0.4861 0.7239 0.0000
vt 0.4677 0.6834 0.0000
vt 0.4880 0.6736 0.0000
vt 0.4432 0.6034 0.0000
vt 0.4696 0.6406 0.0000
vt 0.4506 0.6530 0.0000
vt 0.4242 0.6160 0.0000
vt 0.3934 0.5533 0.0000
vt 0.4185 0.5758 0.0000
vt 0.4015 0.5910 0.0000
vt 0.3782 0.5704 0.0000
vt 0.3280 0.5101 0.0000
vt 0.3612 0.5301 0.0000
vt 0.3480 0.5488 0.0000
vt 0.3166 0.5299 0.0000
vt 0.2974 0.4932 0.0000
vt 0.2867 0.5135 0.0000
vt 0.2468 0.4917 0.0000
vt 0.2584 0.4720 0.0000
vt 0.0391 0.1921 0.0000
vt 0.0536 0.1804 0.0000
vt 0.1471 0.4290 0.0000
vt 0.1604 0.4104 0.0000
# 195 texture coords

g headusOBJexport
usemtl default
s 1
f 1/1/1 2/2/2 3/3/3 
f 3/3/3 4/4/4 1/1/1 
f 2/2/2 5/5/5 6/6/6 
f 6/6/6 3/3/3 2/2/2 
f 5/5/5 7/7/7 8/8/8 
f 8/8/8 6/6/6 5/5/5 
f 7/7/7 9/9/9 10/10/10 
f 10/10/10 8/8/8 7/7/7 
f 9/9/9 11/11/11 12/12/12 
f 12/12/12 10/10/10 9/9/9 
f 13/13/13 14/14/14 12/12/12 
f 12/12/12 11/11/11 13/13/13 
f 15/15/15 16/16/16 17/17/17 
f 17/17/17 18/18/18 15/15/15 
f 16/16/16 19/19/19 20/20/20 
f 20/20/20 17/17/17 16/16/16 
f 4/4/4 3/3/3 21/21/21 
f 21/21/21 22/22/22 4/4/4 
f 3/3/3 6/6/6 23/23/23 
f 23/23/23 21/21/21 3/3/3 
f 6/6/6 8/8/8 24/24/24 
f 24/24/24 23/23/23 6/6/6 
f 8/8/8 10/10/10 25/25/25 
f 25/25/25 24/24/24 8/8/8 
f 10/10/10 12/12/12 26/26/26 
f 26/26/26 25/25/25 10/10/10 
f 14/14/14 27/27/27 26/26/26 
f 26/26/26 12/12/12 14/14/14 
f 18/18/18 17/17/17 28/28/28 
f 28/28/28 29/29/29 18/18/18 
f 17/17/17 20/20/20 30/30/30 
f 30/30/30 28/28/28 17/17/17 
f 31/31/31 32/32/32 33/33/33 
f 33/33/33 34/34/34 31/31/31 
f 34/34/34 33/33/33 35/35/35 
f 35/35/35 36/36/36 34/34/34 
f 36/36/36 35/35/35 37/37/37 
f 37/37/37 38/38/38 36/36/36 
f 38/38/38 37/37/37 39/39/39 
f 39/39/39 40/40/40 38/38/38 
f 40/40/40 39/39/39 41/41/41 
f 41/41/41 42/42/42 40/40/40 
f 41/41/41 43/43/43 44/44/44 
f 44/44/44 42/42/42 41/41/41 
f 45/45/45 46/46/46 47/47/47 
f 47/47/47 48/48/48 45/45/45 
f 48/48/48 47/47/47 49/49/49 
f 49/49/49 50/50/50 48/48/48 
f 32/32/32 51/51/51 52/52/52 
f 52/52/52 33/33/33 32/32/32 
f 33/33/33 52/52/52 53/53/53 
f 53/53/53 35/35/35 33/33/33 
f 35/35/35 53/53/53 54/54/54 
f 54/54/54 37/37/37 35/35/35 
f 37/37/37 54/54/54 55/55/55 
f 55/55/55 39/39/39 37/37/37 
f 39/39/39 55/55/55 56/56/56 
f 56/56/56 41/41/41 39/39/39 
f 56/56/56 57/57/57 43/43/43 
f 43/43/43 41/41/41 56/56/56 
f 46/46/46 58/58/58 59/59/59 
f 59/59/59 47/47/47 46/46/46 
f 47/47/47 59/59/59 60/60/60 
f 60/60/60 49/49/49 47/47/47 
f 15/15/15 61/61/61 62/62/62 
f 62/62/62 16/16/16 15/15/15 
f 16/16/16 62/62/62 63/63/63 
f 63/63/63 19/19/19 16/16/16 
s 2
f 1/1/64 31/31/64 34/34/65 
f 34/34/65 2/2/65 1/1/64 
f 2/2/65 34/34/65 36/36/66 
f 36/36/66 5/5/66 2/2/65 
f 5/5/66 36/36/66 38/38/67 
f 38/38/67 7/7/67 5/5/66 
f 7/7/67 38/38/67 40/40/68 
f 40/40/68 9/9/68 7/7/67 
f 9/9/68 40/40/68 42/42/69 
f 42/42/69 11/11/69 9/9/68 
f 42/42/69 44/44/70 13/13/70 
f 13/13/70 11/11/69 42/42/69 
s 1
f 61/61/61 45/45/45 48/48/48 
f 48/48/48 62/62/62 61/61/61 
f 62/62/62 48/48/48 50/50/50 
f 50/50/50 63/63/63 62/62/62 
s 2
f 19/64/71 63/65/72 64/66/73 
f 64/66/73 20/67/74 19/64/71 
f 20/67/74 64/66/73 65/68/75 
f 65/68/75 30/69/76 20/67/74 
f 64/66/73 63/65/72 50/70/77 
f 50/70/77 49/71/78 64/66/73 
f 64/66/73 49/71/78 60/72/79 
f 60/72/79 65/68/75 64/66/73 
s 1
f 30/73/30 65/74/80 66/75/81 
f 66/75/81 28/76/28 30/73/30 
f 28/76/28 66/75/81 67/77/82 
f 67/77/82 29/78/29 28/76/28 
s 4
f 27/79/83 68/80/84 69/81/85 
s 1
f 65/74/80 60/60/60 59/59/59 
f 59/59/59 66/75/81 65/74/80 
f 66/75/81 59/59/59 58/58/58 
f 58/58/58 67/77/82 66/75/81 
s 4
f 70/82/86 71/83/87 57/84/88 
f 57/84/88 27/79/83 70/82/86 
s 8
f 26/85/89 56/86/90 55/87/91 
f 55/87/91 25/88/91 26/85/89 
f 25/88/91 55/87/91 54/89/92 
f 54/89/92 24/90/92 25/88/91 
f 24/90/92 54/89/92 53/91/93 
f 53/91/93 23/92/94 24/90/92 
f 23/92/94 53/91/93 52/93/95 
f 52/93/95 21/94/95 23/92/94 
f 21/94/95 52/93/95 51/95/96 
f 51/95/96 22/96/97 21/94/95 
s 4
f 72/97/98 73/98/99 14/99/100 
f 14/99/100 13/100/101 72/97/98 
f 74/101/102 75/102/103 27/79/83 
f 27/79/83 14/99/100 74/101/102 
f 76/103/104 77/104/105 44/105/106 
f 44/105/106 43/106/107 76/103/104 
f 78/107/108 79/108/109 43/106/107 
f 43/106/107 57/84/88 78/107/108 
f 13/100/101 80/109/110 81/110/111 
f 82/111/112 83/112/113 13/100/101 
f 13/100/101 44/105/106 82/111/112 
s 8
f 56/86/90 26/85/89 27/113/114 
f 27/113/114 57/114/114 56/86/90 
s 2
f 84/115/115 85/116/116 86/117/117 
f 86/117/117 87/118/118 84/115/115 
s 1
f 1/1/1 4/4/4 84/119/119 
f 84/119/119 87/120/120 1/1/1 
f 4/4/4 22/22/22 88/121/121 
f 88/121/121 84/119/119 4/4/4 
s 8
f 22/96/97 51/95/96 89/122/122 
f 89/122/122 88/123/122 22/96/97 
s 1
f 51/51/51 32/32/32 85/124/123 
f 85/124/123 89/125/124 51/51/51 
f 32/32/32 31/31/31 86/126/125 
f 86/126/125 85/124/123 32/32/32 
s 2
f 31/31/64 1/1/64 87/120/118 
f 87/120/118 86/126/117 31/31/64 
s 1
f 15/15/15 18/18/18 90/127/126 
f 90/127/126 91/128/127 15/15/15 
f 18/18/18 29/29/29 92/129/128 
f 92/129/128 90/127/126 18/18/18 
f 29/78/29 67/77/82 93/130/129 
f 93/130/129 92/131/128 29/78/29 
f 67/77/82 58/58/58 94/132/130 
f 94/132/130 93/130/129 67/77/82 
f 58/58/58 46/46/46 95/133/131 
f 95/133/131 94/132/130 58/58/58 
f 46/46/46 45/45/45 96/134/132 
f 96/134/132 95/133/131 46/46/46 
f 45/45/45 61/61/61 97/135/133 
f 97/135/133 96/134/132 45/45/45 
f 61/61/61 15/15/15 91/128/127 
f 91/128/127 97/135/133 61/61/61 
s 2
f 91/136/134 90/137/135 98/138/136 
f 98/138/136 99/139/137 91/136/134 
f 90/137/135 92/140/138 100/141/139 
f 100/141/139 101/142/140 90/137/135 
f 92/140/138 93/143/141 102/144/142 
f 102/144/142 103/145/143 92/140/138 
f 93/143/141 94/146/144 104/147/145 
f 104/147/145 105/148/146 93/143/141 
f 94/146/144 95/149/147 106/150/148 
f 106/150/148 107/151/149 94/146/144 
f 95/149/147 96/152/150 108/153/151 
f 108/153/151 109/154/152 95/149/147 
f 96/152/150 97/155/153 110/156/154 
f 110/156/154 111/157/155 96/152/150 
f 97/155/153 91/136/134 112/158/156 
f 112/158/156 113/159/157 97/155/153 
s 1
f 98/160/158 73/161/159 72/162/160 
f 72/162/160 99/163/161 98/160/158 
f 112/164/162 81/165/163 80/166/164 
f 80/166/164 113/167/165 112/164/162 
f 110/168/166 83/169/167 82/170/168 
f 82/170/168 111/171/169 110/168/166 
f 108/172/170 77/173/171 76/174/172 
f 76/174/172 109/175/173 108/172/170 
f 107/176/174 106/177/175 79/178/176 
f 79/178/176 78/179/177 107/176/174 
f 105/180/178 104/181/179 71/182/180 
f 71/182/180 70/183/181 105/180/178 
f 103/184/182 102/185/183 69/186/184 
f 69/186/184 68/187/185 103/184/182 
f 100/188/186 75/189/187 74/190/188 
f 74/190/188 101/191/189 100/188/186 
s 2
f 84/115/115 88/192/190 89/193/191 
f 89/193/191 85/116/116 84/115/115 
s 4
f 72/97/98 13/100/101 81/110/111 
s 2
f 112/158/156 91/136/134 99/139/137 
s 1
f 72/162/160 81/194/163 112/195/162 
f 112/195/162 99/163/161 72/162/160 
s 4
f 83/112/113 80/109/110 13/100/101 
s 2
f 110/156/154 97/155/153 113/159/157 
s 1
f 80/166/164 83/169/167 110/168/166 
f 110/168/166 113/167/165 80/166/164 
s 4
f 77/104/105 82/111/112 44/105/106 
s 2
f 108/153/151 96/152/150 111/157/155 
s 1
f 82/170/168 77/173/171 108/172/170 
f 108/172/170 111/171/169 82/170/168 
s 4
f 76/103/104 43/106/107 79/108/109 
s 2
f 106/150/148 95/149/147 109/154/152 
s 1
f 76/174/172 79/178/176 106/177/175 
f 106/177/175 109/175/173 76/174/172 
s 4
f 71/83/87 78/107/108 57/84/88 
s 2
f 104/147/145 94/146/144 107/151/149 
s 1
f 78/179/177 71/182/180 104/181/179 
f 104/181/179 107/176/174 78/179/177 
s 4
f 69/81/85 70/82/86 27/79/83 
s 2
f 102/144/142 93/143/141 105/148/146 
s 1
f 70/183/181 69/186/184 102/185/183 
f 102/185/183 105/180/178 70/183/181 
s 4
f 75/102/103 68/80/84 27/79/83 
s 2
f 100/141/139 92/140/138 103/145/143 
s 1
f 68/187/185 75/189/187 100/188/186 
f 100/188/186 103/184/182 68/187/185 
s 4
f 73/98/99 74/101/102 14/99/100 
s 2
f 98/138/136 90/137/135 101/142/140 
s 1
f 98/160/158 101/191/189 74/190/188 
f 74/190/188 73/161/159 98/160/158 
# 0 polygons - 222 triangles

